G04 #@! TF.GenerationSoftware,KiCad,Pcbnew,8.0.0*
G04 #@! TF.CreationDate,2024-03-29T12:15:46-04:00*
G04 #@! TF.ProjectId,ecg_board,6563675f-626f-4617-9264-2e6b69636164,rev?*
G04 #@! TF.SameCoordinates,Original*
G04 #@! TF.FileFunction,Legend,Top*
G04 #@! TF.FilePolarity,Positive*
%FSLAX46Y46*%
G04 Gerber Fmt 4.6, Leading zero omitted, Abs format (unit mm)*
G04 Created by KiCad (PCBNEW 8.0.0) date 2024-03-29 12:15:46*
%MOMM*%
%LPD*%
G01*
G04 APERTURE LIST*
G04 Aperture macros list*
%AMRoundRect*
0 Rectangle with rounded corners*
0 $1 Rounding radius*
0 $2 $3 $4 $5 $6 $7 $8 $9 X,Y pos of 4 corners*
0 Add a 4 corners polygon primitive as box body*
4,1,4,$2,$3,$4,$5,$6,$7,$8,$9,$2,$3,0*
0 Add four circle primitives for the rounded corners*
1,1,$1+$1,$2,$3*
1,1,$1+$1,$4,$5*
1,1,$1+$1,$6,$7*
1,1,$1+$1,$8,$9*
0 Add four rect primitives between the rounded corners*
20,1,$1+$1,$2,$3,$4,$5,0*
20,1,$1+$1,$4,$5,$6,$7,0*
20,1,$1+$1,$6,$7,$8,$9,0*
20,1,$1+$1,$8,$9,$2,$3,0*%
G04 Aperture macros list end*
%ADD10C,0.200000*%
%ADD11C,0.250000*%
%ADD12C,0.375000*%
%ADD13C,0.100000*%
%ADD14C,0.150000*%
%ADD15C,0.120000*%
%ADD16C,0.203200*%
%ADD17C,0.254000*%
%ADD18R,0.700000X1.500000*%
%ADD19R,1.000000X0.800000*%
%ADD20C,0.900000*%
%ADD21RoundRect,0.750000X-1.750000X-0.750000X1.750000X-0.750000X1.750000X0.750000X-1.750000X0.750000X0*%
%ADD22RoundRect,0.200000X0.200000X0.275000X-0.200000X0.275000X-0.200000X-0.275000X0.200000X-0.275000X0*%
%ADD23RoundRect,0.200000X-0.275000X0.200000X-0.275000X-0.200000X0.275000X-0.200000X0.275000X0.200000X0*%
%ADD24RoundRect,0.200000X0.275000X-0.200000X0.275000X0.200000X-0.275000X0.200000X-0.275000X-0.200000X0*%
%ADD25RoundRect,0.225000X0.250000X-0.225000X0.250000X0.225000X-0.250000X0.225000X-0.250000X-0.225000X0*%
%ADD26RoundRect,0.225000X-0.225000X-0.250000X0.225000X-0.250000X0.225000X0.250000X-0.225000X0.250000X0*%
%ADD27RoundRect,0.250000X0.250000X0.475000X-0.250000X0.475000X-0.250000X-0.475000X0.250000X-0.475000X0*%
%ADD28RoundRect,0.150000X-0.150000X0.587500X-0.150000X-0.587500X0.150000X-0.587500X0.150000X0.587500X0*%
%ADD29RoundRect,0.225000X-0.250000X0.225000X-0.250000X-0.225000X0.250000X-0.225000X0.250000X0.225000X0*%
%ADD30RoundRect,0.225000X0.225000X0.250000X-0.225000X0.250000X-0.225000X-0.250000X0.225000X-0.250000X0*%
%ADD31RoundRect,0.200000X-0.200000X-0.275000X0.200000X-0.275000X0.200000X0.275000X-0.200000X0.275000X0*%
%ADD32RoundRect,0.250000X-0.250000X-0.475000X0.250000X-0.475000X0.250000X0.475000X-0.250000X0.475000X0*%
%ADD33RoundRect,0.150000X-0.150000X0.512500X-0.150000X-0.512500X0.150000X-0.512500X0.150000X0.512500X0*%
%ADD34RoundRect,0.102000X-0.125000X-0.250000X0.125000X-0.250000X0.125000X0.250000X-0.125000X0.250000X0*%
%ADD35RoundRect,0.102000X0.250000X-0.125000X0.250000X0.125000X-0.250000X0.125000X-0.250000X-0.125000X0*%
%ADD36RoundRect,0.102000X0.125000X0.250000X-0.125000X0.250000X-0.125000X-0.250000X0.125000X-0.250000X0*%
%ADD37RoundRect,0.102000X-0.250000X0.125000X-0.250000X-0.125000X0.250000X-0.125000X0.250000X0.125000X0*%
%ADD38RoundRect,0.351520X1.000480X-1.000480X1.000480X1.000480X-1.000480X1.000480X-1.000480X-1.000480X0*%
%ADD39R,1.500000X0.900000*%
%ADD40R,0.900000X1.500000*%
%ADD41C,0.600000*%
%ADD42R,3.900000X3.900000*%
%ADD43RoundRect,0.150000X-0.512500X-0.150000X0.512500X-0.150000X0.512500X0.150000X-0.512500X0.150000X0*%
%ADD44RoundRect,0.250000X-0.475000X0.250000X-0.475000X-0.250000X0.475000X-0.250000X0.475000X0.250000X0*%
%ADD45RoundRect,0.093750X0.156250X0.093750X-0.156250X0.093750X-0.156250X-0.093750X0.156250X-0.093750X0*%
%ADD46RoundRect,0.075000X0.250000X0.075000X-0.250000X0.075000X-0.250000X-0.075000X0.250000X-0.075000X0*%
%ADD47C,0.999997*%
%ADD48RoundRect,0.102000X0.650000X0.350000X-0.650000X0.350000X-0.650000X-0.350000X0.650000X-0.350000X0*%
%ADD49RoundRect,0.102000X0.825500X0.723900X-0.825500X0.723900X-0.825500X-0.723900X0.825500X-0.723900X0*%
%ADD50RoundRect,0.102000X1.219200X0.723900X-1.219200X0.723900X-1.219200X-0.723900X1.219200X-0.723900X0*%
%ADD51RoundRect,0.102000X0.825500X0.927100X-0.825500X0.927100X-0.825500X-0.927100X0.825500X-0.927100X0*%
%ADD52C,0.650000*%
%ADD53RoundRect,0.150000X0.150000X0.500000X-0.150000X0.500000X-0.150000X-0.500000X0.150000X-0.500000X0*%
%ADD54RoundRect,0.075000X0.075000X0.575000X-0.075000X0.575000X-0.075000X-0.575000X0.075000X-0.575000X0*%
%ADD55O,1.000000X2.100000*%
%ADD56O,1.000000X1.600000*%
G04 APERTURE END LIST*
D10*
X94500000Y-71000000D02*
X122000000Y-71000000D01*
X122000000Y-111000000D01*
X94500000Y-111000000D01*
X94500000Y-71000000D01*
D11*
X104196615Y-90517714D02*
X104410901Y-90589142D01*
X104410901Y-90589142D02*
X104482330Y-90660571D01*
X104482330Y-90660571D02*
X104553758Y-90803428D01*
X104553758Y-90803428D02*
X104553758Y-91017714D01*
X104553758Y-91017714D02*
X104482330Y-91160571D01*
X104482330Y-91160571D02*
X104410901Y-91232000D01*
X104410901Y-91232000D02*
X104268044Y-91303428D01*
X104268044Y-91303428D02*
X103696615Y-91303428D01*
X103696615Y-91303428D02*
X103696615Y-89803428D01*
X103696615Y-89803428D02*
X104196615Y-89803428D01*
X104196615Y-89803428D02*
X104339473Y-89874857D01*
X104339473Y-89874857D02*
X104410901Y-89946285D01*
X104410901Y-89946285D02*
X104482330Y-90089142D01*
X104482330Y-90089142D02*
X104482330Y-90232000D01*
X104482330Y-90232000D02*
X104410901Y-90374857D01*
X104410901Y-90374857D02*
X104339473Y-90446285D01*
X104339473Y-90446285D02*
X104196615Y-90517714D01*
X104196615Y-90517714D02*
X103696615Y-90517714D01*
X105125187Y-90874857D02*
X105839473Y-90874857D01*
X104982330Y-91303428D02*
X105482330Y-89803428D01*
X105482330Y-89803428D02*
X105982330Y-91303428D01*
X106268044Y-89803428D02*
X107125187Y-89803428D01*
X106696615Y-91303428D02*
X106696615Y-89803428D01*
X107410901Y-89803428D02*
X108268044Y-89803428D01*
X107839472Y-91303428D02*
X107839472Y-89803428D01*
X108768043Y-90517714D02*
X109268043Y-90517714D01*
X109482329Y-91303428D02*
X108768043Y-91303428D01*
X108768043Y-91303428D02*
X108768043Y-89803428D01*
X108768043Y-89803428D02*
X109482329Y-89803428D01*
X110982329Y-91303428D02*
X110482329Y-90589142D01*
X110125186Y-91303428D02*
X110125186Y-89803428D01*
X110125186Y-89803428D02*
X110696615Y-89803428D01*
X110696615Y-89803428D02*
X110839472Y-89874857D01*
X110839472Y-89874857D02*
X110910901Y-89946285D01*
X110910901Y-89946285D02*
X110982329Y-90089142D01*
X110982329Y-90089142D02*
X110982329Y-90303428D01*
X110982329Y-90303428D02*
X110910901Y-90446285D01*
X110910901Y-90446285D02*
X110839472Y-90517714D01*
X110839472Y-90517714D02*
X110696615Y-90589142D01*
X110696615Y-90589142D02*
X110125186Y-90589142D01*
X111910901Y-90589142D02*
X111910901Y-91303428D01*
X111410901Y-89803428D02*
X111910901Y-90589142D01*
X111910901Y-90589142D02*
X112410901Y-89803428D01*
D12*
X116928571Y-66103000D02*
X118071429Y-66103000D01*
X98428571Y-66103000D02*
X99571429Y-66103000D01*
X99000000Y-66674428D02*
X99000000Y-65531571D01*
D13*
X173591666Y-70981109D02*
X173425000Y-70743014D01*
X173305952Y-70981109D02*
X173305952Y-70481109D01*
X173305952Y-70481109D02*
X173496428Y-70481109D01*
X173496428Y-70481109D02*
X173544047Y-70504919D01*
X173544047Y-70504919D02*
X173567857Y-70528728D01*
X173567857Y-70528728D02*
X173591666Y-70576347D01*
X173591666Y-70576347D02*
X173591666Y-70647776D01*
X173591666Y-70647776D02*
X173567857Y-70695395D01*
X173567857Y-70695395D02*
X173544047Y-70719204D01*
X173544047Y-70719204D02*
X173496428Y-70743014D01*
X173496428Y-70743014D02*
X173305952Y-70743014D01*
X174020238Y-70481109D02*
X173925000Y-70481109D01*
X173925000Y-70481109D02*
X173877381Y-70504919D01*
X173877381Y-70504919D02*
X173853571Y-70528728D01*
X173853571Y-70528728D02*
X173805952Y-70600157D01*
X173805952Y-70600157D02*
X173782143Y-70695395D01*
X173782143Y-70695395D02*
X173782143Y-70885871D01*
X173782143Y-70885871D02*
X173805952Y-70933490D01*
X173805952Y-70933490D02*
X173829762Y-70957300D01*
X173829762Y-70957300D02*
X173877381Y-70981109D01*
X173877381Y-70981109D02*
X173972619Y-70981109D01*
X173972619Y-70981109D02*
X174020238Y-70957300D01*
X174020238Y-70957300D02*
X174044047Y-70933490D01*
X174044047Y-70933490D02*
X174067857Y-70885871D01*
X174067857Y-70885871D02*
X174067857Y-70766823D01*
X174067857Y-70766823D02*
X174044047Y-70719204D01*
X174044047Y-70719204D02*
X174020238Y-70695395D01*
X174020238Y-70695395D02*
X173972619Y-70671585D01*
X173972619Y-70671585D02*
X173877381Y-70671585D01*
X173877381Y-70671585D02*
X173829762Y-70695395D01*
X173829762Y-70695395D02*
X173805952Y-70719204D01*
X173805952Y-70719204D02*
X173782143Y-70766823D01*
X171401109Y-67908333D02*
X171163014Y-68074999D01*
X171401109Y-68194047D02*
X170901109Y-68194047D01*
X170901109Y-68194047D02*
X170901109Y-68003571D01*
X170901109Y-68003571D02*
X170924919Y-67955952D01*
X170924919Y-67955952D02*
X170948728Y-67932142D01*
X170948728Y-67932142D02*
X170996347Y-67908333D01*
X170996347Y-67908333D02*
X171067776Y-67908333D01*
X171067776Y-67908333D02*
X171115395Y-67932142D01*
X171115395Y-67932142D02*
X171139204Y-67955952D01*
X171139204Y-67955952D02*
X171163014Y-68003571D01*
X171163014Y-68003571D02*
X171163014Y-68194047D01*
X170901109Y-67741666D02*
X170901109Y-67408333D01*
X170901109Y-67408333D02*
X171401109Y-67622618D01*
X179428571Y-81726109D02*
X179261905Y-81488014D01*
X179142857Y-81726109D02*
X179142857Y-81226109D01*
X179142857Y-81226109D02*
X179333333Y-81226109D01*
X179333333Y-81226109D02*
X179380952Y-81249919D01*
X179380952Y-81249919D02*
X179404762Y-81273728D01*
X179404762Y-81273728D02*
X179428571Y-81321347D01*
X179428571Y-81321347D02*
X179428571Y-81392776D01*
X179428571Y-81392776D02*
X179404762Y-81440395D01*
X179404762Y-81440395D02*
X179380952Y-81464204D01*
X179380952Y-81464204D02*
X179333333Y-81488014D01*
X179333333Y-81488014D02*
X179142857Y-81488014D01*
X179904762Y-81726109D02*
X179619048Y-81726109D01*
X179761905Y-81726109D02*
X179761905Y-81226109D01*
X179761905Y-81226109D02*
X179714286Y-81297538D01*
X179714286Y-81297538D02*
X179666667Y-81345157D01*
X179666667Y-81345157D02*
X179619048Y-81368966D01*
X180357142Y-81226109D02*
X180119047Y-81226109D01*
X180119047Y-81226109D02*
X180095238Y-81464204D01*
X180095238Y-81464204D02*
X180119047Y-81440395D01*
X180119047Y-81440395D02*
X180166666Y-81416585D01*
X180166666Y-81416585D02*
X180285714Y-81416585D01*
X180285714Y-81416585D02*
X180333333Y-81440395D01*
X180333333Y-81440395D02*
X180357142Y-81464204D01*
X180357142Y-81464204D02*
X180380952Y-81511823D01*
X180380952Y-81511823D02*
X180380952Y-81630871D01*
X180380952Y-81630871D02*
X180357142Y-81678490D01*
X180357142Y-81678490D02*
X180333333Y-81702300D01*
X180333333Y-81702300D02*
X180285714Y-81726109D01*
X180285714Y-81726109D02*
X180166666Y-81726109D01*
X180166666Y-81726109D02*
X180119047Y-81702300D01*
X180119047Y-81702300D02*
X180095238Y-81678490D01*
X165928490Y-64571428D02*
X165952300Y-64595237D01*
X165952300Y-64595237D02*
X165976109Y-64666666D01*
X165976109Y-64666666D02*
X165976109Y-64714285D01*
X165976109Y-64714285D02*
X165952300Y-64785713D01*
X165952300Y-64785713D02*
X165904680Y-64833332D01*
X165904680Y-64833332D02*
X165857061Y-64857142D01*
X165857061Y-64857142D02*
X165761823Y-64880951D01*
X165761823Y-64880951D02*
X165690395Y-64880951D01*
X165690395Y-64880951D02*
X165595157Y-64857142D01*
X165595157Y-64857142D02*
X165547538Y-64833332D01*
X165547538Y-64833332D02*
X165499919Y-64785713D01*
X165499919Y-64785713D02*
X165476109Y-64714285D01*
X165476109Y-64714285D02*
X165476109Y-64666666D01*
X165476109Y-64666666D02*
X165499919Y-64595237D01*
X165499919Y-64595237D02*
X165523728Y-64571428D01*
X165976109Y-64095237D02*
X165976109Y-64380951D01*
X165976109Y-64238094D02*
X165476109Y-64238094D01*
X165476109Y-64238094D02*
X165547538Y-64285713D01*
X165547538Y-64285713D02*
X165595157Y-64333332D01*
X165595157Y-64333332D02*
X165618966Y-64380951D01*
X165476109Y-63928571D02*
X165476109Y-63595238D01*
X165476109Y-63595238D02*
X165976109Y-63809523D01*
X183866666Y-75178490D02*
X183842857Y-75202300D01*
X183842857Y-75202300D02*
X183771428Y-75226109D01*
X183771428Y-75226109D02*
X183723809Y-75226109D01*
X183723809Y-75226109D02*
X183652381Y-75202300D01*
X183652381Y-75202300D02*
X183604762Y-75154680D01*
X183604762Y-75154680D02*
X183580952Y-75107061D01*
X183580952Y-75107061D02*
X183557143Y-75011823D01*
X183557143Y-75011823D02*
X183557143Y-74940395D01*
X183557143Y-74940395D02*
X183580952Y-74845157D01*
X183580952Y-74845157D02*
X183604762Y-74797538D01*
X183604762Y-74797538D02*
X183652381Y-74749919D01*
X183652381Y-74749919D02*
X183723809Y-74726109D01*
X183723809Y-74726109D02*
X183771428Y-74726109D01*
X183771428Y-74726109D02*
X183842857Y-74749919D01*
X183842857Y-74749919D02*
X183866666Y-74773728D01*
X184295238Y-74726109D02*
X184200000Y-74726109D01*
X184200000Y-74726109D02*
X184152381Y-74749919D01*
X184152381Y-74749919D02*
X184128571Y-74773728D01*
X184128571Y-74773728D02*
X184080952Y-74845157D01*
X184080952Y-74845157D02*
X184057143Y-74940395D01*
X184057143Y-74940395D02*
X184057143Y-75130871D01*
X184057143Y-75130871D02*
X184080952Y-75178490D01*
X184080952Y-75178490D02*
X184104762Y-75202300D01*
X184104762Y-75202300D02*
X184152381Y-75226109D01*
X184152381Y-75226109D02*
X184247619Y-75226109D01*
X184247619Y-75226109D02*
X184295238Y-75202300D01*
X184295238Y-75202300D02*
X184319047Y-75178490D01*
X184319047Y-75178490D02*
X184342857Y-75130871D01*
X184342857Y-75130871D02*
X184342857Y-75011823D01*
X184342857Y-75011823D02*
X184319047Y-74964204D01*
X184319047Y-74964204D02*
X184295238Y-74940395D01*
X184295238Y-74940395D02*
X184247619Y-74916585D01*
X184247619Y-74916585D02*
X184152381Y-74916585D01*
X184152381Y-74916585D02*
X184104762Y-74940395D01*
X184104762Y-74940395D02*
X184080952Y-74964204D01*
X184080952Y-74964204D02*
X184057143Y-75011823D01*
X185401109Y-66646428D02*
X185163014Y-66813094D01*
X185401109Y-66932142D02*
X184901109Y-66932142D01*
X184901109Y-66932142D02*
X184901109Y-66741666D01*
X184901109Y-66741666D02*
X184924919Y-66694047D01*
X184924919Y-66694047D02*
X184948728Y-66670237D01*
X184948728Y-66670237D02*
X184996347Y-66646428D01*
X184996347Y-66646428D02*
X185067776Y-66646428D01*
X185067776Y-66646428D02*
X185115395Y-66670237D01*
X185115395Y-66670237D02*
X185139204Y-66694047D01*
X185139204Y-66694047D02*
X185163014Y-66741666D01*
X185163014Y-66741666D02*
X185163014Y-66932142D01*
X185401109Y-66170237D02*
X185401109Y-66455951D01*
X185401109Y-66313094D02*
X184901109Y-66313094D01*
X184901109Y-66313094D02*
X184972538Y-66360713D01*
X184972538Y-66360713D02*
X185020157Y-66408332D01*
X185020157Y-66408332D02*
X185043966Y-66455951D01*
X184901109Y-65860714D02*
X184901109Y-65813095D01*
X184901109Y-65813095D02*
X184924919Y-65765476D01*
X184924919Y-65765476D02*
X184948728Y-65741666D01*
X184948728Y-65741666D02*
X184996347Y-65717857D01*
X184996347Y-65717857D02*
X185091585Y-65694047D01*
X185091585Y-65694047D02*
X185210633Y-65694047D01*
X185210633Y-65694047D02*
X185305871Y-65717857D01*
X185305871Y-65717857D02*
X185353490Y-65741666D01*
X185353490Y-65741666D02*
X185377300Y-65765476D01*
X185377300Y-65765476D02*
X185401109Y-65813095D01*
X185401109Y-65813095D02*
X185401109Y-65860714D01*
X185401109Y-65860714D02*
X185377300Y-65908333D01*
X185377300Y-65908333D02*
X185353490Y-65932142D01*
X185353490Y-65932142D02*
X185305871Y-65955952D01*
X185305871Y-65955952D02*
X185210633Y-65979761D01*
X185210633Y-65979761D02*
X185091585Y-65979761D01*
X185091585Y-65979761D02*
X184996347Y-65955952D01*
X184996347Y-65955952D02*
X184948728Y-65932142D01*
X184948728Y-65932142D02*
X184924919Y-65908333D01*
X184924919Y-65908333D02*
X184901109Y-65860714D01*
X181333571Y-81726109D02*
X181166905Y-81488014D01*
X181047857Y-81726109D02*
X181047857Y-81226109D01*
X181047857Y-81226109D02*
X181238333Y-81226109D01*
X181238333Y-81226109D02*
X181285952Y-81249919D01*
X181285952Y-81249919D02*
X181309762Y-81273728D01*
X181309762Y-81273728D02*
X181333571Y-81321347D01*
X181333571Y-81321347D02*
X181333571Y-81392776D01*
X181333571Y-81392776D02*
X181309762Y-81440395D01*
X181309762Y-81440395D02*
X181285952Y-81464204D01*
X181285952Y-81464204D02*
X181238333Y-81488014D01*
X181238333Y-81488014D02*
X181047857Y-81488014D01*
X181809762Y-81726109D02*
X181524048Y-81726109D01*
X181666905Y-81726109D02*
X181666905Y-81226109D01*
X181666905Y-81226109D02*
X181619286Y-81297538D01*
X181619286Y-81297538D02*
X181571667Y-81345157D01*
X181571667Y-81345157D02*
X181524048Y-81368966D01*
X182095476Y-81440395D02*
X182047857Y-81416585D01*
X182047857Y-81416585D02*
X182024047Y-81392776D01*
X182024047Y-81392776D02*
X182000238Y-81345157D01*
X182000238Y-81345157D02*
X182000238Y-81321347D01*
X182000238Y-81321347D02*
X182024047Y-81273728D01*
X182024047Y-81273728D02*
X182047857Y-81249919D01*
X182047857Y-81249919D02*
X182095476Y-81226109D01*
X182095476Y-81226109D02*
X182190714Y-81226109D01*
X182190714Y-81226109D02*
X182238333Y-81249919D01*
X182238333Y-81249919D02*
X182262142Y-81273728D01*
X182262142Y-81273728D02*
X182285952Y-81321347D01*
X182285952Y-81321347D02*
X182285952Y-81345157D01*
X182285952Y-81345157D02*
X182262142Y-81392776D01*
X182262142Y-81392776D02*
X182238333Y-81416585D01*
X182238333Y-81416585D02*
X182190714Y-81440395D01*
X182190714Y-81440395D02*
X182095476Y-81440395D01*
X182095476Y-81440395D02*
X182047857Y-81464204D01*
X182047857Y-81464204D02*
X182024047Y-81488014D01*
X182024047Y-81488014D02*
X182000238Y-81535633D01*
X182000238Y-81535633D02*
X182000238Y-81630871D01*
X182000238Y-81630871D02*
X182024047Y-81678490D01*
X182024047Y-81678490D02*
X182047857Y-81702300D01*
X182047857Y-81702300D02*
X182095476Y-81726109D01*
X182095476Y-81726109D02*
X182190714Y-81726109D01*
X182190714Y-81726109D02*
X182238333Y-81702300D01*
X182238333Y-81702300D02*
X182262142Y-81678490D01*
X182262142Y-81678490D02*
X182285952Y-81630871D01*
X182285952Y-81630871D02*
X182285952Y-81535633D01*
X182285952Y-81535633D02*
X182262142Y-81488014D01*
X182262142Y-81488014D02*
X182238333Y-81464204D01*
X182238333Y-81464204D02*
X182190714Y-81440395D01*
X139216071Y-75728490D02*
X139192262Y-75752300D01*
X139192262Y-75752300D02*
X139120833Y-75776109D01*
X139120833Y-75776109D02*
X139073214Y-75776109D01*
X139073214Y-75776109D02*
X139001786Y-75752300D01*
X139001786Y-75752300D02*
X138954167Y-75704680D01*
X138954167Y-75704680D02*
X138930357Y-75657061D01*
X138930357Y-75657061D02*
X138906548Y-75561823D01*
X138906548Y-75561823D02*
X138906548Y-75490395D01*
X138906548Y-75490395D02*
X138930357Y-75395157D01*
X138930357Y-75395157D02*
X138954167Y-75347538D01*
X138954167Y-75347538D02*
X139001786Y-75299919D01*
X139001786Y-75299919D02*
X139073214Y-75276109D01*
X139073214Y-75276109D02*
X139120833Y-75276109D01*
X139120833Y-75276109D02*
X139192262Y-75299919D01*
X139192262Y-75299919D02*
X139216071Y-75323728D01*
X139692262Y-75776109D02*
X139406548Y-75776109D01*
X139549405Y-75776109D02*
X139549405Y-75276109D01*
X139549405Y-75276109D02*
X139501786Y-75347538D01*
X139501786Y-75347538D02*
X139454167Y-75395157D01*
X139454167Y-75395157D02*
X139406548Y-75418966D01*
X139858928Y-75276109D02*
X140168452Y-75276109D01*
X140168452Y-75276109D02*
X140001785Y-75466585D01*
X140001785Y-75466585D02*
X140073214Y-75466585D01*
X140073214Y-75466585D02*
X140120833Y-75490395D01*
X140120833Y-75490395D02*
X140144642Y-75514204D01*
X140144642Y-75514204D02*
X140168452Y-75561823D01*
X140168452Y-75561823D02*
X140168452Y-75680871D01*
X140168452Y-75680871D02*
X140144642Y-75728490D01*
X140144642Y-75728490D02*
X140120833Y-75752300D01*
X140120833Y-75752300D02*
X140073214Y-75776109D01*
X140073214Y-75776109D02*
X139930357Y-75776109D01*
X139930357Y-75776109D02*
X139882738Y-75752300D01*
X139882738Y-75752300D02*
X139858928Y-75728490D01*
X133663609Y-73419047D02*
X133163609Y-73419047D01*
X133163609Y-73419047D02*
X133163609Y-73299999D01*
X133163609Y-73299999D02*
X133187419Y-73228571D01*
X133187419Y-73228571D02*
X133235038Y-73180952D01*
X133235038Y-73180952D02*
X133282657Y-73157142D01*
X133282657Y-73157142D02*
X133377895Y-73133333D01*
X133377895Y-73133333D02*
X133449323Y-73133333D01*
X133449323Y-73133333D02*
X133544561Y-73157142D01*
X133544561Y-73157142D02*
X133592180Y-73180952D01*
X133592180Y-73180952D02*
X133639800Y-73228571D01*
X133639800Y-73228571D02*
X133663609Y-73299999D01*
X133663609Y-73299999D02*
X133663609Y-73419047D01*
X133663609Y-72657142D02*
X133663609Y-72942856D01*
X133663609Y-72799999D02*
X133163609Y-72799999D01*
X133163609Y-72799999D02*
X133235038Y-72847618D01*
X133235038Y-72847618D02*
X133282657Y-72895237D01*
X133282657Y-72895237D02*
X133306466Y-72942856D01*
X191401109Y-72971428D02*
X191163014Y-73138094D01*
X191401109Y-73257142D02*
X190901109Y-73257142D01*
X190901109Y-73257142D02*
X190901109Y-73066666D01*
X190901109Y-73066666D02*
X190924919Y-73019047D01*
X190924919Y-73019047D02*
X190948728Y-72995237D01*
X190948728Y-72995237D02*
X190996347Y-72971428D01*
X190996347Y-72971428D02*
X191067776Y-72971428D01*
X191067776Y-72971428D02*
X191115395Y-72995237D01*
X191115395Y-72995237D02*
X191139204Y-73019047D01*
X191139204Y-73019047D02*
X191163014Y-73066666D01*
X191163014Y-73066666D02*
X191163014Y-73257142D01*
X191401109Y-72495237D02*
X191401109Y-72780951D01*
X191401109Y-72638094D02*
X190901109Y-72638094D01*
X190901109Y-72638094D02*
X190972538Y-72685713D01*
X190972538Y-72685713D02*
X191020157Y-72733332D01*
X191020157Y-72733332D02*
X191043966Y-72780951D01*
X190901109Y-72328571D02*
X190901109Y-72019047D01*
X190901109Y-72019047D02*
X191091585Y-72185714D01*
X191091585Y-72185714D02*
X191091585Y-72114285D01*
X191091585Y-72114285D02*
X191115395Y-72066666D01*
X191115395Y-72066666D02*
X191139204Y-72042857D01*
X191139204Y-72042857D02*
X191186823Y-72019047D01*
X191186823Y-72019047D02*
X191305871Y-72019047D01*
X191305871Y-72019047D02*
X191353490Y-72042857D01*
X191353490Y-72042857D02*
X191377300Y-72066666D01*
X191377300Y-72066666D02*
X191401109Y-72114285D01*
X191401109Y-72114285D02*
X191401109Y-72257142D01*
X191401109Y-72257142D02*
X191377300Y-72304761D01*
X191377300Y-72304761D02*
X191353490Y-72328571D01*
X173028490Y-67908333D02*
X173052300Y-67932142D01*
X173052300Y-67932142D02*
X173076109Y-68003571D01*
X173076109Y-68003571D02*
X173076109Y-68051190D01*
X173076109Y-68051190D02*
X173052300Y-68122618D01*
X173052300Y-68122618D02*
X173004680Y-68170237D01*
X173004680Y-68170237D02*
X172957061Y-68194047D01*
X172957061Y-68194047D02*
X172861823Y-68217856D01*
X172861823Y-68217856D02*
X172790395Y-68217856D01*
X172790395Y-68217856D02*
X172695157Y-68194047D01*
X172695157Y-68194047D02*
X172647538Y-68170237D01*
X172647538Y-68170237D02*
X172599919Y-68122618D01*
X172599919Y-68122618D02*
X172576109Y-68051190D01*
X172576109Y-68051190D02*
X172576109Y-68003571D01*
X172576109Y-68003571D02*
X172599919Y-67932142D01*
X172599919Y-67932142D02*
X172623728Y-67908333D01*
X172576109Y-67741666D02*
X172576109Y-67432142D01*
X172576109Y-67432142D02*
X172766585Y-67598809D01*
X172766585Y-67598809D02*
X172766585Y-67527380D01*
X172766585Y-67527380D02*
X172790395Y-67479761D01*
X172790395Y-67479761D02*
X172814204Y-67455952D01*
X172814204Y-67455952D02*
X172861823Y-67432142D01*
X172861823Y-67432142D02*
X172980871Y-67432142D01*
X172980871Y-67432142D02*
X173028490Y-67455952D01*
X173028490Y-67455952D02*
X173052300Y-67479761D01*
X173052300Y-67479761D02*
X173076109Y-67527380D01*
X173076109Y-67527380D02*
X173076109Y-67670237D01*
X173076109Y-67670237D02*
X173052300Y-67717856D01*
X173052300Y-67717856D02*
X173028490Y-67741666D01*
X144156109Y-66746428D02*
X143918014Y-66913094D01*
X144156109Y-67032142D02*
X143656109Y-67032142D01*
X143656109Y-67032142D02*
X143656109Y-66841666D01*
X143656109Y-66841666D02*
X143679919Y-66794047D01*
X143679919Y-66794047D02*
X143703728Y-66770237D01*
X143703728Y-66770237D02*
X143751347Y-66746428D01*
X143751347Y-66746428D02*
X143822776Y-66746428D01*
X143822776Y-66746428D02*
X143870395Y-66770237D01*
X143870395Y-66770237D02*
X143894204Y-66794047D01*
X143894204Y-66794047D02*
X143918014Y-66841666D01*
X143918014Y-66841666D02*
X143918014Y-67032142D01*
X143703728Y-66555951D02*
X143679919Y-66532142D01*
X143679919Y-66532142D02*
X143656109Y-66484523D01*
X143656109Y-66484523D02*
X143656109Y-66365475D01*
X143656109Y-66365475D02*
X143679919Y-66317856D01*
X143679919Y-66317856D02*
X143703728Y-66294047D01*
X143703728Y-66294047D02*
X143751347Y-66270237D01*
X143751347Y-66270237D02*
X143798966Y-66270237D01*
X143798966Y-66270237D02*
X143870395Y-66294047D01*
X143870395Y-66294047D02*
X144156109Y-66579761D01*
X144156109Y-66579761D02*
X144156109Y-66270237D01*
X143822776Y-65841666D02*
X144156109Y-65841666D01*
X143632300Y-65960714D02*
X143989442Y-66079761D01*
X143989442Y-66079761D02*
X143989442Y-65770238D01*
X177353571Y-81726109D02*
X177186905Y-81488014D01*
X177067857Y-81726109D02*
X177067857Y-81226109D01*
X177067857Y-81226109D02*
X177258333Y-81226109D01*
X177258333Y-81226109D02*
X177305952Y-81249919D01*
X177305952Y-81249919D02*
X177329762Y-81273728D01*
X177329762Y-81273728D02*
X177353571Y-81321347D01*
X177353571Y-81321347D02*
X177353571Y-81392776D01*
X177353571Y-81392776D02*
X177329762Y-81440395D01*
X177329762Y-81440395D02*
X177305952Y-81464204D01*
X177305952Y-81464204D02*
X177258333Y-81488014D01*
X177258333Y-81488014D02*
X177067857Y-81488014D01*
X177829762Y-81726109D02*
X177544048Y-81726109D01*
X177686905Y-81726109D02*
X177686905Y-81226109D01*
X177686905Y-81226109D02*
X177639286Y-81297538D01*
X177639286Y-81297538D02*
X177591667Y-81345157D01*
X177591667Y-81345157D02*
X177544048Y-81368966D01*
X178258333Y-81226109D02*
X178163095Y-81226109D01*
X178163095Y-81226109D02*
X178115476Y-81249919D01*
X178115476Y-81249919D02*
X178091666Y-81273728D01*
X178091666Y-81273728D02*
X178044047Y-81345157D01*
X178044047Y-81345157D02*
X178020238Y-81440395D01*
X178020238Y-81440395D02*
X178020238Y-81630871D01*
X178020238Y-81630871D02*
X178044047Y-81678490D01*
X178044047Y-81678490D02*
X178067857Y-81702300D01*
X178067857Y-81702300D02*
X178115476Y-81726109D01*
X178115476Y-81726109D02*
X178210714Y-81726109D01*
X178210714Y-81726109D02*
X178258333Y-81702300D01*
X178258333Y-81702300D02*
X178282142Y-81678490D01*
X178282142Y-81678490D02*
X178305952Y-81630871D01*
X178305952Y-81630871D02*
X178305952Y-81511823D01*
X178305952Y-81511823D02*
X178282142Y-81464204D01*
X178282142Y-81464204D02*
X178258333Y-81440395D01*
X178258333Y-81440395D02*
X178210714Y-81416585D01*
X178210714Y-81416585D02*
X178115476Y-81416585D01*
X178115476Y-81416585D02*
X178067857Y-81440395D01*
X178067857Y-81440395D02*
X178044047Y-81464204D01*
X178044047Y-81464204D02*
X178020238Y-81511823D01*
X173091666Y-76481109D02*
X172925000Y-76243014D01*
X172805952Y-76481109D02*
X172805952Y-75981109D01*
X172805952Y-75981109D02*
X172996428Y-75981109D01*
X172996428Y-75981109D02*
X173044047Y-76004919D01*
X173044047Y-76004919D02*
X173067857Y-76028728D01*
X173067857Y-76028728D02*
X173091666Y-76076347D01*
X173091666Y-76076347D02*
X173091666Y-76147776D01*
X173091666Y-76147776D02*
X173067857Y-76195395D01*
X173067857Y-76195395D02*
X173044047Y-76219204D01*
X173044047Y-76219204D02*
X172996428Y-76243014D01*
X172996428Y-76243014D02*
X172805952Y-76243014D01*
X173258333Y-75981109D02*
X173567857Y-75981109D01*
X173567857Y-75981109D02*
X173401190Y-76171585D01*
X173401190Y-76171585D02*
X173472619Y-76171585D01*
X173472619Y-76171585D02*
X173520238Y-76195395D01*
X173520238Y-76195395D02*
X173544047Y-76219204D01*
X173544047Y-76219204D02*
X173567857Y-76266823D01*
X173567857Y-76266823D02*
X173567857Y-76385871D01*
X173567857Y-76385871D02*
X173544047Y-76433490D01*
X173544047Y-76433490D02*
X173520238Y-76457300D01*
X173520238Y-76457300D02*
X173472619Y-76481109D01*
X173472619Y-76481109D02*
X173329762Y-76481109D01*
X173329762Y-76481109D02*
X173282143Y-76457300D01*
X173282143Y-76457300D02*
X173258333Y-76433490D01*
X176091666Y-67328490D02*
X176067857Y-67352300D01*
X176067857Y-67352300D02*
X175996428Y-67376109D01*
X175996428Y-67376109D02*
X175948809Y-67376109D01*
X175948809Y-67376109D02*
X175877381Y-67352300D01*
X175877381Y-67352300D02*
X175829762Y-67304680D01*
X175829762Y-67304680D02*
X175805952Y-67257061D01*
X175805952Y-67257061D02*
X175782143Y-67161823D01*
X175782143Y-67161823D02*
X175782143Y-67090395D01*
X175782143Y-67090395D02*
X175805952Y-66995157D01*
X175805952Y-66995157D02*
X175829762Y-66947538D01*
X175829762Y-66947538D02*
X175877381Y-66899919D01*
X175877381Y-66899919D02*
X175948809Y-66876109D01*
X175948809Y-66876109D02*
X175996428Y-66876109D01*
X175996428Y-66876109D02*
X176067857Y-66899919D01*
X176067857Y-66899919D02*
X176091666Y-66923728D01*
X176282143Y-66923728D02*
X176305952Y-66899919D01*
X176305952Y-66899919D02*
X176353571Y-66876109D01*
X176353571Y-66876109D02*
X176472619Y-66876109D01*
X176472619Y-66876109D02*
X176520238Y-66899919D01*
X176520238Y-66899919D02*
X176544047Y-66923728D01*
X176544047Y-66923728D02*
X176567857Y-66971347D01*
X176567857Y-66971347D02*
X176567857Y-67018966D01*
X176567857Y-67018966D02*
X176544047Y-67090395D01*
X176544047Y-67090395D02*
X176258333Y-67376109D01*
X176258333Y-67376109D02*
X176567857Y-67376109D01*
X178416666Y-75178490D02*
X178392857Y-75202300D01*
X178392857Y-75202300D02*
X178321428Y-75226109D01*
X178321428Y-75226109D02*
X178273809Y-75226109D01*
X178273809Y-75226109D02*
X178202381Y-75202300D01*
X178202381Y-75202300D02*
X178154762Y-75154680D01*
X178154762Y-75154680D02*
X178130952Y-75107061D01*
X178130952Y-75107061D02*
X178107143Y-75011823D01*
X178107143Y-75011823D02*
X178107143Y-74940395D01*
X178107143Y-74940395D02*
X178130952Y-74845157D01*
X178130952Y-74845157D02*
X178154762Y-74797538D01*
X178154762Y-74797538D02*
X178202381Y-74749919D01*
X178202381Y-74749919D02*
X178273809Y-74726109D01*
X178273809Y-74726109D02*
X178321428Y-74726109D01*
X178321428Y-74726109D02*
X178392857Y-74749919D01*
X178392857Y-74749919D02*
X178416666Y-74773728D01*
X178892857Y-75226109D02*
X178607143Y-75226109D01*
X178750000Y-75226109D02*
X178750000Y-74726109D01*
X178750000Y-74726109D02*
X178702381Y-74797538D01*
X178702381Y-74797538D02*
X178654762Y-74845157D01*
X178654762Y-74845157D02*
X178607143Y-74868966D01*
X136626109Y-81371428D02*
X136388014Y-81538094D01*
X136626109Y-81657142D02*
X136126109Y-81657142D01*
X136126109Y-81657142D02*
X136126109Y-81466666D01*
X136126109Y-81466666D02*
X136149919Y-81419047D01*
X136149919Y-81419047D02*
X136173728Y-81395237D01*
X136173728Y-81395237D02*
X136221347Y-81371428D01*
X136221347Y-81371428D02*
X136292776Y-81371428D01*
X136292776Y-81371428D02*
X136340395Y-81395237D01*
X136340395Y-81395237D02*
X136364204Y-81419047D01*
X136364204Y-81419047D02*
X136388014Y-81466666D01*
X136388014Y-81466666D02*
X136388014Y-81657142D01*
X136173728Y-81180951D02*
X136149919Y-81157142D01*
X136149919Y-81157142D02*
X136126109Y-81109523D01*
X136126109Y-81109523D02*
X136126109Y-80990475D01*
X136126109Y-80990475D02*
X136149919Y-80942856D01*
X136149919Y-80942856D02*
X136173728Y-80919047D01*
X136173728Y-80919047D02*
X136221347Y-80895237D01*
X136221347Y-80895237D02*
X136268966Y-80895237D01*
X136268966Y-80895237D02*
X136340395Y-80919047D01*
X136340395Y-80919047D02*
X136626109Y-81204761D01*
X136626109Y-81204761D02*
X136626109Y-80895237D01*
X136126109Y-80466666D02*
X136126109Y-80561904D01*
X136126109Y-80561904D02*
X136149919Y-80609523D01*
X136149919Y-80609523D02*
X136173728Y-80633333D01*
X136173728Y-80633333D02*
X136245157Y-80680952D01*
X136245157Y-80680952D02*
X136340395Y-80704761D01*
X136340395Y-80704761D02*
X136530871Y-80704761D01*
X136530871Y-80704761D02*
X136578490Y-80680952D01*
X136578490Y-80680952D02*
X136602300Y-80657142D01*
X136602300Y-80657142D02*
X136626109Y-80609523D01*
X136626109Y-80609523D02*
X136626109Y-80514285D01*
X136626109Y-80514285D02*
X136602300Y-80466666D01*
X136602300Y-80466666D02*
X136578490Y-80442857D01*
X136578490Y-80442857D02*
X136530871Y-80419047D01*
X136530871Y-80419047D02*
X136411823Y-80419047D01*
X136411823Y-80419047D02*
X136364204Y-80442857D01*
X136364204Y-80442857D02*
X136340395Y-80466666D01*
X136340395Y-80466666D02*
X136316585Y-80514285D01*
X136316585Y-80514285D02*
X136316585Y-80609523D01*
X136316585Y-80609523D02*
X136340395Y-80657142D01*
X136340395Y-80657142D02*
X136364204Y-80680952D01*
X136364204Y-80680952D02*
X136411823Y-80704761D01*
X179091666Y-64551109D02*
X178925000Y-64313014D01*
X178805952Y-64551109D02*
X178805952Y-64051109D01*
X178805952Y-64051109D02*
X178996428Y-64051109D01*
X178996428Y-64051109D02*
X179044047Y-64074919D01*
X179044047Y-64074919D02*
X179067857Y-64098728D01*
X179067857Y-64098728D02*
X179091666Y-64146347D01*
X179091666Y-64146347D02*
X179091666Y-64217776D01*
X179091666Y-64217776D02*
X179067857Y-64265395D01*
X179067857Y-64265395D02*
X179044047Y-64289204D01*
X179044047Y-64289204D02*
X178996428Y-64313014D01*
X178996428Y-64313014D02*
X178805952Y-64313014D01*
X179377381Y-64265395D02*
X179329762Y-64241585D01*
X179329762Y-64241585D02*
X179305952Y-64217776D01*
X179305952Y-64217776D02*
X179282143Y-64170157D01*
X179282143Y-64170157D02*
X179282143Y-64146347D01*
X179282143Y-64146347D02*
X179305952Y-64098728D01*
X179305952Y-64098728D02*
X179329762Y-64074919D01*
X179329762Y-64074919D02*
X179377381Y-64051109D01*
X179377381Y-64051109D02*
X179472619Y-64051109D01*
X179472619Y-64051109D02*
X179520238Y-64074919D01*
X179520238Y-64074919D02*
X179544047Y-64098728D01*
X179544047Y-64098728D02*
X179567857Y-64146347D01*
X179567857Y-64146347D02*
X179567857Y-64170157D01*
X179567857Y-64170157D02*
X179544047Y-64217776D01*
X179544047Y-64217776D02*
X179520238Y-64241585D01*
X179520238Y-64241585D02*
X179472619Y-64265395D01*
X179472619Y-64265395D02*
X179377381Y-64265395D01*
X179377381Y-64265395D02*
X179329762Y-64289204D01*
X179329762Y-64289204D02*
X179305952Y-64313014D01*
X179305952Y-64313014D02*
X179282143Y-64360633D01*
X179282143Y-64360633D02*
X179282143Y-64455871D01*
X179282143Y-64455871D02*
X179305952Y-64503490D01*
X179305952Y-64503490D02*
X179329762Y-64527300D01*
X179329762Y-64527300D02*
X179377381Y-64551109D01*
X179377381Y-64551109D02*
X179472619Y-64551109D01*
X179472619Y-64551109D02*
X179520238Y-64527300D01*
X179520238Y-64527300D02*
X179544047Y-64503490D01*
X179544047Y-64503490D02*
X179567857Y-64455871D01*
X179567857Y-64455871D02*
X179567857Y-64360633D01*
X179567857Y-64360633D02*
X179544047Y-64313014D01*
X179544047Y-64313014D02*
X179520238Y-64289204D01*
X179520238Y-64289204D02*
X179472619Y-64265395D01*
X128716071Y-77048490D02*
X128692262Y-77072300D01*
X128692262Y-77072300D02*
X128620833Y-77096109D01*
X128620833Y-77096109D02*
X128573214Y-77096109D01*
X128573214Y-77096109D02*
X128501786Y-77072300D01*
X128501786Y-77072300D02*
X128454167Y-77024680D01*
X128454167Y-77024680D02*
X128430357Y-76977061D01*
X128430357Y-76977061D02*
X128406548Y-76881823D01*
X128406548Y-76881823D02*
X128406548Y-76810395D01*
X128406548Y-76810395D02*
X128430357Y-76715157D01*
X128430357Y-76715157D02*
X128454167Y-76667538D01*
X128454167Y-76667538D02*
X128501786Y-76619919D01*
X128501786Y-76619919D02*
X128573214Y-76596109D01*
X128573214Y-76596109D02*
X128620833Y-76596109D01*
X128620833Y-76596109D02*
X128692262Y-76619919D01*
X128692262Y-76619919D02*
X128716071Y-76643728D01*
X129192262Y-77096109D02*
X128906548Y-77096109D01*
X129049405Y-77096109D02*
X129049405Y-76596109D01*
X129049405Y-76596109D02*
X129001786Y-76667538D01*
X129001786Y-76667538D02*
X128954167Y-76715157D01*
X128954167Y-76715157D02*
X128906548Y-76738966D01*
X129382738Y-76643728D02*
X129406547Y-76619919D01*
X129406547Y-76619919D02*
X129454166Y-76596109D01*
X129454166Y-76596109D02*
X129573214Y-76596109D01*
X129573214Y-76596109D02*
X129620833Y-76619919D01*
X129620833Y-76619919D02*
X129644642Y-76643728D01*
X129644642Y-76643728D02*
X129668452Y-76691347D01*
X129668452Y-76691347D02*
X129668452Y-76738966D01*
X129668452Y-76738966D02*
X129644642Y-76810395D01*
X129644642Y-76810395D02*
X129358928Y-77096109D01*
X129358928Y-77096109D02*
X129668452Y-77096109D01*
X178428571Y-76678490D02*
X178404762Y-76702300D01*
X178404762Y-76702300D02*
X178333333Y-76726109D01*
X178333333Y-76726109D02*
X178285714Y-76726109D01*
X178285714Y-76726109D02*
X178214286Y-76702300D01*
X178214286Y-76702300D02*
X178166667Y-76654680D01*
X178166667Y-76654680D02*
X178142857Y-76607061D01*
X178142857Y-76607061D02*
X178119048Y-76511823D01*
X178119048Y-76511823D02*
X178119048Y-76440395D01*
X178119048Y-76440395D02*
X178142857Y-76345157D01*
X178142857Y-76345157D02*
X178166667Y-76297538D01*
X178166667Y-76297538D02*
X178214286Y-76249919D01*
X178214286Y-76249919D02*
X178285714Y-76226109D01*
X178285714Y-76226109D02*
X178333333Y-76226109D01*
X178333333Y-76226109D02*
X178404762Y-76249919D01*
X178404762Y-76249919D02*
X178428571Y-76273728D01*
X178904762Y-76726109D02*
X178619048Y-76726109D01*
X178761905Y-76726109D02*
X178761905Y-76226109D01*
X178761905Y-76226109D02*
X178714286Y-76297538D01*
X178714286Y-76297538D02*
X178666667Y-76345157D01*
X178666667Y-76345157D02*
X178619048Y-76368966D01*
X179333333Y-76226109D02*
X179238095Y-76226109D01*
X179238095Y-76226109D02*
X179190476Y-76249919D01*
X179190476Y-76249919D02*
X179166666Y-76273728D01*
X179166666Y-76273728D02*
X179119047Y-76345157D01*
X179119047Y-76345157D02*
X179095238Y-76440395D01*
X179095238Y-76440395D02*
X179095238Y-76630871D01*
X179095238Y-76630871D02*
X179119047Y-76678490D01*
X179119047Y-76678490D02*
X179142857Y-76702300D01*
X179142857Y-76702300D02*
X179190476Y-76726109D01*
X179190476Y-76726109D02*
X179285714Y-76726109D01*
X179285714Y-76726109D02*
X179333333Y-76702300D01*
X179333333Y-76702300D02*
X179357142Y-76678490D01*
X179357142Y-76678490D02*
X179380952Y-76630871D01*
X179380952Y-76630871D02*
X179380952Y-76511823D01*
X179380952Y-76511823D02*
X179357142Y-76464204D01*
X179357142Y-76464204D02*
X179333333Y-76440395D01*
X179333333Y-76440395D02*
X179285714Y-76416585D01*
X179285714Y-76416585D02*
X179190476Y-76416585D01*
X179190476Y-76416585D02*
X179142857Y-76440395D01*
X179142857Y-76440395D02*
X179119047Y-76464204D01*
X179119047Y-76464204D02*
X179095238Y-76511823D01*
X148916666Y-109178490D02*
X148892857Y-109202300D01*
X148892857Y-109202300D02*
X148821428Y-109226109D01*
X148821428Y-109226109D02*
X148773809Y-109226109D01*
X148773809Y-109226109D02*
X148702381Y-109202300D01*
X148702381Y-109202300D02*
X148654762Y-109154680D01*
X148654762Y-109154680D02*
X148630952Y-109107061D01*
X148630952Y-109107061D02*
X148607143Y-109011823D01*
X148607143Y-109011823D02*
X148607143Y-108940395D01*
X148607143Y-108940395D02*
X148630952Y-108845157D01*
X148630952Y-108845157D02*
X148654762Y-108797538D01*
X148654762Y-108797538D02*
X148702381Y-108749919D01*
X148702381Y-108749919D02*
X148773809Y-108726109D01*
X148773809Y-108726109D02*
X148821428Y-108726109D01*
X148821428Y-108726109D02*
X148892857Y-108749919D01*
X148892857Y-108749919D02*
X148916666Y-108773728D01*
X149154762Y-109226109D02*
X149250000Y-109226109D01*
X149250000Y-109226109D02*
X149297619Y-109202300D01*
X149297619Y-109202300D02*
X149321428Y-109178490D01*
X149321428Y-109178490D02*
X149369047Y-109107061D01*
X149369047Y-109107061D02*
X149392857Y-109011823D01*
X149392857Y-109011823D02*
X149392857Y-108821347D01*
X149392857Y-108821347D02*
X149369047Y-108773728D01*
X149369047Y-108773728D02*
X149345238Y-108749919D01*
X149345238Y-108749919D02*
X149297619Y-108726109D01*
X149297619Y-108726109D02*
X149202381Y-108726109D01*
X149202381Y-108726109D02*
X149154762Y-108749919D01*
X149154762Y-108749919D02*
X149130952Y-108773728D01*
X149130952Y-108773728D02*
X149107143Y-108821347D01*
X149107143Y-108821347D02*
X149107143Y-108940395D01*
X149107143Y-108940395D02*
X149130952Y-108988014D01*
X149130952Y-108988014D02*
X149154762Y-109011823D01*
X149154762Y-109011823D02*
X149202381Y-109035633D01*
X149202381Y-109035633D02*
X149297619Y-109035633D01*
X149297619Y-109035633D02*
X149345238Y-109011823D01*
X149345238Y-109011823D02*
X149369047Y-108988014D01*
X149369047Y-108988014D02*
X149392857Y-108940395D01*
X129161228Y-73097619D02*
X129137419Y-73145238D01*
X129137419Y-73145238D02*
X129089800Y-73192857D01*
X129089800Y-73192857D02*
X129018371Y-73264285D01*
X129018371Y-73264285D02*
X128994561Y-73311904D01*
X128994561Y-73311904D02*
X128994561Y-73359523D01*
X129113609Y-73335714D02*
X129089800Y-73383333D01*
X129089800Y-73383333D02*
X129042180Y-73430952D01*
X129042180Y-73430952D02*
X128946942Y-73454761D01*
X128946942Y-73454761D02*
X128780276Y-73454761D01*
X128780276Y-73454761D02*
X128685038Y-73430952D01*
X128685038Y-73430952D02*
X128637419Y-73383333D01*
X128637419Y-73383333D02*
X128613609Y-73335714D01*
X128613609Y-73335714D02*
X128613609Y-73240476D01*
X128613609Y-73240476D02*
X128637419Y-73192857D01*
X128637419Y-73192857D02*
X128685038Y-73145238D01*
X128685038Y-73145238D02*
X128780276Y-73121428D01*
X128780276Y-73121428D02*
X128946942Y-73121428D01*
X128946942Y-73121428D02*
X129042180Y-73145238D01*
X129042180Y-73145238D02*
X129089800Y-73192857D01*
X129089800Y-73192857D02*
X129113609Y-73240476D01*
X129113609Y-73240476D02*
X129113609Y-73335714D01*
X129113609Y-72645237D02*
X129113609Y-72930951D01*
X129113609Y-72788094D02*
X128613609Y-72788094D01*
X128613609Y-72788094D02*
X128685038Y-72835713D01*
X128685038Y-72835713D02*
X128732657Y-72883332D01*
X128732657Y-72883332D02*
X128756466Y-72930951D01*
X166471109Y-73971428D02*
X166233014Y-74138094D01*
X166471109Y-74257142D02*
X165971109Y-74257142D01*
X165971109Y-74257142D02*
X165971109Y-74066666D01*
X165971109Y-74066666D02*
X165994919Y-74019047D01*
X165994919Y-74019047D02*
X166018728Y-73995237D01*
X166018728Y-73995237D02*
X166066347Y-73971428D01*
X166066347Y-73971428D02*
X166137776Y-73971428D01*
X166137776Y-73971428D02*
X166185395Y-73995237D01*
X166185395Y-73995237D02*
X166209204Y-74019047D01*
X166209204Y-74019047D02*
X166233014Y-74066666D01*
X166233014Y-74066666D02*
X166233014Y-74257142D01*
X166018728Y-73780951D02*
X165994919Y-73757142D01*
X165994919Y-73757142D02*
X165971109Y-73709523D01*
X165971109Y-73709523D02*
X165971109Y-73590475D01*
X165971109Y-73590475D02*
X165994919Y-73542856D01*
X165994919Y-73542856D02*
X166018728Y-73519047D01*
X166018728Y-73519047D02*
X166066347Y-73495237D01*
X166066347Y-73495237D02*
X166113966Y-73495237D01*
X166113966Y-73495237D02*
X166185395Y-73519047D01*
X166185395Y-73519047D02*
X166471109Y-73804761D01*
X166471109Y-73804761D02*
X166471109Y-73495237D01*
X165971109Y-73185714D02*
X165971109Y-73138095D01*
X165971109Y-73138095D02*
X165994919Y-73090476D01*
X165994919Y-73090476D02*
X166018728Y-73066666D01*
X166018728Y-73066666D02*
X166066347Y-73042857D01*
X166066347Y-73042857D02*
X166161585Y-73019047D01*
X166161585Y-73019047D02*
X166280633Y-73019047D01*
X166280633Y-73019047D02*
X166375871Y-73042857D01*
X166375871Y-73042857D02*
X166423490Y-73066666D01*
X166423490Y-73066666D02*
X166447300Y-73090476D01*
X166447300Y-73090476D02*
X166471109Y-73138095D01*
X166471109Y-73138095D02*
X166471109Y-73185714D01*
X166471109Y-73185714D02*
X166447300Y-73233333D01*
X166447300Y-73233333D02*
X166423490Y-73257142D01*
X166423490Y-73257142D02*
X166375871Y-73280952D01*
X166375871Y-73280952D02*
X166280633Y-73304761D01*
X166280633Y-73304761D02*
X166161585Y-73304761D01*
X166161585Y-73304761D02*
X166066347Y-73280952D01*
X166066347Y-73280952D02*
X166018728Y-73257142D01*
X166018728Y-73257142D02*
X165994919Y-73233333D01*
X165994919Y-73233333D02*
X165971109Y-73185714D01*
X169471109Y-73733333D02*
X169233014Y-73899999D01*
X169471109Y-74019047D02*
X168971109Y-74019047D01*
X168971109Y-74019047D02*
X168971109Y-73828571D01*
X168971109Y-73828571D02*
X168994919Y-73780952D01*
X168994919Y-73780952D02*
X169018728Y-73757142D01*
X169018728Y-73757142D02*
X169066347Y-73733333D01*
X169066347Y-73733333D02*
X169137776Y-73733333D01*
X169137776Y-73733333D02*
X169185395Y-73757142D01*
X169185395Y-73757142D02*
X169209204Y-73780952D01*
X169209204Y-73780952D02*
X169233014Y-73828571D01*
X169233014Y-73828571D02*
X169233014Y-74019047D01*
X169137776Y-73304761D02*
X169471109Y-73304761D01*
X168947300Y-73423809D02*
X169304442Y-73542856D01*
X169304442Y-73542856D02*
X169304442Y-73233333D01*
X153826109Y-71033333D02*
X153588014Y-71199999D01*
X153826109Y-71319047D02*
X153326109Y-71319047D01*
X153326109Y-71319047D02*
X153326109Y-71128571D01*
X153326109Y-71128571D02*
X153349919Y-71080952D01*
X153349919Y-71080952D02*
X153373728Y-71057142D01*
X153373728Y-71057142D02*
X153421347Y-71033333D01*
X153421347Y-71033333D02*
X153492776Y-71033333D01*
X153492776Y-71033333D02*
X153540395Y-71057142D01*
X153540395Y-71057142D02*
X153564204Y-71080952D01*
X153564204Y-71080952D02*
X153588014Y-71128571D01*
X153588014Y-71128571D02*
X153588014Y-71319047D01*
X153373728Y-70842856D02*
X153349919Y-70819047D01*
X153349919Y-70819047D02*
X153326109Y-70771428D01*
X153326109Y-70771428D02*
X153326109Y-70652380D01*
X153326109Y-70652380D02*
X153349919Y-70604761D01*
X153349919Y-70604761D02*
X153373728Y-70580952D01*
X153373728Y-70580952D02*
X153421347Y-70557142D01*
X153421347Y-70557142D02*
X153468966Y-70557142D01*
X153468966Y-70557142D02*
X153540395Y-70580952D01*
X153540395Y-70580952D02*
X153826109Y-70866666D01*
X153826109Y-70866666D02*
X153826109Y-70557142D01*
X172226109Y-71333333D02*
X171988014Y-71499999D01*
X172226109Y-71619047D02*
X171726109Y-71619047D01*
X171726109Y-71619047D02*
X171726109Y-71428571D01*
X171726109Y-71428571D02*
X171749919Y-71380952D01*
X171749919Y-71380952D02*
X171773728Y-71357142D01*
X171773728Y-71357142D02*
X171821347Y-71333333D01*
X171821347Y-71333333D02*
X171892776Y-71333333D01*
X171892776Y-71333333D02*
X171940395Y-71357142D01*
X171940395Y-71357142D02*
X171964204Y-71380952D01*
X171964204Y-71380952D02*
X171988014Y-71428571D01*
X171988014Y-71428571D02*
X171988014Y-71619047D01*
X171726109Y-70880952D02*
X171726109Y-71119047D01*
X171726109Y-71119047D02*
X171964204Y-71142856D01*
X171964204Y-71142856D02*
X171940395Y-71119047D01*
X171940395Y-71119047D02*
X171916585Y-71071428D01*
X171916585Y-71071428D02*
X171916585Y-70952380D01*
X171916585Y-70952380D02*
X171940395Y-70904761D01*
X171940395Y-70904761D02*
X171964204Y-70880952D01*
X171964204Y-70880952D02*
X172011823Y-70857142D01*
X172011823Y-70857142D02*
X172130871Y-70857142D01*
X172130871Y-70857142D02*
X172178490Y-70880952D01*
X172178490Y-70880952D02*
X172202300Y-70904761D01*
X172202300Y-70904761D02*
X172226109Y-70952380D01*
X172226109Y-70952380D02*
X172226109Y-71071428D01*
X172226109Y-71071428D02*
X172202300Y-71119047D01*
X172202300Y-71119047D02*
X172178490Y-71142856D01*
X176794047Y-72726109D02*
X176794047Y-73130871D01*
X176794047Y-73130871D02*
X176817857Y-73178490D01*
X176817857Y-73178490D02*
X176841666Y-73202300D01*
X176841666Y-73202300D02*
X176889285Y-73226109D01*
X176889285Y-73226109D02*
X176984523Y-73226109D01*
X176984523Y-73226109D02*
X177032142Y-73202300D01*
X177032142Y-73202300D02*
X177055952Y-73178490D01*
X177055952Y-73178490D02*
X177079761Y-73130871D01*
X177079761Y-73130871D02*
X177079761Y-72726109D01*
X177270238Y-72726109D02*
X177579762Y-72726109D01*
X177579762Y-72726109D02*
X177413095Y-72916585D01*
X177413095Y-72916585D02*
X177484524Y-72916585D01*
X177484524Y-72916585D02*
X177532143Y-72940395D01*
X177532143Y-72940395D02*
X177555952Y-72964204D01*
X177555952Y-72964204D02*
X177579762Y-73011823D01*
X177579762Y-73011823D02*
X177579762Y-73130871D01*
X177579762Y-73130871D02*
X177555952Y-73178490D01*
X177555952Y-73178490D02*
X177532143Y-73202300D01*
X177532143Y-73202300D02*
X177484524Y-73226109D01*
X177484524Y-73226109D02*
X177341667Y-73226109D01*
X177341667Y-73226109D02*
X177294048Y-73202300D01*
X177294048Y-73202300D02*
X177270238Y-73178490D01*
X148948890Y-89809047D02*
X148544128Y-89809047D01*
X148544128Y-89809047D02*
X148496509Y-89832857D01*
X148496509Y-89832857D02*
X148472700Y-89856666D01*
X148472700Y-89856666D02*
X148448890Y-89904285D01*
X148448890Y-89904285D02*
X148448890Y-89999523D01*
X148448890Y-89999523D02*
X148472700Y-90047142D01*
X148472700Y-90047142D02*
X148496509Y-90070952D01*
X148496509Y-90070952D02*
X148544128Y-90094761D01*
X148544128Y-90094761D02*
X148948890Y-90094761D01*
X148448890Y-90594762D02*
X148448890Y-90309048D01*
X148448890Y-90451905D02*
X148948890Y-90451905D01*
X148948890Y-90451905D02*
X148877461Y-90404286D01*
X148877461Y-90404286D02*
X148829842Y-90356667D01*
X148829842Y-90356667D02*
X148806033Y-90309048D01*
X185476109Y-78071428D02*
X185238014Y-78238094D01*
X185476109Y-78357142D02*
X184976109Y-78357142D01*
X184976109Y-78357142D02*
X184976109Y-78166666D01*
X184976109Y-78166666D02*
X184999919Y-78119047D01*
X184999919Y-78119047D02*
X185023728Y-78095237D01*
X185023728Y-78095237D02*
X185071347Y-78071428D01*
X185071347Y-78071428D02*
X185142776Y-78071428D01*
X185142776Y-78071428D02*
X185190395Y-78095237D01*
X185190395Y-78095237D02*
X185214204Y-78119047D01*
X185214204Y-78119047D02*
X185238014Y-78166666D01*
X185238014Y-78166666D02*
X185238014Y-78357142D01*
X185476109Y-77595237D02*
X185476109Y-77880951D01*
X185476109Y-77738094D02*
X184976109Y-77738094D01*
X184976109Y-77738094D02*
X185047538Y-77785713D01*
X185047538Y-77785713D02*
X185095157Y-77833332D01*
X185095157Y-77833332D02*
X185118966Y-77880951D01*
X185142776Y-77166666D02*
X185476109Y-77166666D01*
X184952300Y-77285714D02*
X185309442Y-77404761D01*
X185309442Y-77404761D02*
X185309442Y-77095238D01*
X185353490Y-73146428D02*
X185377300Y-73170237D01*
X185377300Y-73170237D02*
X185401109Y-73241666D01*
X185401109Y-73241666D02*
X185401109Y-73289285D01*
X185401109Y-73289285D02*
X185377300Y-73360713D01*
X185377300Y-73360713D02*
X185329680Y-73408332D01*
X185329680Y-73408332D02*
X185282061Y-73432142D01*
X185282061Y-73432142D02*
X185186823Y-73455951D01*
X185186823Y-73455951D02*
X185115395Y-73455951D01*
X185115395Y-73455951D02*
X185020157Y-73432142D01*
X185020157Y-73432142D02*
X184972538Y-73408332D01*
X184972538Y-73408332D02*
X184924919Y-73360713D01*
X184924919Y-73360713D02*
X184901109Y-73289285D01*
X184901109Y-73289285D02*
X184901109Y-73241666D01*
X184901109Y-73241666D02*
X184924919Y-73170237D01*
X184924919Y-73170237D02*
X184948728Y-73146428D01*
X184901109Y-72694047D02*
X184901109Y-72932142D01*
X184901109Y-72932142D02*
X185139204Y-72955951D01*
X185139204Y-72955951D02*
X185115395Y-72932142D01*
X185115395Y-72932142D02*
X185091585Y-72884523D01*
X185091585Y-72884523D02*
X185091585Y-72765475D01*
X185091585Y-72765475D02*
X185115395Y-72717856D01*
X185115395Y-72717856D02*
X185139204Y-72694047D01*
X185139204Y-72694047D02*
X185186823Y-72670237D01*
X185186823Y-72670237D02*
X185305871Y-72670237D01*
X185305871Y-72670237D02*
X185353490Y-72694047D01*
X185353490Y-72694047D02*
X185377300Y-72717856D01*
X185377300Y-72717856D02*
X185401109Y-72765475D01*
X185401109Y-72765475D02*
X185401109Y-72884523D01*
X185401109Y-72884523D02*
X185377300Y-72932142D01*
X185377300Y-72932142D02*
X185353490Y-72955951D01*
X125178571Y-91908490D02*
X125154762Y-91932300D01*
X125154762Y-91932300D02*
X125083333Y-91956109D01*
X125083333Y-91956109D02*
X125035714Y-91956109D01*
X125035714Y-91956109D02*
X124964286Y-91932300D01*
X124964286Y-91932300D02*
X124916667Y-91884680D01*
X124916667Y-91884680D02*
X124892857Y-91837061D01*
X124892857Y-91837061D02*
X124869048Y-91741823D01*
X124869048Y-91741823D02*
X124869048Y-91670395D01*
X124869048Y-91670395D02*
X124892857Y-91575157D01*
X124892857Y-91575157D02*
X124916667Y-91527538D01*
X124916667Y-91527538D02*
X124964286Y-91479919D01*
X124964286Y-91479919D02*
X125035714Y-91456109D01*
X125035714Y-91456109D02*
X125083333Y-91456109D01*
X125083333Y-91456109D02*
X125154762Y-91479919D01*
X125154762Y-91479919D02*
X125178571Y-91503728D01*
X125654762Y-91956109D02*
X125369048Y-91956109D01*
X125511905Y-91956109D02*
X125511905Y-91456109D01*
X125511905Y-91456109D02*
X125464286Y-91527538D01*
X125464286Y-91527538D02*
X125416667Y-91575157D01*
X125416667Y-91575157D02*
X125369048Y-91598966D01*
X126107142Y-91456109D02*
X125869047Y-91456109D01*
X125869047Y-91456109D02*
X125845238Y-91694204D01*
X125845238Y-91694204D02*
X125869047Y-91670395D01*
X125869047Y-91670395D02*
X125916666Y-91646585D01*
X125916666Y-91646585D02*
X126035714Y-91646585D01*
X126035714Y-91646585D02*
X126083333Y-91670395D01*
X126083333Y-91670395D02*
X126107142Y-91694204D01*
X126107142Y-91694204D02*
X126130952Y-91741823D01*
X126130952Y-91741823D02*
X126130952Y-91860871D01*
X126130952Y-91860871D02*
X126107142Y-91908490D01*
X126107142Y-91908490D02*
X126083333Y-91932300D01*
X126083333Y-91932300D02*
X126035714Y-91956109D01*
X126035714Y-91956109D02*
X125916666Y-91956109D01*
X125916666Y-91956109D02*
X125869047Y-91932300D01*
X125869047Y-91932300D02*
X125845238Y-91908490D01*
X124803571Y-68313609D02*
X124636905Y-68075514D01*
X124517857Y-68313609D02*
X124517857Y-67813609D01*
X124517857Y-67813609D02*
X124708333Y-67813609D01*
X124708333Y-67813609D02*
X124755952Y-67837419D01*
X124755952Y-67837419D02*
X124779762Y-67861228D01*
X124779762Y-67861228D02*
X124803571Y-67908847D01*
X124803571Y-67908847D02*
X124803571Y-67980276D01*
X124803571Y-67980276D02*
X124779762Y-68027895D01*
X124779762Y-68027895D02*
X124755952Y-68051704D01*
X124755952Y-68051704D02*
X124708333Y-68075514D01*
X124708333Y-68075514D02*
X124517857Y-68075514D01*
X124994048Y-67861228D02*
X125017857Y-67837419D01*
X125017857Y-67837419D02*
X125065476Y-67813609D01*
X125065476Y-67813609D02*
X125184524Y-67813609D01*
X125184524Y-67813609D02*
X125232143Y-67837419D01*
X125232143Y-67837419D02*
X125255952Y-67861228D01*
X125255952Y-67861228D02*
X125279762Y-67908847D01*
X125279762Y-67908847D02*
X125279762Y-67956466D01*
X125279762Y-67956466D02*
X125255952Y-68027895D01*
X125255952Y-68027895D02*
X124970238Y-68313609D01*
X124970238Y-68313609D02*
X125279762Y-68313609D01*
X125755952Y-68313609D02*
X125470238Y-68313609D01*
X125613095Y-68313609D02*
X125613095Y-67813609D01*
X125613095Y-67813609D02*
X125565476Y-67885038D01*
X125565476Y-67885038D02*
X125517857Y-67932657D01*
X125517857Y-67932657D02*
X125470238Y-67956466D01*
X131656547Y-80776109D02*
X131656547Y-81180871D01*
X131656547Y-81180871D02*
X131680357Y-81228490D01*
X131680357Y-81228490D02*
X131704166Y-81252300D01*
X131704166Y-81252300D02*
X131751785Y-81276109D01*
X131751785Y-81276109D02*
X131847023Y-81276109D01*
X131847023Y-81276109D02*
X131894642Y-81252300D01*
X131894642Y-81252300D02*
X131918452Y-81228490D01*
X131918452Y-81228490D02*
X131942261Y-81180871D01*
X131942261Y-81180871D02*
X131942261Y-80776109D01*
X132156548Y-80823728D02*
X132180357Y-80799919D01*
X132180357Y-80799919D02*
X132227976Y-80776109D01*
X132227976Y-80776109D02*
X132347024Y-80776109D01*
X132347024Y-80776109D02*
X132394643Y-80799919D01*
X132394643Y-80799919D02*
X132418452Y-80823728D01*
X132418452Y-80823728D02*
X132442262Y-80871347D01*
X132442262Y-80871347D02*
X132442262Y-80918966D01*
X132442262Y-80918966D02*
X132418452Y-80990395D01*
X132418452Y-80990395D02*
X132132738Y-81276109D01*
X132132738Y-81276109D02*
X132442262Y-81276109D01*
X152403571Y-102428490D02*
X152379762Y-102452300D01*
X152379762Y-102452300D02*
X152308333Y-102476109D01*
X152308333Y-102476109D02*
X152260714Y-102476109D01*
X152260714Y-102476109D02*
X152189286Y-102452300D01*
X152189286Y-102452300D02*
X152141667Y-102404680D01*
X152141667Y-102404680D02*
X152117857Y-102357061D01*
X152117857Y-102357061D02*
X152094048Y-102261823D01*
X152094048Y-102261823D02*
X152094048Y-102190395D01*
X152094048Y-102190395D02*
X152117857Y-102095157D01*
X152117857Y-102095157D02*
X152141667Y-102047538D01*
X152141667Y-102047538D02*
X152189286Y-101999919D01*
X152189286Y-101999919D02*
X152260714Y-101976109D01*
X152260714Y-101976109D02*
X152308333Y-101976109D01*
X152308333Y-101976109D02*
X152379762Y-101999919D01*
X152379762Y-101999919D02*
X152403571Y-102023728D01*
X152879762Y-102476109D02*
X152594048Y-102476109D01*
X152736905Y-102476109D02*
X152736905Y-101976109D01*
X152736905Y-101976109D02*
X152689286Y-102047538D01*
X152689286Y-102047538D02*
X152641667Y-102095157D01*
X152641667Y-102095157D02*
X152594048Y-102118966D01*
X153355952Y-102476109D02*
X153070238Y-102476109D01*
X153213095Y-102476109D02*
X153213095Y-101976109D01*
X153213095Y-101976109D02*
X153165476Y-102047538D01*
X153165476Y-102047538D02*
X153117857Y-102095157D01*
X153117857Y-102095157D02*
X153070238Y-102118966D01*
X176091666Y-64551109D02*
X175925000Y-64313014D01*
X175805952Y-64551109D02*
X175805952Y-64051109D01*
X175805952Y-64051109D02*
X175996428Y-64051109D01*
X175996428Y-64051109D02*
X176044047Y-64074919D01*
X176044047Y-64074919D02*
X176067857Y-64098728D01*
X176067857Y-64098728D02*
X176091666Y-64146347D01*
X176091666Y-64146347D02*
X176091666Y-64217776D01*
X176091666Y-64217776D02*
X176067857Y-64265395D01*
X176067857Y-64265395D02*
X176044047Y-64289204D01*
X176044047Y-64289204D02*
X175996428Y-64313014D01*
X175996428Y-64313014D02*
X175805952Y-64313014D01*
X176329762Y-64551109D02*
X176425000Y-64551109D01*
X176425000Y-64551109D02*
X176472619Y-64527300D01*
X176472619Y-64527300D02*
X176496428Y-64503490D01*
X176496428Y-64503490D02*
X176544047Y-64432061D01*
X176544047Y-64432061D02*
X176567857Y-64336823D01*
X176567857Y-64336823D02*
X176567857Y-64146347D01*
X176567857Y-64146347D02*
X176544047Y-64098728D01*
X176544047Y-64098728D02*
X176520238Y-64074919D01*
X176520238Y-64074919D02*
X176472619Y-64051109D01*
X176472619Y-64051109D02*
X176377381Y-64051109D01*
X176377381Y-64051109D02*
X176329762Y-64074919D01*
X176329762Y-64074919D02*
X176305952Y-64098728D01*
X176305952Y-64098728D02*
X176282143Y-64146347D01*
X176282143Y-64146347D02*
X176282143Y-64265395D01*
X176282143Y-64265395D02*
X176305952Y-64313014D01*
X176305952Y-64313014D02*
X176329762Y-64336823D01*
X176329762Y-64336823D02*
X176377381Y-64360633D01*
X176377381Y-64360633D02*
X176472619Y-64360633D01*
X176472619Y-64360633D02*
X176520238Y-64336823D01*
X176520238Y-64336823D02*
X176544047Y-64313014D01*
X176544047Y-64313014D02*
X176567857Y-64265395D01*
X188401109Y-73146428D02*
X188163014Y-73313094D01*
X188401109Y-73432142D02*
X187901109Y-73432142D01*
X187901109Y-73432142D02*
X187901109Y-73241666D01*
X187901109Y-73241666D02*
X187924919Y-73194047D01*
X187924919Y-73194047D02*
X187948728Y-73170237D01*
X187948728Y-73170237D02*
X187996347Y-73146428D01*
X187996347Y-73146428D02*
X188067776Y-73146428D01*
X188067776Y-73146428D02*
X188115395Y-73170237D01*
X188115395Y-73170237D02*
X188139204Y-73194047D01*
X188139204Y-73194047D02*
X188163014Y-73241666D01*
X188163014Y-73241666D02*
X188163014Y-73432142D01*
X188401109Y-72670237D02*
X188401109Y-72955951D01*
X188401109Y-72813094D02*
X187901109Y-72813094D01*
X187901109Y-72813094D02*
X187972538Y-72860713D01*
X187972538Y-72860713D02*
X188020157Y-72908332D01*
X188020157Y-72908332D02*
X188043966Y-72955951D01*
X187948728Y-72479761D02*
X187924919Y-72455952D01*
X187924919Y-72455952D02*
X187901109Y-72408333D01*
X187901109Y-72408333D02*
X187901109Y-72289285D01*
X187901109Y-72289285D02*
X187924919Y-72241666D01*
X187924919Y-72241666D02*
X187948728Y-72217857D01*
X187948728Y-72217857D02*
X187996347Y-72194047D01*
X187996347Y-72194047D02*
X188043966Y-72194047D01*
X188043966Y-72194047D02*
X188115395Y-72217857D01*
X188115395Y-72217857D02*
X188401109Y-72503571D01*
X188401109Y-72503571D02*
X188401109Y-72194047D01*
X185353490Y-67908333D02*
X185377300Y-67932142D01*
X185377300Y-67932142D02*
X185401109Y-68003571D01*
X185401109Y-68003571D02*
X185401109Y-68051190D01*
X185401109Y-68051190D02*
X185377300Y-68122618D01*
X185377300Y-68122618D02*
X185329680Y-68170237D01*
X185329680Y-68170237D02*
X185282061Y-68194047D01*
X185282061Y-68194047D02*
X185186823Y-68217856D01*
X185186823Y-68217856D02*
X185115395Y-68217856D01*
X185115395Y-68217856D02*
X185020157Y-68194047D01*
X185020157Y-68194047D02*
X184972538Y-68170237D01*
X184972538Y-68170237D02*
X184924919Y-68122618D01*
X184924919Y-68122618D02*
X184901109Y-68051190D01*
X184901109Y-68051190D02*
X184901109Y-68003571D01*
X184901109Y-68003571D02*
X184924919Y-67932142D01*
X184924919Y-67932142D02*
X184948728Y-67908333D01*
X185067776Y-67479761D02*
X185401109Y-67479761D01*
X184877300Y-67598809D02*
X185234442Y-67717856D01*
X185234442Y-67717856D02*
X185234442Y-67408333D01*
X146226109Y-70983333D02*
X145988014Y-71149999D01*
X146226109Y-71269047D02*
X145726109Y-71269047D01*
X145726109Y-71269047D02*
X145726109Y-71078571D01*
X145726109Y-71078571D02*
X145749919Y-71030952D01*
X145749919Y-71030952D02*
X145773728Y-71007142D01*
X145773728Y-71007142D02*
X145821347Y-70983333D01*
X145821347Y-70983333D02*
X145892776Y-70983333D01*
X145892776Y-70983333D02*
X145940395Y-71007142D01*
X145940395Y-71007142D02*
X145964204Y-71030952D01*
X145964204Y-71030952D02*
X145988014Y-71078571D01*
X145988014Y-71078571D02*
X145988014Y-71269047D01*
X146226109Y-70507142D02*
X146226109Y-70792856D01*
X146226109Y-70649999D02*
X145726109Y-70649999D01*
X145726109Y-70649999D02*
X145797538Y-70697618D01*
X145797538Y-70697618D02*
X145845157Y-70745237D01*
X145845157Y-70745237D02*
X145868966Y-70792856D01*
X185476109Y-81246428D02*
X185238014Y-81413094D01*
X185476109Y-81532142D02*
X184976109Y-81532142D01*
X184976109Y-81532142D02*
X184976109Y-81341666D01*
X184976109Y-81341666D02*
X184999919Y-81294047D01*
X184999919Y-81294047D02*
X185023728Y-81270237D01*
X185023728Y-81270237D02*
X185071347Y-81246428D01*
X185071347Y-81246428D02*
X185142776Y-81246428D01*
X185142776Y-81246428D02*
X185190395Y-81270237D01*
X185190395Y-81270237D02*
X185214204Y-81294047D01*
X185214204Y-81294047D02*
X185238014Y-81341666D01*
X185238014Y-81341666D02*
X185238014Y-81532142D01*
X185023728Y-81055951D02*
X184999919Y-81032142D01*
X184999919Y-81032142D02*
X184976109Y-80984523D01*
X184976109Y-80984523D02*
X184976109Y-80865475D01*
X184976109Y-80865475D02*
X184999919Y-80817856D01*
X184999919Y-80817856D02*
X185023728Y-80794047D01*
X185023728Y-80794047D02*
X185071347Y-80770237D01*
X185071347Y-80770237D02*
X185118966Y-80770237D01*
X185118966Y-80770237D02*
X185190395Y-80794047D01*
X185190395Y-80794047D02*
X185476109Y-81079761D01*
X185476109Y-81079761D02*
X185476109Y-80770237D01*
X184976109Y-80317857D02*
X184976109Y-80555952D01*
X184976109Y-80555952D02*
X185214204Y-80579761D01*
X185214204Y-80579761D02*
X185190395Y-80555952D01*
X185190395Y-80555952D02*
X185166585Y-80508333D01*
X185166585Y-80508333D02*
X185166585Y-80389285D01*
X185166585Y-80389285D02*
X185190395Y-80341666D01*
X185190395Y-80341666D02*
X185214204Y-80317857D01*
X185214204Y-80317857D02*
X185261823Y-80294047D01*
X185261823Y-80294047D02*
X185380871Y-80294047D01*
X185380871Y-80294047D02*
X185428490Y-80317857D01*
X185428490Y-80317857D02*
X185452300Y-80341666D01*
X185452300Y-80341666D02*
X185476109Y-80389285D01*
X185476109Y-80389285D02*
X185476109Y-80508333D01*
X185476109Y-80508333D02*
X185452300Y-80555952D01*
X185452300Y-80555952D02*
X185428490Y-80579761D01*
X122119047Y-60813609D02*
X122119047Y-61218371D01*
X122119047Y-61218371D02*
X122142857Y-61265990D01*
X122142857Y-61265990D02*
X122166666Y-61289800D01*
X122166666Y-61289800D02*
X122214285Y-61313609D01*
X122214285Y-61313609D02*
X122309523Y-61313609D01*
X122309523Y-61313609D02*
X122357142Y-61289800D01*
X122357142Y-61289800D02*
X122380952Y-61265990D01*
X122380952Y-61265990D02*
X122404761Y-61218371D01*
X122404761Y-61218371D02*
X122404761Y-60813609D01*
X122857143Y-60980276D02*
X122857143Y-61313609D01*
X122738095Y-60789800D02*
X122619048Y-61146942D01*
X122619048Y-61146942D02*
X122928571Y-61146942D01*
X168003571Y-70981109D02*
X167836905Y-70743014D01*
X167717857Y-70981109D02*
X167717857Y-70481109D01*
X167717857Y-70481109D02*
X167908333Y-70481109D01*
X167908333Y-70481109D02*
X167955952Y-70504919D01*
X167955952Y-70504919D02*
X167979762Y-70528728D01*
X167979762Y-70528728D02*
X168003571Y-70576347D01*
X168003571Y-70576347D02*
X168003571Y-70647776D01*
X168003571Y-70647776D02*
X167979762Y-70695395D01*
X167979762Y-70695395D02*
X167955952Y-70719204D01*
X167955952Y-70719204D02*
X167908333Y-70743014D01*
X167908333Y-70743014D02*
X167717857Y-70743014D01*
X168194048Y-70528728D02*
X168217857Y-70504919D01*
X168217857Y-70504919D02*
X168265476Y-70481109D01*
X168265476Y-70481109D02*
X168384524Y-70481109D01*
X168384524Y-70481109D02*
X168432143Y-70504919D01*
X168432143Y-70504919D02*
X168455952Y-70528728D01*
X168455952Y-70528728D02*
X168479762Y-70576347D01*
X168479762Y-70576347D02*
X168479762Y-70623966D01*
X168479762Y-70623966D02*
X168455952Y-70695395D01*
X168455952Y-70695395D02*
X168170238Y-70981109D01*
X168170238Y-70981109D02*
X168479762Y-70981109D01*
X168646428Y-70481109D02*
X168955952Y-70481109D01*
X168955952Y-70481109D02*
X168789285Y-70671585D01*
X168789285Y-70671585D02*
X168860714Y-70671585D01*
X168860714Y-70671585D02*
X168908333Y-70695395D01*
X168908333Y-70695395D02*
X168932142Y-70719204D01*
X168932142Y-70719204D02*
X168955952Y-70766823D01*
X168955952Y-70766823D02*
X168955952Y-70885871D01*
X168955952Y-70885871D02*
X168932142Y-70933490D01*
X168932142Y-70933490D02*
X168908333Y-70957300D01*
X168908333Y-70957300D02*
X168860714Y-70981109D01*
X168860714Y-70981109D02*
X168717857Y-70981109D01*
X168717857Y-70981109D02*
X168670238Y-70957300D01*
X168670238Y-70957300D02*
X168646428Y-70933490D01*
X152328571Y-104076109D02*
X152161905Y-103838014D01*
X152042857Y-104076109D02*
X152042857Y-103576109D01*
X152042857Y-103576109D02*
X152233333Y-103576109D01*
X152233333Y-103576109D02*
X152280952Y-103599919D01*
X152280952Y-103599919D02*
X152304762Y-103623728D01*
X152304762Y-103623728D02*
X152328571Y-103671347D01*
X152328571Y-103671347D02*
X152328571Y-103742776D01*
X152328571Y-103742776D02*
X152304762Y-103790395D01*
X152304762Y-103790395D02*
X152280952Y-103814204D01*
X152280952Y-103814204D02*
X152233333Y-103838014D01*
X152233333Y-103838014D02*
X152042857Y-103838014D01*
X152519048Y-103623728D02*
X152542857Y-103599919D01*
X152542857Y-103599919D02*
X152590476Y-103576109D01*
X152590476Y-103576109D02*
X152709524Y-103576109D01*
X152709524Y-103576109D02*
X152757143Y-103599919D01*
X152757143Y-103599919D02*
X152780952Y-103623728D01*
X152780952Y-103623728D02*
X152804762Y-103671347D01*
X152804762Y-103671347D02*
X152804762Y-103718966D01*
X152804762Y-103718966D02*
X152780952Y-103790395D01*
X152780952Y-103790395D02*
X152495238Y-104076109D01*
X152495238Y-104076109D02*
X152804762Y-104076109D01*
X152995238Y-103623728D02*
X153019047Y-103599919D01*
X153019047Y-103599919D02*
X153066666Y-103576109D01*
X153066666Y-103576109D02*
X153185714Y-103576109D01*
X153185714Y-103576109D02*
X153233333Y-103599919D01*
X153233333Y-103599919D02*
X153257142Y-103623728D01*
X153257142Y-103623728D02*
X153280952Y-103671347D01*
X153280952Y-103671347D02*
X153280952Y-103718966D01*
X153280952Y-103718966D02*
X153257142Y-103790395D01*
X153257142Y-103790395D02*
X152971428Y-104076109D01*
X152971428Y-104076109D02*
X153280952Y-104076109D01*
X138126109Y-81371428D02*
X137888014Y-81538094D01*
X138126109Y-81657142D02*
X137626109Y-81657142D01*
X137626109Y-81657142D02*
X137626109Y-81466666D01*
X137626109Y-81466666D02*
X137649919Y-81419047D01*
X137649919Y-81419047D02*
X137673728Y-81395237D01*
X137673728Y-81395237D02*
X137721347Y-81371428D01*
X137721347Y-81371428D02*
X137792776Y-81371428D01*
X137792776Y-81371428D02*
X137840395Y-81395237D01*
X137840395Y-81395237D02*
X137864204Y-81419047D01*
X137864204Y-81419047D02*
X137888014Y-81466666D01*
X137888014Y-81466666D02*
X137888014Y-81657142D01*
X137673728Y-81180951D02*
X137649919Y-81157142D01*
X137649919Y-81157142D02*
X137626109Y-81109523D01*
X137626109Y-81109523D02*
X137626109Y-80990475D01*
X137626109Y-80990475D02*
X137649919Y-80942856D01*
X137649919Y-80942856D02*
X137673728Y-80919047D01*
X137673728Y-80919047D02*
X137721347Y-80895237D01*
X137721347Y-80895237D02*
X137768966Y-80895237D01*
X137768966Y-80895237D02*
X137840395Y-80919047D01*
X137840395Y-80919047D02*
X138126109Y-81204761D01*
X138126109Y-81204761D02*
X138126109Y-80895237D01*
X137626109Y-80728571D02*
X137626109Y-80395238D01*
X137626109Y-80395238D02*
X138126109Y-80609523D01*
X167678490Y-64683333D02*
X167702300Y-64707142D01*
X167702300Y-64707142D02*
X167726109Y-64778571D01*
X167726109Y-64778571D02*
X167726109Y-64826190D01*
X167726109Y-64826190D02*
X167702300Y-64897618D01*
X167702300Y-64897618D02*
X167654680Y-64945237D01*
X167654680Y-64945237D02*
X167607061Y-64969047D01*
X167607061Y-64969047D02*
X167511823Y-64992856D01*
X167511823Y-64992856D02*
X167440395Y-64992856D01*
X167440395Y-64992856D02*
X167345157Y-64969047D01*
X167345157Y-64969047D02*
X167297538Y-64945237D01*
X167297538Y-64945237D02*
X167249919Y-64897618D01*
X167249919Y-64897618D02*
X167226109Y-64826190D01*
X167226109Y-64826190D02*
X167226109Y-64778571D01*
X167226109Y-64778571D02*
X167249919Y-64707142D01*
X167249919Y-64707142D02*
X167273728Y-64683333D01*
X167226109Y-64516666D02*
X167226109Y-64183333D01*
X167226109Y-64183333D02*
X167726109Y-64397618D01*
X152578490Y-107321428D02*
X152602300Y-107345237D01*
X152602300Y-107345237D02*
X152626109Y-107416666D01*
X152626109Y-107416666D02*
X152626109Y-107464285D01*
X152626109Y-107464285D02*
X152602300Y-107535713D01*
X152602300Y-107535713D02*
X152554680Y-107583332D01*
X152554680Y-107583332D02*
X152507061Y-107607142D01*
X152507061Y-107607142D02*
X152411823Y-107630951D01*
X152411823Y-107630951D02*
X152340395Y-107630951D01*
X152340395Y-107630951D02*
X152245157Y-107607142D01*
X152245157Y-107607142D02*
X152197538Y-107583332D01*
X152197538Y-107583332D02*
X152149919Y-107535713D01*
X152149919Y-107535713D02*
X152126109Y-107464285D01*
X152126109Y-107464285D02*
X152126109Y-107416666D01*
X152126109Y-107416666D02*
X152149919Y-107345237D01*
X152149919Y-107345237D02*
X152173728Y-107321428D01*
X152626109Y-106845237D02*
X152626109Y-107130951D01*
X152626109Y-106988094D02*
X152126109Y-106988094D01*
X152126109Y-106988094D02*
X152197538Y-107035713D01*
X152197538Y-107035713D02*
X152245157Y-107083332D01*
X152245157Y-107083332D02*
X152268966Y-107130951D01*
X152126109Y-106535714D02*
X152126109Y-106488095D01*
X152126109Y-106488095D02*
X152149919Y-106440476D01*
X152149919Y-106440476D02*
X152173728Y-106416666D01*
X152173728Y-106416666D02*
X152221347Y-106392857D01*
X152221347Y-106392857D02*
X152316585Y-106369047D01*
X152316585Y-106369047D02*
X152435633Y-106369047D01*
X152435633Y-106369047D02*
X152530871Y-106392857D01*
X152530871Y-106392857D02*
X152578490Y-106416666D01*
X152578490Y-106416666D02*
X152602300Y-106440476D01*
X152602300Y-106440476D02*
X152626109Y-106488095D01*
X152626109Y-106488095D02*
X152626109Y-106535714D01*
X152626109Y-106535714D02*
X152602300Y-106583333D01*
X152602300Y-106583333D02*
X152578490Y-106607142D01*
X152578490Y-106607142D02*
X152530871Y-106630952D01*
X152530871Y-106630952D02*
X152435633Y-106654761D01*
X152435633Y-106654761D02*
X152316585Y-106654761D01*
X152316585Y-106654761D02*
X152221347Y-106630952D01*
X152221347Y-106630952D02*
X152173728Y-106607142D01*
X152173728Y-106607142D02*
X152149919Y-106583333D01*
X152149919Y-106583333D02*
X152126109Y-106535714D01*
X147369047Y-74926109D02*
X147369047Y-75330871D01*
X147369047Y-75330871D02*
X147392857Y-75378490D01*
X147392857Y-75378490D02*
X147416666Y-75402300D01*
X147416666Y-75402300D02*
X147464285Y-75426109D01*
X147464285Y-75426109D02*
X147559523Y-75426109D01*
X147559523Y-75426109D02*
X147607142Y-75402300D01*
X147607142Y-75402300D02*
X147630952Y-75378490D01*
X147630952Y-75378490D02*
X147654761Y-75330871D01*
X147654761Y-75330871D02*
X147654761Y-74926109D01*
X148130952Y-74926109D02*
X147892857Y-74926109D01*
X147892857Y-74926109D02*
X147869048Y-75164204D01*
X147869048Y-75164204D02*
X147892857Y-75140395D01*
X147892857Y-75140395D02*
X147940476Y-75116585D01*
X147940476Y-75116585D02*
X148059524Y-75116585D01*
X148059524Y-75116585D02*
X148107143Y-75140395D01*
X148107143Y-75140395D02*
X148130952Y-75164204D01*
X148130952Y-75164204D02*
X148154762Y-75211823D01*
X148154762Y-75211823D02*
X148154762Y-75330871D01*
X148154762Y-75330871D02*
X148130952Y-75378490D01*
X148130952Y-75378490D02*
X148107143Y-75402300D01*
X148107143Y-75402300D02*
X148059524Y-75426109D01*
X148059524Y-75426109D02*
X147940476Y-75426109D01*
X147940476Y-75426109D02*
X147892857Y-75402300D01*
X147892857Y-75402300D02*
X147869048Y-75378490D01*
X121366666Y-68265990D02*
X121342857Y-68289800D01*
X121342857Y-68289800D02*
X121271428Y-68313609D01*
X121271428Y-68313609D02*
X121223809Y-68313609D01*
X121223809Y-68313609D02*
X121152381Y-68289800D01*
X121152381Y-68289800D02*
X121104762Y-68242180D01*
X121104762Y-68242180D02*
X121080952Y-68194561D01*
X121080952Y-68194561D02*
X121057143Y-68099323D01*
X121057143Y-68099323D02*
X121057143Y-68027895D01*
X121057143Y-68027895D02*
X121080952Y-67932657D01*
X121080952Y-67932657D02*
X121104762Y-67885038D01*
X121104762Y-67885038D02*
X121152381Y-67837419D01*
X121152381Y-67837419D02*
X121223809Y-67813609D01*
X121223809Y-67813609D02*
X121271428Y-67813609D01*
X121271428Y-67813609D02*
X121342857Y-67837419D01*
X121342857Y-67837419D02*
X121366666Y-67861228D01*
X121652381Y-68027895D02*
X121604762Y-68004085D01*
X121604762Y-68004085D02*
X121580952Y-67980276D01*
X121580952Y-67980276D02*
X121557143Y-67932657D01*
X121557143Y-67932657D02*
X121557143Y-67908847D01*
X121557143Y-67908847D02*
X121580952Y-67861228D01*
X121580952Y-67861228D02*
X121604762Y-67837419D01*
X121604762Y-67837419D02*
X121652381Y-67813609D01*
X121652381Y-67813609D02*
X121747619Y-67813609D01*
X121747619Y-67813609D02*
X121795238Y-67837419D01*
X121795238Y-67837419D02*
X121819047Y-67861228D01*
X121819047Y-67861228D02*
X121842857Y-67908847D01*
X121842857Y-67908847D02*
X121842857Y-67932657D01*
X121842857Y-67932657D02*
X121819047Y-67980276D01*
X121819047Y-67980276D02*
X121795238Y-68004085D01*
X121795238Y-68004085D02*
X121747619Y-68027895D01*
X121747619Y-68027895D02*
X121652381Y-68027895D01*
X121652381Y-68027895D02*
X121604762Y-68051704D01*
X121604762Y-68051704D02*
X121580952Y-68075514D01*
X121580952Y-68075514D02*
X121557143Y-68123133D01*
X121557143Y-68123133D02*
X121557143Y-68218371D01*
X121557143Y-68218371D02*
X121580952Y-68265990D01*
X121580952Y-68265990D02*
X121604762Y-68289800D01*
X121604762Y-68289800D02*
X121652381Y-68313609D01*
X121652381Y-68313609D02*
X121747619Y-68313609D01*
X121747619Y-68313609D02*
X121795238Y-68289800D01*
X121795238Y-68289800D02*
X121819047Y-68265990D01*
X121819047Y-68265990D02*
X121842857Y-68218371D01*
X121842857Y-68218371D02*
X121842857Y-68123133D01*
X121842857Y-68123133D02*
X121819047Y-68075514D01*
X121819047Y-68075514D02*
X121795238Y-68051704D01*
X121795238Y-68051704D02*
X121747619Y-68027895D01*
D14*
X189330819Y-102598370D02*
X188330819Y-102598370D01*
X188330819Y-102598370D02*
X189045104Y-102265037D01*
X189045104Y-102265037D02*
X188330819Y-101931704D01*
X188330819Y-101931704D02*
X189330819Y-101931704D01*
X189330819Y-101455513D02*
X188330819Y-101455513D01*
X189235580Y-100407895D02*
X189283200Y-100455514D01*
X189283200Y-100455514D02*
X189330819Y-100598371D01*
X189330819Y-100598371D02*
X189330819Y-100693609D01*
X189330819Y-100693609D02*
X189283200Y-100836466D01*
X189283200Y-100836466D02*
X189187961Y-100931704D01*
X189187961Y-100931704D02*
X189092723Y-100979323D01*
X189092723Y-100979323D02*
X188902247Y-101026942D01*
X188902247Y-101026942D02*
X188759390Y-101026942D01*
X188759390Y-101026942D02*
X188568914Y-100979323D01*
X188568914Y-100979323D02*
X188473676Y-100931704D01*
X188473676Y-100931704D02*
X188378438Y-100836466D01*
X188378438Y-100836466D02*
X188330819Y-100693609D01*
X188330819Y-100693609D02*
X188330819Y-100598371D01*
X188330819Y-100598371D02*
X188378438Y-100455514D01*
X188378438Y-100455514D02*
X188426057Y-100407895D01*
X189330819Y-99407895D02*
X188854628Y-99741228D01*
X189330819Y-99979323D02*
X188330819Y-99979323D01*
X188330819Y-99979323D02*
X188330819Y-99598371D01*
X188330819Y-99598371D02*
X188378438Y-99503133D01*
X188378438Y-99503133D02*
X188426057Y-99455514D01*
X188426057Y-99455514D02*
X188521295Y-99407895D01*
X188521295Y-99407895D02*
X188664152Y-99407895D01*
X188664152Y-99407895D02*
X188759390Y-99455514D01*
X188759390Y-99455514D02*
X188807009Y-99503133D01*
X188807009Y-99503133D02*
X188854628Y-99598371D01*
X188854628Y-99598371D02*
X188854628Y-99979323D01*
X188330819Y-98788847D02*
X188330819Y-98598371D01*
X188330819Y-98598371D02*
X188378438Y-98503133D01*
X188378438Y-98503133D02*
X188473676Y-98407895D01*
X188473676Y-98407895D02*
X188664152Y-98360276D01*
X188664152Y-98360276D02*
X188997485Y-98360276D01*
X188997485Y-98360276D02*
X189187961Y-98407895D01*
X189187961Y-98407895D02*
X189283200Y-98503133D01*
X189283200Y-98503133D02*
X189330819Y-98598371D01*
X189330819Y-98598371D02*
X189330819Y-98788847D01*
X189330819Y-98788847D02*
X189283200Y-98884085D01*
X189283200Y-98884085D02*
X189187961Y-98979323D01*
X189187961Y-98979323D02*
X188997485Y-99026942D01*
X188997485Y-99026942D02*
X188664152Y-99026942D01*
X188664152Y-99026942D02*
X188473676Y-98979323D01*
X188473676Y-98979323D02*
X188378438Y-98884085D01*
X188378438Y-98884085D02*
X188330819Y-98788847D01*
X189426057Y-98169800D02*
X189426057Y-97407895D01*
X189283200Y-97217418D02*
X189330819Y-97074561D01*
X189330819Y-97074561D02*
X189330819Y-96836466D01*
X189330819Y-96836466D02*
X189283200Y-96741228D01*
X189283200Y-96741228D02*
X189235580Y-96693609D01*
X189235580Y-96693609D02*
X189140342Y-96645990D01*
X189140342Y-96645990D02*
X189045104Y-96645990D01*
X189045104Y-96645990D02*
X188949866Y-96693609D01*
X188949866Y-96693609D02*
X188902247Y-96741228D01*
X188902247Y-96741228D02*
X188854628Y-96836466D01*
X188854628Y-96836466D02*
X188807009Y-97026942D01*
X188807009Y-97026942D02*
X188759390Y-97122180D01*
X188759390Y-97122180D02*
X188711771Y-97169799D01*
X188711771Y-97169799D02*
X188616533Y-97217418D01*
X188616533Y-97217418D02*
X188521295Y-97217418D01*
X188521295Y-97217418D02*
X188426057Y-97169799D01*
X188426057Y-97169799D02*
X188378438Y-97122180D01*
X188378438Y-97122180D02*
X188330819Y-97026942D01*
X188330819Y-97026942D02*
X188330819Y-96788847D01*
X188330819Y-96788847D02*
X188378438Y-96645990D01*
X189330819Y-96217418D02*
X188330819Y-96217418D01*
X188330819Y-96217418D02*
X188330819Y-95979323D01*
X188330819Y-95979323D02*
X188378438Y-95836466D01*
X188378438Y-95836466D02*
X188473676Y-95741228D01*
X188473676Y-95741228D02*
X188568914Y-95693609D01*
X188568914Y-95693609D02*
X188759390Y-95645990D01*
X188759390Y-95645990D02*
X188902247Y-95645990D01*
X188902247Y-95645990D02*
X189092723Y-95693609D01*
X189092723Y-95693609D02*
X189187961Y-95741228D01*
X189187961Y-95741228D02*
X189283200Y-95836466D01*
X189283200Y-95836466D02*
X189330819Y-95979323D01*
X189330819Y-95979323D02*
X189330819Y-96217418D01*
X189330819Y-94693609D02*
X189330819Y-95265037D01*
X189330819Y-94979323D02*
X188330819Y-94979323D01*
X188330819Y-94979323D02*
X188473676Y-95074561D01*
X188473676Y-95074561D02*
X188568914Y-95169799D01*
X188568914Y-95169799D02*
X188616533Y-95265037D01*
D13*
X175353571Y-81726109D02*
X175186905Y-81488014D01*
X175067857Y-81726109D02*
X175067857Y-81226109D01*
X175067857Y-81226109D02*
X175258333Y-81226109D01*
X175258333Y-81226109D02*
X175305952Y-81249919D01*
X175305952Y-81249919D02*
X175329762Y-81273728D01*
X175329762Y-81273728D02*
X175353571Y-81321347D01*
X175353571Y-81321347D02*
X175353571Y-81392776D01*
X175353571Y-81392776D02*
X175329762Y-81440395D01*
X175329762Y-81440395D02*
X175305952Y-81464204D01*
X175305952Y-81464204D02*
X175258333Y-81488014D01*
X175258333Y-81488014D02*
X175067857Y-81488014D01*
X175829762Y-81726109D02*
X175544048Y-81726109D01*
X175686905Y-81726109D02*
X175686905Y-81226109D01*
X175686905Y-81226109D02*
X175639286Y-81297538D01*
X175639286Y-81297538D02*
X175591667Y-81345157D01*
X175591667Y-81345157D02*
X175544048Y-81368966D01*
X175996428Y-81226109D02*
X176329761Y-81226109D01*
X176329761Y-81226109D02*
X176115476Y-81726109D01*
X185401109Y-69646428D02*
X185163014Y-69813094D01*
X185401109Y-69932142D02*
X184901109Y-69932142D01*
X184901109Y-69932142D02*
X184901109Y-69741666D01*
X184901109Y-69741666D02*
X184924919Y-69694047D01*
X184924919Y-69694047D02*
X184948728Y-69670237D01*
X184948728Y-69670237D02*
X184996347Y-69646428D01*
X184996347Y-69646428D02*
X185067776Y-69646428D01*
X185067776Y-69646428D02*
X185115395Y-69670237D01*
X185115395Y-69670237D02*
X185139204Y-69694047D01*
X185139204Y-69694047D02*
X185163014Y-69741666D01*
X185163014Y-69741666D02*
X185163014Y-69932142D01*
X185401109Y-69170237D02*
X185401109Y-69455951D01*
X185401109Y-69313094D02*
X184901109Y-69313094D01*
X184901109Y-69313094D02*
X184972538Y-69360713D01*
X184972538Y-69360713D02*
X185020157Y-69408332D01*
X185020157Y-69408332D02*
X185043966Y-69455951D01*
X185401109Y-68694047D02*
X185401109Y-68979761D01*
X185401109Y-68836904D02*
X184901109Y-68836904D01*
X184901109Y-68836904D02*
X184972538Y-68884523D01*
X184972538Y-68884523D02*
X185020157Y-68932142D01*
X185020157Y-68932142D02*
X185043966Y-68979761D01*
X119748490Y-63546428D02*
X119772300Y-63570237D01*
X119772300Y-63570237D02*
X119796109Y-63641666D01*
X119796109Y-63641666D02*
X119796109Y-63689285D01*
X119796109Y-63689285D02*
X119772300Y-63760713D01*
X119772300Y-63760713D02*
X119724680Y-63808332D01*
X119724680Y-63808332D02*
X119677061Y-63832142D01*
X119677061Y-63832142D02*
X119581823Y-63855951D01*
X119581823Y-63855951D02*
X119510395Y-63855951D01*
X119510395Y-63855951D02*
X119415157Y-63832142D01*
X119415157Y-63832142D02*
X119367538Y-63808332D01*
X119367538Y-63808332D02*
X119319919Y-63760713D01*
X119319919Y-63760713D02*
X119296109Y-63689285D01*
X119296109Y-63689285D02*
X119296109Y-63641666D01*
X119296109Y-63641666D02*
X119319919Y-63570237D01*
X119319919Y-63570237D02*
X119343728Y-63546428D01*
X119796109Y-63070237D02*
X119796109Y-63355951D01*
X119796109Y-63213094D02*
X119296109Y-63213094D01*
X119296109Y-63213094D02*
X119367538Y-63260713D01*
X119367538Y-63260713D02*
X119415157Y-63308332D01*
X119415157Y-63308332D02*
X119438966Y-63355951D01*
X119462776Y-62641666D02*
X119796109Y-62641666D01*
X119272300Y-62760714D02*
X119629442Y-62879761D01*
X119629442Y-62879761D02*
X119629442Y-62570238D01*
X164796109Y-70471428D02*
X164558014Y-70638094D01*
X164796109Y-70757142D02*
X164296109Y-70757142D01*
X164296109Y-70757142D02*
X164296109Y-70566666D01*
X164296109Y-70566666D02*
X164319919Y-70519047D01*
X164319919Y-70519047D02*
X164343728Y-70495237D01*
X164343728Y-70495237D02*
X164391347Y-70471428D01*
X164391347Y-70471428D02*
X164462776Y-70471428D01*
X164462776Y-70471428D02*
X164510395Y-70495237D01*
X164510395Y-70495237D02*
X164534204Y-70519047D01*
X164534204Y-70519047D02*
X164558014Y-70566666D01*
X164558014Y-70566666D02*
X164558014Y-70757142D01*
X164796109Y-69995237D02*
X164796109Y-70280951D01*
X164796109Y-70138094D02*
X164296109Y-70138094D01*
X164296109Y-70138094D02*
X164367538Y-70185713D01*
X164367538Y-70185713D02*
X164415157Y-70233332D01*
X164415157Y-70233332D02*
X164438966Y-70280951D01*
X164796109Y-69757142D02*
X164796109Y-69661904D01*
X164796109Y-69661904D02*
X164772300Y-69614285D01*
X164772300Y-69614285D02*
X164748490Y-69590476D01*
X164748490Y-69590476D02*
X164677061Y-69542857D01*
X164677061Y-69542857D02*
X164581823Y-69519047D01*
X164581823Y-69519047D02*
X164391347Y-69519047D01*
X164391347Y-69519047D02*
X164343728Y-69542857D01*
X164343728Y-69542857D02*
X164319919Y-69566666D01*
X164319919Y-69566666D02*
X164296109Y-69614285D01*
X164296109Y-69614285D02*
X164296109Y-69709523D01*
X164296109Y-69709523D02*
X164319919Y-69757142D01*
X164319919Y-69757142D02*
X164343728Y-69780952D01*
X164343728Y-69780952D02*
X164391347Y-69804761D01*
X164391347Y-69804761D02*
X164510395Y-69804761D01*
X164510395Y-69804761D02*
X164558014Y-69780952D01*
X164558014Y-69780952D02*
X164581823Y-69757142D01*
X164581823Y-69757142D02*
X164605633Y-69709523D01*
X164605633Y-69709523D02*
X164605633Y-69614285D01*
X164605633Y-69614285D02*
X164581823Y-69566666D01*
X164581823Y-69566666D02*
X164558014Y-69542857D01*
X164558014Y-69542857D02*
X164510395Y-69519047D01*
D15*
X129050000Y-60110000D02*
X129050000Y-60900000D01*
X131100000Y-61950000D02*
X130900000Y-61950000D01*
X134100000Y-61950000D02*
X132400000Y-61950000D01*
X135350000Y-59100000D02*
X129650000Y-59100000D01*
X135950000Y-60900000D02*
X135950000Y-60110000D01*
X173912258Y-68802500D02*
X173437742Y-68802500D01*
X173912258Y-69847500D02*
X173437742Y-69847500D01*
X170652500Y-65362742D02*
X170652500Y-65837258D01*
X171697500Y-65362742D02*
X171697500Y-65837258D01*
X179227500Y-79312258D02*
X179227500Y-78837742D01*
X180272500Y-79312258D02*
X180272500Y-78837742D01*
X165240000Y-66890580D02*
X165240000Y-66609420D01*
X166260000Y-66890580D02*
X166260000Y-66609420D01*
X181309420Y-74315000D02*
X181590580Y-74315000D01*
X181309420Y-75335000D02*
X181590580Y-75335000D01*
X183152500Y-65412742D02*
X183152500Y-65887258D01*
X184197500Y-65412742D02*
X184197500Y-65887258D01*
X181152500Y-79312258D02*
X181152500Y-78837742D01*
X182197500Y-79312258D02*
X182197500Y-78837742D01*
X136798752Y-74815000D02*
X136276248Y-74815000D01*
X136798752Y-76285000D02*
X136276248Y-76285000D01*
X132877500Y-72127500D02*
X132547500Y-71887500D01*
X132877500Y-71647500D01*
X132877500Y-72127500D01*
G36*
X132877500Y-72127500D02*
G01*
X132547500Y-71887500D01*
X132877500Y-71647500D01*
X132877500Y-72127500D01*
G37*
X132597500Y-73050000D02*
X132597500Y-73700000D01*
X132597500Y-73050000D02*
X132597500Y-72400000D01*
X129477500Y-73050000D02*
X129477500Y-73700000D01*
X129477500Y-73050000D02*
X129477500Y-72400000D01*
X189152500Y-71912742D02*
X189152500Y-72387258D01*
X190197500Y-71912742D02*
X190197500Y-72387258D01*
X172340000Y-65459420D02*
X172340000Y-65740580D01*
X173360000Y-65459420D02*
X173360000Y-65740580D01*
X141977500Y-66187742D02*
X141977500Y-66662258D01*
X143022500Y-66187742D02*
X143022500Y-66662258D01*
X177152500Y-79312258D02*
X177152500Y-78837742D01*
X178197500Y-79312258D02*
X178197500Y-78837742D01*
X173412258Y-74302500D02*
X172937742Y-74302500D01*
X173412258Y-75347500D02*
X172937742Y-75347500D01*
X175415580Y-65315000D02*
X175134420Y-65315000D01*
X175415580Y-66335000D02*
X175134420Y-66335000D01*
X176540580Y-74315000D02*
X176259420Y-74315000D01*
X176540580Y-75335000D02*
X176259420Y-75335000D01*
X135877500Y-78437742D02*
X135877500Y-78912258D01*
X136922500Y-78437742D02*
X136922500Y-78912258D01*
X178937742Y-62302500D02*
X179412258Y-62302500D01*
X178937742Y-63347500D02*
X179412258Y-63347500D01*
X128776248Y-77815000D02*
X129298752Y-77815000D01*
X128776248Y-79285000D02*
X129298752Y-79285000D01*
X176540580Y-75990000D02*
X176259420Y-75990000D01*
X176540580Y-77010000D02*
X176259420Y-77010000D01*
X148415000Y-106084420D02*
X148415000Y-106365580D01*
X149435000Y-106084420D02*
X149435000Y-106365580D01*
X124927500Y-73050000D02*
X124927500Y-72250000D01*
X124927500Y-73050000D02*
X124927500Y-73850000D01*
X128047500Y-73050000D02*
X128047500Y-72250000D01*
X128047500Y-73050000D02*
X128047500Y-73850000D01*
X128327500Y-71990000D02*
X127997500Y-71750000D01*
X128327500Y-71510000D01*
X128327500Y-71990000D01*
G36*
X128327500Y-71990000D02*
G01*
X127997500Y-71750000D01*
X128327500Y-71510000D01*
X128327500Y-71990000D01*
G37*
X167152500Y-73887258D02*
X167152500Y-73412742D01*
X168197500Y-73887258D02*
X168197500Y-73412742D01*
X170152500Y-73887258D02*
X170152500Y-73412742D01*
X171197500Y-73887258D02*
X171197500Y-73412742D01*
X151577500Y-71587742D02*
X151577500Y-72062258D01*
X152622500Y-71587742D02*
X152622500Y-72062258D01*
X170152500Y-70387258D02*
X170152500Y-69912742D01*
X171197500Y-70387258D02*
X171197500Y-69912742D01*
X128975000Y-88640000D02*
X128975000Y-89640000D01*
X128975000Y-88640000D02*
X130475000Y-88640000D01*
X128975000Y-114490000D02*
X128975000Y-108290000D01*
X147375000Y-88640000D02*
X145875000Y-88640000D01*
X147375000Y-89640000D02*
X147375000Y-88640000D01*
X147375000Y-114490000D02*
X128975000Y-114490000D01*
X147375000Y-114490000D02*
X147375000Y-108290000D01*
X147375000Y-108115000D02*
X147375000Y-107615000D01*
X147875000Y-107615000D01*
X147375000Y-108115000D01*
G36*
X147375000Y-108115000D02*
G01*
X147375000Y-107615000D01*
X147875000Y-107615000D01*
X147375000Y-108115000D01*
G37*
X183227500Y-77987258D02*
X183227500Y-77512742D01*
X184272500Y-77987258D02*
X184272500Y-77512742D01*
X183165000Y-72290580D02*
X183165000Y-72009420D01*
X184185000Y-72290580D02*
X184185000Y-72009420D01*
X126340580Y-89790000D02*
X126059420Y-89790000D01*
X126340580Y-90810000D02*
X126059420Y-90810000D01*
X125437742Y-67110000D02*
X125912258Y-67110000D01*
X125437742Y-66065000D02*
X125912258Y-66065000D01*
X133537500Y-76990000D02*
X132737500Y-76990000D01*
X133537500Y-76990000D02*
X134337500Y-76990000D01*
X133537500Y-80110000D02*
X132737500Y-80110000D01*
X133537500Y-80110000D02*
X134337500Y-80110000D01*
X132237500Y-77040000D02*
X131997500Y-76710000D01*
X132477500Y-76710000D01*
X132237500Y-77040000D01*
G36*
X132237500Y-77040000D02*
G01*
X131997500Y-76710000D01*
X132477500Y-76710000D01*
X132237500Y-77040000D01*
G37*
X150059420Y-101790000D02*
X150340580Y-101790000D01*
X150059420Y-102810000D02*
X150340580Y-102810000D01*
X176412258Y-62302500D02*
X175937742Y-62302500D01*
X176412258Y-63347500D02*
X175937742Y-63347500D01*
X186152500Y-71912742D02*
X186152500Y-72387258D01*
X187197500Y-71912742D02*
X187197500Y-72387258D01*
X186165000Y-68684420D02*
X186165000Y-68965580D01*
X187185000Y-68684420D02*
X187185000Y-68965580D01*
X146977500Y-71662742D02*
X146977500Y-72137258D01*
X148022500Y-71662742D02*
X148022500Y-72137258D01*
X183227500Y-81162258D02*
X183227500Y-80687742D01*
X184272500Y-81162258D02*
X184272500Y-80687742D01*
X125740000Y-62527500D02*
X125410000Y-62287500D01*
X125740000Y-62047500D01*
X125740000Y-62527500D01*
G36*
X125740000Y-62527500D02*
G01*
X125410000Y-62287500D01*
X125740000Y-62047500D01*
X125740000Y-62527500D01*
G37*
X125460000Y-63587500D02*
X125460000Y-64387500D01*
X125460000Y-63587500D02*
X125460000Y-62787500D01*
X122340000Y-63587500D02*
X122340000Y-64387500D01*
X122340000Y-63587500D02*
X122340000Y-62787500D01*
X168562258Y-68802500D02*
X168087742Y-68802500D01*
X168562258Y-69847500D02*
X168087742Y-69847500D01*
X150462258Y-103377500D02*
X149987742Y-103377500D01*
X150462258Y-104422500D02*
X149987742Y-104422500D01*
X137377500Y-78912258D02*
X137377500Y-78437742D01*
X138422500Y-78912258D02*
X138422500Y-78437742D01*
X166990000Y-66890580D02*
X166990000Y-66609420D01*
X168010000Y-66890580D02*
X168010000Y-66609420D01*
X149940000Y-106138748D02*
X149940000Y-106661252D01*
X151410000Y-106138748D02*
X151410000Y-106661252D01*
X149275000Y-73510000D02*
X150575000Y-73510000D01*
X149275000Y-75490000D02*
X150325000Y-75490000D01*
X150695000Y-75770000D02*
X150695000Y-75490000D01*
X150975000Y-75490000D01*
X150695000Y-75770000D01*
G36*
X150695000Y-75770000D02*
G01*
X150695000Y-75490000D01*
X150975000Y-75490000D01*
X150695000Y-75770000D01*
G37*
X122034420Y-67097500D02*
X122315580Y-67097500D01*
X122034420Y-66077500D02*
X122315580Y-66077500D01*
D16*
X186650000Y-92629800D02*
X186650000Y-90391800D01*
X188900000Y-103529800D02*
X195400000Y-103529800D01*
X195400000Y-88729800D02*
X188900000Y-88729800D01*
X198900000Y-103529800D02*
X201150000Y-103528820D01*
X201150000Y-103528820D02*
X201162700Y-88730780D01*
X201162700Y-88730780D02*
X199400000Y-88729800D01*
D17*
X186042510Y-92834150D02*
G75*
G02*
X185788510Y-92834150I-127000J0D01*
G01*
X185788510Y-92834150D02*
G75*
G02*
X186042510Y-92834150I127000J0D01*
G01*
D15*
X175152500Y-79312258D02*
X175152500Y-78837742D01*
X176197500Y-79312258D02*
X176197500Y-78837742D01*
X145225000Y-64600000D02*
X145225000Y-62820000D01*
X152725000Y-67520000D02*
X153525000Y-67520000D01*
X154625000Y-64600000D02*
X154625000Y-62820000D01*
X183152500Y-68587742D02*
X183152500Y-69062258D01*
X184197500Y-68587742D02*
X184197500Y-69062258D01*
X121510000Y-63365580D02*
X121510000Y-63084420D01*
X120490000Y-63365580D02*
X120490000Y-63084420D01*
X165477500Y-70387258D02*
X165477500Y-69912742D01*
X166522500Y-70387258D02*
X166522500Y-69912742D01*
%LPC*%
D18*
X130250000Y-62260000D03*
X131750000Y-62260000D03*
X134750000Y-62260000D03*
D19*
X128850000Y-59400000D03*
X128850000Y-61610000D03*
D20*
X131000000Y-60500000D03*
X134000000Y-60500000D03*
D19*
X136150000Y-59400000D03*
X136150000Y-61610000D03*
D21*
X103750000Y-66000000D03*
X112750000Y-66000000D03*
D22*
X174500000Y-69325000D03*
X172850000Y-69325000D03*
D23*
X171175000Y-64775000D03*
X171175000Y-66425000D03*
D24*
X179750000Y-79900000D03*
X179750000Y-78250000D03*
D25*
X165750000Y-67525000D03*
X165750000Y-65975000D03*
D26*
X180675000Y-74825000D03*
X182225000Y-74825000D03*
D23*
X183675000Y-64825000D03*
X183675000Y-66475000D03*
D24*
X181675000Y-79900000D03*
X181675000Y-78250000D03*
D27*
X137487500Y-75550000D03*
X135587500Y-75550000D03*
D28*
X131037500Y-73987500D03*
X130087500Y-72112500D03*
X131987500Y-72112500D03*
D23*
X189675000Y-71325000D03*
X189675000Y-72975000D03*
D29*
X172850000Y-64825000D03*
X172850000Y-66375000D03*
D23*
X142500000Y-65600000D03*
X142500000Y-67250000D03*
D24*
X177675000Y-79900000D03*
X177675000Y-78250000D03*
D22*
X174000000Y-74825000D03*
X172350000Y-74825000D03*
D30*
X176050000Y-65825000D03*
X174500000Y-65825000D03*
X177175000Y-74825000D03*
X175625000Y-74825000D03*
D23*
X136400000Y-77850000D03*
X136400000Y-79500000D03*
D31*
X178350000Y-62825000D03*
X180000000Y-62825000D03*
D32*
X128087500Y-78550000D03*
X129987500Y-78550000D03*
D30*
X177175000Y-76500000D03*
X175625000Y-76500000D03*
D29*
X148925000Y-105450000D03*
X148925000Y-107000000D03*
D33*
X127437500Y-71912500D03*
X125537500Y-71912500D03*
X126487500Y-74187500D03*
D24*
X167675000Y-74475000D03*
X167675000Y-72825000D03*
X170675000Y-74475000D03*
X170675000Y-72825000D03*
D23*
X152100000Y-71000000D03*
X152100000Y-72650000D03*
D24*
X170675000Y-70975000D03*
X170675000Y-69325000D03*
D34*
X178525000Y-72175000D03*
X179025000Y-72175000D03*
X179525000Y-72175000D03*
X180025000Y-72175000D03*
X180525000Y-72175000D03*
D35*
X181375000Y-71325000D03*
X181375000Y-70825000D03*
X181375000Y-70325000D03*
X181375000Y-69825000D03*
X181375000Y-69325000D03*
D36*
X180525000Y-68475000D03*
X180025000Y-68475000D03*
X179525000Y-68475000D03*
X179025000Y-68475000D03*
X178525000Y-68475000D03*
D37*
X177675000Y-69325000D03*
X177675000Y-69825000D03*
X177675000Y-70325000D03*
X177675000Y-70825000D03*
X177675000Y-71325000D03*
D38*
X179525000Y-70325000D03*
D39*
X146925000Y-106850000D03*
X146925000Y-105580000D03*
X146925000Y-104310000D03*
X146925000Y-103040000D03*
X146925000Y-101770000D03*
X146925000Y-100500000D03*
X146925000Y-99230000D03*
X146925000Y-97960000D03*
X146925000Y-96690000D03*
X146925000Y-95420000D03*
X146925000Y-94150000D03*
X146925000Y-92880000D03*
X146925000Y-91610000D03*
X146925000Y-90340000D03*
D40*
X145160000Y-89090000D03*
X143890000Y-89090000D03*
X142620000Y-89090000D03*
X141350000Y-89090000D03*
X140080000Y-89090000D03*
X138810000Y-89090000D03*
X137540000Y-89090000D03*
X136270000Y-89090000D03*
X135000000Y-89090000D03*
X133730000Y-89090000D03*
X132460000Y-89090000D03*
X131190000Y-89090000D03*
D39*
X129425000Y-90340000D03*
X129425000Y-91610000D03*
X129425000Y-92880000D03*
X129425000Y-94150000D03*
X129425000Y-95420000D03*
X129425000Y-96690000D03*
X129425000Y-97960000D03*
X129425000Y-99230000D03*
X129425000Y-100500000D03*
X129425000Y-101770000D03*
X129425000Y-103040000D03*
X129425000Y-104310000D03*
X129425000Y-105580000D03*
X129425000Y-106850000D03*
D41*
X141075000Y-99830000D03*
X141075000Y-98430000D03*
X140375000Y-100530000D03*
X140375000Y-99130000D03*
X140375000Y-97730000D03*
X139675000Y-99830000D03*
D42*
X139675000Y-99130000D03*
D41*
X139675000Y-98430000D03*
X138975000Y-100530000D03*
X138975000Y-99130000D03*
X138975000Y-97730000D03*
X138275000Y-99830000D03*
X138275000Y-98430000D03*
D24*
X183750000Y-78575000D03*
X183750000Y-76925000D03*
D25*
X183675000Y-72925000D03*
X183675000Y-71375000D03*
D30*
X126975000Y-90300000D03*
X125425000Y-90300000D03*
D31*
X126500000Y-66587500D03*
X124850000Y-66587500D03*
D43*
X132400000Y-77600000D03*
X132400000Y-78550000D03*
X132400000Y-79500000D03*
X134675000Y-79500000D03*
X134675000Y-77600000D03*
D26*
X149425000Y-102300000D03*
X150975000Y-102300000D03*
D22*
X177000000Y-62825000D03*
X175350000Y-62825000D03*
D23*
X186675000Y-71325000D03*
X186675000Y-72975000D03*
D29*
X186675000Y-68050000D03*
X186675000Y-69600000D03*
D23*
X147500000Y-71075000D03*
X147500000Y-72725000D03*
D24*
X183750000Y-81750000D03*
X183750000Y-80100000D03*
D33*
X124850000Y-64725000D03*
X122950000Y-64725000D03*
X122950000Y-62450000D03*
X123900000Y-62450000D03*
X124850000Y-62450000D03*
D22*
X169150000Y-69325000D03*
X167500000Y-69325000D03*
X151050000Y-103900000D03*
X149400000Y-103900000D03*
D24*
X137900000Y-79500000D03*
X137900000Y-77850000D03*
D25*
X167500000Y-67525000D03*
X167500000Y-65975000D03*
D44*
X150675000Y-105450000D03*
X150675000Y-107350000D03*
D45*
X150775000Y-75037500D03*
D46*
X150850000Y-74500000D03*
D45*
X150775000Y-73962500D03*
X149075000Y-73962500D03*
D46*
X149000000Y-74500000D03*
D45*
X149075000Y-75037500D03*
D26*
X122950000Y-66587500D03*
X121400000Y-66587500D03*
D47*
X197430600Y-101133600D03*
X197430600Y-93158000D03*
D48*
X186726200Y-93900000D03*
X186726200Y-95000000D03*
X186726200Y-96100000D03*
X186726200Y-97200000D03*
X186726200Y-98300000D03*
X186726200Y-99400000D03*
X186726200Y-100500000D03*
X186726200Y-101600000D03*
X186726200Y-102700000D03*
D49*
X187500000Y-104118400D03*
D50*
X197200000Y-104118400D03*
X197200000Y-88293600D03*
D51*
X187500000Y-89068600D03*
D24*
X175675000Y-79900000D03*
X175675000Y-78250000D03*
D52*
X152815000Y-65425000D03*
X147035000Y-65425000D03*
D53*
X153125000Y-66565000D03*
X152325000Y-66565000D03*
D54*
X151175000Y-66565000D03*
X150175000Y-66565000D03*
X149675000Y-66565000D03*
X148675000Y-66565000D03*
D53*
X147525000Y-66565000D03*
X146725000Y-66565000D03*
X146725000Y-66565000D03*
X147525000Y-66565000D03*
D54*
X148175000Y-66565000D03*
X149175000Y-66565000D03*
X150675000Y-66565000D03*
X151675000Y-66565000D03*
D53*
X152325000Y-66565000D03*
X153125000Y-66565000D03*
D55*
X154245000Y-65925000D03*
D56*
X154245000Y-61745000D03*
D55*
X145605000Y-65925000D03*
D56*
X145605000Y-61745000D03*
D23*
X183675000Y-68000000D03*
X183675000Y-69650000D03*
D25*
X121000000Y-62450000D03*
X121000000Y-64000000D03*
D24*
X166000000Y-70975000D03*
X166000000Y-69325000D03*
%LPD*%
M02*
