G04 #@! TF.GenerationSoftware,KiCad,Pcbnew,8.0.0*
G04 #@! TF.CreationDate,2024-03-29T12:15:47-04:00*
G04 #@! TF.ProjectId,ecg_board,6563675f-626f-4617-9264-2e6b69636164,rev?*
G04 #@! TF.SameCoordinates,Original*
G04 #@! TF.FileFunction,Soldermask,Top*
G04 #@! TF.FilePolarity,Negative*
%FSLAX46Y46*%
G04 Gerber Fmt 4.6, Leading zero omitted, Abs format (unit mm)*
G04 Created by KiCad (PCBNEW 8.0.0) date 2024-03-29 12:15:47*
%MOMM*%
%LPD*%
G01*
G04 APERTURE LIST*
G04 Aperture macros list*
%AMRoundRect*
0 Rectangle with rounded corners*
0 $1 Rounding radius*
0 $2 $3 $4 $5 $6 $7 $8 $9 X,Y pos of 4 corners*
0 Add a 4 corners polygon primitive as box body*
4,1,4,$2,$3,$4,$5,$6,$7,$8,$9,$2,$3,0*
0 Add four circle primitives for the rounded corners*
1,1,$1+$1,$2,$3*
1,1,$1+$1,$4,$5*
1,1,$1+$1,$6,$7*
1,1,$1+$1,$8,$9*
0 Add four rect primitives between the rounded corners*
20,1,$1+$1,$2,$3,$4,$5,0*
20,1,$1+$1,$4,$5,$6,$7,0*
20,1,$1+$1,$6,$7,$8,$9,0*
20,1,$1+$1,$8,$9,$2,$3,0*%
G04 Aperture macros list end*
%ADD10R,0.700000X1.500000*%
%ADD11R,1.000000X0.800000*%
%ADD12C,0.900000*%
%ADD13RoundRect,0.750000X-1.750000X-0.750000X1.750000X-0.750000X1.750000X0.750000X-1.750000X0.750000X0*%
%ADD14RoundRect,0.200000X0.200000X0.275000X-0.200000X0.275000X-0.200000X-0.275000X0.200000X-0.275000X0*%
%ADD15RoundRect,0.200000X-0.275000X0.200000X-0.275000X-0.200000X0.275000X-0.200000X0.275000X0.200000X0*%
%ADD16RoundRect,0.200000X0.275000X-0.200000X0.275000X0.200000X-0.275000X0.200000X-0.275000X-0.200000X0*%
%ADD17RoundRect,0.225000X0.250000X-0.225000X0.250000X0.225000X-0.250000X0.225000X-0.250000X-0.225000X0*%
%ADD18RoundRect,0.225000X-0.225000X-0.250000X0.225000X-0.250000X0.225000X0.250000X-0.225000X0.250000X0*%
%ADD19RoundRect,0.250000X0.250000X0.475000X-0.250000X0.475000X-0.250000X-0.475000X0.250000X-0.475000X0*%
%ADD20RoundRect,0.150000X-0.150000X0.587500X-0.150000X-0.587500X0.150000X-0.587500X0.150000X0.587500X0*%
%ADD21RoundRect,0.225000X-0.250000X0.225000X-0.250000X-0.225000X0.250000X-0.225000X0.250000X0.225000X0*%
%ADD22RoundRect,0.225000X0.225000X0.250000X-0.225000X0.250000X-0.225000X-0.250000X0.225000X-0.250000X0*%
%ADD23RoundRect,0.200000X-0.200000X-0.275000X0.200000X-0.275000X0.200000X0.275000X-0.200000X0.275000X0*%
%ADD24RoundRect,0.250000X-0.250000X-0.475000X0.250000X-0.475000X0.250000X0.475000X-0.250000X0.475000X0*%
%ADD25RoundRect,0.150000X-0.150000X0.512500X-0.150000X-0.512500X0.150000X-0.512500X0.150000X0.512500X0*%
%ADD26RoundRect,0.102000X-0.125000X-0.250000X0.125000X-0.250000X0.125000X0.250000X-0.125000X0.250000X0*%
%ADD27RoundRect,0.102000X0.250000X-0.125000X0.250000X0.125000X-0.250000X0.125000X-0.250000X-0.125000X0*%
%ADD28RoundRect,0.102000X0.125000X0.250000X-0.125000X0.250000X-0.125000X-0.250000X0.125000X-0.250000X0*%
%ADD29RoundRect,0.102000X-0.250000X0.125000X-0.250000X-0.125000X0.250000X-0.125000X0.250000X0.125000X0*%
%ADD30RoundRect,0.351520X1.000480X-1.000480X1.000480X1.000480X-1.000480X1.000480X-1.000480X-1.000480X0*%
%ADD31R,1.500000X0.900000*%
%ADD32R,0.900000X1.500000*%
%ADD33C,0.600000*%
%ADD34R,3.900000X3.900000*%
%ADD35RoundRect,0.150000X-0.512500X-0.150000X0.512500X-0.150000X0.512500X0.150000X-0.512500X0.150000X0*%
%ADD36RoundRect,0.250000X-0.475000X0.250000X-0.475000X-0.250000X0.475000X-0.250000X0.475000X0.250000X0*%
%ADD37RoundRect,0.093750X0.156250X0.093750X-0.156250X0.093750X-0.156250X-0.093750X0.156250X-0.093750X0*%
%ADD38RoundRect,0.075000X0.250000X0.075000X-0.250000X0.075000X-0.250000X-0.075000X0.250000X-0.075000X0*%
%ADD39C,0.999997*%
%ADD40RoundRect,0.102000X0.650000X0.350000X-0.650000X0.350000X-0.650000X-0.350000X0.650000X-0.350000X0*%
%ADD41RoundRect,0.102000X0.825500X0.723900X-0.825500X0.723900X-0.825500X-0.723900X0.825500X-0.723900X0*%
%ADD42RoundRect,0.102000X1.219200X0.723900X-1.219200X0.723900X-1.219200X-0.723900X1.219200X-0.723900X0*%
%ADD43RoundRect,0.102000X0.825500X0.927100X-0.825500X0.927100X-0.825500X-0.927100X0.825500X-0.927100X0*%
%ADD44C,0.650000*%
%ADD45RoundRect,0.150000X0.150000X0.500000X-0.150000X0.500000X-0.150000X-0.500000X0.150000X-0.500000X0*%
%ADD46RoundRect,0.075000X0.075000X0.575000X-0.075000X0.575000X-0.075000X-0.575000X0.075000X-0.575000X0*%
%ADD47O,1.000000X2.100000*%
%ADD48O,1.000000X1.600000*%
G04 APERTURE END LIST*
D10*
X130250000Y-62260000D03*
X131750000Y-62260000D03*
X134750000Y-62260000D03*
D11*
X128850000Y-59400000D03*
X128850000Y-61610000D03*
D12*
X131000000Y-60500000D03*
X134000000Y-60500000D03*
D11*
X136150000Y-59400000D03*
X136150000Y-61610000D03*
D13*
X103750000Y-66000000D03*
X112750000Y-66000000D03*
D14*
X174500000Y-69325000D03*
X172850000Y-69325000D03*
D15*
X171175000Y-64775000D03*
X171175000Y-66425000D03*
D16*
X179750000Y-79900000D03*
X179750000Y-78250000D03*
D17*
X165750000Y-67525000D03*
X165750000Y-65975000D03*
D18*
X180675000Y-74825000D03*
X182225000Y-74825000D03*
D15*
X183675000Y-64825000D03*
X183675000Y-66475000D03*
D16*
X181675000Y-79900000D03*
X181675000Y-78250000D03*
D19*
X137487500Y-75550000D03*
X135587500Y-75550000D03*
D20*
X131037500Y-73987500D03*
X130087500Y-72112500D03*
X131987500Y-72112500D03*
D15*
X189675000Y-71325000D03*
X189675000Y-72975000D03*
D21*
X172850000Y-64825000D03*
X172850000Y-66375000D03*
D15*
X142500000Y-65600000D03*
X142500000Y-67250000D03*
D16*
X177675000Y-79900000D03*
X177675000Y-78250000D03*
D14*
X174000000Y-74825000D03*
X172350000Y-74825000D03*
D22*
X176050000Y-65825000D03*
X174500000Y-65825000D03*
X177175000Y-74825000D03*
X175625000Y-74825000D03*
D15*
X136400000Y-77850000D03*
X136400000Y-79500000D03*
D23*
X178350000Y-62825000D03*
X180000000Y-62825000D03*
D24*
X128087500Y-78550000D03*
X129987500Y-78550000D03*
D22*
X177175000Y-76500000D03*
X175625000Y-76500000D03*
D21*
X148925000Y-105450000D03*
X148925000Y-107000000D03*
D25*
X127437500Y-71912500D03*
X125537500Y-71912500D03*
X126487500Y-74187500D03*
D16*
X167675000Y-74475000D03*
X167675000Y-72825000D03*
X170675000Y-74475000D03*
X170675000Y-72825000D03*
D15*
X152100000Y-71000000D03*
X152100000Y-72650000D03*
D16*
X170675000Y-70975000D03*
X170675000Y-69325000D03*
D26*
X178525000Y-72175000D03*
X179025000Y-72175000D03*
X179525000Y-72175000D03*
X180025000Y-72175000D03*
X180525000Y-72175000D03*
D27*
X181375000Y-71325000D03*
X181375000Y-70825000D03*
X181375000Y-70325000D03*
X181375000Y-69825000D03*
X181375000Y-69325000D03*
D28*
X180525000Y-68475000D03*
X180025000Y-68475000D03*
X179525000Y-68475000D03*
X179025000Y-68475000D03*
X178525000Y-68475000D03*
D29*
X177675000Y-69325000D03*
X177675000Y-69825000D03*
X177675000Y-70325000D03*
X177675000Y-70825000D03*
X177675000Y-71325000D03*
D30*
X179525000Y-70325000D03*
D31*
X146925000Y-106850000D03*
X146925000Y-105580000D03*
X146925000Y-104310000D03*
X146925000Y-103040000D03*
X146925000Y-101770000D03*
X146925000Y-100500000D03*
X146925000Y-99230000D03*
X146925000Y-97960000D03*
X146925000Y-96690000D03*
X146925000Y-95420000D03*
X146925000Y-94150000D03*
X146925000Y-92880000D03*
X146925000Y-91610000D03*
X146925000Y-90340000D03*
D32*
X145160000Y-89090000D03*
X143890000Y-89090000D03*
X142620000Y-89090000D03*
X141350000Y-89090000D03*
X140080000Y-89090000D03*
X138810000Y-89090000D03*
X137540000Y-89090000D03*
X136270000Y-89090000D03*
X135000000Y-89090000D03*
X133730000Y-89090000D03*
X132460000Y-89090000D03*
X131190000Y-89090000D03*
D31*
X129425000Y-90340000D03*
X129425000Y-91610000D03*
X129425000Y-92880000D03*
X129425000Y-94150000D03*
X129425000Y-95420000D03*
X129425000Y-96690000D03*
X129425000Y-97960000D03*
X129425000Y-99230000D03*
X129425000Y-100500000D03*
X129425000Y-101770000D03*
X129425000Y-103040000D03*
X129425000Y-104310000D03*
X129425000Y-105580000D03*
X129425000Y-106850000D03*
D33*
X141075000Y-99830000D03*
X141075000Y-98430000D03*
X140375000Y-100530000D03*
X140375000Y-99130000D03*
X140375000Y-97730000D03*
X139675000Y-99830000D03*
D34*
X139675000Y-99130000D03*
D33*
X139675000Y-98430000D03*
X138975000Y-100530000D03*
X138975000Y-99130000D03*
X138975000Y-97730000D03*
X138275000Y-99830000D03*
X138275000Y-98430000D03*
D16*
X183750000Y-78575000D03*
X183750000Y-76925000D03*
D17*
X183675000Y-72925000D03*
X183675000Y-71375000D03*
D22*
X126975000Y-90300000D03*
X125425000Y-90300000D03*
D23*
X126500000Y-66587500D03*
X124850000Y-66587500D03*
D35*
X132400000Y-77600000D03*
X132400000Y-78550000D03*
X132400000Y-79500000D03*
X134675000Y-79500000D03*
X134675000Y-77600000D03*
D18*
X149425000Y-102300000D03*
X150975000Y-102300000D03*
D14*
X177000000Y-62825000D03*
X175350000Y-62825000D03*
D15*
X186675000Y-71325000D03*
X186675000Y-72975000D03*
D21*
X186675000Y-68050000D03*
X186675000Y-69600000D03*
D15*
X147500000Y-71075000D03*
X147500000Y-72725000D03*
D16*
X183750000Y-81750000D03*
X183750000Y-80100000D03*
D25*
X124850000Y-64725000D03*
X122950000Y-64725000D03*
X122950000Y-62450000D03*
X123900000Y-62450000D03*
X124850000Y-62450000D03*
D14*
X169150000Y-69325000D03*
X167500000Y-69325000D03*
X151050000Y-103900000D03*
X149400000Y-103900000D03*
D16*
X137900000Y-79500000D03*
X137900000Y-77850000D03*
D17*
X167500000Y-67525000D03*
X167500000Y-65975000D03*
D36*
X150675000Y-105450000D03*
X150675000Y-107350000D03*
D37*
X150775000Y-75037500D03*
D38*
X150850000Y-74500000D03*
D37*
X150775000Y-73962500D03*
X149075000Y-73962500D03*
D38*
X149000000Y-74500000D03*
D37*
X149075000Y-75037500D03*
D18*
X122950000Y-66587500D03*
X121400000Y-66587500D03*
D39*
X197430600Y-101133600D03*
X197430600Y-93158000D03*
D40*
X186726200Y-93900000D03*
X186726200Y-95000000D03*
X186726200Y-96100000D03*
X186726200Y-97200000D03*
X186726200Y-98300000D03*
X186726200Y-99400000D03*
X186726200Y-100500000D03*
X186726200Y-101600000D03*
X186726200Y-102700000D03*
D41*
X187500000Y-104118400D03*
D42*
X197200000Y-104118400D03*
X197200000Y-88293600D03*
D43*
X187500000Y-89068600D03*
D16*
X175675000Y-79900000D03*
X175675000Y-78250000D03*
D44*
X152815000Y-65425000D03*
X147035000Y-65425000D03*
D45*
X153125000Y-66565000D03*
X152325000Y-66565000D03*
D46*
X151175000Y-66565000D03*
X150175000Y-66565000D03*
X149675000Y-66565000D03*
X148675000Y-66565000D03*
D45*
X147525000Y-66565000D03*
X146725000Y-66565000D03*
X146725000Y-66565000D03*
X147525000Y-66565000D03*
D46*
X148175000Y-66565000D03*
X149175000Y-66565000D03*
X150675000Y-66565000D03*
X151675000Y-66565000D03*
D45*
X152325000Y-66565000D03*
X153125000Y-66565000D03*
D47*
X154245000Y-65925000D03*
D48*
X154245000Y-61745000D03*
D47*
X145605000Y-65925000D03*
D48*
X145605000Y-61745000D03*
D15*
X183675000Y-68000000D03*
X183675000Y-69650000D03*
D17*
X121000000Y-62450000D03*
X121000000Y-64000000D03*
D16*
X166000000Y-70975000D03*
X166000000Y-69325000D03*
M02*
