G04 #@! TF.GenerationSoftware,KiCad,Pcbnew,8.0.0*
G04 #@! TF.CreationDate,2024-03-25T15:19:01-04:00*
G04 #@! TF.ProjectId,ecg_board,6563675f-626f-4617-9264-2e6b69636164,rev?*
G04 #@! TF.SameCoordinates,Original*
G04 #@! TF.FileFunction,Soldermask,Top*
G04 #@! TF.FilePolarity,Negative*
%FSLAX46Y46*%
G04 Gerber Fmt 4.6, Leading zero omitted, Abs format (unit mm)*
G04 Created by KiCad (PCBNEW 8.0.0) date 2024-03-25 15:19:01*
%MOMM*%
%LPD*%
G01*
G04 APERTURE LIST*
G04 Aperture macros list*
%AMRoundRect*
0 Rectangle with rounded corners*
0 $1 Rounding radius*
0 $2 $3 $4 $5 $6 $7 $8 $9 X,Y pos of 4 corners*
0 Add a 4 corners polygon primitive as box body*
4,1,4,$2,$3,$4,$5,$6,$7,$8,$9,$2,$3,0*
0 Add four circle primitives for the rounded corners*
1,1,$1+$1,$2,$3*
1,1,$1+$1,$4,$5*
1,1,$1+$1,$6,$7*
1,1,$1+$1,$8,$9*
0 Add four rect primitives between the rounded corners*
20,1,$1+$1,$2,$3,$4,$5,0*
20,1,$1+$1,$4,$5,$6,$7,0*
20,1,$1+$1,$6,$7,$8,$9,0*
20,1,$1+$1,$8,$9,$2,$3,0*%
G04 Aperture macros list end*
%ADD10C,0.650000*%
%ADD11RoundRect,0.150000X0.150000X0.500000X-0.150000X0.500000X-0.150000X-0.500000X0.150000X-0.500000X0*%
%ADD12RoundRect,0.075000X0.075000X0.575000X-0.075000X0.575000X-0.075000X-0.575000X0.075000X-0.575000X0*%
%ADD13O,1.000000X2.100000*%
%ADD14O,1.000000X1.600000*%
%ADD15RoundRect,0.225000X0.225000X0.250000X-0.225000X0.250000X-0.225000X-0.250000X0.225000X-0.250000X0*%
%ADD16RoundRect,0.200000X0.200000X0.275000X-0.200000X0.275000X-0.200000X-0.275000X0.200000X-0.275000X0*%
%ADD17RoundRect,0.200000X-0.275000X0.200000X-0.275000X-0.200000X0.275000X-0.200000X0.275000X0.200000X0*%
%ADD18RoundRect,0.200000X0.275000X-0.200000X0.275000X0.200000X-0.275000X0.200000X-0.275000X-0.200000X0*%
%ADD19RoundRect,0.225000X0.250000X-0.225000X0.250000X0.225000X-0.250000X0.225000X-0.250000X-0.225000X0*%
%ADD20RoundRect,0.225000X-0.225000X-0.250000X0.225000X-0.250000X0.225000X0.250000X-0.225000X0.250000X0*%
%ADD21RoundRect,0.750000X-1.750000X-0.750000X1.750000X-0.750000X1.750000X0.750000X-1.750000X0.750000X0*%
%ADD22RoundRect,0.250000X0.250000X0.475000X-0.250000X0.475000X-0.250000X-0.475000X0.250000X-0.475000X0*%
%ADD23RoundRect,0.150000X-0.150000X0.587500X-0.150000X-0.587500X0.150000X-0.587500X0.150000X0.587500X0*%
%ADD24C,0.950000*%
%ADD25RoundRect,0.102000X0.700000X-0.310000X0.700000X0.310000X-0.700000X0.310000X-0.700000X-0.310000X0*%
%ADD26RoundRect,0.102000X1.200000X-0.550000X1.200000X0.550000X-1.200000X0.550000X-1.200000X-0.550000X0*%
%ADD27R,1.000000X0.800000*%
%ADD28C,0.900000*%
%ADD29R,0.700000X1.500000*%
%ADD30RoundRect,0.225000X-0.250000X0.225000X-0.250000X-0.225000X0.250000X-0.225000X0.250000X0.225000X0*%
%ADD31RoundRect,0.200000X-0.200000X-0.275000X0.200000X-0.275000X0.200000X0.275000X-0.200000X0.275000X0*%
%ADD32RoundRect,0.250000X-0.250000X-0.475000X0.250000X-0.475000X0.250000X0.475000X-0.250000X0.475000X0*%
%ADD33RoundRect,0.150000X-0.150000X0.512500X-0.150000X-0.512500X0.150000X-0.512500X0.150000X0.512500X0*%
%ADD34RoundRect,0.102000X-0.125000X-0.250000X0.125000X-0.250000X0.125000X0.250000X-0.125000X0.250000X0*%
%ADD35RoundRect,0.102000X0.250000X-0.125000X0.250000X0.125000X-0.250000X0.125000X-0.250000X-0.125000X0*%
%ADD36RoundRect,0.102000X0.125000X0.250000X-0.125000X0.250000X-0.125000X-0.250000X0.125000X-0.250000X0*%
%ADD37RoundRect,0.102000X-0.250000X0.125000X-0.250000X-0.125000X0.250000X-0.125000X0.250000X0.125000X0*%
%ADD38RoundRect,0.351520X1.000480X-1.000480X1.000480X1.000480X-1.000480X1.000480X-1.000480X-1.000480X0*%
%ADD39R,1.500000X0.900000*%
%ADD40R,0.900000X1.500000*%
%ADD41C,0.600000*%
%ADD42R,3.900000X3.900000*%
%ADD43RoundRect,0.150000X-0.512500X-0.150000X0.512500X-0.150000X0.512500X0.150000X-0.512500X0.150000X0*%
%ADD44RoundRect,0.250000X-0.475000X0.250000X-0.475000X-0.250000X0.475000X-0.250000X0.475000X0.250000X0*%
%ADD45RoundRect,0.093750X0.156250X0.093750X-0.156250X0.093750X-0.156250X-0.093750X0.156250X-0.093750X0*%
%ADD46RoundRect,0.075000X0.250000X0.075000X-0.250000X0.075000X-0.250000X-0.075000X0.250000X-0.075000X0*%
G04 APERTURE END LIST*
D10*
X152815000Y-65425000D03*
X147035000Y-65425000D03*
D11*
X153125000Y-66565000D03*
X152325000Y-66565000D03*
D12*
X151175000Y-66565000D03*
X150175000Y-66565000D03*
X149675000Y-66565000D03*
X148675000Y-66565000D03*
D11*
X147525000Y-66565000D03*
X146725000Y-66565000D03*
X146725000Y-66565000D03*
X147525000Y-66565000D03*
D12*
X148175000Y-66565000D03*
X149175000Y-66565000D03*
X150675000Y-66565000D03*
X151675000Y-66565000D03*
D11*
X152325000Y-66565000D03*
X153125000Y-66565000D03*
D13*
X154245000Y-65925000D03*
D14*
X154245000Y-61745000D03*
D13*
X145605000Y-65925000D03*
D14*
X145605000Y-61745000D03*
D15*
X130675000Y-61500000D03*
X129125000Y-61500000D03*
D16*
X174500000Y-69325000D03*
X172850000Y-69325000D03*
D17*
X171175000Y-64775000D03*
X171175000Y-66425000D03*
D18*
X179750000Y-79900000D03*
X179750000Y-78250000D03*
D19*
X165750000Y-67525000D03*
X165750000Y-65975000D03*
D20*
X180675000Y-74825000D03*
X182225000Y-74825000D03*
D17*
X183675000Y-64825000D03*
X183675000Y-66475000D03*
D18*
X181675000Y-79900000D03*
X181675000Y-78250000D03*
D21*
X103175000Y-69400000D03*
X111175000Y-69400000D03*
D22*
X138662500Y-76000000D03*
X136762500Y-76000000D03*
D23*
X134075000Y-74000000D03*
X132175000Y-74000000D03*
X133125000Y-75875000D03*
D24*
X197617500Y-99775000D03*
X197617500Y-92975000D03*
D25*
X186197500Y-93795000D03*
X186197500Y-94895000D03*
X186197500Y-95995000D03*
X186197500Y-97095000D03*
X186197500Y-98195000D03*
X186197500Y-99295000D03*
X186197500Y-100395000D03*
X186197500Y-101495000D03*
X186197500Y-102595000D03*
D26*
X197197500Y-103975000D03*
X188197500Y-103975000D03*
X188197500Y-87825000D03*
X197197500Y-87825000D03*
D17*
X189675000Y-71325000D03*
X189675000Y-72975000D03*
D27*
X113050000Y-61610000D03*
X113050000Y-59400000D03*
D28*
X110900000Y-60500000D03*
X107900000Y-60500000D03*
D27*
X105750000Y-61610000D03*
X105750000Y-59400000D03*
D29*
X111650000Y-62260000D03*
X108650000Y-62260000D03*
X107150000Y-62260000D03*
D30*
X172850000Y-64825000D03*
X172850000Y-66375000D03*
D17*
X136712500Y-70750000D03*
X136712500Y-72400000D03*
D18*
X177675000Y-79900000D03*
X177675000Y-78250000D03*
D16*
X174000000Y-74825000D03*
X172350000Y-74825000D03*
D15*
X176050000Y-65825000D03*
X174500000Y-65825000D03*
X177175000Y-74825000D03*
X175625000Y-74825000D03*
D17*
X137575000Y-78300000D03*
X137575000Y-79950000D03*
D31*
X178350000Y-62825000D03*
X180000000Y-62825000D03*
D32*
X129262500Y-79000000D03*
X131162500Y-79000000D03*
D15*
X177175000Y-76500000D03*
X175625000Y-76500000D03*
D30*
X148925000Y-105450000D03*
X148925000Y-107000000D03*
D33*
X129212500Y-74000000D03*
X127312500Y-74000000D03*
X128262500Y-76275000D03*
D18*
X167675000Y-74475000D03*
X167675000Y-72825000D03*
X170675000Y-74475000D03*
X170675000Y-72825000D03*
D17*
X152100000Y-71000000D03*
X152100000Y-72650000D03*
D18*
X170675000Y-70975000D03*
X170675000Y-69325000D03*
D34*
X178525000Y-72175000D03*
X179025000Y-72175000D03*
X179525000Y-72175000D03*
X180025000Y-72175000D03*
X180525000Y-72175000D03*
D35*
X181375000Y-71325000D03*
X181375000Y-70825000D03*
X181375000Y-70325000D03*
X181375000Y-69825000D03*
X181375000Y-69325000D03*
D36*
X180525000Y-68475000D03*
X180025000Y-68475000D03*
X179525000Y-68475000D03*
X179025000Y-68475000D03*
X178525000Y-68475000D03*
D37*
X177675000Y-69325000D03*
X177675000Y-69825000D03*
X177675000Y-70325000D03*
X177675000Y-70825000D03*
X177675000Y-71325000D03*
D38*
X179525000Y-70325000D03*
D39*
X146925000Y-106760000D03*
X146925000Y-105490000D03*
X146925000Y-104220000D03*
X146925000Y-102950000D03*
X146925000Y-101680000D03*
X146925000Y-100410000D03*
X146925000Y-99140000D03*
X146925000Y-97870000D03*
X146925000Y-96600000D03*
X146925000Y-95330000D03*
X146925000Y-94060000D03*
X146925000Y-92790000D03*
X146925000Y-91520000D03*
X146925000Y-90250000D03*
D40*
X145160000Y-89000000D03*
X143890000Y-89000000D03*
X142620000Y-89000000D03*
X141350000Y-89000000D03*
X140080000Y-89000000D03*
X138810000Y-89000000D03*
X137540000Y-89000000D03*
X136270000Y-89000000D03*
X135000000Y-89000000D03*
X133730000Y-89000000D03*
X132460000Y-89000000D03*
X131190000Y-89000000D03*
D39*
X129425000Y-90250000D03*
X129425000Y-91520000D03*
X129425000Y-92790000D03*
X129425000Y-94060000D03*
X129425000Y-95330000D03*
X129425000Y-96600000D03*
X129425000Y-97870000D03*
X129425000Y-99140000D03*
X129425000Y-100410000D03*
X129425000Y-101680000D03*
X129425000Y-102950000D03*
X129425000Y-104220000D03*
X129425000Y-105490000D03*
X129425000Y-106760000D03*
D41*
X141075000Y-99740000D03*
X141075000Y-98340000D03*
X140375000Y-100440000D03*
X140375000Y-99040000D03*
X140375000Y-97640000D03*
X139675000Y-99740000D03*
D42*
X139675000Y-99040000D03*
D41*
X139675000Y-98340000D03*
X138975000Y-100440000D03*
X138975000Y-99040000D03*
X138975000Y-97640000D03*
X138275000Y-99740000D03*
X138275000Y-98340000D03*
D18*
X183750000Y-78575000D03*
X183750000Y-76925000D03*
D19*
X183675000Y-72925000D03*
X183675000Y-71375000D03*
D15*
X126975000Y-90300000D03*
X125425000Y-90300000D03*
D31*
X130850000Y-68000000D03*
X132500000Y-68000000D03*
D43*
X133575000Y-78050000D03*
X133575000Y-79000000D03*
X133575000Y-79950000D03*
X135850000Y-79950000D03*
X135850000Y-78050000D03*
D20*
X149425000Y-102300000D03*
X150975000Y-102300000D03*
D16*
X177000000Y-62825000D03*
X175350000Y-62825000D03*
D17*
X186675000Y-71325000D03*
X186675000Y-72975000D03*
D30*
X186675000Y-68050000D03*
X186675000Y-69600000D03*
D17*
X147500000Y-71075000D03*
X147500000Y-72725000D03*
D18*
X183750000Y-81750000D03*
X183750000Y-80100000D03*
D33*
X130850000Y-63862500D03*
X129900000Y-63862500D03*
X128950000Y-63862500D03*
X128950000Y-66137500D03*
X130850000Y-66137500D03*
D16*
X169150000Y-69325000D03*
X167500000Y-69325000D03*
X151050000Y-103900000D03*
X149400000Y-103900000D03*
D18*
X139075000Y-79950000D03*
X139075000Y-78300000D03*
D19*
X167500000Y-67525000D03*
X167500000Y-65975000D03*
D44*
X150675000Y-105450000D03*
X150675000Y-107350000D03*
D45*
X150775000Y-75037500D03*
D46*
X150850000Y-74500000D03*
D45*
X150775000Y-73962500D03*
X149075000Y-73962500D03*
D46*
X149000000Y-74500000D03*
D45*
X149075000Y-75037500D03*
D20*
X127400000Y-68000000D03*
X128950000Y-68000000D03*
D18*
X175675000Y-79900000D03*
X175675000Y-78250000D03*
D17*
X183675000Y-68000000D03*
X183675000Y-69650000D03*
D18*
X166000000Y-70975000D03*
X166000000Y-69325000D03*
M02*
