G04 #@! TF.GenerationSoftware,KiCad,Pcbnew,8.0.0*
G04 #@! TF.CreationDate,2024-04-04T13:49:03-04:00*
G04 #@! TF.ProjectId,ecg_board,6563675f-626f-4617-9264-2e6b69636164,rev?*
G04 #@! TF.SameCoordinates,Original*
G04 #@! TF.FileFunction,Legend,Top*
G04 #@! TF.FilePolarity,Positive*
%FSLAX46Y46*%
G04 Gerber Fmt 4.6, Leading zero omitted, Abs format (unit mm)*
G04 Created by KiCad (PCBNEW 8.0.0) date 2024-04-04 13:49:03*
%MOMM*%
%LPD*%
G01*
G04 APERTURE LIST*
G04 Aperture macros list*
%AMRoundRect*
0 Rectangle with rounded corners*
0 $1 Rounding radius*
0 $2 $3 $4 $5 $6 $7 $8 $9 X,Y pos of 4 corners*
0 Add a 4 corners polygon primitive as box body*
4,1,4,$2,$3,$4,$5,$6,$7,$8,$9,$2,$3,0*
0 Add four circle primitives for the rounded corners*
1,1,$1+$1,$2,$3*
1,1,$1+$1,$4,$5*
1,1,$1+$1,$6,$7*
1,1,$1+$1,$8,$9*
0 Add four rect primitives between the rounded corners*
20,1,$1+$1,$2,$3,$4,$5,0*
20,1,$1+$1,$4,$5,$6,$7,0*
20,1,$1+$1,$6,$7,$8,$9,0*
20,1,$1+$1,$8,$9,$2,$3,0*%
G04 Aperture macros list end*
%ADD10C,0.200000*%
%ADD11C,0.375000*%
%ADD12C,0.187500*%
%ADD13C,0.250000*%
%ADD14C,0.100000*%
%ADD15C,0.150000*%
%ADD16C,0.120000*%
%ADD17C,0.203200*%
%ADD18C,0.254000*%
%ADD19RoundRect,0.750000X-1.750000X-0.750000X1.750000X-0.750000X1.750000X0.750000X-1.750000X0.750000X0*%
%ADD20RoundRect,0.200000X0.275000X-0.200000X0.275000X0.200000X-0.275000X0.200000X-0.275000X-0.200000X0*%
%ADD21RoundRect,0.200000X0.200000X0.275000X-0.200000X0.275000X-0.200000X-0.275000X0.200000X-0.275000X0*%
%ADD22RoundRect,0.200000X-0.275000X0.200000X-0.275000X-0.200000X0.275000X-0.200000X0.275000X0.200000X0*%
%ADD23RoundRect,0.225000X-0.225000X-0.250000X0.225000X-0.250000X0.225000X0.250000X-0.225000X0.250000X0*%
%ADD24RoundRect,0.250000X0.250000X0.475000X-0.250000X0.475000X-0.250000X-0.475000X0.250000X-0.475000X0*%
%ADD25RoundRect,0.150000X-0.150000X0.587500X-0.150000X-0.587500X0.150000X-0.587500X0.150000X0.587500X0*%
%ADD26R,1.000000X0.800000*%
%ADD27C,0.900000*%
%ADD28R,0.700000X1.500000*%
%ADD29RoundRect,0.225000X-0.250000X0.225000X-0.250000X-0.225000X0.250000X-0.225000X0.250000X0.225000X0*%
%ADD30RoundRect,0.225000X0.225000X0.250000X-0.225000X0.250000X-0.225000X-0.250000X0.225000X-0.250000X0*%
%ADD31RoundRect,0.200000X-0.200000X-0.275000X0.200000X-0.275000X0.200000X0.275000X-0.200000X0.275000X0*%
%ADD32RoundRect,0.250000X-0.250000X-0.475000X0.250000X-0.475000X0.250000X0.475000X-0.250000X0.475000X0*%
%ADD33RoundRect,0.150000X-0.150000X0.512500X-0.150000X-0.512500X0.150000X-0.512500X0.150000X0.512500X0*%
%ADD34RoundRect,0.102000X-0.125000X-0.250000X0.125000X-0.250000X0.125000X0.250000X-0.125000X0.250000X0*%
%ADD35RoundRect,0.102000X0.250000X-0.125000X0.250000X0.125000X-0.250000X0.125000X-0.250000X-0.125000X0*%
%ADD36RoundRect,0.102000X0.125000X0.250000X-0.125000X0.250000X-0.125000X-0.250000X0.125000X-0.250000X0*%
%ADD37RoundRect,0.102000X-0.250000X0.125000X-0.250000X-0.125000X0.250000X-0.125000X0.250000X0.125000X0*%
%ADD38RoundRect,0.351520X1.000480X-1.000480X1.000480X1.000480X-1.000480X1.000480X-1.000480X-1.000480X0*%
%ADD39R,1.500000X0.900000*%
%ADD40R,0.900000X1.500000*%
%ADD41C,0.600000*%
%ADD42R,3.900000X3.900000*%
%ADD43RoundRect,0.225000X0.250000X-0.225000X0.250000X0.225000X-0.250000X0.225000X-0.250000X-0.225000X0*%
%ADD44RoundRect,0.150000X-0.512500X-0.150000X0.512500X-0.150000X0.512500X0.150000X-0.512500X0.150000X0*%
%ADD45RoundRect,0.218750X-0.218750X-0.256250X0.218750X-0.256250X0.218750X0.256250X-0.218750X0.256250X0*%
%ADD46RoundRect,0.250000X-0.475000X0.250000X-0.475000X-0.250000X0.475000X-0.250000X0.475000X0.250000X0*%
%ADD47RoundRect,0.093750X0.156250X0.093750X-0.156250X0.093750X-0.156250X-0.093750X0.156250X-0.093750X0*%
%ADD48RoundRect,0.075000X0.250000X0.075000X-0.250000X0.075000X-0.250000X-0.075000X0.250000X-0.075000X0*%
%ADD49RoundRect,0.102000X0.650000X0.350000X-0.650000X0.350000X-0.650000X-0.350000X0.650000X-0.350000X0*%
%ADD50C,0.999997*%
%ADD51RoundRect,0.102000X0.825500X0.723900X-0.825500X0.723900X-0.825500X-0.723900X0.825500X-0.723900X0*%
%ADD52RoundRect,0.102000X1.219200X0.723900X-1.219200X0.723900X-1.219200X-0.723900X1.219200X-0.723900X0*%
%ADD53RoundRect,0.102000X0.825500X0.927100X-0.825500X0.927100X-0.825500X-0.927100X0.825500X-0.927100X0*%
%ADD54C,0.650000*%
%ADD55RoundRect,0.150000X0.150000X0.500000X-0.150000X0.500000X-0.150000X-0.500000X0.150000X-0.500000X0*%
%ADD56RoundRect,0.075000X0.075000X0.575000X-0.075000X0.575000X-0.075000X-0.575000X0.075000X-0.575000X0*%
%ADD57O,1.000000X2.100000*%
%ADD58O,1.000000X1.600000*%
G04 APERTURE END LIST*
D10*
X94500000Y-71000000D02*
X122000000Y-71000000D01*
X122000000Y-111000000D01*
X94500000Y-111000000D01*
X94500000Y-71000000D01*
D11*
X116928571Y-66103000D02*
X118071429Y-66103000D01*
X117500000Y-66674428D02*
X117500000Y-65531571D01*
D12*
X125694783Y-60148464D02*
X125837640Y-60148464D01*
X125837640Y-60148464D02*
X125909069Y-60184178D01*
X125909069Y-60184178D02*
X125980497Y-60255607D01*
X125980497Y-60255607D02*
X126016212Y-60398464D01*
X126016212Y-60398464D02*
X126016212Y-60648464D01*
X126016212Y-60648464D02*
X125980497Y-60791321D01*
X125980497Y-60791321D02*
X125909069Y-60862750D01*
X125909069Y-60862750D02*
X125837640Y-60898464D01*
X125837640Y-60898464D02*
X125694783Y-60898464D01*
X125694783Y-60898464D02*
X125623355Y-60862750D01*
X125623355Y-60862750D02*
X125551926Y-60791321D01*
X125551926Y-60791321D02*
X125516212Y-60648464D01*
X125516212Y-60648464D02*
X125516212Y-60398464D01*
X125516212Y-60398464D02*
X125551926Y-60255607D01*
X125551926Y-60255607D02*
X125623355Y-60184178D01*
X125623355Y-60184178D02*
X125694783Y-60148464D01*
X126587640Y-60505607D02*
X126337640Y-60505607D01*
X126337640Y-60898464D02*
X126337640Y-60148464D01*
X126337640Y-60148464D02*
X126694783Y-60148464D01*
X127230497Y-60505607D02*
X126980497Y-60505607D01*
X126980497Y-60898464D02*
X126980497Y-60148464D01*
X126980497Y-60148464D02*
X127337640Y-60148464D01*
D11*
X98428571Y-66103000D02*
X99571429Y-66103000D01*
D13*
G36*
X96144894Y-109573312D02*
G01*
X96181371Y-109608417D01*
X96232407Y-109707246D01*
X96233973Y-109862806D01*
X96186500Y-109960932D01*
X96143939Y-110005156D01*
X96045420Y-110056032D01*
X95624805Y-110057728D01*
X95623958Y-109519646D01*
X95973625Y-109518044D01*
X96144894Y-109573312D01*
G37*
G36*
X96065719Y-108851571D02*
G01*
X96109943Y-108894134D01*
X96161096Y-108993186D01*
X96162308Y-109077582D01*
X96115072Y-109175216D01*
X96072509Y-109219442D01*
X95973963Y-109270333D01*
X95623567Y-109271938D01*
X95622832Y-108805365D01*
X95966954Y-108803789D01*
X96065719Y-108851571D01*
G37*
G36*
X102565716Y-108851570D02*
G01*
X102609943Y-108894134D01*
X102660978Y-108992960D01*
X102662544Y-109148520D01*
X102615071Y-109246646D01*
X102572510Y-109290870D01*
X102473991Y-109341746D01*
X102287689Y-109342497D01*
X102283004Y-109341671D01*
X102279115Y-109342532D01*
X102052251Y-109343447D01*
X102051403Y-108805432D01*
X102466889Y-108803757D01*
X102565716Y-108851570D01*
G37*
G36*
X97471125Y-109627915D02*
G01*
X97100429Y-109629120D01*
X97285054Y-109072472D01*
X97471125Y-109627915D01*
G37*
G36*
X104505922Y-110472595D02*
G01*
X95208333Y-110472595D01*
X95208333Y-108680928D01*
X95375000Y-108680928D01*
X95377402Y-110205314D01*
X95396066Y-110250374D01*
X95430554Y-110284862D01*
X95475614Y-110303526D01*
X95500000Y-110305928D01*
X96052061Y-110303702D01*
X96055795Y-110304947D01*
X96074582Y-110303611D01*
X96095815Y-110303526D01*
X96099963Y-110301807D01*
X96104445Y-110301489D01*
X96127330Y-110292732D01*
X96269351Y-110219389D01*
X96283732Y-110213433D01*
X96288561Y-110209469D01*
X96290925Y-110208249D01*
X96293088Y-110205754D01*
X96302674Y-110197888D01*
X96334043Y-110165294D01*
X96661697Y-110165294D01*
X96665154Y-110213943D01*
X96686966Y-110257568D01*
X96723812Y-110289523D01*
X96770081Y-110304946D01*
X96818730Y-110301489D01*
X96862355Y-110279677D01*
X96894310Y-110242831D01*
X96904300Y-110220456D01*
X97018192Y-109877065D01*
X97554005Y-109875323D01*
X97677120Y-110242832D01*
X97709075Y-110279677D01*
X97752700Y-110301489D01*
X97801349Y-110304946D01*
X97847619Y-110289523D01*
X97884464Y-110257568D01*
X97906276Y-110213944D01*
X97909733Y-110165294D01*
X97904300Y-110141400D01*
X97423216Y-108705314D01*
X97948831Y-108705314D01*
X97967495Y-108750374D01*
X98001983Y-108784862D01*
X98047043Y-108803526D01*
X98071429Y-108805928D01*
X98375195Y-108805100D01*
X98377402Y-110205314D01*
X98396066Y-110250374D01*
X98430554Y-110284862D01*
X98475614Y-110303526D01*
X98524386Y-110303526D01*
X98569446Y-110284862D01*
X98603934Y-110250374D01*
X98622598Y-110205314D01*
X98625000Y-110180928D01*
X98622831Y-108804425D01*
X98952958Y-108803526D01*
X98998018Y-108784862D01*
X99032506Y-108750374D01*
X99051170Y-108705314D01*
X99091688Y-108705314D01*
X99110352Y-108750374D01*
X99144840Y-108784862D01*
X99189900Y-108803526D01*
X99214286Y-108805928D01*
X99518052Y-108805100D01*
X99520259Y-110205314D01*
X99538923Y-110250374D01*
X99573411Y-110284862D01*
X99618471Y-110303526D01*
X99667243Y-110303526D01*
X99712303Y-110284862D01*
X99746791Y-110250374D01*
X99765455Y-110205314D01*
X99767857Y-110180928D01*
X99765688Y-108804425D01*
X100095815Y-108803526D01*
X100140875Y-108784862D01*
X100175363Y-108750374D01*
X100194027Y-108705314D01*
X100194027Y-108680928D01*
X100446428Y-108680928D01*
X100448830Y-110205314D01*
X100467494Y-110250374D01*
X100501982Y-110284862D01*
X100547042Y-110303526D01*
X100571428Y-110305928D01*
X101310100Y-110303526D01*
X101355160Y-110284862D01*
X101389648Y-110250374D01*
X101408312Y-110205314D01*
X101408312Y-110156542D01*
X101389648Y-110111482D01*
X101355160Y-110076994D01*
X101310100Y-110058330D01*
X101285714Y-110055928D01*
X100696234Y-110057844D01*
X100695386Y-109519646D01*
X101095814Y-109517812D01*
X101140874Y-109499148D01*
X101175362Y-109464660D01*
X101194026Y-109419600D01*
X101194026Y-109370828D01*
X101175362Y-109325768D01*
X101140874Y-109291280D01*
X101095814Y-109272616D01*
X101071428Y-109270214D01*
X100694995Y-109271938D01*
X100694260Y-108805528D01*
X101310100Y-108803526D01*
X101355160Y-108784862D01*
X101389648Y-108750374D01*
X101408312Y-108705314D01*
X101408312Y-108680928D01*
X101803571Y-108680928D01*
X101805973Y-110205314D01*
X101824637Y-110250374D01*
X101859125Y-110284862D01*
X101904185Y-110303526D01*
X101952957Y-110303526D01*
X101998017Y-110284862D01*
X102032505Y-110250374D01*
X102051169Y-110205314D01*
X102053571Y-110180928D01*
X102052641Y-109591141D01*
X102220018Y-109590467D01*
X102699262Y-110271211D01*
X102740393Y-110297423D01*
X102788424Y-110305899D01*
X102836041Y-110295349D01*
X102875997Y-110267380D01*
X102902209Y-110226249D01*
X102910685Y-110178218D01*
X102900135Y-110130600D01*
X102888118Y-110109245D01*
X102522040Y-109589249D01*
X102524386Y-109589240D01*
X102528534Y-109587521D01*
X102533016Y-109587203D01*
X102555901Y-109578446D01*
X102697922Y-109505103D01*
X102712303Y-109499147D01*
X102717132Y-109495183D01*
X102719496Y-109493963D01*
X102721659Y-109491468D01*
X102731245Y-109483602D01*
X102802515Y-109409548D01*
X102813035Y-109400424D01*
X102816322Y-109395201D01*
X102818219Y-109393231D01*
X102819480Y-109390184D01*
X102826090Y-109379686D01*
X102887714Y-109252307D01*
X102889648Y-109250374D01*
X102895588Y-109236032D01*
X102906275Y-109213943D01*
X102906593Y-109209463D01*
X102908312Y-109205314D01*
X102910714Y-109180928D01*
X102908744Y-108985241D01*
X102909733Y-108982276D01*
X102908546Y-108965588D01*
X102908312Y-108942256D01*
X102906593Y-108938106D01*
X102906275Y-108933627D01*
X102897518Y-108910741D01*
X102824178Y-108768723D01*
X102818219Y-108754338D01*
X102814254Y-108749506D01*
X102813035Y-108747146D01*
X102810543Y-108744984D01*
X102802674Y-108735396D01*
X102743180Y-108678139D01*
X103089317Y-108678139D01*
X103097763Y-108726174D01*
X103108828Y-108748037D01*
X103589391Y-109499033D01*
X103591688Y-110205314D01*
X103610352Y-110250374D01*
X103644840Y-110284862D01*
X103689900Y-110303526D01*
X103738672Y-110303526D01*
X103783732Y-110284862D01*
X103818220Y-110250374D01*
X103836884Y-110205314D01*
X103839286Y-110180928D01*
X103837092Y-109506337D01*
X104330809Y-108726175D01*
X104339255Y-108678139D01*
X104328674Y-108630527D01*
X104300679Y-108590589D01*
X104259532Y-108564405D01*
X104211497Y-108555959D01*
X104163885Y-108566540D01*
X104123947Y-108594535D01*
X104108828Y-108613819D01*
X103715093Y-109235991D01*
X103304625Y-108594535D01*
X103264687Y-108566539D01*
X103217075Y-108555959D01*
X103169040Y-108564405D01*
X103127893Y-108590589D01*
X103099897Y-108630527D01*
X103089317Y-108678139D01*
X102743180Y-108678139D01*
X102728612Y-108664119D01*
X102719496Y-108653608D01*
X102714276Y-108650322D01*
X102712303Y-108648423D01*
X102709251Y-108647159D01*
X102698759Y-108640554D01*
X102571379Y-108578927D01*
X102569446Y-108576994D01*
X102555107Y-108571054D01*
X102533016Y-108560367D01*
X102528534Y-108560048D01*
X102524386Y-108558330D01*
X102500000Y-108555928D01*
X101904185Y-108558330D01*
X101859125Y-108576994D01*
X101824637Y-108611482D01*
X101805973Y-108656542D01*
X101803571Y-108680928D01*
X101408312Y-108680928D01*
X101408312Y-108656542D01*
X101389648Y-108611482D01*
X101355160Y-108576994D01*
X101310100Y-108558330D01*
X101285714Y-108555928D01*
X100547042Y-108558330D01*
X100501982Y-108576994D01*
X100467494Y-108611482D01*
X100448830Y-108656542D01*
X100446428Y-108680928D01*
X100194027Y-108680928D01*
X100194027Y-108656542D01*
X100175363Y-108611482D01*
X100140875Y-108576994D01*
X100095815Y-108558330D01*
X100071429Y-108555928D01*
X99189900Y-108558330D01*
X99144840Y-108576994D01*
X99110352Y-108611482D01*
X99091688Y-108656542D01*
X99091688Y-108705314D01*
X99051170Y-108705314D01*
X99051170Y-108656542D01*
X99032506Y-108611482D01*
X98998018Y-108576994D01*
X98952958Y-108558330D01*
X98928572Y-108555928D01*
X98047043Y-108558330D01*
X98001983Y-108576994D01*
X97967495Y-108611482D01*
X97948831Y-108656542D01*
X97948831Y-108705314D01*
X97423216Y-108705314D01*
X97406892Y-108656584D01*
X97406276Y-108647912D01*
X97399339Y-108634039D01*
X97394310Y-108619025D01*
X97388459Y-108612279D01*
X97384464Y-108604288D01*
X97372622Y-108594018D01*
X97362355Y-108582179D01*
X97354366Y-108578184D01*
X97347619Y-108572333D01*
X97332749Y-108567376D01*
X97318730Y-108560367D01*
X97309820Y-108559733D01*
X97301349Y-108556910D01*
X97285715Y-108558020D01*
X97270081Y-108556910D01*
X97261609Y-108559733D01*
X97252700Y-108560367D01*
X97238679Y-108567377D01*
X97223812Y-108572333D01*
X97217065Y-108578183D01*
X97209075Y-108582179D01*
X97198805Y-108594020D01*
X97186966Y-108604288D01*
X97182971Y-108612276D01*
X97177120Y-108619024D01*
X97167130Y-108641399D01*
X96809841Y-109718632D01*
X96805974Y-109727971D01*
X96805974Y-109730294D01*
X96661697Y-110165294D01*
X96334043Y-110165294D01*
X96373944Y-110123834D01*
X96384464Y-110114710D01*
X96387751Y-110109487D01*
X96389648Y-110107517D01*
X96390909Y-110104470D01*
X96397519Y-110093972D01*
X96459143Y-109966593D01*
X96461077Y-109964660D01*
X96467017Y-109950318D01*
X96477704Y-109928229D01*
X96478022Y-109923749D01*
X96479741Y-109919600D01*
X96482143Y-109895214D01*
X96480173Y-109699527D01*
X96481162Y-109696562D01*
X96479975Y-109679874D01*
X96479741Y-109656542D01*
X96478022Y-109652392D01*
X96477704Y-109647913D01*
X96468947Y-109625027D01*
X96395604Y-109483005D01*
X96389648Y-109468625D01*
X96385684Y-109463795D01*
X96384464Y-109461432D01*
X96381969Y-109459268D01*
X96374103Y-109449683D01*
X96313910Y-109391753D01*
X96313035Y-109390002D01*
X96303486Y-109381721D01*
X96283732Y-109362709D01*
X96280242Y-109361263D01*
X96302521Y-109338114D01*
X96313035Y-109328996D01*
X96316320Y-109323776D01*
X96318219Y-109321804D01*
X96319482Y-109318753D01*
X96326089Y-109308259D01*
X96387716Y-109180878D01*
X96389649Y-109178946D01*
X96395585Y-109164613D01*
X96406276Y-109142517D01*
X96406594Y-109138034D01*
X96408313Y-109133886D01*
X96410715Y-109109500D01*
X96408922Y-108984708D01*
X96409734Y-108982275D01*
X96408673Y-108967354D01*
X96408313Y-108942256D01*
X96406594Y-108938107D01*
X96406276Y-108933625D01*
X96397518Y-108910740D01*
X96324177Y-108768721D01*
X96318219Y-108754338D01*
X96314254Y-108749506D01*
X96313035Y-108747146D01*
X96310543Y-108744984D01*
X96302674Y-108735396D01*
X96228618Y-108664125D01*
X96219497Y-108653608D01*
X96214274Y-108650320D01*
X96212304Y-108648424D01*
X96209256Y-108647161D01*
X96198760Y-108640554D01*
X96071379Y-108578927D01*
X96069446Y-108576994D01*
X96055108Y-108571055D01*
X96033016Y-108560367D01*
X96028534Y-108560048D01*
X96024386Y-108558330D01*
X96000000Y-108555928D01*
X95475614Y-108558330D01*
X95430554Y-108576994D01*
X95396066Y-108611482D01*
X95377402Y-108656542D01*
X95375000Y-108680928D01*
X95208333Y-108680928D01*
X95208333Y-108389261D01*
X104505922Y-108389261D01*
X104505922Y-110472595D01*
G37*
D12*
X137944783Y-60148464D02*
X138087640Y-60148464D01*
X138087640Y-60148464D02*
X138159069Y-60184178D01*
X138159069Y-60184178D02*
X138230497Y-60255607D01*
X138230497Y-60255607D02*
X138266212Y-60398464D01*
X138266212Y-60398464D02*
X138266212Y-60648464D01*
X138266212Y-60648464D02*
X138230497Y-60791321D01*
X138230497Y-60791321D02*
X138159069Y-60862750D01*
X138159069Y-60862750D02*
X138087640Y-60898464D01*
X138087640Y-60898464D02*
X137944783Y-60898464D01*
X137944783Y-60898464D02*
X137873355Y-60862750D01*
X137873355Y-60862750D02*
X137801926Y-60791321D01*
X137801926Y-60791321D02*
X137766212Y-60648464D01*
X137766212Y-60648464D02*
X137766212Y-60398464D01*
X137766212Y-60398464D02*
X137801926Y-60255607D01*
X137801926Y-60255607D02*
X137873355Y-60184178D01*
X137873355Y-60184178D02*
X137944783Y-60148464D01*
X138587640Y-60898464D02*
X138587640Y-60148464D01*
X138587640Y-60148464D02*
X139016211Y-60898464D01*
X139016211Y-60898464D02*
X139016211Y-60148464D01*
D14*
X179976109Y-81871428D02*
X179738014Y-82038094D01*
X179976109Y-82157142D02*
X179476109Y-82157142D01*
X179476109Y-82157142D02*
X179476109Y-81966666D01*
X179476109Y-81966666D02*
X179499919Y-81919047D01*
X179499919Y-81919047D02*
X179523728Y-81895237D01*
X179523728Y-81895237D02*
X179571347Y-81871428D01*
X179571347Y-81871428D02*
X179642776Y-81871428D01*
X179642776Y-81871428D02*
X179690395Y-81895237D01*
X179690395Y-81895237D02*
X179714204Y-81919047D01*
X179714204Y-81919047D02*
X179738014Y-81966666D01*
X179738014Y-81966666D02*
X179738014Y-82157142D01*
X179976109Y-81395237D02*
X179976109Y-81680951D01*
X179976109Y-81538094D02*
X179476109Y-81538094D01*
X179476109Y-81538094D02*
X179547538Y-81585713D01*
X179547538Y-81585713D02*
X179595157Y-81633332D01*
X179595157Y-81633332D02*
X179618966Y-81680951D01*
X179476109Y-80942857D02*
X179476109Y-81180952D01*
X179476109Y-81180952D02*
X179714204Y-81204761D01*
X179714204Y-81204761D02*
X179690395Y-81180952D01*
X179690395Y-81180952D02*
X179666585Y-81133333D01*
X179666585Y-81133333D02*
X179666585Y-81014285D01*
X179666585Y-81014285D02*
X179690395Y-80966666D01*
X179690395Y-80966666D02*
X179714204Y-80942857D01*
X179714204Y-80942857D02*
X179761823Y-80919047D01*
X179761823Y-80919047D02*
X179880871Y-80919047D01*
X179880871Y-80919047D02*
X179928490Y-80942857D01*
X179928490Y-80942857D02*
X179952300Y-80966666D01*
X179952300Y-80966666D02*
X179976109Y-81014285D01*
X179976109Y-81014285D02*
X179976109Y-81133333D01*
X179976109Y-81133333D02*
X179952300Y-81180952D01*
X179952300Y-81180952D02*
X179928490Y-81204761D01*
X173591666Y-70981109D02*
X173425000Y-70743014D01*
X173305952Y-70981109D02*
X173305952Y-70481109D01*
X173305952Y-70481109D02*
X173496428Y-70481109D01*
X173496428Y-70481109D02*
X173544047Y-70504919D01*
X173544047Y-70504919D02*
X173567857Y-70528728D01*
X173567857Y-70528728D02*
X173591666Y-70576347D01*
X173591666Y-70576347D02*
X173591666Y-70647776D01*
X173591666Y-70647776D02*
X173567857Y-70695395D01*
X173567857Y-70695395D02*
X173544047Y-70719204D01*
X173544047Y-70719204D02*
X173496428Y-70743014D01*
X173496428Y-70743014D02*
X173305952Y-70743014D01*
X174020238Y-70481109D02*
X173925000Y-70481109D01*
X173925000Y-70481109D02*
X173877381Y-70504919D01*
X173877381Y-70504919D02*
X173853571Y-70528728D01*
X173853571Y-70528728D02*
X173805952Y-70600157D01*
X173805952Y-70600157D02*
X173782143Y-70695395D01*
X173782143Y-70695395D02*
X173782143Y-70885871D01*
X173782143Y-70885871D02*
X173805952Y-70933490D01*
X173805952Y-70933490D02*
X173829762Y-70957300D01*
X173829762Y-70957300D02*
X173877381Y-70981109D01*
X173877381Y-70981109D02*
X173972619Y-70981109D01*
X173972619Y-70981109D02*
X174020238Y-70957300D01*
X174020238Y-70957300D02*
X174044047Y-70933490D01*
X174044047Y-70933490D02*
X174067857Y-70885871D01*
X174067857Y-70885871D02*
X174067857Y-70766823D01*
X174067857Y-70766823D02*
X174044047Y-70719204D01*
X174044047Y-70719204D02*
X174020238Y-70695395D01*
X174020238Y-70695395D02*
X173972619Y-70671585D01*
X173972619Y-70671585D02*
X173877381Y-70671585D01*
X173877381Y-70671585D02*
X173829762Y-70695395D01*
X173829762Y-70695395D02*
X173805952Y-70719204D01*
X173805952Y-70719204D02*
X173782143Y-70766823D01*
X171401109Y-67908333D02*
X171163014Y-68074999D01*
X171401109Y-68194047D02*
X170901109Y-68194047D01*
X170901109Y-68194047D02*
X170901109Y-68003571D01*
X170901109Y-68003571D02*
X170924919Y-67955952D01*
X170924919Y-67955952D02*
X170948728Y-67932142D01*
X170948728Y-67932142D02*
X170996347Y-67908333D01*
X170996347Y-67908333D02*
X171067776Y-67908333D01*
X171067776Y-67908333D02*
X171115395Y-67932142D01*
X171115395Y-67932142D02*
X171139204Y-67955952D01*
X171139204Y-67955952D02*
X171163014Y-68003571D01*
X171163014Y-68003571D02*
X171163014Y-68194047D01*
X170901109Y-67741666D02*
X170901109Y-67408333D01*
X170901109Y-67408333D02*
X171401109Y-67622618D01*
X183666666Y-75003490D02*
X183642857Y-75027300D01*
X183642857Y-75027300D02*
X183571428Y-75051109D01*
X183571428Y-75051109D02*
X183523809Y-75051109D01*
X183523809Y-75051109D02*
X183452381Y-75027300D01*
X183452381Y-75027300D02*
X183404762Y-74979680D01*
X183404762Y-74979680D02*
X183380952Y-74932061D01*
X183380952Y-74932061D02*
X183357143Y-74836823D01*
X183357143Y-74836823D02*
X183357143Y-74765395D01*
X183357143Y-74765395D02*
X183380952Y-74670157D01*
X183380952Y-74670157D02*
X183404762Y-74622538D01*
X183404762Y-74622538D02*
X183452381Y-74574919D01*
X183452381Y-74574919D02*
X183523809Y-74551109D01*
X183523809Y-74551109D02*
X183571428Y-74551109D01*
X183571428Y-74551109D02*
X183642857Y-74574919D01*
X183642857Y-74574919D02*
X183666666Y-74598728D01*
X184095238Y-74551109D02*
X184000000Y-74551109D01*
X184000000Y-74551109D02*
X183952381Y-74574919D01*
X183952381Y-74574919D02*
X183928571Y-74598728D01*
X183928571Y-74598728D02*
X183880952Y-74670157D01*
X183880952Y-74670157D02*
X183857143Y-74765395D01*
X183857143Y-74765395D02*
X183857143Y-74955871D01*
X183857143Y-74955871D02*
X183880952Y-75003490D01*
X183880952Y-75003490D02*
X183904762Y-75027300D01*
X183904762Y-75027300D02*
X183952381Y-75051109D01*
X183952381Y-75051109D02*
X184047619Y-75051109D01*
X184047619Y-75051109D02*
X184095238Y-75027300D01*
X184095238Y-75027300D02*
X184119047Y-75003490D01*
X184119047Y-75003490D02*
X184142857Y-74955871D01*
X184142857Y-74955871D02*
X184142857Y-74836823D01*
X184142857Y-74836823D02*
X184119047Y-74789204D01*
X184119047Y-74789204D02*
X184095238Y-74765395D01*
X184095238Y-74765395D02*
X184047619Y-74741585D01*
X184047619Y-74741585D02*
X183952381Y-74741585D01*
X183952381Y-74741585D02*
X183904762Y-74765395D01*
X183904762Y-74765395D02*
X183880952Y-74789204D01*
X183880952Y-74789204D02*
X183857143Y-74836823D01*
X185401109Y-66071428D02*
X185163014Y-66238094D01*
X185401109Y-66357142D02*
X184901109Y-66357142D01*
X184901109Y-66357142D02*
X184901109Y-66166666D01*
X184901109Y-66166666D02*
X184924919Y-66119047D01*
X184924919Y-66119047D02*
X184948728Y-66095237D01*
X184948728Y-66095237D02*
X184996347Y-66071428D01*
X184996347Y-66071428D02*
X185067776Y-66071428D01*
X185067776Y-66071428D02*
X185115395Y-66095237D01*
X185115395Y-66095237D02*
X185139204Y-66119047D01*
X185139204Y-66119047D02*
X185163014Y-66166666D01*
X185163014Y-66166666D02*
X185163014Y-66357142D01*
X185401109Y-65595237D02*
X185401109Y-65880951D01*
X185401109Y-65738094D02*
X184901109Y-65738094D01*
X184901109Y-65738094D02*
X184972538Y-65785713D01*
X184972538Y-65785713D02*
X185020157Y-65833332D01*
X185020157Y-65833332D02*
X185043966Y-65880951D01*
X184901109Y-65285714D02*
X184901109Y-65238095D01*
X184901109Y-65238095D02*
X184924919Y-65190476D01*
X184924919Y-65190476D02*
X184948728Y-65166666D01*
X184948728Y-65166666D02*
X184996347Y-65142857D01*
X184996347Y-65142857D02*
X185091585Y-65119047D01*
X185091585Y-65119047D02*
X185210633Y-65119047D01*
X185210633Y-65119047D02*
X185305871Y-65142857D01*
X185305871Y-65142857D02*
X185353490Y-65166666D01*
X185353490Y-65166666D02*
X185377300Y-65190476D01*
X185377300Y-65190476D02*
X185401109Y-65238095D01*
X185401109Y-65238095D02*
X185401109Y-65285714D01*
X185401109Y-65285714D02*
X185377300Y-65333333D01*
X185377300Y-65333333D02*
X185353490Y-65357142D01*
X185353490Y-65357142D02*
X185305871Y-65380952D01*
X185305871Y-65380952D02*
X185210633Y-65404761D01*
X185210633Y-65404761D02*
X185091585Y-65404761D01*
X185091585Y-65404761D02*
X184996347Y-65380952D01*
X184996347Y-65380952D02*
X184948728Y-65357142D01*
X184948728Y-65357142D02*
X184924919Y-65333333D01*
X184924919Y-65333333D02*
X184901109Y-65285714D01*
X181881109Y-81821428D02*
X181643014Y-81988094D01*
X181881109Y-82107142D02*
X181381109Y-82107142D01*
X181381109Y-82107142D02*
X181381109Y-81916666D01*
X181381109Y-81916666D02*
X181404919Y-81869047D01*
X181404919Y-81869047D02*
X181428728Y-81845237D01*
X181428728Y-81845237D02*
X181476347Y-81821428D01*
X181476347Y-81821428D02*
X181547776Y-81821428D01*
X181547776Y-81821428D02*
X181595395Y-81845237D01*
X181595395Y-81845237D02*
X181619204Y-81869047D01*
X181619204Y-81869047D02*
X181643014Y-81916666D01*
X181643014Y-81916666D02*
X181643014Y-82107142D01*
X181881109Y-81345237D02*
X181881109Y-81630951D01*
X181881109Y-81488094D02*
X181381109Y-81488094D01*
X181381109Y-81488094D02*
X181452538Y-81535713D01*
X181452538Y-81535713D02*
X181500157Y-81583332D01*
X181500157Y-81583332D02*
X181523966Y-81630951D01*
X181595395Y-81059523D02*
X181571585Y-81107142D01*
X181571585Y-81107142D02*
X181547776Y-81130952D01*
X181547776Y-81130952D02*
X181500157Y-81154761D01*
X181500157Y-81154761D02*
X181476347Y-81154761D01*
X181476347Y-81154761D02*
X181428728Y-81130952D01*
X181428728Y-81130952D02*
X181404919Y-81107142D01*
X181404919Y-81107142D02*
X181381109Y-81059523D01*
X181381109Y-81059523D02*
X181381109Y-80964285D01*
X181381109Y-80964285D02*
X181404919Y-80916666D01*
X181404919Y-80916666D02*
X181428728Y-80892857D01*
X181428728Y-80892857D02*
X181476347Y-80869047D01*
X181476347Y-80869047D02*
X181500157Y-80869047D01*
X181500157Y-80869047D02*
X181547776Y-80892857D01*
X181547776Y-80892857D02*
X181571585Y-80916666D01*
X181571585Y-80916666D02*
X181595395Y-80964285D01*
X181595395Y-80964285D02*
X181595395Y-81059523D01*
X181595395Y-81059523D02*
X181619204Y-81107142D01*
X181619204Y-81107142D02*
X181643014Y-81130952D01*
X181643014Y-81130952D02*
X181690633Y-81154761D01*
X181690633Y-81154761D02*
X181785871Y-81154761D01*
X181785871Y-81154761D02*
X181833490Y-81130952D01*
X181833490Y-81130952D02*
X181857300Y-81107142D01*
X181857300Y-81107142D02*
X181881109Y-81059523D01*
X181881109Y-81059523D02*
X181881109Y-80964285D01*
X181881109Y-80964285D02*
X181857300Y-80916666D01*
X181857300Y-80916666D02*
X181833490Y-80892857D01*
X181833490Y-80892857D02*
X181785871Y-80869047D01*
X181785871Y-80869047D02*
X181690633Y-80869047D01*
X181690633Y-80869047D02*
X181643014Y-80892857D01*
X181643014Y-80892857D02*
X181619204Y-80916666D01*
X181619204Y-80916666D02*
X181595395Y-80964285D01*
X139216071Y-75728490D02*
X139192262Y-75752300D01*
X139192262Y-75752300D02*
X139120833Y-75776109D01*
X139120833Y-75776109D02*
X139073214Y-75776109D01*
X139073214Y-75776109D02*
X139001786Y-75752300D01*
X139001786Y-75752300D02*
X138954167Y-75704680D01*
X138954167Y-75704680D02*
X138930357Y-75657061D01*
X138930357Y-75657061D02*
X138906548Y-75561823D01*
X138906548Y-75561823D02*
X138906548Y-75490395D01*
X138906548Y-75490395D02*
X138930357Y-75395157D01*
X138930357Y-75395157D02*
X138954167Y-75347538D01*
X138954167Y-75347538D02*
X139001786Y-75299919D01*
X139001786Y-75299919D02*
X139073214Y-75276109D01*
X139073214Y-75276109D02*
X139120833Y-75276109D01*
X139120833Y-75276109D02*
X139192262Y-75299919D01*
X139192262Y-75299919D02*
X139216071Y-75323728D01*
X139692262Y-75776109D02*
X139406548Y-75776109D01*
X139549405Y-75776109D02*
X139549405Y-75276109D01*
X139549405Y-75276109D02*
X139501786Y-75347538D01*
X139501786Y-75347538D02*
X139454167Y-75395157D01*
X139454167Y-75395157D02*
X139406548Y-75418966D01*
X139858928Y-75276109D02*
X140168452Y-75276109D01*
X140168452Y-75276109D02*
X140001785Y-75466585D01*
X140001785Y-75466585D02*
X140073214Y-75466585D01*
X140073214Y-75466585D02*
X140120833Y-75490395D01*
X140120833Y-75490395D02*
X140144642Y-75514204D01*
X140144642Y-75514204D02*
X140168452Y-75561823D01*
X140168452Y-75561823D02*
X140168452Y-75680871D01*
X140168452Y-75680871D02*
X140144642Y-75728490D01*
X140144642Y-75728490D02*
X140120833Y-75752300D01*
X140120833Y-75752300D02*
X140073214Y-75776109D01*
X140073214Y-75776109D02*
X139930357Y-75776109D01*
X139930357Y-75776109D02*
X139882738Y-75752300D01*
X139882738Y-75752300D02*
X139858928Y-75728490D01*
X133663609Y-73419047D02*
X133163609Y-73419047D01*
X133163609Y-73419047D02*
X133163609Y-73299999D01*
X133163609Y-73299999D02*
X133187419Y-73228571D01*
X133187419Y-73228571D02*
X133235038Y-73180952D01*
X133235038Y-73180952D02*
X133282657Y-73157142D01*
X133282657Y-73157142D02*
X133377895Y-73133333D01*
X133377895Y-73133333D02*
X133449323Y-73133333D01*
X133449323Y-73133333D02*
X133544561Y-73157142D01*
X133544561Y-73157142D02*
X133592180Y-73180952D01*
X133592180Y-73180952D02*
X133639800Y-73228571D01*
X133639800Y-73228571D02*
X133663609Y-73299999D01*
X133663609Y-73299999D02*
X133663609Y-73419047D01*
X133663609Y-72657142D02*
X133663609Y-72942856D01*
X133663609Y-72799999D02*
X133163609Y-72799999D01*
X133163609Y-72799999D02*
X133235038Y-72847618D01*
X133235038Y-72847618D02*
X133282657Y-72895237D01*
X133282657Y-72895237D02*
X133306466Y-72942856D01*
X191401109Y-72321428D02*
X191163014Y-72488094D01*
X191401109Y-72607142D02*
X190901109Y-72607142D01*
X190901109Y-72607142D02*
X190901109Y-72416666D01*
X190901109Y-72416666D02*
X190924919Y-72369047D01*
X190924919Y-72369047D02*
X190948728Y-72345237D01*
X190948728Y-72345237D02*
X190996347Y-72321428D01*
X190996347Y-72321428D02*
X191067776Y-72321428D01*
X191067776Y-72321428D02*
X191115395Y-72345237D01*
X191115395Y-72345237D02*
X191139204Y-72369047D01*
X191139204Y-72369047D02*
X191163014Y-72416666D01*
X191163014Y-72416666D02*
X191163014Y-72607142D01*
X191401109Y-71845237D02*
X191401109Y-72130951D01*
X191401109Y-71988094D02*
X190901109Y-71988094D01*
X190901109Y-71988094D02*
X190972538Y-72035713D01*
X190972538Y-72035713D02*
X191020157Y-72083332D01*
X191020157Y-72083332D02*
X191043966Y-72130951D01*
X190901109Y-71678571D02*
X190901109Y-71369047D01*
X190901109Y-71369047D02*
X191091585Y-71535714D01*
X191091585Y-71535714D02*
X191091585Y-71464285D01*
X191091585Y-71464285D02*
X191115395Y-71416666D01*
X191115395Y-71416666D02*
X191139204Y-71392857D01*
X191139204Y-71392857D02*
X191186823Y-71369047D01*
X191186823Y-71369047D02*
X191305871Y-71369047D01*
X191305871Y-71369047D02*
X191353490Y-71392857D01*
X191353490Y-71392857D02*
X191377300Y-71416666D01*
X191377300Y-71416666D02*
X191401109Y-71464285D01*
X191401109Y-71464285D02*
X191401109Y-71607142D01*
X191401109Y-71607142D02*
X191377300Y-71654761D01*
X191377300Y-71654761D02*
X191353490Y-71678571D01*
X173028490Y-67908333D02*
X173052300Y-67932142D01*
X173052300Y-67932142D02*
X173076109Y-68003571D01*
X173076109Y-68003571D02*
X173076109Y-68051190D01*
X173076109Y-68051190D02*
X173052300Y-68122618D01*
X173052300Y-68122618D02*
X173004680Y-68170237D01*
X173004680Y-68170237D02*
X172957061Y-68194047D01*
X172957061Y-68194047D02*
X172861823Y-68217856D01*
X172861823Y-68217856D02*
X172790395Y-68217856D01*
X172790395Y-68217856D02*
X172695157Y-68194047D01*
X172695157Y-68194047D02*
X172647538Y-68170237D01*
X172647538Y-68170237D02*
X172599919Y-68122618D01*
X172599919Y-68122618D02*
X172576109Y-68051190D01*
X172576109Y-68051190D02*
X172576109Y-68003571D01*
X172576109Y-68003571D02*
X172599919Y-67932142D01*
X172599919Y-67932142D02*
X172623728Y-67908333D01*
X172576109Y-67741666D02*
X172576109Y-67432142D01*
X172576109Y-67432142D02*
X172766585Y-67598809D01*
X172766585Y-67598809D02*
X172766585Y-67527380D01*
X172766585Y-67527380D02*
X172790395Y-67479761D01*
X172790395Y-67479761D02*
X172814204Y-67455952D01*
X172814204Y-67455952D02*
X172861823Y-67432142D01*
X172861823Y-67432142D02*
X172980871Y-67432142D01*
X172980871Y-67432142D02*
X173028490Y-67455952D01*
X173028490Y-67455952D02*
X173052300Y-67479761D01*
X173052300Y-67479761D02*
X173076109Y-67527380D01*
X173076109Y-67527380D02*
X173076109Y-67670237D01*
X173076109Y-67670237D02*
X173052300Y-67717856D01*
X173052300Y-67717856D02*
X173028490Y-67741666D01*
X144156109Y-66746428D02*
X143918014Y-66913094D01*
X144156109Y-67032142D02*
X143656109Y-67032142D01*
X143656109Y-67032142D02*
X143656109Y-66841666D01*
X143656109Y-66841666D02*
X143679919Y-66794047D01*
X143679919Y-66794047D02*
X143703728Y-66770237D01*
X143703728Y-66770237D02*
X143751347Y-66746428D01*
X143751347Y-66746428D02*
X143822776Y-66746428D01*
X143822776Y-66746428D02*
X143870395Y-66770237D01*
X143870395Y-66770237D02*
X143894204Y-66794047D01*
X143894204Y-66794047D02*
X143918014Y-66841666D01*
X143918014Y-66841666D02*
X143918014Y-67032142D01*
X143703728Y-66555951D02*
X143679919Y-66532142D01*
X143679919Y-66532142D02*
X143656109Y-66484523D01*
X143656109Y-66484523D02*
X143656109Y-66365475D01*
X143656109Y-66365475D02*
X143679919Y-66317856D01*
X143679919Y-66317856D02*
X143703728Y-66294047D01*
X143703728Y-66294047D02*
X143751347Y-66270237D01*
X143751347Y-66270237D02*
X143798966Y-66270237D01*
X143798966Y-66270237D02*
X143870395Y-66294047D01*
X143870395Y-66294047D02*
X144156109Y-66579761D01*
X144156109Y-66579761D02*
X144156109Y-66270237D01*
X143822776Y-65841666D02*
X144156109Y-65841666D01*
X143632300Y-65960714D02*
X143989442Y-66079761D01*
X143989442Y-66079761D02*
X143989442Y-65770238D01*
X173091666Y-76481109D02*
X172925000Y-76243014D01*
X172805952Y-76481109D02*
X172805952Y-75981109D01*
X172805952Y-75981109D02*
X172996428Y-75981109D01*
X172996428Y-75981109D02*
X173044047Y-76004919D01*
X173044047Y-76004919D02*
X173067857Y-76028728D01*
X173067857Y-76028728D02*
X173091666Y-76076347D01*
X173091666Y-76076347D02*
X173091666Y-76147776D01*
X173091666Y-76147776D02*
X173067857Y-76195395D01*
X173067857Y-76195395D02*
X173044047Y-76219204D01*
X173044047Y-76219204D02*
X172996428Y-76243014D01*
X172996428Y-76243014D02*
X172805952Y-76243014D01*
X173258333Y-75981109D02*
X173567857Y-75981109D01*
X173567857Y-75981109D02*
X173401190Y-76171585D01*
X173401190Y-76171585D02*
X173472619Y-76171585D01*
X173472619Y-76171585D02*
X173520238Y-76195395D01*
X173520238Y-76195395D02*
X173544047Y-76219204D01*
X173544047Y-76219204D02*
X173567857Y-76266823D01*
X173567857Y-76266823D02*
X173567857Y-76385871D01*
X173567857Y-76385871D02*
X173544047Y-76433490D01*
X173544047Y-76433490D02*
X173520238Y-76457300D01*
X173520238Y-76457300D02*
X173472619Y-76481109D01*
X173472619Y-76481109D02*
X173329762Y-76481109D01*
X173329762Y-76481109D02*
X173282143Y-76457300D01*
X173282143Y-76457300D02*
X173258333Y-76433490D01*
X175416666Y-67328490D02*
X175392857Y-67352300D01*
X175392857Y-67352300D02*
X175321428Y-67376109D01*
X175321428Y-67376109D02*
X175273809Y-67376109D01*
X175273809Y-67376109D02*
X175202381Y-67352300D01*
X175202381Y-67352300D02*
X175154762Y-67304680D01*
X175154762Y-67304680D02*
X175130952Y-67257061D01*
X175130952Y-67257061D02*
X175107143Y-67161823D01*
X175107143Y-67161823D02*
X175107143Y-67090395D01*
X175107143Y-67090395D02*
X175130952Y-66995157D01*
X175130952Y-66995157D02*
X175154762Y-66947538D01*
X175154762Y-66947538D02*
X175202381Y-66899919D01*
X175202381Y-66899919D02*
X175273809Y-66876109D01*
X175273809Y-66876109D02*
X175321428Y-66876109D01*
X175321428Y-66876109D02*
X175392857Y-66899919D01*
X175392857Y-66899919D02*
X175416666Y-66923728D01*
X175607143Y-66923728D02*
X175630952Y-66899919D01*
X175630952Y-66899919D02*
X175678571Y-66876109D01*
X175678571Y-66876109D02*
X175797619Y-66876109D01*
X175797619Y-66876109D02*
X175845238Y-66899919D01*
X175845238Y-66899919D02*
X175869047Y-66923728D01*
X175869047Y-66923728D02*
X175892857Y-66971347D01*
X175892857Y-66971347D02*
X175892857Y-67018966D01*
X175892857Y-67018966D02*
X175869047Y-67090395D01*
X175869047Y-67090395D02*
X175583333Y-67376109D01*
X175583333Y-67376109D02*
X175892857Y-67376109D01*
X178416666Y-75003490D02*
X178392857Y-75027300D01*
X178392857Y-75027300D02*
X178321428Y-75051109D01*
X178321428Y-75051109D02*
X178273809Y-75051109D01*
X178273809Y-75051109D02*
X178202381Y-75027300D01*
X178202381Y-75027300D02*
X178154762Y-74979680D01*
X178154762Y-74979680D02*
X178130952Y-74932061D01*
X178130952Y-74932061D02*
X178107143Y-74836823D01*
X178107143Y-74836823D02*
X178107143Y-74765395D01*
X178107143Y-74765395D02*
X178130952Y-74670157D01*
X178130952Y-74670157D02*
X178154762Y-74622538D01*
X178154762Y-74622538D02*
X178202381Y-74574919D01*
X178202381Y-74574919D02*
X178273809Y-74551109D01*
X178273809Y-74551109D02*
X178321428Y-74551109D01*
X178321428Y-74551109D02*
X178392857Y-74574919D01*
X178392857Y-74574919D02*
X178416666Y-74598728D01*
X178892857Y-75051109D02*
X178607143Y-75051109D01*
X178750000Y-75051109D02*
X178750000Y-74551109D01*
X178750000Y-74551109D02*
X178702381Y-74622538D01*
X178702381Y-74622538D02*
X178654762Y-74670157D01*
X178654762Y-74670157D02*
X178607143Y-74693966D01*
X136626109Y-81371428D02*
X136388014Y-81538094D01*
X136626109Y-81657142D02*
X136126109Y-81657142D01*
X136126109Y-81657142D02*
X136126109Y-81466666D01*
X136126109Y-81466666D02*
X136149919Y-81419047D01*
X136149919Y-81419047D02*
X136173728Y-81395237D01*
X136173728Y-81395237D02*
X136221347Y-81371428D01*
X136221347Y-81371428D02*
X136292776Y-81371428D01*
X136292776Y-81371428D02*
X136340395Y-81395237D01*
X136340395Y-81395237D02*
X136364204Y-81419047D01*
X136364204Y-81419047D02*
X136388014Y-81466666D01*
X136388014Y-81466666D02*
X136388014Y-81657142D01*
X136173728Y-81180951D02*
X136149919Y-81157142D01*
X136149919Y-81157142D02*
X136126109Y-81109523D01*
X136126109Y-81109523D02*
X136126109Y-80990475D01*
X136126109Y-80990475D02*
X136149919Y-80942856D01*
X136149919Y-80942856D02*
X136173728Y-80919047D01*
X136173728Y-80919047D02*
X136221347Y-80895237D01*
X136221347Y-80895237D02*
X136268966Y-80895237D01*
X136268966Y-80895237D02*
X136340395Y-80919047D01*
X136340395Y-80919047D02*
X136626109Y-81204761D01*
X136626109Y-81204761D02*
X136626109Y-80895237D01*
X136126109Y-80466666D02*
X136126109Y-80561904D01*
X136126109Y-80561904D02*
X136149919Y-80609523D01*
X136149919Y-80609523D02*
X136173728Y-80633333D01*
X136173728Y-80633333D02*
X136245157Y-80680952D01*
X136245157Y-80680952D02*
X136340395Y-80704761D01*
X136340395Y-80704761D02*
X136530871Y-80704761D01*
X136530871Y-80704761D02*
X136578490Y-80680952D01*
X136578490Y-80680952D02*
X136602300Y-80657142D01*
X136602300Y-80657142D02*
X136626109Y-80609523D01*
X136626109Y-80609523D02*
X136626109Y-80514285D01*
X136626109Y-80514285D02*
X136602300Y-80466666D01*
X136602300Y-80466666D02*
X136578490Y-80442857D01*
X136578490Y-80442857D02*
X136530871Y-80419047D01*
X136530871Y-80419047D02*
X136411823Y-80419047D01*
X136411823Y-80419047D02*
X136364204Y-80442857D01*
X136364204Y-80442857D02*
X136340395Y-80466666D01*
X136340395Y-80466666D02*
X136316585Y-80514285D01*
X136316585Y-80514285D02*
X136316585Y-80609523D01*
X136316585Y-80609523D02*
X136340395Y-80657142D01*
X136340395Y-80657142D02*
X136364204Y-80680952D01*
X136364204Y-80680952D02*
X136411823Y-80704761D01*
X179091666Y-64551109D02*
X178925000Y-64313014D01*
X178805952Y-64551109D02*
X178805952Y-64051109D01*
X178805952Y-64051109D02*
X178996428Y-64051109D01*
X178996428Y-64051109D02*
X179044047Y-64074919D01*
X179044047Y-64074919D02*
X179067857Y-64098728D01*
X179067857Y-64098728D02*
X179091666Y-64146347D01*
X179091666Y-64146347D02*
X179091666Y-64217776D01*
X179091666Y-64217776D02*
X179067857Y-64265395D01*
X179067857Y-64265395D02*
X179044047Y-64289204D01*
X179044047Y-64289204D02*
X178996428Y-64313014D01*
X178996428Y-64313014D02*
X178805952Y-64313014D01*
X179377381Y-64265395D02*
X179329762Y-64241585D01*
X179329762Y-64241585D02*
X179305952Y-64217776D01*
X179305952Y-64217776D02*
X179282143Y-64170157D01*
X179282143Y-64170157D02*
X179282143Y-64146347D01*
X179282143Y-64146347D02*
X179305952Y-64098728D01*
X179305952Y-64098728D02*
X179329762Y-64074919D01*
X179329762Y-64074919D02*
X179377381Y-64051109D01*
X179377381Y-64051109D02*
X179472619Y-64051109D01*
X179472619Y-64051109D02*
X179520238Y-64074919D01*
X179520238Y-64074919D02*
X179544047Y-64098728D01*
X179544047Y-64098728D02*
X179567857Y-64146347D01*
X179567857Y-64146347D02*
X179567857Y-64170157D01*
X179567857Y-64170157D02*
X179544047Y-64217776D01*
X179544047Y-64217776D02*
X179520238Y-64241585D01*
X179520238Y-64241585D02*
X179472619Y-64265395D01*
X179472619Y-64265395D02*
X179377381Y-64265395D01*
X179377381Y-64265395D02*
X179329762Y-64289204D01*
X179329762Y-64289204D02*
X179305952Y-64313014D01*
X179305952Y-64313014D02*
X179282143Y-64360633D01*
X179282143Y-64360633D02*
X179282143Y-64455871D01*
X179282143Y-64455871D02*
X179305952Y-64503490D01*
X179305952Y-64503490D02*
X179329762Y-64527300D01*
X179329762Y-64527300D02*
X179377381Y-64551109D01*
X179377381Y-64551109D02*
X179472619Y-64551109D01*
X179472619Y-64551109D02*
X179520238Y-64527300D01*
X179520238Y-64527300D02*
X179544047Y-64503490D01*
X179544047Y-64503490D02*
X179567857Y-64455871D01*
X179567857Y-64455871D02*
X179567857Y-64360633D01*
X179567857Y-64360633D02*
X179544047Y-64313014D01*
X179544047Y-64313014D02*
X179520238Y-64289204D01*
X179520238Y-64289204D02*
X179472619Y-64265395D01*
X128716071Y-77048490D02*
X128692262Y-77072300D01*
X128692262Y-77072300D02*
X128620833Y-77096109D01*
X128620833Y-77096109D02*
X128573214Y-77096109D01*
X128573214Y-77096109D02*
X128501786Y-77072300D01*
X128501786Y-77072300D02*
X128454167Y-77024680D01*
X128454167Y-77024680D02*
X128430357Y-76977061D01*
X128430357Y-76977061D02*
X128406548Y-76881823D01*
X128406548Y-76881823D02*
X128406548Y-76810395D01*
X128406548Y-76810395D02*
X128430357Y-76715157D01*
X128430357Y-76715157D02*
X128454167Y-76667538D01*
X128454167Y-76667538D02*
X128501786Y-76619919D01*
X128501786Y-76619919D02*
X128573214Y-76596109D01*
X128573214Y-76596109D02*
X128620833Y-76596109D01*
X128620833Y-76596109D02*
X128692262Y-76619919D01*
X128692262Y-76619919D02*
X128716071Y-76643728D01*
X129192262Y-77096109D02*
X128906548Y-77096109D01*
X129049405Y-77096109D02*
X129049405Y-76596109D01*
X129049405Y-76596109D02*
X129001786Y-76667538D01*
X129001786Y-76667538D02*
X128954167Y-76715157D01*
X128954167Y-76715157D02*
X128906548Y-76738966D01*
X129382738Y-76643728D02*
X129406547Y-76619919D01*
X129406547Y-76619919D02*
X129454166Y-76596109D01*
X129454166Y-76596109D02*
X129573214Y-76596109D01*
X129573214Y-76596109D02*
X129620833Y-76619919D01*
X129620833Y-76619919D02*
X129644642Y-76643728D01*
X129644642Y-76643728D02*
X129668452Y-76691347D01*
X129668452Y-76691347D02*
X129668452Y-76738966D01*
X129668452Y-76738966D02*
X129644642Y-76810395D01*
X129644642Y-76810395D02*
X129358928Y-77096109D01*
X129358928Y-77096109D02*
X129668452Y-77096109D01*
X178428571Y-76678490D02*
X178404762Y-76702300D01*
X178404762Y-76702300D02*
X178333333Y-76726109D01*
X178333333Y-76726109D02*
X178285714Y-76726109D01*
X178285714Y-76726109D02*
X178214286Y-76702300D01*
X178214286Y-76702300D02*
X178166667Y-76654680D01*
X178166667Y-76654680D02*
X178142857Y-76607061D01*
X178142857Y-76607061D02*
X178119048Y-76511823D01*
X178119048Y-76511823D02*
X178119048Y-76440395D01*
X178119048Y-76440395D02*
X178142857Y-76345157D01*
X178142857Y-76345157D02*
X178166667Y-76297538D01*
X178166667Y-76297538D02*
X178214286Y-76249919D01*
X178214286Y-76249919D02*
X178285714Y-76226109D01*
X178285714Y-76226109D02*
X178333333Y-76226109D01*
X178333333Y-76226109D02*
X178404762Y-76249919D01*
X178404762Y-76249919D02*
X178428571Y-76273728D01*
X178904762Y-76726109D02*
X178619048Y-76726109D01*
X178761905Y-76726109D02*
X178761905Y-76226109D01*
X178761905Y-76226109D02*
X178714286Y-76297538D01*
X178714286Y-76297538D02*
X178666667Y-76345157D01*
X178666667Y-76345157D02*
X178619048Y-76368966D01*
X179333333Y-76226109D02*
X179238095Y-76226109D01*
X179238095Y-76226109D02*
X179190476Y-76249919D01*
X179190476Y-76249919D02*
X179166666Y-76273728D01*
X179166666Y-76273728D02*
X179119047Y-76345157D01*
X179119047Y-76345157D02*
X179095238Y-76440395D01*
X179095238Y-76440395D02*
X179095238Y-76630871D01*
X179095238Y-76630871D02*
X179119047Y-76678490D01*
X179119047Y-76678490D02*
X179142857Y-76702300D01*
X179142857Y-76702300D02*
X179190476Y-76726109D01*
X179190476Y-76726109D02*
X179285714Y-76726109D01*
X179285714Y-76726109D02*
X179333333Y-76702300D01*
X179333333Y-76702300D02*
X179357142Y-76678490D01*
X179357142Y-76678490D02*
X179380952Y-76630871D01*
X179380952Y-76630871D02*
X179380952Y-76511823D01*
X179380952Y-76511823D02*
X179357142Y-76464204D01*
X179357142Y-76464204D02*
X179333333Y-76440395D01*
X179333333Y-76440395D02*
X179285714Y-76416585D01*
X179285714Y-76416585D02*
X179190476Y-76416585D01*
X179190476Y-76416585D02*
X179142857Y-76440395D01*
X179142857Y-76440395D02*
X179119047Y-76464204D01*
X179119047Y-76464204D02*
X179095238Y-76511823D01*
X149088490Y-108453333D02*
X149112300Y-108477142D01*
X149112300Y-108477142D02*
X149136109Y-108548571D01*
X149136109Y-108548571D02*
X149136109Y-108596190D01*
X149136109Y-108596190D02*
X149112300Y-108667618D01*
X149112300Y-108667618D02*
X149064680Y-108715237D01*
X149064680Y-108715237D02*
X149017061Y-108739047D01*
X149017061Y-108739047D02*
X148921823Y-108762856D01*
X148921823Y-108762856D02*
X148850395Y-108762856D01*
X148850395Y-108762856D02*
X148755157Y-108739047D01*
X148755157Y-108739047D02*
X148707538Y-108715237D01*
X148707538Y-108715237D02*
X148659919Y-108667618D01*
X148659919Y-108667618D02*
X148636109Y-108596190D01*
X148636109Y-108596190D02*
X148636109Y-108548571D01*
X148636109Y-108548571D02*
X148659919Y-108477142D01*
X148659919Y-108477142D02*
X148683728Y-108453333D01*
X149136109Y-108215237D02*
X149136109Y-108119999D01*
X149136109Y-108119999D02*
X149112300Y-108072380D01*
X149112300Y-108072380D02*
X149088490Y-108048571D01*
X149088490Y-108048571D02*
X149017061Y-108000952D01*
X149017061Y-108000952D02*
X148921823Y-107977142D01*
X148921823Y-107977142D02*
X148731347Y-107977142D01*
X148731347Y-107977142D02*
X148683728Y-108000952D01*
X148683728Y-108000952D02*
X148659919Y-108024761D01*
X148659919Y-108024761D02*
X148636109Y-108072380D01*
X148636109Y-108072380D02*
X148636109Y-108167618D01*
X148636109Y-108167618D02*
X148659919Y-108215237D01*
X148659919Y-108215237D02*
X148683728Y-108239047D01*
X148683728Y-108239047D02*
X148731347Y-108262856D01*
X148731347Y-108262856D02*
X148850395Y-108262856D01*
X148850395Y-108262856D02*
X148898014Y-108239047D01*
X148898014Y-108239047D02*
X148921823Y-108215237D01*
X148921823Y-108215237D02*
X148945633Y-108167618D01*
X148945633Y-108167618D02*
X148945633Y-108072380D01*
X148945633Y-108072380D02*
X148921823Y-108024761D01*
X148921823Y-108024761D02*
X148898014Y-108000952D01*
X148898014Y-108000952D02*
X148850395Y-107977142D01*
X129161228Y-73097619D02*
X129137419Y-73145238D01*
X129137419Y-73145238D02*
X129089800Y-73192857D01*
X129089800Y-73192857D02*
X129018371Y-73264285D01*
X129018371Y-73264285D02*
X128994561Y-73311904D01*
X128994561Y-73311904D02*
X128994561Y-73359523D01*
X129113609Y-73335714D02*
X129089800Y-73383333D01*
X129089800Y-73383333D02*
X129042180Y-73430952D01*
X129042180Y-73430952D02*
X128946942Y-73454761D01*
X128946942Y-73454761D02*
X128780276Y-73454761D01*
X128780276Y-73454761D02*
X128685038Y-73430952D01*
X128685038Y-73430952D02*
X128637419Y-73383333D01*
X128637419Y-73383333D02*
X128613609Y-73335714D01*
X128613609Y-73335714D02*
X128613609Y-73240476D01*
X128613609Y-73240476D02*
X128637419Y-73192857D01*
X128637419Y-73192857D02*
X128685038Y-73145238D01*
X128685038Y-73145238D02*
X128780276Y-73121428D01*
X128780276Y-73121428D02*
X128946942Y-73121428D01*
X128946942Y-73121428D02*
X129042180Y-73145238D01*
X129042180Y-73145238D02*
X129089800Y-73192857D01*
X129089800Y-73192857D02*
X129113609Y-73240476D01*
X129113609Y-73240476D02*
X129113609Y-73335714D01*
X129113609Y-72645237D02*
X129113609Y-72930951D01*
X129113609Y-72788094D02*
X128613609Y-72788094D01*
X128613609Y-72788094D02*
X128685038Y-72835713D01*
X128685038Y-72835713D02*
X128732657Y-72883332D01*
X128732657Y-72883332D02*
X128756466Y-72930951D01*
X125928571Y-100976109D02*
X125761905Y-100738014D01*
X125642857Y-100976109D02*
X125642857Y-100476109D01*
X125642857Y-100476109D02*
X125833333Y-100476109D01*
X125833333Y-100476109D02*
X125880952Y-100499919D01*
X125880952Y-100499919D02*
X125904762Y-100523728D01*
X125904762Y-100523728D02*
X125928571Y-100571347D01*
X125928571Y-100571347D02*
X125928571Y-100642776D01*
X125928571Y-100642776D02*
X125904762Y-100690395D01*
X125904762Y-100690395D02*
X125880952Y-100714204D01*
X125880952Y-100714204D02*
X125833333Y-100738014D01*
X125833333Y-100738014D02*
X125642857Y-100738014D01*
X126119048Y-100523728D02*
X126142857Y-100499919D01*
X126142857Y-100499919D02*
X126190476Y-100476109D01*
X126190476Y-100476109D02*
X126309524Y-100476109D01*
X126309524Y-100476109D02*
X126357143Y-100499919D01*
X126357143Y-100499919D02*
X126380952Y-100523728D01*
X126380952Y-100523728D02*
X126404762Y-100571347D01*
X126404762Y-100571347D02*
X126404762Y-100618966D01*
X126404762Y-100618966D02*
X126380952Y-100690395D01*
X126380952Y-100690395D02*
X126095238Y-100976109D01*
X126095238Y-100976109D02*
X126404762Y-100976109D01*
X126642857Y-100976109D02*
X126738095Y-100976109D01*
X126738095Y-100976109D02*
X126785714Y-100952300D01*
X126785714Y-100952300D02*
X126809523Y-100928490D01*
X126809523Y-100928490D02*
X126857142Y-100857061D01*
X126857142Y-100857061D02*
X126880952Y-100761823D01*
X126880952Y-100761823D02*
X126880952Y-100571347D01*
X126880952Y-100571347D02*
X126857142Y-100523728D01*
X126857142Y-100523728D02*
X126833333Y-100499919D01*
X126833333Y-100499919D02*
X126785714Y-100476109D01*
X126785714Y-100476109D02*
X126690476Y-100476109D01*
X126690476Y-100476109D02*
X126642857Y-100499919D01*
X126642857Y-100499919D02*
X126619047Y-100523728D01*
X126619047Y-100523728D02*
X126595238Y-100571347D01*
X126595238Y-100571347D02*
X126595238Y-100690395D01*
X126595238Y-100690395D02*
X126619047Y-100738014D01*
X126619047Y-100738014D02*
X126642857Y-100761823D01*
X126642857Y-100761823D02*
X126690476Y-100785633D01*
X126690476Y-100785633D02*
X126785714Y-100785633D01*
X126785714Y-100785633D02*
X126833333Y-100761823D01*
X126833333Y-100761823D02*
X126857142Y-100738014D01*
X126857142Y-100738014D02*
X126880952Y-100690395D01*
X166546109Y-73971428D02*
X166308014Y-74138094D01*
X166546109Y-74257142D02*
X166046109Y-74257142D01*
X166046109Y-74257142D02*
X166046109Y-74066666D01*
X166046109Y-74066666D02*
X166069919Y-74019047D01*
X166069919Y-74019047D02*
X166093728Y-73995237D01*
X166093728Y-73995237D02*
X166141347Y-73971428D01*
X166141347Y-73971428D02*
X166212776Y-73971428D01*
X166212776Y-73971428D02*
X166260395Y-73995237D01*
X166260395Y-73995237D02*
X166284204Y-74019047D01*
X166284204Y-74019047D02*
X166308014Y-74066666D01*
X166308014Y-74066666D02*
X166308014Y-74257142D01*
X166093728Y-73780951D02*
X166069919Y-73757142D01*
X166069919Y-73757142D02*
X166046109Y-73709523D01*
X166046109Y-73709523D02*
X166046109Y-73590475D01*
X166046109Y-73590475D02*
X166069919Y-73542856D01*
X166069919Y-73542856D02*
X166093728Y-73519047D01*
X166093728Y-73519047D02*
X166141347Y-73495237D01*
X166141347Y-73495237D02*
X166188966Y-73495237D01*
X166188966Y-73495237D02*
X166260395Y-73519047D01*
X166260395Y-73519047D02*
X166546109Y-73804761D01*
X166546109Y-73804761D02*
X166546109Y-73495237D01*
X166046109Y-73185714D02*
X166046109Y-73138095D01*
X166046109Y-73138095D02*
X166069919Y-73090476D01*
X166069919Y-73090476D02*
X166093728Y-73066666D01*
X166093728Y-73066666D02*
X166141347Y-73042857D01*
X166141347Y-73042857D02*
X166236585Y-73019047D01*
X166236585Y-73019047D02*
X166355633Y-73019047D01*
X166355633Y-73019047D02*
X166450871Y-73042857D01*
X166450871Y-73042857D02*
X166498490Y-73066666D01*
X166498490Y-73066666D02*
X166522300Y-73090476D01*
X166522300Y-73090476D02*
X166546109Y-73138095D01*
X166546109Y-73138095D02*
X166546109Y-73185714D01*
X166546109Y-73185714D02*
X166522300Y-73233333D01*
X166522300Y-73233333D02*
X166498490Y-73257142D01*
X166498490Y-73257142D02*
X166450871Y-73280952D01*
X166450871Y-73280952D02*
X166355633Y-73304761D01*
X166355633Y-73304761D02*
X166236585Y-73304761D01*
X166236585Y-73304761D02*
X166141347Y-73280952D01*
X166141347Y-73280952D02*
X166093728Y-73257142D01*
X166093728Y-73257142D02*
X166069919Y-73233333D01*
X166069919Y-73233333D02*
X166046109Y-73185714D01*
X128753571Y-68243609D02*
X128586905Y-68005514D01*
X128467857Y-68243609D02*
X128467857Y-67743609D01*
X128467857Y-67743609D02*
X128658333Y-67743609D01*
X128658333Y-67743609D02*
X128705952Y-67767419D01*
X128705952Y-67767419D02*
X128729762Y-67791228D01*
X128729762Y-67791228D02*
X128753571Y-67838847D01*
X128753571Y-67838847D02*
X128753571Y-67910276D01*
X128753571Y-67910276D02*
X128729762Y-67957895D01*
X128729762Y-67957895D02*
X128705952Y-67981704D01*
X128705952Y-67981704D02*
X128658333Y-68005514D01*
X128658333Y-68005514D02*
X128467857Y-68005514D01*
X128920238Y-67743609D02*
X129229762Y-67743609D01*
X129229762Y-67743609D02*
X129063095Y-67934085D01*
X129063095Y-67934085D02*
X129134524Y-67934085D01*
X129134524Y-67934085D02*
X129182143Y-67957895D01*
X129182143Y-67957895D02*
X129205952Y-67981704D01*
X129205952Y-67981704D02*
X129229762Y-68029323D01*
X129229762Y-68029323D02*
X129229762Y-68148371D01*
X129229762Y-68148371D02*
X129205952Y-68195990D01*
X129205952Y-68195990D02*
X129182143Y-68219800D01*
X129182143Y-68219800D02*
X129134524Y-68243609D01*
X129134524Y-68243609D02*
X128991667Y-68243609D01*
X128991667Y-68243609D02*
X128944048Y-68219800D01*
X128944048Y-68219800D02*
X128920238Y-68195990D01*
X129420238Y-67791228D02*
X129444047Y-67767419D01*
X129444047Y-67767419D02*
X129491666Y-67743609D01*
X129491666Y-67743609D02*
X129610714Y-67743609D01*
X129610714Y-67743609D02*
X129658333Y-67767419D01*
X129658333Y-67767419D02*
X129682142Y-67791228D01*
X129682142Y-67791228D02*
X129705952Y-67838847D01*
X129705952Y-67838847D02*
X129705952Y-67886466D01*
X129705952Y-67886466D02*
X129682142Y-67957895D01*
X129682142Y-67957895D02*
X129396428Y-68243609D01*
X129396428Y-68243609D02*
X129705952Y-68243609D01*
X178026109Y-81821428D02*
X177788014Y-81988094D01*
X178026109Y-82107142D02*
X177526109Y-82107142D01*
X177526109Y-82107142D02*
X177526109Y-81916666D01*
X177526109Y-81916666D02*
X177549919Y-81869047D01*
X177549919Y-81869047D02*
X177573728Y-81845237D01*
X177573728Y-81845237D02*
X177621347Y-81821428D01*
X177621347Y-81821428D02*
X177692776Y-81821428D01*
X177692776Y-81821428D02*
X177740395Y-81845237D01*
X177740395Y-81845237D02*
X177764204Y-81869047D01*
X177764204Y-81869047D02*
X177788014Y-81916666D01*
X177788014Y-81916666D02*
X177788014Y-82107142D01*
X178026109Y-81345237D02*
X178026109Y-81630951D01*
X178026109Y-81488094D02*
X177526109Y-81488094D01*
X177526109Y-81488094D02*
X177597538Y-81535713D01*
X177597538Y-81535713D02*
X177645157Y-81583332D01*
X177645157Y-81583332D02*
X177668966Y-81630951D01*
X177526109Y-80916666D02*
X177526109Y-81011904D01*
X177526109Y-81011904D02*
X177549919Y-81059523D01*
X177549919Y-81059523D02*
X177573728Y-81083333D01*
X177573728Y-81083333D02*
X177645157Y-81130952D01*
X177645157Y-81130952D02*
X177740395Y-81154761D01*
X177740395Y-81154761D02*
X177930871Y-81154761D01*
X177930871Y-81154761D02*
X177978490Y-81130952D01*
X177978490Y-81130952D02*
X178002300Y-81107142D01*
X178002300Y-81107142D02*
X178026109Y-81059523D01*
X178026109Y-81059523D02*
X178026109Y-80964285D01*
X178026109Y-80964285D02*
X178002300Y-80916666D01*
X178002300Y-80916666D02*
X177978490Y-80892857D01*
X177978490Y-80892857D02*
X177930871Y-80869047D01*
X177930871Y-80869047D02*
X177811823Y-80869047D01*
X177811823Y-80869047D02*
X177764204Y-80892857D01*
X177764204Y-80892857D02*
X177740395Y-80916666D01*
X177740395Y-80916666D02*
X177716585Y-80964285D01*
X177716585Y-80964285D02*
X177716585Y-81059523D01*
X177716585Y-81059523D02*
X177740395Y-81107142D01*
X177740395Y-81107142D02*
X177764204Y-81130952D01*
X177764204Y-81130952D02*
X177811823Y-81154761D01*
X169471109Y-73733333D02*
X169233014Y-73899999D01*
X169471109Y-74019047D02*
X168971109Y-74019047D01*
X168971109Y-74019047D02*
X168971109Y-73828571D01*
X168971109Y-73828571D02*
X168994919Y-73780952D01*
X168994919Y-73780952D02*
X169018728Y-73757142D01*
X169018728Y-73757142D02*
X169066347Y-73733333D01*
X169066347Y-73733333D02*
X169137776Y-73733333D01*
X169137776Y-73733333D02*
X169185395Y-73757142D01*
X169185395Y-73757142D02*
X169209204Y-73780952D01*
X169209204Y-73780952D02*
X169233014Y-73828571D01*
X169233014Y-73828571D02*
X169233014Y-74019047D01*
X169137776Y-73304761D02*
X169471109Y-73304761D01*
X168947300Y-73423809D02*
X169304442Y-73542856D01*
X169304442Y-73542856D02*
X169304442Y-73233333D01*
X153826109Y-71033333D02*
X153588014Y-71199999D01*
X153826109Y-71319047D02*
X153326109Y-71319047D01*
X153326109Y-71319047D02*
X153326109Y-71128571D01*
X153326109Y-71128571D02*
X153349919Y-71080952D01*
X153349919Y-71080952D02*
X153373728Y-71057142D01*
X153373728Y-71057142D02*
X153421347Y-71033333D01*
X153421347Y-71033333D02*
X153492776Y-71033333D01*
X153492776Y-71033333D02*
X153540395Y-71057142D01*
X153540395Y-71057142D02*
X153564204Y-71080952D01*
X153564204Y-71080952D02*
X153588014Y-71128571D01*
X153588014Y-71128571D02*
X153588014Y-71319047D01*
X153373728Y-70842856D02*
X153349919Y-70819047D01*
X153349919Y-70819047D02*
X153326109Y-70771428D01*
X153326109Y-70771428D02*
X153326109Y-70652380D01*
X153326109Y-70652380D02*
X153349919Y-70604761D01*
X153349919Y-70604761D02*
X153373728Y-70580952D01*
X153373728Y-70580952D02*
X153421347Y-70557142D01*
X153421347Y-70557142D02*
X153468966Y-70557142D01*
X153468966Y-70557142D02*
X153540395Y-70580952D01*
X153540395Y-70580952D02*
X153826109Y-70866666D01*
X153826109Y-70866666D02*
X153826109Y-70557142D01*
X169476109Y-70333333D02*
X169238014Y-70499999D01*
X169476109Y-70619047D02*
X168976109Y-70619047D01*
X168976109Y-70619047D02*
X168976109Y-70428571D01*
X168976109Y-70428571D02*
X168999919Y-70380952D01*
X168999919Y-70380952D02*
X169023728Y-70357142D01*
X169023728Y-70357142D02*
X169071347Y-70333333D01*
X169071347Y-70333333D02*
X169142776Y-70333333D01*
X169142776Y-70333333D02*
X169190395Y-70357142D01*
X169190395Y-70357142D02*
X169214204Y-70380952D01*
X169214204Y-70380952D02*
X169238014Y-70428571D01*
X169238014Y-70428571D02*
X169238014Y-70619047D01*
X168976109Y-69880952D02*
X168976109Y-70119047D01*
X168976109Y-70119047D02*
X169214204Y-70142856D01*
X169214204Y-70142856D02*
X169190395Y-70119047D01*
X169190395Y-70119047D02*
X169166585Y-70071428D01*
X169166585Y-70071428D02*
X169166585Y-69952380D01*
X169166585Y-69952380D02*
X169190395Y-69904761D01*
X169190395Y-69904761D02*
X169214204Y-69880952D01*
X169214204Y-69880952D02*
X169261823Y-69857142D01*
X169261823Y-69857142D02*
X169380871Y-69857142D01*
X169380871Y-69857142D02*
X169428490Y-69880952D01*
X169428490Y-69880952D02*
X169452300Y-69904761D01*
X169452300Y-69904761D02*
X169476109Y-69952380D01*
X169476109Y-69952380D02*
X169476109Y-70071428D01*
X169476109Y-70071428D02*
X169452300Y-70119047D01*
X169452300Y-70119047D02*
X169428490Y-70142856D01*
X176794047Y-72726109D02*
X176794047Y-73130871D01*
X176794047Y-73130871D02*
X176817857Y-73178490D01*
X176817857Y-73178490D02*
X176841666Y-73202300D01*
X176841666Y-73202300D02*
X176889285Y-73226109D01*
X176889285Y-73226109D02*
X176984523Y-73226109D01*
X176984523Y-73226109D02*
X177032142Y-73202300D01*
X177032142Y-73202300D02*
X177055952Y-73178490D01*
X177055952Y-73178490D02*
X177079761Y-73130871D01*
X177079761Y-73130871D02*
X177079761Y-72726109D01*
X177270238Y-72726109D02*
X177579762Y-72726109D01*
X177579762Y-72726109D02*
X177413095Y-72916585D01*
X177413095Y-72916585D02*
X177484524Y-72916585D01*
X177484524Y-72916585D02*
X177532143Y-72940395D01*
X177532143Y-72940395D02*
X177555952Y-72964204D01*
X177555952Y-72964204D02*
X177579762Y-73011823D01*
X177579762Y-73011823D02*
X177579762Y-73130871D01*
X177579762Y-73130871D02*
X177555952Y-73178490D01*
X177555952Y-73178490D02*
X177532143Y-73202300D01*
X177532143Y-73202300D02*
X177484524Y-73226109D01*
X177484524Y-73226109D02*
X177341667Y-73226109D01*
X177341667Y-73226109D02*
X177294048Y-73202300D01*
X177294048Y-73202300D02*
X177270238Y-73178490D01*
X148948890Y-89809047D02*
X148544128Y-89809047D01*
X148544128Y-89809047D02*
X148496509Y-89832857D01*
X148496509Y-89832857D02*
X148472700Y-89856666D01*
X148472700Y-89856666D02*
X148448890Y-89904285D01*
X148448890Y-89904285D02*
X148448890Y-89999523D01*
X148448890Y-89999523D02*
X148472700Y-90047142D01*
X148472700Y-90047142D02*
X148496509Y-90070952D01*
X148496509Y-90070952D02*
X148544128Y-90094761D01*
X148544128Y-90094761D02*
X148948890Y-90094761D01*
X148448890Y-90594762D02*
X148448890Y-90309048D01*
X148448890Y-90451905D02*
X148948890Y-90451905D01*
X148948890Y-90451905D02*
X148877461Y-90404286D01*
X148877461Y-90404286D02*
X148829842Y-90356667D01*
X148829842Y-90356667D02*
X148806033Y-90309048D01*
X183976109Y-81821428D02*
X183738014Y-81988094D01*
X183976109Y-82107142D02*
X183476109Y-82107142D01*
X183476109Y-82107142D02*
X183476109Y-81916666D01*
X183476109Y-81916666D02*
X183499919Y-81869047D01*
X183499919Y-81869047D02*
X183523728Y-81845237D01*
X183523728Y-81845237D02*
X183571347Y-81821428D01*
X183571347Y-81821428D02*
X183642776Y-81821428D01*
X183642776Y-81821428D02*
X183690395Y-81845237D01*
X183690395Y-81845237D02*
X183714204Y-81869047D01*
X183714204Y-81869047D02*
X183738014Y-81916666D01*
X183738014Y-81916666D02*
X183738014Y-82107142D01*
X183976109Y-81345237D02*
X183976109Y-81630951D01*
X183976109Y-81488094D02*
X183476109Y-81488094D01*
X183476109Y-81488094D02*
X183547538Y-81535713D01*
X183547538Y-81535713D02*
X183595157Y-81583332D01*
X183595157Y-81583332D02*
X183618966Y-81630951D01*
X183642776Y-80916666D02*
X183976109Y-80916666D01*
X183452300Y-81035714D02*
X183809442Y-81154761D01*
X183809442Y-81154761D02*
X183809442Y-80845238D01*
X185353490Y-72833333D02*
X185377300Y-72857142D01*
X185377300Y-72857142D02*
X185401109Y-72928571D01*
X185401109Y-72928571D02*
X185401109Y-72976190D01*
X185401109Y-72976190D02*
X185377300Y-73047618D01*
X185377300Y-73047618D02*
X185329680Y-73095237D01*
X185329680Y-73095237D02*
X185282061Y-73119047D01*
X185282061Y-73119047D02*
X185186823Y-73142856D01*
X185186823Y-73142856D02*
X185115395Y-73142856D01*
X185115395Y-73142856D02*
X185020157Y-73119047D01*
X185020157Y-73119047D02*
X184972538Y-73095237D01*
X184972538Y-73095237D02*
X184924919Y-73047618D01*
X184924919Y-73047618D02*
X184901109Y-72976190D01*
X184901109Y-72976190D02*
X184901109Y-72928571D01*
X184901109Y-72928571D02*
X184924919Y-72857142D01*
X184924919Y-72857142D02*
X184948728Y-72833333D01*
X184901109Y-72380952D02*
X184901109Y-72619047D01*
X184901109Y-72619047D02*
X185139204Y-72642856D01*
X185139204Y-72642856D02*
X185115395Y-72619047D01*
X185115395Y-72619047D02*
X185091585Y-72571428D01*
X185091585Y-72571428D02*
X185091585Y-72452380D01*
X185091585Y-72452380D02*
X185115395Y-72404761D01*
X185115395Y-72404761D02*
X185139204Y-72380952D01*
X185139204Y-72380952D02*
X185186823Y-72357142D01*
X185186823Y-72357142D02*
X185305871Y-72357142D01*
X185305871Y-72357142D02*
X185353490Y-72380952D01*
X185353490Y-72380952D02*
X185377300Y-72404761D01*
X185377300Y-72404761D02*
X185401109Y-72452380D01*
X185401109Y-72452380D02*
X185401109Y-72571428D01*
X185401109Y-72571428D02*
X185377300Y-72619047D01*
X185377300Y-72619047D02*
X185353490Y-72642856D01*
X125928571Y-91928490D02*
X125904762Y-91952300D01*
X125904762Y-91952300D02*
X125833333Y-91976109D01*
X125833333Y-91976109D02*
X125785714Y-91976109D01*
X125785714Y-91976109D02*
X125714286Y-91952300D01*
X125714286Y-91952300D02*
X125666667Y-91904680D01*
X125666667Y-91904680D02*
X125642857Y-91857061D01*
X125642857Y-91857061D02*
X125619048Y-91761823D01*
X125619048Y-91761823D02*
X125619048Y-91690395D01*
X125619048Y-91690395D02*
X125642857Y-91595157D01*
X125642857Y-91595157D02*
X125666667Y-91547538D01*
X125666667Y-91547538D02*
X125714286Y-91499919D01*
X125714286Y-91499919D02*
X125785714Y-91476109D01*
X125785714Y-91476109D02*
X125833333Y-91476109D01*
X125833333Y-91476109D02*
X125904762Y-91499919D01*
X125904762Y-91499919D02*
X125928571Y-91523728D01*
X126404762Y-91976109D02*
X126119048Y-91976109D01*
X126261905Y-91976109D02*
X126261905Y-91476109D01*
X126261905Y-91476109D02*
X126214286Y-91547538D01*
X126214286Y-91547538D02*
X126166667Y-91595157D01*
X126166667Y-91595157D02*
X126119048Y-91618966D01*
X126857142Y-91476109D02*
X126619047Y-91476109D01*
X126619047Y-91476109D02*
X126595238Y-91714204D01*
X126595238Y-91714204D02*
X126619047Y-91690395D01*
X126619047Y-91690395D02*
X126666666Y-91666585D01*
X126666666Y-91666585D02*
X126785714Y-91666585D01*
X126785714Y-91666585D02*
X126833333Y-91690395D01*
X126833333Y-91690395D02*
X126857142Y-91714204D01*
X126857142Y-91714204D02*
X126880952Y-91761823D01*
X126880952Y-91761823D02*
X126880952Y-91880871D01*
X126880952Y-91880871D02*
X126857142Y-91928490D01*
X126857142Y-91928490D02*
X126833333Y-91952300D01*
X126833333Y-91952300D02*
X126785714Y-91976109D01*
X126785714Y-91976109D02*
X126666666Y-91976109D01*
X126666666Y-91976109D02*
X126619047Y-91952300D01*
X126619047Y-91952300D02*
X126595238Y-91928490D01*
X124803571Y-68313609D02*
X124636905Y-68075514D01*
X124517857Y-68313609D02*
X124517857Y-67813609D01*
X124517857Y-67813609D02*
X124708333Y-67813609D01*
X124708333Y-67813609D02*
X124755952Y-67837419D01*
X124755952Y-67837419D02*
X124779762Y-67861228D01*
X124779762Y-67861228D02*
X124803571Y-67908847D01*
X124803571Y-67908847D02*
X124803571Y-67980276D01*
X124803571Y-67980276D02*
X124779762Y-68027895D01*
X124779762Y-68027895D02*
X124755952Y-68051704D01*
X124755952Y-68051704D02*
X124708333Y-68075514D01*
X124708333Y-68075514D02*
X124517857Y-68075514D01*
X124994048Y-67861228D02*
X125017857Y-67837419D01*
X125017857Y-67837419D02*
X125065476Y-67813609D01*
X125065476Y-67813609D02*
X125184524Y-67813609D01*
X125184524Y-67813609D02*
X125232143Y-67837419D01*
X125232143Y-67837419D02*
X125255952Y-67861228D01*
X125255952Y-67861228D02*
X125279762Y-67908847D01*
X125279762Y-67908847D02*
X125279762Y-67956466D01*
X125279762Y-67956466D02*
X125255952Y-68027895D01*
X125255952Y-68027895D02*
X124970238Y-68313609D01*
X124970238Y-68313609D02*
X125279762Y-68313609D01*
X125755952Y-68313609D02*
X125470238Y-68313609D01*
X125613095Y-68313609D02*
X125613095Y-67813609D01*
X125613095Y-67813609D02*
X125565476Y-67885038D01*
X125565476Y-67885038D02*
X125517857Y-67932657D01*
X125517857Y-67932657D02*
X125470238Y-67956466D01*
X131656547Y-80776109D02*
X131656547Y-81180871D01*
X131656547Y-81180871D02*
X131680357Y-81228490D01*
X131680357Y-81228490D02*
X131704166Y-81252300D01*
X131704166Y-81252300D02*
X131751785Y-81276109D01*
X131751785Y-81276109D02*
X131847023Y-81276109D01*
X131847023Y-81276109D02*
X131894642Y-81252300D01*
X131894642Y-81252300D02*
X131918452Y-81228490D01*
X131918452Y-81228490D02*
X131942261Y-81180871D01*
X131942261Y-81180871D02*
X131942261Y-80776109D01*
X132156548Y-80823728D02*
X132180357Y-80799919D01*
X132180357Y-80799919D02*
X132227976Y-80776109D01*
X132227976Y-80776109D02*
X132347024Y-80776109D01*
X132347024Y-80776109D02*
X132394643Y-80799919D01*
X132394643Y-80799919D02*
X132418452Y-80823728D01*
X132418452Y-80823728D02*
X132442262Y-80871347D01*
X132442262Y-80871347D02*
X132442262Y-80918966D01*
X132442262Y-80918966D02*
X132418452Y-80990395D01*
X132418452Y-80990395D02*
X132132738Y-81276109D01*
X132132738Y-81276109D02*
X132442262Y-81276109D01*
X152403571Y-102428490D02*
X152379762Y-102452300D01*
X152379762Y-102452300D02*
X152308333Y-102476109D01*
X152308333Y-102476109D02*
X152260714Y-102476109D01*
X152260714Y-102476109D02*
X152189286Y-102452300D01*
X152189286Y-102452300D02*
X152141667Y-102404680D01*
X152141667Y-102404680D02*
X152117857Y-102357061D01*
X152117857Y-102357061D02*
X152094048Y-102261823D01*
X152094048Y-102261823D02*
X152094048Y-102190395D01*
X152094048Y-102190395D02*
X152117857Y-102095157D01*
X152117857Y-102095157D02*
X152141667Y-102047538D01*
X152141667Y-102047538D02*
X152189286Y-101999919D01*
X152189286Y-101999919D02*
X152260714Y-101976109D01*
X152260714Y-101976109D02*
X152308333Y-101976109D01*
X152308333Y-101976109D02*
X152379762Y-101999919D01*
X152379762Y-101999919D02*
X152403571Y-102023728D01*
X152879762Y-102476109D02*
X152594048Y-102476109D01*
X152736905Y-102476109D02*
X152736905Y-101976109D01*
X152736905Y-101976109D02*
X152689286Y-102047538D01*
X152689286Y-102047538D02*
X152641667Y-102095157D01*
X152641667Y-102095157D02*
X152594048Y-102118966D01*
X153355952Y-102476109D02*
X153070238Y-102476109D01*
X153213095Y-102476109D02*
X153213095Y-101976109D01*
X153213095Y-101976109D02*
X153165476Y-102047538D01*
X153165476Y-102047538D02*
X153117857Y-102095157D01*
X153117857Y-102095157D02*
X153070238Y-102118966D01*
X176091666Y-64551109D02*
X175925000Y-64313014D01*
X175805952Y-64551109D02*
X175805952Y-64051109D01*
X175805952Y-64051109D02*
X175996428Y-64051109D01*
X175996428Y-64051109D02*
X176044047Y-64074919D01*
X176044047Y-64074919D02*
X176067857Y-64098728D01*
X176067857Y-64098728D02*
X176091666Y-64146347D01*
X176091666Y-64146347D02*
X176091666Y-64217776D01*
X176091666Y-64217776D02*
X176067857Y-64265395D01*
X176067857Y-64265395D02*
X176044047Y-64289204D01*
X176044047Y-64289204D02*
X175996428Y-64313014D01*
X175996428Y-64313014D02*
X175805952Y-64313014D01*
X176329762Y-64551109D02*
X176425000Y-64551109D01*
X176425000Y-64551109D02*
X176472619Y-64527300D01*
X176472619Y-64527300D02*
X176496428Y-64503490D01*
X176496428Y-64503490D02*
X176544047Y-64432061D01*
X176544047Y-64432061D02*
X176567857Y-64336823D01*
X176567857Y-64336823D02*
X176567857Y-64146347D01*
X176567857Y-64146347D02*
X176544047Y-64098728D01*
X176544047Y-64098728D02*
X176520238Y-64074919D01*
X176520238Y-64074919D02*
X176472619Y-64051109D01*
X176472619Y-64051109D02*
X176377381Y-64051109D01*
X176377381Y-64051109D02*
X176329762Y-64074919D01*
X176329762Y-64074919D02*
X176305952Y-64098728D01*
X176305952Y-64098728D02*
X176282143Y-64146347D01*
X176282143Y-64146347D02*
X176282143Y-64265395D01*
X176282143Y-64265395D02*
X176305952Y-64313014D01*
X176305952Y-64313014D02*
X176329762Y-64336823D01*
X176329762Y-64336823D02*
X176377381Y-64360633D01*
X176377381Y-64360633D02*
X176472619Y-64360633D01*
X176472619Y-64360633D02*
X176520238Y-64336823D01*
X176520238Y-64336823D02*
X176544047Y-64313014D01*
X176544047Y-64313014D02*
X176567857Y-64265395D01*
X188401109Y-72321428D02*
X188163014Y-72488094D01*
X188401109Y-72607142D02*
X187901109Y-72607142D01*
X187901109Y-72607142D02*
X187901109Y-72416666D01*
X187901109Y-72416666D02*
X187924919Y-72369047D01*
X187924919Y-72369047D02*
X187948728Y-72345237D01*
X187948728Y-72345237D02*
X187996347Y-72321428D01*
X187996347Y-72321428D02*
X188067776Y-72321428D01*
X188067776Y-72321428D02*
X188115395Y-72345237D01*
X188115395Y-72345237D02*
X188139204Y-72369047D01*
X188139204Y-72369047D02*
X188163014Y-72416666D01*
X188163014Y-72416666D02*
X188163014Y-72607142D01*
X188401109Y-71845237D02*
X188401109Y-72130951D01*
X188401109Y-71988094D02*
X187901109Y-71988094D01*
X187901109Y-71988094D02*
X187972538Y-72035713D01*
X187972538Y-72035713D02*
X188020157Y-72083332D01*
X188020157Y-72083332D02*
X188043966Y-72130951D01*
X187948728Y-71654761D02*
X187924919Y-71630952D01*
X187924919Y-71630952D02*
X187901109Y-71583333D01*
X187901109Y-71583333D02*
X187901109Y-71464285D01*
X187901109Y-71464285D02*
X187924919Y-71416666D01*
X187924919Y-71416666D02*
X187948728Y-71392857D01*
X187948728Y-71392857D02*
X187996347Y-71369047D01*
X187996347Y-71369047D02*
X188043966Y-71369047D01*
X188043966Y-71369047D02*
X188115395Y-71392857D01*
X188115395Y-71392857D02*
X188401109Y-71678571D01*
X188401109Y-71678571D02*
X188401109Y-71369047D01*
X188178490Y-68833333D02*
X188202300Y-68857142D01*
X188202300Y-68857142D02*
X188226109Y-68928571D01*
X188226109Y-68928571D02*
X188226109Y-68976190D01*
X188226109Y-68976190D02*
X188202300Y-69047618D01*
X188202300Y-69047618D02*
X188154680Y-69095237D01*
X188154680Y-69095237D02*
X188107061Y-69119047D01*
X188107061Y-69119047D02*
X188011823Y-69142856D01*
X188011823Y-69142856D02*
X187940395Y-69142856D01*
X187940395Y-69142856D02*
X187845157Y-69119047D01*
X187845157Y-69119047D02*
X187797538Y-69095237D01*
X187797538Y-69095237D02*
X187749919Y-69047618D01*
X187749919Y-69047618D02*
X187726109Y-68976190D01*
X187726109Y-68976190D02*
X187726109Y-68928571D01*
X187726109Y-68928571D02*
X187749919Y-68857142D01*
X187749919Y-68857142D02*
X187773728Y-68833333D01*
X187892776Y-68404761D02*
X188226109Y-68404761D01*
X187702300Y-68523809D02*
X188059442Y-68642856D01*
X188059442Y-68642856D02*
X188059442Y-68333333D01*
X146226109Y-70983333D02*
X145988014Y-71149999D01*
X146226109Y-71269047D02*
X145726109Y-71269047D01*
X145726109Y-71269047D02*
X145726109Y-71078571D01*
X145726109Y-71078571D02*
X145749919Y-71030952D01*
X145749919Y-71030952D02*
X145773728Y-71007142D01*
X145773728Y-71007142D02*
X145821347Y-70983333D01*
X145821347Y-70983333D02*
X145892776Y-70983333D01*
X145892776Y-70983333D02*
X145940395Y-71007142D01*
X145940395Y-71007142D02*
X145964204Y-71030952D01*
X145964204Y-71030952D02*
X145988014Y-71078571D01*
X145988014Y-71078571D02*
X145988014Y-71269047D01*
X146226109Y-70507142D02*
X146226109Y-70792856D01*
X146226109Y-70649999D02*
X145726109Y-70649999D01*
X145726109Y-70649999D02*
X145797538Y-70697618D01*
X145797538Y-70697618D02*
X145845157Y-70745237D01*
X145845157Y-70745237D02*
X145868966Y-70792856D01*
X122119047Y-60813609D02*
X122119047Y-61218371D01*
X122119047Y-61218371D02*
X122142857Y-61265990D01*
X122142857Y-61265990D02*
X122166666Y-61289800D01*
X122166666Y-61289800D02*
X122214285Y-61313609D01*
X122214285Y-61313609D02*
X122309523Y-61313609D01*
X122309523Y-61313609D02*
X122357142Y-61289800D01*
X122357142Y-61289800D02*
X122380952Y-61265990D01*
X122380952Y-61265990D02*
X122404761Y-61218371D01*
X122404761Y-61218371D02*
X122404761Y-60813609D01*
X122857143Y-60980276D02*
X122857143Y-61313609D01*
X122738095Y-60789800D02*
X122619048Y-61146942D01*
X122619048Y-61146942D02*
X122928571Y-61146942D01*
X129380952Y-64726109D02*
X129380952Y-64226109D01*
X129380952Y-64226109D02*
X129500000Y-64226109D01*
X129500000Y-64226109D02*
X129571428Y-64249919D01*
X129571428Y-64249919D02*
X129619047Y-64297538D01*
X129619047Y-64297538D02*
X129642857Y-64345157D01*
X129642857Y-64345157D02*
X129666666Y-64440395D01*
X129666666Y-64440395D02*
X129666666Y-64511823D01*
X129666666Y-64511823D02*
X129642857Y-64607061D01*
X129642857Y-64607061D02*
X129619047Y-64654680D01*
X129619047Y-64654680D02*
X129571428Y-64702300D01*
X129571428Y-64702300D02*
X129500000Y-64726109D01*
X129500000Y-64726109D02*
X129380952Y-64726109D01*
X129857143Y-64273728D02*
X129880952Y-64249919D01*
X129880952Y-64249919D02*
X129928571Y-64226109D01*
X129928571Y-64226109D02*
X130047619Y-64226109D01*
X130047619Y-64226109D02*
X130095238Y-64249919D01*
X130095238Y-64249919D02*
X130119047Y-64273728D01*
X130119047Y-64273728D02*
X130142857Y-64321347D01*
X130142857Y-64321347D02*
X130142857Y-64368966D01*
X130142857Y-64368966D02*
X130119047Y-64440395D01*
X130119047Y-64440395D02*
X129833333Y-64726109D01*
X129833333Y-64726109D02*
X130142857Y-64726109D01*
X152328571Y-104076109D02*
X152161905Y-103838014D01*
X152042857Y-104076109D02*
X152042857Y-103576109D01*
X152042857Y-103576109D02*
X152233333Y-103576109D01*
X152233333Y-103576109D02*
X152280952Y-103599919D01*
X152280952Y-103599919D02*
X152304762Y-103623728D01*
X152304762Y-103623728D02*
X152328571Y-103671347D01*
X152328571Y-103671347D02*
X152328571Y-103742776D01*
X152328571Y-103742776D02*
X152304762Y-103790395D01*
X152304762Y-103790395D02*
X152280952Y-103814204D01*
X152280952Y-103814204D02*
X152233333Y-103838014D01*
X152233333Y-103838014D02*
X152042857Y-103838014D01*
X152519048Y-103623728D02*
X152542857Y-103599919D01*
X152542857Y-103599919D02*
X152590476Y-103576109D01*
X152590476Y-103576109D02*
X152709524Y-103576109D01*
X152709524Y-103576109D02*
X152757143Y-103599919D01*
X152757143Y-103599919D02*
X152780952Y-103623728D01*
X152780952Y-103623728D02*
X152804762Y-103671347D01*
X152804762Y-103671347D02*
X152804762Y-103718966D01*
X152804762Y-103718966D02*
X152780952Y-103790395D01*
X152780952Y-103790395D02*
X152495238Y-104076109D01*
X152495238Y-104076109D02*
X152804762Y-104076109D01*
X152995238Y-103623728D02*
X153019047Y-103599919D01*
X153019047Y-103599919D02*
X153066666Y-103576109D01*
X153066666Y-103576109D02*
X153185714Y-103576109D01*
X153185714Y-103576109D02*
X153233333Y-103599919D01*
X153233333Y-103599919D02*
X153257142Y-103623728D01*
X153257142Y-103623728D02*
X153280952Y-103671347D01*
X153280952Y-103671347D02*
X153280952Y-103718966D01*
X153280952Y-103718966D02*
X153257142Y-103790395D01*
X153257142Y-103790395D02*
X152971428Y-104076109D01*
X152971428Y-104076109D02*
X153280952Y-104076109D01*
X138126109Y-81371428D02*
X137888014Y-81538094D01*
X138126109Y-81657142D02*
X137626109Y-81657142D01*
X137626109Y-81657142D02*
X137626109Y-81466666D01*
X137626109Y-81466666D02*
X137649919Y-81419047D01*
X137649919Y-81419047D02*
X137673728Y-81395237D01*
X137673728Y-81395237D02*
X137721347Y-81371428D01*
X137721347Y-81371428D02*
X137792776Y-81371428D01*
X137792776Y-81371428D02*
X137840395Y-81395237D01*
X137840395Y-81395237D02*
X137864204Y-81419047D01*
X137864204Y-81419047D02*
X137888014Y-81466666D01*
X137888014Y-81466666D02*
X137888014Y-81657142D01*
X137673728Y-81180951D02*
X137649919Y-81157142D01*
X137649919Y-81157142D02*
X137626109Y-81109523D01*
X137626109Y-81109523D02*
X137626109Y-80990475D01*
X137626109Y-80990475D02*
X137649919Y-80942856D01*
X137649919Y-80942856D02*
X137673728Y-80919047D01*
X137673728Y-80919047D02*
X137721347Y-80895237D01*
X137721347Y-80895237D02*
X137768966Y-80895237D01*
X137768966Y-80895237D02*
X137840395Y-80919047D01*
X137840395Y-80919047D02*
X138126109Y-81204761D01*
X138126109Y-81204761D02*
X138126109Y-80895237D01*
X137626109Y-80728571D02*
X137626109Y-80395238D01*
X137626109Y-80395238D02*
X138126109Y-80609523D01*
X166428490Y-66833333D02*
X166452300Y-66857142D01*
X166452300Y-66857142D02*
X166476109Y-66928571D01*
X166476109Y-66928571D02*
X166476109Y-66976190D01*
X166476109Y-66976190D02*
X166452300Y-67047618D01*
X166452300Y-67047618D02*
X166404680Y-67095237D01*
X166404680Y-67095237D02*
X166357061Y-67119047D01*
X166357061Y-67119047D02*
X166261823Y-67142856D01*
X166261823Y-67142856D02*
X166190395Y-67142856D01*
X166190395Y-67142856D02*
X166095157Y-67119047D01*
X166095157Y-67119047D02*
X166047538Y-67095237D01*
X166047538Y-67095237D02*
X165999919Y-67047618D01*
X165999919Y-67047618D02*
X165976109Y-66976190D01*
X165976109Y-66976190D02*
X165976109Y-66928571D01*
X165976109Y-66928571D02*
X165999919Y-66857142D01*
X165999919Y-66857142D02*
X166023728Y-66833333D01*
X165976109Y-66666666D02*
X165976109Y-66333333D01*
X165976109Y-66333333D02*
X166476109Y-66547618D01*
X152578490Y-107321428D02*
X152602300Y-107345237D01*
X152602300Y-107345237D02*
X152626109Y-107416666D01*
X152626109Y-107416666D02*
X152626109Y-107464285D01*
X152626109Y-107464285D02*
X152602300Y-107535713D01*
X152602300Y-107535713D02*
X152554680Y-107583332D01*
X152554680Y-107583332D02*
X152507061Y-107607142D01*
X152507061Y-107607142D02*
X152411823Y-107630951D01*
X152411823Y-107630951D02*
X152340395Y-107630951D01*
X152340395Y-107630951D02*
X152245157Y-107607142D01*
X152245157Y-107607142D02*
X152197538Y-107583332D01*
X152197538Y-107583332D02*
X152149919Y-107535713D01*
X152149919Y-107535713D02*
X152126109Y-107464285D01*
X152126109Y-107464285D02*
X152126109Y-107416666D01*
X152126109Y-107416666D02*
X152149919Y-107345237D01*
X152149919Y-107345237D02*
X152173728Y-107321428D01*
X152626109Y-106845237D02*
X152626109Y-107130951D01*
X152626109Y-106988094D02*
X152126109Y-106988094D01*
X152126109Y-106988094D02*
X152197538Y-107035713D01*
X152197538Y-107035713D02*
X152245157Y-107083332D01*
X152245157Y-107083332D02*
X152268966Y-107130951D01*
X152126109Y-106535714D02*
X152126109Y-106488095D01*
X152126109Y-106488095D02*
X152149919Y-106440476D01*
X152149919Y-106440476D02*
X152173728Y-106416666D01*
X152173728Y-106416666D02*
X152221347Y-106392857D01*
X152221347Y-106392857D02*
X152316585Y-106369047D01*
X152316585Y-106369047D02*
X152435633Y-106369047D01*
X152435633Y-106369047D02*
X152530871Y-106392857D01*
X152530871Y-106392857D02*
X152578490Y-106416666D01*
X152578490Y-106416666D02*
X152602300Y-106440476D01*
X152602300Y-106440476D02*
X152626109Y-106488095D01*
X152626109Y-106488095D02*
X152626109Y-106535714D01*
X152626109Y-106535714D02*
X152602300Y-106583333D01*
X152602300Y-106583333D02*
X152578490Y-106607142D01*
X152578490Y-106607142D02*
X152530871Y-106630952D01*
X152530871Y-106630952D02*
X152435633Y-106654761D01*
X152435633Y-106654761D02*
X152316585Y-106654761D01*
X152316585Y-106654761D02*
X152221347Y-106630952D01*
X152221347Y-106630952D02*
X152173728Y-106607142D01*
X152173728Y-106607142D02*
X152149919Y-106583333D01*
X152149919Y-106583333D02*
X152126109Y-106535714D01*
X147369047Y-74926109D02*
X147369047Y-75330871D01*
X147369047Y-75330871D02*
X147392857Y-75378490D01*
X147392857Y-75378490D02*
X147416666Y-75402300D01*
X147416666Y-75402300D02*
X147464285Y-75426109D01*
X147464285Y-75426109D02*
X147559523Y-75426109D01*
X147559523Y-75426109D02*
X147607142Y-75402300D01*
X147607142Y-75402300D02*
X147630952Y-75378490D01*
X147630952Y-75378490D02*
X147654761Y-75330871D01*
X147654761Y-75330871D02*
X147654761Y-74926109D01*
X148130952Y-74926109D02*
X147892857Y-74926109D01*
X147892857Y-74926109D02*
X147869048Y-75164204D01*
X147869048Y-75164204D02*
X147892857Y-75140395D01*
X147892857Y-75140395D02*
X147940476Y-75116585D01*
X147940476Y-75116585D02*
X148059524Y-75116585D01*
X148059524Y-75116585D02*
X148107143Y-75140395D01*
X148107143Y-75140395D02*
X148130952Y-75164204D01*
X148130952Y-75164204D02*
X148154762Y-75211823D01*
X148154762Y-75211823D02*
X148154762Y-75330871D01*
X148154762Y-75330871D02*
X148130952Y-75378490D01*
X148130952Y-75378490D02*
X148107143Y-75402300D01*
X148107143Y-75402300D02*
X148059524Y-75426109D01*
X148059524Y-75426109D02*
X147940476Y-75426109D01*
X147940476Y-75426109D02*
X147892857Y-75402300D01*
X147892857Y-75402300D02*
X147869048Y-75378490D01*
X125928571Y-96976109D02*
X125761905Y-96738014D01*
X125642857Y-96976109D02*
X125642857Y-96476109D01*
X125642857Y-96476109D02*
X125833333Y-96476109D01*
X125833333Y-96476109D02*
X125880952Y-96499919D01*
X125880952Y-96499919D02*
X125904762Y-96523728D01*
X125904762Y-96523728D02*
X125928571Y-96571347D01*
X125928571Y-96571347D02*
X125928571Y-96642776D01*
X125928571Y-96642776D02*
X125904762Y-96690395D01*
X125904762Y-96690395D02*
X125880952Y-96714204D01*
X125880952Y-96714204D02*
X125833333Y-96738014D01*
X125833333Y-96738014D02*
X125642857Y-96738014D01*
X126119048Y-96523728D02*
X126142857Y-96499919D01*
X126142857Y-96499919D02*
X126190476Y-96476109D01*
X126190476Y-96476109D02*
X126309524Y-96476109D01*
X126309524Y-96476109D02*
X126357143Y-96499919D01*
X126357143Y-96499919D02*
X126380952Y-96523728D01*
X126380952Y-96523728D02*
X126404762Y-96571347D01*
X126404762Y-96571347D02*
X126404762Y-96618966D01*
X126404762Y-96618966D02*
X126380952Y-96690395D01*
X126380952Y-96690395D02*
X126095238Y-96976109D01*
X126095238Y-96976109D02*
X126404762Y-96976109D01*
X126690476Y-96690395D02*
X126642857Y-96666585D01*
X126642857Y-96666585D02*
X126619047Y-96642776D01*
X126619047Y-96642776D02*
X126595238Y-96595157D01*
X126595238Y-96595157D02*
X126595238Y-96571347D01*
X126595238Y-96571347D02*
X126619047Y-96523728D01*
X126619047Y-96523728D02*
X126642857Y-96499919D01*
X126642857Y-96499919D02*
X126690476Y-96476109D01*
X126690476Y-96476109D02*
X126785714Y-96476109D01*
X126785714Y-96476109D02*
X126833333Y-96499919D01*
X126833333Y-96499919D02*
X126857142Y-96523728D01*
X126857142Y-96523728D02*
X126880952Y-96571347D01*
X126880952Y-96571347D02*
X126880952Y-96595157D01*
X126880952Y-96595157D02*
X126857142Y-96642776D01*
X126857142Y-96642776D02*
X126833333Y-96666585D01*
X126833333Y-96666585D02*
X126785714Y-96690395D01*
X126785714Y-96690395D02*
X126690476Y-96690395D01*
X126690476Y-96690395D02*
X126642857Y-96714204D01*
X126642857Y-96714204D02*
X126619047Y-96738014D01*
X126619047Y-96738014D02*
X126595238Y-96785633D01*
X126595238Y-96785633D02*
X126595238Y-96880871D01*
X126595238Y-96880871D02*
X126619047Y-96928490D01*
X126619047Y-96928490D02*
X126642857Y-96952300D01*
X126642857Y-96952300D02*
X126690476Y-96976109D01*
X126690476Y-96976109D02*
X126785714Y-96976109D01*
X126785714Y-96976109D02*
X126833333Y-96952300D01*
X126833333Y-96952300D02*
X126857142Y-96928490D01*
X126857142Y-96928490D02*
X126880952Y-96880871D01*
X126880952Y-96880871D02*
X126880952Y-96785633D01*
X126880952Y-96785633D02*
X126857142Y-96738014D01*
X126857142Y-96738014D02*
X126833333Y-96714204D01*
X126833333Y-96714204D02*
X126785714Y-96690395D01*
X121366666Y-68265990D02*
X121342857Y-68289800D01*
X121342857Y-68289800D02*
X121271428Y-68313609D01*
X121271428Y-68313609D02*
X121223809Y-68313609D01*
X121223809Y-68313609D02*
X121152381Y-68289800D01*
X121152381Y-68289800D02*
X121104762Y-68242180D01*
X121104762Y-68242180D02*
X121080952Y-68194561D01*
X121080952Y-68194561D02*
X121057143Y-68099323D01*
X121057143Y-68099323D02*
X121057143Y-68027895D01*
X121057143Y-68027895D02*
X121080952Y-67932657D01*
X121080952Y-67932657D02*
X121104762Y-67885038D01*
X121104762Y-67885038D02*
X121152381Y-67837419D01*
X121152381Y-67837419D02*
X121223809Y-67813609D01*
X121223809Y-67813609D02*
X121271428Y-67813609D01*
X121271428Y-67813609D02*
X121342857Y-67837419D01*
X121342857Y-67837419D02*
X121366666Y-67861228D01*
X121652381Y-68027895D02*
X121604762Y-68004085D01*
X121604762Y-68004085D02*
X121580952Y-67980276D01*
X121580952Y-67980276D02*
X121557143Y-67932657D01*
X121557143Y-67932657D02*
X121557143Y-67908847D01*
X121557143Y-67908847D02*
X121580952Y-67861228D01*
X121580952Y-67861228D02*
X121604762Y-67837419D01*
X121604762Y-67837419D02*
X121652381Y-67813609D01*
X121652381Y-67813609D02*
X121747619Y-67813609D01*
X121747619Y-67813609D02*
X121795238Y-67837419D01*
X121795238Y-67837419D02*
X121819047Y-67861228D01*
X121819047Y-67861228D02*
X121842857Y-67908847D01*
X121842857Y-67908847D02*
X121842857Y-67932657D01*
X121842857Y-67932657D02*
X121819047Y-67980276D01*
X121819047Y-67980276D02*
X121795238Y-68004085D01*
X121795238Y-68004085D02*
X121747619Y-68027895D01*
X121747619Y-68027895D02*
X121652381Y-68027895D01*
X121652381Y-68027895D02*
X121604762Y-68051704D01*
X121604762Y-68051704D02*
X121580952Y-68075514D01*
X121580952Y-68075514D02*
X121557143Y-68123133D01*
X121557143Y-68123133D02*
X121557143Y-68218371D01*
X121557143Y-68218371D02*
X121580952Y-68265990D01*
X121580952Y-68265990D02*
X121604762Y-68289800D01*
X121604762Y-68289800D02*
X121652381Y-68313609D01*
X121652381Y-68313609D02*
X121747619Y-68313609D01*
X121747619Y-68313609D02*
X121795238Y-68289800D01*
X121795238Y-68289800D02*
X121819047Y-68265990D01*
X121819047Y-68265990D02*
X121842857Y-68218371D01*
X121842857Y-68218371D02*
X121842857Y-68123133D01*
X121842857Y-68123133D02*
X121819047Y-68075514D01*
X121819047Y-68075514D02*
X121795238Y-68051704D01*
X121795238Y-68051704D02*
X121747619Y-68027895D01*
D15*
X189330819Y-102598370D02*
X188330819Y-102598370D01*
X188330819Y-102598370D02*
X189045104Y-102265037D01*
X189045104Y-102265037D02*
X188330819Y-101931704D01*
X188330819Y-101931704D02*
X189330819Y-101931704D01*
X189330819Y-101455513D02*
X188330819Y-101455513D01*
X189235580Y-100407895D02*
X189283200Y-100455514D01*
X189283200Y-100455514D02*
X189330819Y-100598371D01*
X189330819Y-100598371D02*
X189330819Y-100693609D01*
X189330819Y-100693609D02*
X189283200Y-100836466D01*
X189283200Y-100836466D02*
X189187961Y-100931704D01*
X189187961Y-100931704D02*
X189092723Y-100979323D01*
X189092723Y-100979323D02*
X188902247Y-101026942D01*
X188902247Y-101026942D02*
X188759390Y-101026942D01*
X188759390Y-101026942D02*
X188568914Y-100979323D01*
X188568914Y-100979323D02*
X188473676Y-100931704D01*
X188473676Y-100931704D02*
X188378438Y-100836466D01*
X188378438Y-100836466D02*
X188330819Y-100693609D01*
X188330819Y-100693609D02*
X188330819Y-100598371D01*
X188330819Y-100598371D02*
X188378438Y-100455514D01*
X188378438Y-100455514D02*
X188426057Y-100407895D01*
X189330819Y-99407895D02*
X188854628Y-99741228D01*
X189330819Y-99979323D02*
X188330819Y-99979323D01*
X188330819Y-99979323D02*
X188330819Y-99598371D01*
X188330819Y-99598371D02*
X188378438Y-99503133D01*
X188378438Y-99503133D02*
X188426057Y-99455514D01*
X188426057Y-99455514D02*
X188521295Y-99407895D01*
X188521295Y-99407895D02*
X188664152Y-99407895D01*
X188664152Y-99407895D02*
X188759390Y-99455514D01*
X188759390Y-99455514D02*
X188807009Y-99503133D01*
X188807009Y-99503133D02*
X188854628Y-99598371D01*
X188854628Y-99598371D02*
X188854628Y-99979323D01*
X188330819Y-98788847D02*
X188330819Y-98598371D01*
X188330819Y-98598371D02*
X188378438Y-98503133D01*
X188378438Y-98503133D02*
X188473676Y-98407895D01*
X188473676Y-98407895D02*
X188664152Y-98360276D01*
X188664152Y-98360276D02*
X188997485Y-98360276D01*
X188997485Y-98360276D02*
X189187961Y-98407895D01*
X189187961Y-98407895D02*
X189283200Y-98503133D01*
X189283200Y-98503133D02*
X189330819Y-98598371D01*
X189330819Y-98598371D02*
X189330819Y-98788847D01*
X189330819Y-98788847D02*
X189283200Y-98884085D01*
X189283200Y-98884085D02*
X189187961Y-98979323D01*
X189187961Y-98979323D02*
X188997485Y-99026942D01*
X188997485Y-99026942D02*
X188664152Y-99026942D01*
X188664152Y-99026942D02*
X188473676Y-98979323D01*
X188473676Y-98979323D02*
X188378438Y-98884085D01*
X188378438Y-98884085D02*
X188330819Y-98788847D01*
X189426057Y-98169800D02*
X189426057Y-97407895D01*
X189283200Y-97217418D02*
X189330819Y-97074561D01*
X189330819Y-97074561D02*
X189330819Y-96836466D01*
X189330819Y-96836466D02*
X189283200Y-96741228D01*
X189283200Y-96741228D02*
X189235580Y-96693609D01*
X189235580Y-96693609D02*
X189140342Y-96645990D01*
X189140342Y-96645990D02*
X189045104Y-96645990D01*
X189045104Y-96645990D02*
X188949866Y-96693609D01*
X188949866Y-96693609D02*
X188902247Y-96741228D01*
X188902247Y-96741228D02*
X188854628Y-96836466D01*
X188854628Y-96836466D02*
X188807009Y-97026942D01*
X188807009Y-97026942D02*
X188759390Y-97122180D01*
X188759390Y-97122180D02*
X188711771Y-97169799D01*
X188711771Y-97169799D02*
X188616533Y-97217418D01*
X188616533Y-97217418D02*
X188521295Y-97217418D01*
X188521295Y-97217418D02*
X188426057Y-97169799D01*
X188426057Y-97169799D02*
X188378438Y-97122180D01*
X188378438Y-97122180D02*
X188330819Y-97026942D01*
X188330819Y-97026942D02*
X188330819Y-96788847D01*
X188330819Y-96788847D02*
X188378438Y-96645990D01*
X189330819Y-96217418D02*
X188330819Y-96217418D01*
X188330819Y-96217418D02*
X188330819Y-95979323D01*
X188330819Y-95979323D02*
X188378438Y-95836466D01*
X188378438Y-95836466D02*
X188473676Y-95741228D01*
X188473676Y-95741228D02*
X188568914Y-95693609D01*
X188568914Y-95693609D02*
X188759390Y-95645990D01*
X188759390Y-95645990D02*
X188902247Y-95645990D01*
X188902247Y-95645990D02*
X189092723Y-95693609D01*
X189092723Y-95693609D02*
X189187961Y-95741228D01*
X189187961Y-95741228D02*
X189283200Y-95836466D01*
X189283200Y-95836466D02*
X189330819Y-95979323D01*
X189330819Y-95979323D02*
X189330819Y-96217418D01*
X189330819Y-94693609D02*
X189330819Y-95265037D01*
X189330819Y-94979323D02*
X188330819Y-94979323D01*
X188330819Y-94979323D02*
X188473676Y-95074561D01*
X188473676Y-95074561D02*
X188568914Y-95169799D01*
X188568914Y-95169799D02*
X188616533Y-95265037D01*
D14*
X175901109Y-81821428D02*
X175663014Y-81988094D01*
X175901109Y-82107142D02*
X175401109Y-82107142D01*
X175401109Y-82107142D02*
X175401109Y-81916666D01*
X175401109Y-81916666D02*
X175424919Y-81869047D01*
X175424919Y-81869047D02*
X175448728Y-81845237D01*
X175448728Y-81845237D02*
X175496347Y-81821428D01*
X175496347Y-81821428D02*
X175567776Y-81821428D01*
X175567776Y-81821428D02*
X175615395Y-81845237D01*
X175615395Y-81845237D02*
X175639204Y-81869047D01*
X175639204Y-81869047D02*
X175663014Y-81916666D01*
X175663014Y-81916666D02*
X175663014Y-82107142D01*
X175901109Y-81345237D02*
X175901109Y-81630951D01*
X175901109Y-81488094D02*
X175401109Y-81488094D01*
X175401109Y-81488094D02*
X175472538Y-81535713D01*
X175472538Y-81535713D02*
X175520157Y-81583332D01*
X175520157Y-81583332D02*
X175543966Y-81630951D01*
X175401109Y-81178571D02*
X175401109Y-80845238D01*
X175401109Y-80845238D02*
X175901109Y-81059523D01*
X185401109Y-69071428D02*
X185163014Y-69238094D01*
X185401109Y-69357142D02*
X184901109Y-69357142D01*
X184901109Y-69357142D02*
X184901109Y-69166666D01*
X184901109Y-69166666D02*
X184924919Y-69119047D01*
X184924919Y-69119047D02*
X184948728Y-69095237D01*
X184948728Y-69095237D02*
X184996347Y-69071428D01*
X184996347Y-69071428D02*
X185067776Y-69071428D01*
X185067776Y-69071428D02*
X185115395Y-69095237D01*
X185115395Y-69095237D02*
X185139204Y-69119047D01*
X185139204Y-69119047D02*
X185163014Y-69166666D01*
X185163014Y-69166666D02*
X185163014Y-69357142D01*
X185401109Y-68595237D02*
X185401109Y-68880951D01*
X185401109Y-68738094D02*
X184901109Y-68738094D01*
X184901109Y-68738094D02*
X184972538Y-68785713D01*
X184972538Y-68785713D02*
X185020157Y-68833332D01*
X185020157Y-68833332D02*
X185043966Y-68880951D01*
X185401109Y-68119047D02*
X185401109Y-68404761D01*
X185401109Y-68261904D02*
X184901109Y-68261904D01*
X184901109Y-68261904D02*
X184972538Y-68309523D01*
X184972538Y-68309523D02*
X185020157Y-68357142D01*
X185020157Y-68357142D02*
X185043966Y-68404761D01*
X119748490Y-63546428D02*
X119772300Y-63570237D01*
X119772300Y-63570237D02*
X119796109Y-63641666D01*
X119796109Y-63641666D02*
X119796109Y-63689285D01*
X119796109Y-63689285D02*
X119772300Y-63760713D01*
X119772300Y-63760713D02*
X119724680Y-63808332D01*
X119724680Y-63808332D02*
X119677061Y-63832142D01*
X119677061Y-63832142D02*
X119581823Y-63855951D01*
X119581823Y-63855951D02*
X119510395Y-63855951D01*
X119510395Y-63855951D02*
X119415157Y-63832142D01*
X119415157Y-63832142D02*
X119367538Y-63808332D01*
X119367538Y-63808332D02*
X119319919Y-63760713D01*
X119319919Y-63760713D02*
X119296109Y-63689285D01*
X119296109Y-63689285D02*
X119296109Y-63641666D01*
X119296109Y-63641666D02*
X119319919Y-63570237D01*
X119319919Y-63570237D02*
X119343728Y-63546428D01*
X119796109Y-63070237D02*
X119796109Y-63355951D01*
X119796109Y-63213094D02*
X119296109Y-63213094D01*
X119296109Y-63213094D02*
X119367538Y-63260713D01*
X119367538Y-63260713D02*
X119415157Y-63308332D01*
X119415157Y-63308332D02*
X119438966Y-63355951D01*
X119462776Y-62641666D02*
X119796109Y-62641666D01*
X119272300Y-62760714D02*
X119629442Y-62879761D01*
X119629442Y-62879761D02*
X119629442Y-62570238D01*
X166546109Y-70471428D02*
X166308014Y-70638094D01*
X166546109Y-70757142D02*
X166046109Y-70757142D01*
X166046109Y-70757142D02*
X166046109Y-70566666D01*
X166046109Y-70566666D02*
X166069919Y-70519047D01*
X166069919Y-70519047D02*
X166093728Y-70495237D01*
X166093728Y-70495237D02*
X166141347Y-70471428D01*
X166141347Y-70471428D02*
X166212776Y-70471428D01*
X166212776Y-70471428D02*
X166260395Y-70495237D01*
X166260395Y-70495237D02*
X166284204Y-70519047D01*
X166284204Y-70519047D02*
X166308014Y-70566666D01*
X166308014Y-70566666D02*
X166308014Y-70757142D01*
X166546109Y-69995237D02*
X166546109Y-70280951D01*
X166546109Y-70138094D02*
X166046109Y-70138094D01*
X166046109Y-70138094D02*
X166117538Y-70185713D01*
X166117538Y-70185713D02*
X166165157Y-70233332D01*
X166165157Y-70233332D02*
X166188966Y-70280951D01*
X166546109Y-69757142D02*
X166546109Y-69661904D01*
X166546109Y-69661904D02*
X166522300Y-69614285D01*
X166522300Y-69614285D02*
X166498490Y-69590476D01*
X166498490Y-69590476D02*
X166427061Y-69542857D01*
X166427061Y-69542857D02*
X166331823Y-69519047D01*
X166331823Y-69519047D02*
X166141347Y-69519047D01*
X166141347Y-69519047D02*
X166093728Y-69542857D01*
X166093728Y-69542857D02*
X166069919Y-69566666D01*
X166069919Y-69566666D02*
X166046109Y-69614285D01*
X166046109Y-69614285D02*
X166046109Y-69709523D01*
X166046109Y-69709523D02*
X166069919Y-69757142D01*
X166069919Y-69757142D02*
X166093728Y-69780952D01*
X166093728Y-69780952D02*
X166141347Y-69804761D01*
X166141347Y-69804761D02*
X166260395Y-69804761D01*
X166260395Y-69804761D02*
X166308014Y-69780952D01*
X166308014Y-69780952D02*
X166331823Y-69757142D01*
X166331823Y-69757142D02*
X166355633Y-69709523D01*
X166355633Y-69709523D02*
X166355633Y-69614285D01*
X166355633Y-69614285D02*
X166331823Y-69566666D01*
X166331823Y-69566666D02*
X166308014Y-69542857D01*
X166308014Y-69542857D02*
X166260395Y-69519047D01*
D16*
X179227500Y-79337258D02*
X179227500Y-78862742D01*
X180272500Y-79337258D02*
X180272500Y-78862742D01*
X173912258Y-69847500D02*
X173437742Y-69847500D01*
X173912258Y-68802500D02*
X173437742Y-68802500D01*
X171697500Y-65362742D02*
X171697500Y-65837258D01*
X170652500Y-65362742D02*
X170652500Y-65837258D01*
X181309420Y-74315000D02*
X181590580Y-74315000D01*
X181309420Y-75335000D02*
X181590580Y-75335000D01*
X184197500Y-65412742D02*
X184197500Y-65887258D01*
X183152500Y-65412742D02*
X183152500Y-65887258D01*
X181152500Y-79312258D02*
X181152500Y-78837742D01*
X182197500Y-79312258D02*
X182197500Y-78837742D01*
X136798752Y-76285000D02*
X136276248Y-76285000D01*
X136798752Y-74815000D02*
X136276248Y-74815000D01*
X132597500Y-73050000D02*
X132597500Y-72400000D01*
X132597500Y-73050000D02*
X132597500Y-73700000D01*
X129477500Y-73050000D02*
X129477500Y-72400000D01*
X129477500Y-73050000D02*
X129477500Y-73700000D01*
X132877500Y-72127500D02*
X132547500Y-71887500D01*
X132877500Y-71647500D01*
X132877500Y-72127500D01*
G36*
X132877500Y-72127500D02*
G01*
X132547500Y-71887500D01*
X132877500Y-71647500D01*
X132877500Y-72127500D01*
G37*
X190197500Y-71912742D02*
X190197500Y-72387258D01*
X189152500Y-71912742D02*
X189152500Y-72387258D01*
X135950000Y-60900000D02*
X135950000Y-60110000D01*
X135350000Y-59100000D02*
X129650000Y-59100000D01*
X134100000Y-61950000D02*
X132400000Y-61950000D01*
X133900000Y-59100000D02*
X133900000Y-57810000D01*
X133900000Y-57810000D02*
X133700000Y-57600000D01*
X133700000Y-57600000D02*
X132800000Y-57600000D01*
X132600000Y-57810000D02*
X132800000Y-57600000D01*
X132600000Y-57810000D02*
X132600000Y-59100000D01*
X131100000Y-61950000D02*
X130900000Y-61950000D01*
X129050000Y-60110000D02*
X129050000Y-60900000D01*
X173360000Y-65459420D02*
X173360000Y-65740580D01*
X172340000Y-65459420D02*
X172340000Y-65740580D01*
X143022500Y-66187742D02*
X143022500Y-66662258D01*
X141977500Y-66187742D02*
X141977500Y-66662258D01*
X173412258Y-75347500D02*
X172937742Y-75347500D01*
X173412258Y-74302500D02*
X172937742Y-74302500D01*
X175415580Y-66335000D02*
X175134420Y-66335000D01*
X175415580Y-65315000D02*
X175134420Y-65315000D01*
X176540580Y-75335000D02*
X176259420Y-75335000D01*
X176540580Y-74315000D02*
X176259420Y-74315000D01*
X136922500Y-78437742D02*
X136922500Y-78912258D01*
X135877500Y-78437742D02*
X135877500Y-78912258D01*
X178937742Y-62302500D02*
X179412258Y-62302500D01*
X178937742Y-63347500D02*
X179412258Y-63347500D01*
X128776248Y-77815000D02*
X129298752Y-77815000D01*
X128776248Y-79285000D02*
X129298752Y-79285000D01*
X176540580Y-77010000D02*
X176259420Y-77010000D01*
X176540580Y-75990000D02*
X176259420Y-75990000D01*
X149435000Y-106084420D02*
X149435000Y-106365580D01*
X148415000Y-106084420D02*
X148415000Y-106365580D01*
X128047500Y-73050000D02*
X128047500Y-72250000D01*
X128047500Y-73050000D02*
X128047500Y-73850000D01*
X124927500Y-73050000D02*
X124927500Y-72250000D01*
X124927500Y-73050000D02*
X124927500Y-73850000D01*
X128327500Y-71990000D02*
X127997500Y-71750000D01*
X128327500Y-71510000D01*
X128327500Y-71990000D01*
G36*
X128327500Y-71990000D02*
G01*
X127997500Y-71750000D01*
X128327500Y-71510000D01*
X128327500Y-71990000D01*
G37*
X126012742Y-98727500D02*
X126487258Y-98727500D01*
X126012742Y-99772500D02*
X126487258Y-99772500D01*
X167227500Y-73887258D02*
X167227500Y-73412742D01*
X168272500Y-73887258D02*
X168272500Y-73412742D01*
X129312258Y-67110000D02*
X128837742Y-67110000D01*
X129312258Y-66065000D02*
X128837742Y-66065000D01*
X177277500Y-79337258D02*
X177277500Y-78862742D01*
X178322500Y-79337258D02*
X178322500Y-78862742D01*
X170152500Y-73887258D02*
X170152500Y-73412742D01*
X171197500Y-73887258D02*
X171197500Y-73412742D01*
X152622500Y-71587742D02*
X152622500Y-72062258D01*
X151577500Y-71587742D02*
X151577500Y-72062258D01*
X170152500Y-70387258D02*
X170152500Y-69912742D01*
X171197500Y-70387258D02*
X171197500Y-69912742D01*
X147375000Y-114490000D02*
X147375000Y-108290000D01*
X147375000Y-114490000D02*
X128975000Y-114490000D01*
X147375000Y-89640000D02*
X147375000Y-88640000D01*
X147375000Y-88640000D02*
X145875000Y-88640000D01*
X128975000Y-114490000D02*
X128975000Y-108290000D01*
X128975000Y-88640000D02*
X130475000Y-88640000D01*
X128975000Y-88640000D02*
X128975000Y-89640000D01*
X147375000Y-108115000D02*
X147375000Y-107615000D01*
X147875000Y-107615000D01*
X147375000Y-108115000D01*
G36*
X147375000Y-108115000D02*
G01*
X147375000Y-107615000D01*
X147875000Y-107615000D01*
X147375000Y-108115000D01*
G37*
X183227500Y-79337258D02*
X183227500Y-78862742D01*
X184272500Y-79337258D02*
X184272500Y-78862742D01*
X183165000Y-72290580D02*
X183165000Y-72009420D01*
X184185000Y-72290580D02*
X184185000Y-72009420D01*
X126340580Y-90810000D02*
X126059420Y-90810000D01*
X126340580Y-89790000D02*
X126059420Y-89790000D01*
X125437742Y-66065000D02*
X125912258Y-66065000D01*
X125437742Y-67110000D02*
X125912258Y-67110000D01*
X133537500Y-76990000D02*
X132737500Y-76990000D01*
X133537500Y-76990000D02*
X134337500Y-76990000D01*
X133537500Y-80110000D02*
X132737500Y-80110000D01*
X133537500Y-80110000D02*
X134337500Y-80110000D01*
X132237500Y-77040000D02*
X131997500Y-76710000D01*
X132477500Y-76710000D01*
X132237500Y-77040000D01*
G36*
X132237500Y-77040000D02*
G01*
X131997500Y-76710000D01*
X132477500Y-76710000D01*
X132237500Y-77040000D01*
G37*
X150059420Y-101790000D02*
X150340580Y-101790000D01*
X150059420Y-102810000D02*
X150340580Y-102810000D01*
X176412258Y-63347500D02*
X175937742Y-63347500D01*
X176412258Y-62302500D02*
X175937742Y-62302500D01*
X187197500Y-71912742D02*
X187197500Y-72387258D01*
X186152500Y-71912742D02*
X186152500Y-72387258D01*
X187185000Y-68684420D02*
X187185000Y-68965580D01*
X186165000Y-68684420D02*
X186165000Y-68965580D01*
X148022500Y-71662742D02*
X148022500Y-72137258D01*
X146977500Y-71662742D02*
X146977500Y-72137258D01*
X125460000Y-63587500D02*
X125460000Y-62787500D01*
X125460000Y-63587500D02*
X125460000Y-64387500D01*
X122340000Y-63587500D02*
X122340000Y-62787500D01*
X122340000Y-63587500D02*
X122340000Y-64387500D01*
X125740000Y-62527500D02*
X125410000Y-62287500D01*
X125740000Y-62047500D01*
X125740000Y-62527500D01*
G36*
X125740000Y-62527500D02*
G01*
X125410000Y-62287500D01*
X125740000Y-62047500D01*
X125740000Y-62527500D01*
G37*
X125977500Y-63765000D02*
X125977500Y-65235000D01*
X125977500Y-65235000D02*
X128262500Y-65235000D01*
X128262500Y-63765000D02*
X125977500Y-63765000D01*
X150462258Y-104422500D02*
X149987742Y-104422500D01*
X150462258Y-103377500D02*
X149987742Y-103377500D01*
X137377500Y-78912258D02*
X137377500Y-78437742D01*
X138422500Y-78912258D02*
X138422500Y-78437742D01*
X167240000Y-66890580D02*
X167240000Y-66609420D01*
X168260000Y-66890580D02*
X168260000Y-66609420D01*
X151410000Y-106138748D02*
X151410000Y-106661252D01*
X149940000Y-106138748D02*
X149940000Y-106661252D01*
X149275000Y-75490000D02*
X150325000Y-75490000D01*
X149275000Y-73510000D02*
X150575000Y-73510000D01*
X150695000Y-75770000D02*
X150695000Y-75490000D01*
X150975000Y-75490000D01*
X150695000Y-75770000D01*
G36*
X150695000Y-75770000D02*
G01*
X150695000Y-75490000D01*
X150975000Y-75490000D01*
X150695000Y-75770000D01*
G37*
X126012742Y-94897500D02*
X126487258Y-94897500D01*
X126012742Y-95942500D02*
X126487258Y-95942500D01*
X122034420Y-66077500D02*
X122315580Y-66077500D01*
X122034420Y-67097500D02*
X122315580Y-67097500D01*
D17*
X188900000Y-103529800D02*
X195400000Y-103529800D01*
X198900000Y-103529800D02*
X201150000Y-103528820D01*
X201150000Y-103528820D02*
X201162700Y-88730780D01*
X201162700Y-88730780D02*
X199400000Y-88729800D01*
X195400000Y-88729800D02*
X188900000Y-88729800D01*
X186650000Y-92629800D02*
X186650000Y-90391800D01*
D18*
X186042510Y-92834150D02*
G75*
G02*
X185788510Y-92834150I-127000J0D01*
G01*
X185788510Y-92834150D02*
G75*
G02*
X186042510Y-92834150I127000J0D01*
G01*
D16*
X175152500Y-79312258D02*
X175152500Y-78837742D01*
X176197500Y-79312258D02*
X176197500Y-78837742D01*
X154625000Y-64600000D02*
X154625000Y-62820000D01*
X152725000Y-67520000D02*
X153525000Y-67520000D01*
X145225000Y-64600000D02*
X145225000Y-62820000D01*
X184197500Y-68587742D02*
X184197500Y-69062258D01*
X183152500Y-68587742D02*
X183152500Y-69062258D01*
X120490000Y-63365580D02*
X120490000Y-63084420D01*
X121510000Y-63365580D02*
X121510000Y-63084420D01*
X167227500Y-70387258D02*
X167227500Y-69912742D01*
X168272500Y-70387258D02*
X168272500Y-69912742D01*
G36*
X105192984Y-108019714D02*
G01*
X105238767Y-108072494D01*
X105250000Y-108124065D01*
X105250000Y-110866065D01*
X105230315Y-110933104D01*
X105177511Y-110978859D01*
X105126065Y-110990065D01*
X94651561Y-110995588D01*
X94584512Y-110975939D01*
X94538729Y-110923159D01*
X94527496Y-110871381D01*
X94531635Y-108396844D01*
X95218333Y-108396844D01*
X95218333Y-110465014D01*
X104498370Y-110465014D01*
X104498370Y-108396844D01*
X95218333Y-108396844D01*
X94531635Y-108396844D01*
X94532082Y-108129381D01*
X94551879Y-108062374D01*
X94604759Y-108016708D01*
X94656017Y-108005588D01*
X105125935Y-108000065D01*
X105192984Y-108019714D01*
G37*
%LPC*%
D19*
X112250000Y-66000000D03*
X104250000Y-66000000D03*
D20*
X179750000Y-79925000D03*
X179750000Y-78275000D03*
D21*
X174500000Y-69325000D03*
X172850000Y-69325000D03*
D22*
X171175000Y-64775000D03*
X171175000Y-66425000D03*
D23*
X180675000Y-74825000D03*
X182225000Y-74825000D03*
D22*
X183675000Y-64825000D03*
X183675000Y-66475000D03*
D20*
X181675000Y-79900000D03*
X181675000Y-78250000D03*
D24*
X137487500Y-75550000D03*
X135587500Y-75550000D03*
D25*
X131987500Y-72112500D03*
X130087500Y-72112500D03*
X131037500Y-73987500D03*
D22*
X189675000Y-71325000D03*
X189675000Y-72975000D03*
D26*
X136150000Y-61610000D03*
X136150000Y-59400000D03*
D27*
X134000000Y-60500000D03*
X131000000Y-60500000D03*
D26*
X128850000Y-61610000D03*
X128850000Y-59400000D03*
D28*
X134750000Y-62260000D03*
X131750000Y-62260000D03*
X130250000Y-62260000D03*
D29*
X172850000Y-64825000D03*
X172850000Y-66375000D03*
D22*
X142500000Y-65600000D03*
X142500000Y-67250000D03*
D21*
X174000000Y-74825000D03*
X172350000Y-74825000D03*
D30*
X176050000Y-65825000D03*
X174500000Y-65825000D03*
X177175000Y-74825000D03*
X175625000Y-74825000D03*
D22*
X136400000Y-77850000D03*
X136400000Y-79500000D03*
D31*
X178350000Y-62825000D03*
X180000000Y-62825000D03*
D32*
X128087500Y-78550000D03*
X129987500Y-78550000D03*
D30*
X177175000Y-76500000D03*
X175625000Y-76500000D03*
D29*
X148925000Y-105450000D03*
X148925000Y-107000000D03*
D33*
X127437500Y-71912500D03*
X125537500Y-71912500D03*
X126487500Y-74187500D03*
D31*
X125425000Y-99250000D03*
X127075000Y-99250000D03*
D20*
X167750000Y-74475000D03*
X167750000Y-72825000D03*
D21*
X129900000Y-66587500D03*
X128250000Y-66587500D03*
D20*
X177800000Y-79925000D03*
X177800000Y-78275000D03*
X170675000Y-74475000D03*
X170675000Y-72825000D03*
D22*
X152100000Y-71000000D03*
X152100000Y-72650000D03*
D20*
X170675000Y-70975000D03*
X170675000Y-69325000D03*
D34*
X178525000Y-72175000D03*
X179025000Y-72175000D03*
X179525000Y-72175000D03*
X180025000Y-72175000D03*
X180525000Y-72175000D03*
D35*
X181375000Y-71325000D03*
X181375000Y-70825000D03*
X181375000Y-70325000D03*
X181375000Y-69825000D03*
X181375000Y-69325000D03*
D36*
X180525000Y-68475000D03*
X180025000Y-68475000D03*
X179525000Y-68475000D03*
X179025000Y-68475000D03*
X178525000Y-68475000D03*
D37*
X177675000Y-69325000D03*
X177675000Y-69825000D03*
X177675000Y-70325000D03*
X177675000Y-70825000D03*
X177675000Y-71325000D03*
D38*
X179525000Y-70325000D03*
D39*
X146925000Y-106850000D03*
X146925000Y-105580000D03*
X146925000Y-104310000D03*
X146925000Y-103040000D03*
X146925000Y-101770000D03*
X146925000Y-100500000D03*
X146925000Y-99230000D03*
X146925000Y-97960000D03*
X146925000Y-96690000D03*
X146925000Y-95420000D03*
X146925000Y-94150000D03*
X146925000Y-92880000D03*
X146925000Y-91610000D03*
X146925000Y-90340000D03*
D40*
X145160000Y-89090000D03*
X143890000Y-89090000D03*
X142620000Y-89090000D03*
X141350000Y-89090000D03*
X140080000Y-89090000D03*
X138810000Y-89090000D03*
X137540000Y-89090000D03*
X136270000Y-89090000D03*
X135000000Y-89090000D03*
X133730000Y-89090000D03*
X132460000Y-89090000D03*
X131190000Y-89090000D03*
D39*
X129425000Y-90340000D03*
X129425000Y-91610000D03*
X129425000Y-92880000D03*
X129425000Y-94150000D03*
X129425000Y-95420000D03*
X129425000Y-96690000D03*
X129425000Y-97960000D03*
X129425000Y-99230000D03*
X129425000Y-100500000D03*
X129425000Y-101770000D03*
X129425000Y-103040000D03*
X129425000Y-104310000D03*
X129425000Y-105580000D03*
X129425000Y-106850000D03*
D41*
X141075000Y-99830000D03*
X141075000Y-98430000D03*
X140375000Y-100530000D03*
X140375000Y-99130000D03*
X140375000Y-97730000D03*
X139675000Y-99830000D03*
D42*
X139675000Y-99130000D03*
D41*
X139675000Y-98430000D03*
X138975000Y-100530000D03*
X138975000Y-99130000D03*
X138975000Y-97730000D03*
X138275000Y-99830000D03*
X138275000Y-98430000D03*
D20*
X183750000Y-79925000D03*
X183750000Y-78275000D03*
D43*
X183675000Y-72925000D03*
X183675000Y-71375000D03*
D30*
X126975000Y-90300000D03*
X125425000Y-90300000D03*
D31*
X124850000Y-66587500D03*
X126500000Y-66587500D03*
D44*
X132400000Y-77600000D03*
X132400000Y-78550000D03*
X132400000Y-79500000D03*
X134675000Y-79500000D03*
X134675000Y-77600000D03*
D23*
X149425000Y-102300000D03*
X150975000Y-102300000D03*
D21*
X177000000Y-62825000D03*
X175350000Y-62825000D03*
D22*
X186675000Y-71325000D03*
X186675000Y-72975000D03*
D29*
X186675000Y-68050000D03*
X186675000Y-69600000D03*
D22*
X147500000Y-71075000D03*
X147500000Y-72725000D03*
D33*
X124850000Y-62450000D03*
X123900000Y-62450000D03*
X122950000Y-62450000D03*
X122950000Y-64725000D03*
X124850000Y-64725000D03*
D45*
X126675000Y-64500000D03*
X128250000Y-64500000D03*
D21*
X151050000Y-103900000D03*
X149400000Y-103900000D03*
D20*
X137900000Y-79500000D03*
X137900000Y-77850000D03*
D43*
X167750000Y-67525000D03*
X167750000Y-65975000D03*
D46*
X150675000Y-105450000D03*
X150675000Y-107350000D03*
D47*
X150775000Y-75037500D03*
D48*
X150850000Y-74500000D03*
D47*
X150775000Y-73962500D03*
X149075000Y-73962500D03*
D48*
X149000000Y-74500000D03*
D47*
X149075000Y-75037500D03*
D31*
X125425000Y-95420000D03*
X127075000Y-95420000D03*
D23*
X121400000Y-66587500D03*
X122950000Y-66587500D03*
D49*
X186726200Y-93900000D03*
X186726200Y-95000000D03*
X186726200Y-96100000D03*
X186726200Y-97200000D03*
X186726200Y-98300000D03*
X186726200Y-99400000D03*
X186726200Y-100500000D03*
X186726200Y-101600000D03*
D50*
X197430600Y-101133600D03*
X197430600Y-93158000D03*
D49*
X186726200Y-102700000D03*
D51*
X187500000Y-104118400D03*
D52*
X197200000Y-104118400D03*
X197200000Y-88293600D03*
D53*
X187500000Y-89068600D03*
D20*
X175675000Y-79900000D03*
X175675000Y-78250000D03*
D54*
X152815000Y-65425000D03*
X147035000Y-65425000D03*
D55*
X153125000Y-66565000D03*
X152325000Y-66565000D03*
D56*
X151175000Y-66565000D03*
X150175000Y-66565000D03*
X149675000Y-66565000D03*
X148675000Y-66565000D03*
D55*
X147525000Y-66565000D03*
X146725000Y-66565000D03*
X146725000Y-66565000D03*
X147525000Y-66565000D03*
D56*
X148175000Y-66565000D03*
X149175000Y-66565000D03*
X150675000Y-66565000D03*
X151675000Y-66565000D03*
D55*
X152325000Y-66565000D03*
X153125000Y-66565000D03*
D57*
X154245000Y-65925000D03*
D58*
X154245000Y-61745000D03*
D57*
X145605000Y-65925000D03*
D58*
X145605000Y-61745000D03*
D22*
X183675000Y-68000000D03*
X183675000Y-69650000D03*
D43*
X121000000Y-64000000D03*
X121000000Y-62450000D03*
D20*
X167750000Y-70975000D03*
X167750000Y-69325000D03*
%LPD*%
M02*
