M48
; DRILL file {KiCad 8.0.0} date 2024-03-25T15:19:05-0400
; FORMAT={-:-/ absolute / inch / decimal}
; #@! TF.CreationDate,2024-03-25T15:19:05-04:00
; #@! TF.GenerationSoftware,Kicad,Pcbnew,8.0.0
; #@! TF.FileFunction,Plated,1,2,PTH
FMAT,2
INCH
; #@! TA.AperFunction,Plated,PTH,ComponentDrill
T1C0.0079
; #@! TA.AperFunction,Plated,PTH,ViaDrill
T2C0.0118
; #@! TA.AperFunction,Plated,PTH,ViaDrill
T3C0.0197
; #@! TA.AperFunction,Plated,PTH,ComponentDrill
T4C0.0236
%
G90
G05
T1
X5.4439Y-3.8717
X5.4439Y-3.9268
X5.4715Y-3.8441
X5.4715Y-3.8992
X5.4715Y-3.9543
X5.499Y-3.8717
X5.499Y-3.9268
X5.5266Y-3.8441
X5.5266Y-3.8992
X5.5266Y-3.9543
X5.5541Y-3.8717
X5.5541Y-3.9268
T2
X3.7441Y-3.0472
X3.7717Y-2.7087
X3.874Y-2.5394
X4.0354Y-2.4961
X4.0472Y-3.1457
X4.0787Y-3.0039
X4.3071Y-3.1496
X4.3701Y-3.0039
X4.5945Y-2.9134
X4.6102Y-3.1614
X4.8346Y-3.2638
X4.8583Y-2.6811
X5.0354Y-3.3819
X5.0748Y-3.2598
X5.2677Y-3.3819
X5.3465Y-4.0827
X5.4134Y-4.2126
X5.4213Y-2.4724
X5.4961Y-2.7165
X5.5315Y-2.5512
X5.5354Y-4.1614
X5.5787Y-3.0315
X5.6024Y-4.0512
X5.6299Y-4.2126
X5.9921Y-3.1496
X6.2165Y-2.7717
X6.2835Y-2.5472
X6.437Y-3.1654
X6.4488Y-2.4488
X6.4685Y-2.6969
X6.6929Y-3.1299
X6.7205Y-3.8583
X6.7244Y-3.7559
X6.8307Y-2.8583
X6.9163Y-2.8209
X6.9449Y-2.8976
X6.9921Y-2.8425
X7.0157Y-2.5472
X7.4449Y-2.5433
X7.5906Y-2.6102
X7.6772Y-2.689
X7.6772Y-3.0276
X7.7244Y-3.248
X7.7283Y-2.4961
X7.7559Y-2.8819
T3
X4.5148Y-2.5591
X5.0856Y-2.8346
X5.2785Y-2.8386
X5.3824Y-2.7195
X5.44Y-2.9331
X5.4449Y-3.4094
X5.4764Y-3.6102
X5.5157Y-3.3622
X5.5815Y-3.4055
X5.6931Y-2.7165
X6.1289Y-2.7165
X6.3455Y-2.9921
X6.4833Y-2.9331
X6.6407Y-2.5453
X6.6604Y-2.624
X6.7195Y-3.0177
X6.752Y-3.3268
X6.8406Y-3.0315
X6.8701Y-2.6437
X6.8976Y-2.5472
X6.9951Y-2.6437
X7.0768Y-3.2776
X7.0797Y-2.6181
X7.1329Y-2.6575
X7.1526Y-2.998
X7.1722Y-2.874
X7.2343Y-3.2776
X7.2815Y-2.81
X7.4685Y-2.9409
T4
G00X5.7325Y-2.4427
M15
G01X5.7325Y-2.4191
M16
G05
G00X5.7325Y-2.6171
M15
G01X5.7325Y-2.5738
M16
G05
G00X6.0726Y-2.4427
M15
G01X6.0726Y-2.4191
M16
G05
G00X6.0726Y-2.6171
M15
G01X6.0726Y-2.5738
M16
G05
M30
