%TF.GenerationSoftware,KiCad,Pcbnew,8.0.0*%
%TF.CreationDate,2024-03-25T15:19:07-04:00*%
%TF.ProjectId,ecg_board,6563675f-626f-4617-9264-2e6b69636164,rev?*%
%TF.SameCoordinates,Original*%
%TF.FileFunction,Drillmap*%
%TF.FilePolarity,Positive*%
%FSLAX45Y45*%
G04 Gerber Fmt 4.5, Leading zero omitted, Abs format (unit mm)*
G04 Created by KiCad (PCBNEW 8.0.0) date 2024-03-25 15:19:07*
%MOMM*%
%LPD*%
G01*
G04 APERTURE LIST*
%ADD10C,0.100000*%
%ADD11C,0.200000*%
G04 APERTURE END LIST*
D10*
X9470000Y-11460000D02*
G75*
G02*
X8970000Y-10960000I0J500000D01*
G01*
X9470000Y-5870000D02*
X19670000Y-5870000D01*
X20170000Y-6370000D02*
X20170000Y-10960000D01*
X19670000Y-5870000D02*
G75*
G02*
X20170000Y-6370000I0J-500000D01*
G01*
X8970000Y-6370000D02*
G75*
G02*
X9470000Y-5870000I500000J0D01*
G01*
X8970000Y-10960000D02*
X8970000Y-6370000D01*
X19670000Y-11460000D02*
X9470000Y-11460000D01*
X20170000Y-10960000D02*
G75*
G02*
X19670000Y-11460000I-500000J0D01*
G01*
D11*
D10*
X14671000Y-6510000D02*
X14736000Y-6575000D01*
X14736000Y-6510000D02*
X14671000Y-6575000D01*
X15249000Y-6510000D02*
X15314000Y-6575000D01*
X15314000Y-6510000D02*
X15249000Y-6575000D01*
X10835000Y-6050000D02*
G75*
G02*
X10745000Y-6050000I-45000J0D01*
G01*
X10745000Y-6050000D02*
G75*
G02*
X10835000Y-6050000I45000J0D01*
G01*
X11135000Y-6050000D02*
G75*
G02*
X11045000Y-6050000I-45000J0D01*
G01*
X11045000Y-6050000D02*
G75*
G02*
X11135000Y-6050000I45000J0D01*
G01*
X19761750Y-9250000D02*
X19761750Y-9345000D01*
X19714250Y-9297500D02*
X19809250Y-9297500D01*
X19761750Y-9930000D02*
X19761750Y-10025000D01*
X19714250Y-9977500D02*
X19809250Y-9977500D01*
D11*
X9225777Y-11776484D02*
X9225777Y-11576484D01*
X9225777Y-11576484D02*
X9273396Y-11576484D01*
X9273396Y-11576484D02*
X9301967Y-11586008D01*
X9301967Y-11586008D02*
X9321015Y-11605055D01*
X9321015Y-11605055D02*
X9330539Y-11624103D01*
X9330539Y-11624103D02*
X9340063Y-11662198D01*
X9340063Y-11662198D02*
X9340063Y-11690769D01*
X9340063Y-11690769D02*
X9330539Y-11728865D01*
X9330539Y-11728865D02*
X9321015Y-11747912D01*
X9321015Y-11747912D02*
X9301967Y-11766960D01*
X9301967Y-11766960D02*
X9273396Y-11776484D01*
X9273396Y-11776484D02*
X9225777Y-11776484D01*
X9425777Y-11776484D02*
X9425777Y-11643150D01*
X9425777Y-11681246D02*
X9435301Y-11662198D01*
X9435301Y-11662198D02*
X9444824Y-11652674D01*
X9444824Y-11652674D02*
X9463872Y-11643150D01*
X9463872Y-11643150D02*
X9482920Y-11643150D01*
X9549586Y-11776484D02*
X9549586Y-11643150D01*
X9549586Y-11576484D02*
X9540063Y-11586008D01*
X9540063Y-11586008D02*
X9549586Y-11595531D01*
X9549586Y-11595531D02*
X9559110Y-11586008D01*
X9559110Y-11586008D02*
X9549586Y-11576484D01*
X9549586Y-11576484D02*
X9549586Y-11595531D01*
X9673396Y-11776484D02*
X9654348Y-11766960D01*
X9654348Y-11766960D02*
X9644824Y-11747912D01*
X9644824Y-11747912D02*
X9644824Y-11576484D01*
X9778158Y-11776484D02*
X9759110Y-11766960D01*
X9759110Y-11766960D02*
X9749586Y-11747912D01*
X9749586Y-11747912D02*
X9749586Y-11576484D01*
X10006729Y-11776484D02*
X10006729Y-11576484D01*
X10006729Y-11576484D02*
X10073396Y-11719341D01*
X10073396Y-11719341D02*
X10140063Y-11576484D01*
X10140063Y-11576484D02*
X10140063Y-11776484D01*
X10321015Y-11776484D02*
X10321015Y-11671722D01*
X10321015Y-11671722D02*
X10311491Y-11652674D01*
X10311491Y-11652674D02*
X10292444Y-11643150D01*
X10292444Y-11643150D02*
X10254348Y-11643150D01*
X10254348Y-11643150D02*
X10235301Y-11652674D01*
X10321015Y-11766960D02*
X10301967Y-11776484D01*
X10301967Y-11776484D02*
X10254348Y-11776484D01*
X10254348Y-11776484D02*
X10235301Y-11766960D01*
X10235301Y-11766960D02*
X10225777Y-11747912D01*
X10225777Y-11747912D02*
X10225777Y-11728865D01*
X10225777Y-11728865D02*
X10235301Y-11709817D01*
X10235301Y-11709817D02*
X10254348Y-11700293D01*
X10254348Y-11700293D02*
X10301967Y-11700293D01*
X10301967Y-11700293D02*
X10321015Y-11690769D01*
X10416253Y-11643150D02*
X10416253Y-11843150D01*
X10416253Y-11652674D02*
X10435301Y-11643150D01*
X10435301Y-11643150D02*
X10473396Y-11643150D01*
X10473396Y-11643150D02*
X10492444Y-11652674D01*
X10492444Y-11652674D02*
X10501967Y-11662198D01*
X10501967Y-11662198D02*
X10511491Y-11681246D01*
X10511491Y-11681246D02*
X10511491Y-11738388D01*
X10511491Y-11738388D02*
X10501967Y-11757436D01*
X10501967Y-11757436D02*
X10492444Y-11766960D01*
X10492444Y-11766960D02*
X10473396Y-11776484D01*
X10473396Y-11776484D02*
X10435301Y-11776484D01*
X10435301Y-11776484D02*
X10416253Y-11766960D01*
X10597205Y-11757436D02*
X10606729Y-11766960D01*
X10606729Y-11766960D02*
X10597205Y-11776484D01*
X10597205Y-11776484D02*
X10587682Y-11766960D01*
X10587682Y-11766960D02*
X10597205Y-11757436D01*
X10597205Y-11757436D02*
X10597205Y-11776484D01*
X10597205Y-11652674D02*
X10606729Y-11662198D01*
X10606729Y-11662198D02*
X10597205Y-11671722D01*
X10597205Y-11671722D02*
X10587682Y-11662198D01*
X10587682Y-11662198D02*
X10597205Y-11652674D01*
X10597205Y-11652674D02*
X10597205Y-11671722D01*
D10*
X8900000Y-12072500D02*
X8965000Y-12137500D01*
X8965000Y-12072500D02*
X8900000Y-12137500D01*
D11*
X9263872Y-11996484D02*
X9282920Y-11996484D01*
X9282920Y-11996484D02*
X9301967Y-12006008D01*
X9301967Y-12006008D02*
X9311491Y-12015531D01*
X9311491Y-12015531D02*
X9321015Y-12034579D01*
X9321015Y-12034579D02*
X9330539Y-12072674D01*
X9330539Y-12072674D02*
X9330539Y-12120293D01*
X9330539Y-12120293D02*
X9321015Y-12158388D01*
X9321015Y-12158388D02*
X9311491Y-12177436D01*
X9311491Y-12177436D02*
X9301967Y-12186960D01*
X9301967Y-12186960D02*
X9282920Y-12196484D01*
X9282920Y-12196484D02*
X9263872Y-12196484D01*
X9263872Y-12196484D02*
X9244824Y-12186960D01*
X9244824Y-12186960D02*
X9235301Y-12177436D01*
X9235301Y-12177436D02*
X9225777Y-12158388D01*
X9225777Y-12158388D02*
X9216253Y-12120293D01*
X9216253Y-12120293D02*
X9216253Y-12072674D01*
X9216253Y-12072674D02*
X9225777Y-12034579D01*
X9225777Y-12034579D02*
X9235301Y-12015531D01*
X9235301Y-12015531D02*
X9244824Y-12006008D01*
X9244824Y-12006008D02*
X9263872Y-11996484D01*
X9416253Y-12177436D02*
X9425777Y-12186960D01*
X9425777Y-12186960D02*
X9416253Y-12196484D01*
X9416253Y-12196484D02*
X9406729Y-12186960D01*
X9406729Y-12186960D02*
X9416253Y-12177436D01*
X9416253Y-12177436D02*
X9416253Y-12196484D01*
X9597205Y-11996484D02*
X9559110Y-11996484D01*
X9559110Y-11996484D02*
X9540063Y-12006008D01*
X9540063Y-12006008D02*
X9530539Y-12015531D01*
X9530539Y-12015531D02*
X9511491Y-12044103D01*
X9511491Y-12044103D02*
X9501967Y-12082198D01*
X9501967Y-12082198D02*
X9501967Y-12158388D01*
X9501967Y-12158388D02*
X9511491Y-12177436D01*
X9511491Y-12177436D02*
X9521015Y-12186960D01*
X9521015Y-12186960D02*
X9540063Y-12196484D01*
X9540063Y-12196484D02*
X9578158Y-12196484D01*
X9578158Y-12196484D02*
X9597205Y-12186960D01*
X9597205Y-12186960D02*
X9606729Y-12177436D01*
X9606729Y-12177436D02*
X9616253Y-12158388D01*
X9616253Y-12158388D02*
X9616253Y-12110769D01*
X9616253Y-12110769D02*
X9606729Y-12091722D01*
X9606729Y-12091722D02*
X9597205Y-12082198D01*
X9597205Y-12082198D02*
X9578158Y-12072674D01*
X9578158Y-12072674D02*
X9540063Y-12072674D01*
X9540063Y-12072674D02*
X9521015Y-12082198D01*
X9521015Y-12082198D02*
X9511491Y-12091722D01*
X9511491Y-12091722D02*
X9501967Y-12110769D01*
X9797205Y-11996484D02*
X9701967Y-11996484D01*
X9701967Y-11996484D02*
X9692444Y-12091722D01*
X9692444Y-12091722D02*
X9701967Y-12082198D01*
X9701967Y-12082198D02*
X9721015Y-12072674D01*
X9721015Y-12072674D02*
X9768634Y-12072674D01*
X9768634Y-12072674D02*
X9787682Y-12082198D01*
X9787682Y-12082198D02*
X9797205Y-12091722D01*
X9797205Y-12091722D02*
X9806729Y-12110769D01*
X9806729Y-12110769D02*
X9806729Y-12158388D01*
X9806729Y-12158388D02*
X9797205Y-12177436D01*
X9797205Y-12177436D02*
X9787682Y-12186960D01*
X9787682Y-12186960D02*
X9768634Y-12196484D01*
X9768634Y-12196484D02*
X9721015Y-12196484D01*
X9721015Y-12196484D02*
X9701967Y-12186960D01*
X9701967Y-12186960D02*
X9692444Y-12177436D01*
X9930539Y-11996484D02*
X9949586Y-11996484D01*
X9949586Y-11996484D02*
X9968634Y-12006008D01*
X9968634Y-12006008D02*
X9978158Y-12015531D01*
X9978158Y-12015531D02*
X9987682Y-12034579D01*
X9987682Y-12034579D02*
X9997205Y-12072674D01*
X9997205Y-12072674D02*
X9997205Y-12120293D01*
X9997205Y-12120293D02*
X9987682Y-12158388D01*
X9987682Y-12158388D02*
X9978158Y-12177436D01*
X9978158Y-12177436D02*
X9968634Y-12186960D01*
X9968634Y-12186960D02*
X9949586Y-12196484D01*
X9949586Y-12196484D02*
X9930539Y-12196484D01*
X9930539Y-12196484D02*
X9911491Y-12186960D01*
X9911491Y-12186960D02*
X9901967Y-12177436D01*
X9901967Y-12177436D02*
X9892444Y-12158388D01*
X9892444Y-12158388D02*
X9882920Y-12120293D01*
X9882920Y-12120293D02*
X9882920Y-12072674D01*
X9882920Y-12072674D02*
X9892444Y-12034579D01*
X9892444Y-12034579D02*
X9901967Y-12015531D01*
X9901967Y-12015531D02*
X9911491Y-12006008D01*
X9911491Y-12006008D02*
X9930539Y-11996484D01*
X10082920Y-12196484D02*
X10082920Y-12063150D01*
X10082920Y-12082198D02*
X10092444Y-12072674D01*
X10092444Y-12072674D02*
X10111491Y-12063150D01*
X10111491Y-12063150D02*
X10140063Y-12063150D01*
X10140063Y-12063150D02*
X10159110Y-12072674D01*
X10159110Y-12072674D02*
X10168634Y-12091722D01*
X10168634Y-12091722D02*
X10168634Y-12196484D01*
X10168634Y-12091722D02*
X10178158Y-12072674D01*
X10178158Y-12072674D02*
X10197205Y-12063150D01*
X10197205Y-12063150D02*
X10225777Y-12063150D01*
X10225777Y-12063150D02*
X10244825Y-12072674D01*
X10244825Y-12072674D02*
X10254348Y-12091722D01*
X10254348Y-12091722D02*
X10254348Y-12196484D01*
X10349586Y-12196484D02*
X10349586Y-12063150D01*
X10349586Y-12082198D02*
X10359110Y-12072674D01*
X10359110Y-12072674D02*
X10378158Y-12063150D01*
X10378158Y-12063150D02*
X10406729Y-12063150D01*
X10406729Y-12063150D02*
X10425777Y-12072674D01*
X10425777Y-12072674D02*
X10435301Y-12091722D01*
X10435301Y-12091722D02*
X10435301Y-12196484D01*
X10435301Y-12091722D02*
X10444825Y-12072674D01*
X10444825Y-12072674D02*
X10463872Y-12063150D01*
X10463872Y-12063150D02*
X10492444Y-12063150D01*
X10492444Y-12063150D02*
X10511491Y-12072674D01*
X10511491Y-12072674D02*
X10521015Y-12091722D01*
X10521015Y-12091722D02*
X10521015Y-12196484D01*
X10911491Y-11986960D02*
X10740063Y-12244103D01*
X11168634Y-11996484D02*
X11187682Y-11996484D01*
X11187682Y-11996484D02*
X11206729Y-12006008D01*
X11206729Y-12006008D02*
X11216253Y-12015531D01*
X11216253Y-12015531D02*
X11225777Y-12034579D01*
X11225777Y-12034579D02*
X11235301Y-12072674D01*
X11235301Y-12072674D02*
X11235301Y-12120293D01*
X11235301Y-12120293D02*
X11225777Y-12158388D01*
X11225777Y-12158388D02*
X11216253Y-12177436D01*
X11216253Y-12177436D02*
X11206729Y-12186960D01*
X11206729Y-12186960D02*
X11187682Y-12196484D01*
X11187682Y-12196484D02*
X11168634Y-12196484D01*
X11168634Y-12196484D02*
X11149587Y-12186960D01*
X11149587Y-12186960D02*
X11140063Y-12177436D01*
X11140063Y-12177436D02*
X11130539Y-12158388D01*
X11130539Y-12158388D02*
X11121015Y-12120293D01*
X11121015Y-12120293D02*
X11121015Y-12072674D01*
X11121015Y-12072674D02*
X11130539Y-12034579D01*
X11130539Y-12034579D02*
X11140063Y-12015531D01*
X11140063Y-12015531D02*
X11149587Y-12006008D01*
X11149587Y-12006008D02*
X11168634Y-11996484D01*
X11321015Y-12177436D02*
X11330539Y-12186960D01*
X11330539Y-12186960D02*
X11321015Y-12196484D01*
X11321015Y-12196484D02*
X11311491Y-12186960D01*
X11311491Y-12186960D02*
X11321015Y-12177436D01*
X11321015Y-12177436D02*
X11321015Y-12196484D01*
X11454348Y-11996484D02*
X11473396Y-11996484D01*
X11473396Y-11996484D02*
X11492444Y-12006008D01*
X11492444Y-12006008D02*
X11501967Y-12015531D01*
X11501967Y-12015531D02*
X11511491Y-12034579D01*
X11511491Y-12034579D02*
X11521015Y-12072674D01*
X11521015Y-12072674D02*
X11521015Y-12120293D01*
X11521015Y-12120293D02*
X11511491Y-12158388D01*
X11511491Y-12158388D02*
X11501967Y-12177436D01*
X11501967Y-12177436D02*
X11492444Y-12186960D01*
X11492444Y-12186960D02*
X11473396Y-12196484D01*
X11473396Y-12196484D02*
X11454348Y-12196484D01*
X11454348Y-12196484D02*
X11435301Y-12186960D01*
X11435301Y-12186960D02*
X11425777Y-12177436D01*
X11425777Y-12177436D02*
X11416253Y-12158388D01*
X11416253Y-12158388D02*
X11406729Y-12120293D01*
X11406729Y-12120293D02*
X11406729Y-12072674D01*
X11406729Y-12072674D02*
X11416253Y-12034579D01*
X11416253Y-12034579D02*
X11425777Y-12015531D01*
X11425777Y-12015531D02*
X11435301Y-12006008D01*
X11435301Y-12006008D02*
X11454348Y-11996484D01*
X11597206Y-12015531D02*
X11606729Y-12006008D01*
X11606729Y-12006008D02*
X11625777Y-11996484D01*
X11625777Y-11996484D02*
X11673396Y-11996484D01*
X11673396Y-11996484D02*
X11692444Y-12006008D01*
X11692444Y-12006008D02*
X11701967Y-12015531D01*
X11701967Y-12015531D02*
X11711491Y-12034579D01*
X11711491Y-12034579D02*
X11711491Y-12053627D01*
X11711491Y-12053627D02*
X11701967Y-12082198D01*
X11701967Y-12082198D02*
X11587682Y-12196484D01*
X11587682Y-12196484D02*
X11711491Y-12196484D01*
X11892444Y-11996484D02*
X11797206Y-11996484D01*
X11797206Y-11996484D02*
X11787682Y-12091722D01*
X11787682Y-12091722D02*
X11797206Y-12082198D01*
X11797206Y-12082198D02*
X11816253Y-12072674D01*
X11816253Y-12072674D02*
X11863872Y-12072674D01*
X11863872Y-12072674D02*
X11882920Y-12082198D01*
X11882920Y-12082198D02*
X11892444Y-12091722D01*
X11892444Y-12091722D02*
X11901967Y-12110769D01*
X11901967Y-12110769D02*
X11901967Y-12158388D01*
X11901967Y-12158388D02*
X11892444Y-12177436D01*
X11892444Y-12177436D02*
X11882920Y-12186960D01*
X11882920Y-12186960D02*
X11863872Y-12196484D01*
X11863872Y-12196484D02*
X11816253Y-12196484D01*
X11816253Y-12196484D02*
X11797206Y-12186960D01*
X11797206Y-12186960D02*
X11787682Y-12177436D01*
X12073396Y-11996484D02*
X12035301Y-11996484D01*
X12035301Y-11996484D02*
X12016253Y-12006008D01*
X12016253Y-12006008D02*
X12006729Y-12015531D01*
X12006729Y-12015531D02*
X11987682Y-12044103D01*
X11987682Y-12044103D02*
X11978158Y-12082198D01*
X11978158Y-12082198D02*
X11978158Y-12158388D01*
X11978158Y-12158388D02*
X11987682Y-12177436D01*
X11987682Y-12177436D02*
X11997206Y-12186960D01*
X11997206Y-12186960D02*
X12016253Y-12196484D01*
X12016253Y-12196484D02*
X12054348Y-12196484D01*
X12054348Y-12196484D02*
X12073396Y-12186960D01*
X12073396Y-12186960D02*
X12082920Y-12177436D01*
X12082920Y-12177436D02*
X12092444Y-12158388D01*
X12092444Y-12158388D02*
X12092444Y-12110769D01*
X12092444Y-12110769D02*
X12082920Y-12091722D01*
X12082920Y-12091722D02*
X12073396Y-12082198D01*
X12073396Y-12082198D02*
X12054348Y-12072674D01*
X12054348Y-12072674D02*
X12016253Y-12072674D01*
X12016253Y-12072674D02*
X11997206Y-12082198D01*
X11997206Y-12082198D02*
X11987682Y-12091722D01*
X11987682Y-12091722D02*
X11978158Y-12110769D01*
X12168634Y-11996484D02*
X12168634Y-12034579D01*
X12244825Y-11996484D02*
X12244825Y-12034579D01*
X12540063Y-12272674D02*
X12530539Y-12263150D01*
X12530539Y-12263150D02*
X12511491Y-12234579D01*
X12511491Y-12234579D02*
X12501968Y-12215531D01*
X12501968Y-12215531D02*
X12492444Y-12186960D01*
X12492444Y-12186960D02*
X12482920Y-12139341D01*
X12482920Y-12139341D02*
X12482920Y-12101246D01*
X12482920Y-12101246D02*
X12492444Y-12053627D01*
X12492444Y-12053627D02*
X12501968Y-12025055D01*
X12501968Y-12025055D02*
X12511491Y-12006008D01*
X12511491Y-12006008D02*
X12530539Y-11977436D01*
X12530539Y-11977436D02*
X12540063Y-11967912D01*
X12606729Y-12015531D02*
X12616253Y-12006008D01*
X12616253Y-12006008D02*
X12635301Y-11996484D01*
X12635301Y-11996484D02*
X12682920Y-11996484D01*
X12682920Y-11996484D02*
X12701968Y-12006008D01*
X12701968Y-12006008D02*
X12711491Y-12015531D01*
X12711491Y-12015531D02*
X12721015Y-12034579D01*
X12721015Y-12034579D02*
X12721015Y-12053627D01*
X12721015Y-12053627D02*
X12711491Y-12082198D01*
X12711491Y-12082198D02*
X12597206Y-12196484D01*
X12597206Y-12196484D02*
X12721015Y-12196484D01*
X12959110Y-12196484D02*
X12959110Y-11996484D01*
X13044825Y-12196484D02*
X13044825Y-12091722D01*
X13044825Y-12091722D02*
X13035301Y-12072674D01*
X13035301Y-12072674D02*
X13016253Y-12063150D01*
X13016253Y-12063150D02*
X12987682Y-12063150D01*
X12987682Y-12063150D02*
X12968634Y-12072674D01*
X12968634Y-12072674D02*
X12959110Y-12082198D01*
X13168634Y-12196484D02*
X13149587Y-12186960D01*
X13149587Y-12186960D02*
X13140063Y-12177436D01*
X13140063Y-12177436D02*
X13130539Y-12158388D01*
X13130539Y-12158388D02*
X13130539Y-12101246D01*
X13130539Y-12101246D02*
X13140063Y-12082198D01*
X13140063Y-12082198D02*
X13149587Y-12072674D01*
X13149587Y-12072674D02*
X13168634Y-12063150D01*
X13168634Y-12063150D02*
X13197206Y-12063150D01*
X13197206Y-12063150D02*
X13216253Y-12072674D01*
X13216253Y-12072674D02*
X13225777Y-12082198D01*
X13225777Y-12082198D02*
X13235301Y-12101246D01*
X13235301Y-12101246D02*
X13235301Y-12158388D01*
X13235301Y-12158388D02*
X13225777Y-12177436D01*
X13225777Y-12177436D02*
X13216253Y-12186960D01*
X13216253Y-12186960D02*
X13197206Y-12196484D01*
X13197206Y-12196484D02*
X13168634Y-12196484D01*
X13349587Y-12196484D02*
X13330539Y-12186960D01*
X13330539Y-12186960D02*
X13321015Y-12167912D01*
X13321015Y-12167912D02*
X13321015Y-11996484D01*
X13501968Y-12186960D02*
X13482920Y-12196484D01*
X13482920Y-12196484D02*
X13444825Y-12196484D01*
X13444825Y-12196484D02*
X13425777Y-12186960D01*
X13425777Y-12186960D02*
X13416253Y-12167912D01*
X13416253Y-12167912D02*
X13416253Y-12091722D01*
X13416253Y-12091722D02*
X13425777Y-12072674D01*
X13425777Y-12072674D02*
X13444825Y-12063150D01*
X13444825Y-12063150D02*
X13482920Y-12063150D01*
X13482920Y-12063150D02*
X13501968Y-12072674D01*
X13501968Y-12072674D02*
X13511491Y-12091722D01*
X13511491Y-12091722D02*
X13511491Y-12110769D01*
X13511491Y-12110769D02*
X13416253Y-12129817D01*
X13587682Y-12186960D02*
X13606730Y-12196484D01*
X13606730Y-12196484D02*
X13644825Y-12196484D01*
X13644825Y-12196484D02*
X13663872Y-12186960D01*
X13663872Y-12186960D02*
X13673396Y-12167912D01*
X13673396Y-12167912D02*
X13673396Y-12158388D01*
X13673396Y-12158388D02*
X13663872Y-12139341D01*
X13663872Y-12139341D02*
X13644825Y-12129817D01*
X13644825Y-12129817D02*
X13616253Y-12129817D01*
X13616253Y-12129817D02*
X13597206Y-12120293D01*
X13597206Y-12120293D02*
X13587682Y-12101246D01*
X13587682Y-12101246D02*
X13587682Y-12091722D01*
X13587682Y-12091722D02*
X13597206Y-12072674D01*
X13597206Y-12072674D02*
X13616253Y-12063150D01*
X13616253Y-12063150D02*
X13644825Y-12063150D01*
X13644825Y-12063150D02*
X13663872Y-12072674D01*
X13740063Y-12272674D02*
X13749587Y-12263150D01*
X13749587Y-12263150D02*
X13768634Y-12234579D01*
X13768634Y-12234579D02*
X13778158Y-12215531D01*
X13778158Y-12215531D02*
X13787682Y-12186960D01*
X13787682Y-12186960D02*
X13797206Y-12139341D01*
X13797206Y-12139341D02*
X13797206Y-12101246D01*
X13797206Y-12101246D02*
X13787682Y-12053627D01*
X13787682Y-12053627D02*
X13778158Y-12025055D01*
X13778158Y-12025055D02*
X13768634Y-12006008D01*
X13768634Y-12006008D02*
X13749587Y-11977436D01*
X13749587Y-11977436D02*
X13740063Y-11967912D01*
X14101968Y-12272674D02*
X14092444Y-12263150D01*
X14092444Y-12263150D02*
X14073396Y-12234579D01*
X14073396Y-12234579D02*
X14063872Y-12215531D01*
X14063872Y-12215531D02*
X14054349Y-12186960D01*
X14054349Y-12186960D02*
X14044825Y-12139341D01*
X14044825Y-12139341D02*
X14044825Y-12101246D01*
X14044825Y-12101246D02*
X14054349Y-12053627D01*
X14054349Y-12053627D02*
X14063872Y-12025055D01*
X14063872Y-12025055D02*
X14073396Y-12006008D01*
X14073396Y-12006008D02*
X14092444Y-11977436D01*
X14092444Y-11977436D02*
X14101968Y-11967912D01*
X14178158Y-12063150D02*
X14178158Y-12196484D01*
X14178158Y-12082198D02*
X14187682Y-12072674D01*
X14187682Y-12072674D02*
X14206730Y-12063150D01*
X14206730Y-12063150D02*
X14235301Y-12063150D01*
X14235301Y-12063150D02*
X14254349Y-12072674D01*
X14254349Y-12072674D02*
X14263872Y-12091722D01*
X14263872Y-12091722D02*
X14263872Y-12196484D01*
X14387682Y-12196484D02*
X14368634Y-12186960D01*
X14368634Y-12186960D02*
X14359111Y-12177436D01*
X14359111Y-12177436D02*
X14349587Y-12158388D01*
X14349587Y-12158388D02*
X14349587Y-12101246D01*
X14349587Y-12101246D02*
X14359111Y-12082198D01*
X14359111Y-12082198D02*
X14368634Y-12072674D01*
X14368634Y-12072674D02*
X14387682Y-12063150D01*
X14387682Y-12063150D02*
X14416253Y-12063150D01*
X14416253Y-12063150D02*
X14435301Y-12072674D01*
X14435301Y-12072674D02*
X14444825Y-12082198D01*
X14444825Y-12082198D02*
X14454349Y-12101246D01*
X14454349Y-12101246D02*
X14454349Y-12158388D01*
X14454349Y-12158388D02*
X14444825Y-12177436D01*
X14444825Y-12177436D02*
X14435301Y-12186960D01*
X14435301Y-12186960D02*
X14416253Y-12196484D01*
X14416253Y-12196484D02*
X14387682Y-12196484D01*
X14511492Y-12063150D02*
X14587682Y-12063150D01*
X14540063Y-11996484D02*
X14540063Y-12167912D01*
X14540063Y-12167912D02*
X14549587Y-12186960D01*
X14549587Y-12186960D02*
X14568634Y-12196484D01*
X14568634Y-12196484D02*
X14587682Y-12196484D01*
X14806730Y-12063150D02*
X14806730Y-12263150D01*
X14806730Y-12072674D02*
X14825777Y-12063150D01*
X14825777Y-12063150D02*
X14863873Y-12063150D01*
X14863873Y-12063150D02*
X14882920Y-12072674D01*
X14882920Y-12072674D02*
X14892444Y-12082198D01*
X14892444Y-12082198D02*
X14901968Y-12101246D01*
X14901968Y-12101246D02*
X14901968Y-12158388D01*
X14901968Y-12158388D02*
X14892444Y-12177436D01*
X14892444Y-12177436D02*
X14882920Y-12186960D01*
X14882920Y-12186960D02*
X14863873Y-12196484D01*
X14863873Y-12196484D02*
X14825777Y-12196484D01*
X14825777Y-12196484D02*
X14806730Y-12186960D01*
X15016253Y-12196484D02*
X14997206Y-12186960D01*
X14997206Y-12186960D02*
X14987682Y-12167912D01*
X14987682Y-12167912D02*
X14987682Y-11996484D01*
X15178158Y-12196484D02*
X15178158Y-12091722D01*
X15178158Y-12091722D02*
X15168634Y-12072674D01*
X15168634Y-12072674D02*
X15149587Y-12063150D01*
X15149587Y-12063150D02*
X15111492Y-12063150D01*
X15111492Y-12063150D02*
X15092444Y-12072674D01*
X15178158Y-12186960D02*
X15159111Y-12196484D01*
X15159111Y-12196484D02*
X15111492Y-12196484D01*
X15111492Y-12196484D02*
X15092444Y-12186960D01*
X15092444Y-12186960D02*
X15082920Y-12167912D01*
X15082920Y-12167912D02*
X15082920Y-12148865D01*
X15082920Y-12148865D02*
X15092444Y-12129817D01*
X15092444Y-12129817D02*
X15111492Y-12120293D01*
X15111492Y-12120293D02*
X15159111Y-12120293D01*
X15159111Y-12120293D02*
X15178158Y-12110769D01*
X15244825Y-12063150D02*
X15321015Y-12063150D01*
X15273396Y-11996484D02*
X15273396Y-12167912D01*
X15273396Y-12167912D02*
X15282920Y-12186960D01*
X15282920Y-12186960D02*
X15301968Y-12196484D01*
X15301968Y-12196484D02*
X15321015Y-12196484D01*
X15463873Y-12186960D02*
X15444825Y-12196484D01*
X15444825Y-12196484D02*
X15406730Y-12196484D01*
X15406730Y-12196484D02*
X15387682Y-12186960D01*
X15387682Y-12186960D02*
X15378158Y-12167912D01*
X15378158Y-12167912D02*
X15378158Y-12091722D01*
X15378158Y-12091722D02*
X15387682Y-12072674D01*
X15387682Y-12072674D02*
X15406730Y-12063150D01*
X15406730Y-12063150D02*
X15444825Y-12063150D01*
X15444825Y-12063150D02*
X15463873Y-12072674D01*
X15463873Y-12072674D02*
X15473396Y-12091722D01*
X15473396Y-12091722D02*
X15473396Y-12110769D01*
X15473396Y-12110769D02*
X15378158Y-12129817D01*
X15644825Y-12196484D02*
X15644825Y-11996484D01*
X15644825Y-12186960D02*
X15625777Y-12196484D01*
X15625777Y-12196484D02*
X15587682Y-12196484D01*
X15587682Y-12196484D02*
X15568634Y-12186960D01*
X15568634Y-12186960D02*
X15559111Y-12177436D01*
X15559111Y-12177436D02*
X15549587Y-12158388D01*
X15549587Y-12158388D02*
X15549587Y-12101246D01*
X15549587Y-12101246D02*
X15559111Y-12082198D01*
X15559111Y-12082198D02*
X15568634Y-12072674D01*
X15568634Y-12072674D02*
X15587682Y-12063150D01*
X15587682Y-12063150D02*
X15625777Y-12063150D01*
X15625777Y-12063150D02*
X15644825Y-12072674D01*
X15721015Y-12272674D02*
X15730539Y-12263150D01*
X15730539Y-12263150D02*
X15749587Y-12234579D01*
X15749587Y-12234579D02*
X15759111Y-12215531D01*
X15759111Y-12215531D02*
X15768634Y-12186960D01*
X15768634Y-12186960D02*
X15778158Y-12139341D01*
X15778158Y-12139341D02*
X15778158Y-12101246D01*
X15778158Y-12101246D02*
X15768634Y-12053627D01*
X15768634Y-12053627D02*
X15759111Y-12025055D01*
X15759111Y-12025055D02*
X15749587Y-12006008D01*
X15749587Y-12006008D02*
X15730539Y-11977436D01*
X15730539Y-11977436D02*
X15721015Y-11967912D01*
D10*
X8965000Y-12369000D02*
G75*
G02*
X8875000Y-12369000I-45000J0D01*
G01*
X8875000Y-12369000D02*
G75*
G02*
X8965000Y-12369000I45000J0D01*
G01*
D11*
X9263872Y-12260484D02*
X9282920Y-12260484D01*
X9282920Y-12260484D02*
X9301967Y-12270008D01*
X9301967Y-12270008D02*
X9311491Y-12279531D01*
X9311491Y-12279531D02*
X9321015Y-12298579D01*
X9321015Y-12298579D02*
X9330539Y-12336674D01*
X9330539Y-12336674D02*
X9330539Y-12384293D01*
X9330539Y-12384293D02*
X9321015Y-12422388D01*
X9321015Y-12422388D02*
X9311491Y-12441436D01*
X9311491Y-12441436D02*
X9301967Y-12450960D01*
X9301967Y-12450960D02*
X9282920Y-12460484D01*
X9282920Y-12460484D02*
X9263872Y-12460484D01*
X9263872Y-12460484D02*
X9244824Y-12450960D01*
X9244824Y-12450960D02*
X9235301Y-12441436D01*
X9235301Y-12441436D02*
X9225777Y-12422388D01*
X9225777Y-12422388D02*
X9216253Y-12384293D01*
X9216253Y-12384293D02*
X9216253Y-12336674D01*
X9216253Y-12336674D02*
X9225777Y-12298579D01*
X9225777Y-12298579D02*
X9235301Y-12279531D01*
X9235301Y-12279531D02*
X9244824Y-12270008D01*
X9244824Y-12270008D02*
X9263872Y-12260484D01*
X9416253Y-12441436D02*
X9425777Y-12450960D01*
X9425777Y-12450960D02*
X9416253Y-12460484D01*
X9416253Y-12460484D02*
X9406729Y-12450960D01*
X9406729Y-12450960D02*
X9416253Y-12441436D01*
X9416253Y-12441436D02*
X9416253Y-12460484D01*
X9521015Y-12460484D02*
X9559110Y-12460484D01*
X9559110Y-12460484D02*
X9578158Y-12450960D01*
X9578158Y-12450960D02*
X9587682Y-12441436D01*
X9587682Y-12441436D02*
X9606729Y-12412865D01*
X9606729Y-12412865D02*
X9616253Y-12374769D01*
X9616253Y-12374769D02*
X9616253Y-12298579D01*
X9616253Y-12298579D02*
X9606729Y-12279531D01*
X9606729Y-12279531D02*
X9597205Y-12270008D01*
X9597205Y-12270008D02*
X9578158Y-12260484D01*
X9578158Y-12260484D02*
X9540063Y-12260484D01*
X9540063Y-12260484D02*
X9521015Y-12270008D01*
X9521015Y-12270008D02*
X9511491Y-12279531D01*
X9511491Y-12279531D02*
X9501967Y-12298579D01*
X9501967Y-12298579D02*
X9501967Y-12346198D01*
X9501967Y-12346198D02*
X9511491Y-12365246D01*
X9511491Y-12365246D02*
X9521015Y-12374769D01*
X9521015Y-12374769D02*
X9540063Y-12384293D01*
X9540063Y-12384293D02*
X9578158Y-12384293D01*
X9578158Y-12384293D02*
X9597205Y-12374769D01*
X9597205Y-12374769D02*
X9606729Y-12365246D01*
X9606729Y-12365246D02*
X9616253Y-12346198D01*
X9740063Y-12260484D02*
X9759110Y-12260484D01*
X9759110Y-12260484D02*
X9778158Y-12270008D01*
X9778158Y-12270008D02*
X9787682Y-12279531D01*
X9787682Y-12279531D02*
X9797205Y-12298579D01*
X9797205Y-12298579D02*
X9806729Y-12336674D01*
X9806729Y-12336674D02*
X9806729Y-12384293D01*
X9806729Y-12384293D02*
X9797205Y-12422388D01*
X9797205Y-12422388D02*
X9787682Y-12441436D01*
X9787682Y-12441436D02*
X9778158Y-12450960D01*
X9778158Y-12450960D02*
X9759110Y-12460484D01*
X9759110Y-12460484D02*
X9740063Y-12460484D01*
X9740063Y-12460484D02*
X9721015Y-12450960D01*
X9721015Y-12450960D02*
X9711491Y-12441436D01*
X9711491Y-12441436D02*
X9701967Y-12422388D01*
X9701967Y-12422388D02*
X9692444Y-12384293D01*
X9692444Y-12384293D02*
X9692444Y-12336674D01*
X9692444Y-12336674D02*
X9701967Y-12298579D01*
X9701967Y-12298579D02*
X9711491Y-12279531D01*
X9711491Y-12279531D02*
X9721015Y-12270008D01*
X9721015Y-12270008D02*
X9740063Y-12260484D01*
X9930539Y-12260484D02*
X9949586Y-12260484D01*
X9949586Y-12260484D02*
X9968634Y-12270008D01*
X9968634Y-12270008D02*
X9978158Y-12279531D01*
X9978158Y-12279531D02*
X9987682Y-12298579D01*
X9987682Y-12298579D02*
X9997205Y-12336674D01*
X9997205Y-12336674D02*
X9997205Y-12384293D01*
X9997205Y-12384293D02*
X9987682Y-12422388D01*
X9987682Y-12422388D02*
X9978158Y-12441436D01*
X9978158Y-12441436D02*
X9968634Y-12450960D01*
X9968634Y-12450960D02*
X9949586Y-12460484D01*
X9949586Y-12460484D02*
X9930539Y-12460484D01*
X9930539Y-12460484D02*
X9911491Y-12450960D01*
X9911491Y-12450960D02*
X9901967Y-12441436D01*
X9901967Y-12441436D02*
X9892444Y-12422388D01*
X9892444Y-12422388D02*
X9882920Y-12384293D01*
X9882920Y-12384293D02*
X9882920Y-12336674D01*
X9882920Y-12336674D02*
X9892444Y-12298579D01*
X9892444Y-12298579D02*
X9901967Y-12279531D01*
X9901967Y-12279531D02*
X9911491Y-12270008D01*
X9911491Y-12270008D02*
X9930539Y-12260484D01*
X10082920Y-12460484D02*
X10082920Y-12327150D01*
X10082920Y-12346198D02*
X10092444Y-12336674D01*
X10092444Y-12336674D02*
X10111491Y-12327150D01*
X10111491Y-12327150D02*
X10140063Y-12327150D01*
X10140063Y-12327150D02*
X10159110Y-12336674D01*
X10159110Y-12336674D02*
X10168634Y-12355722D01*
X10168634Y-12355722D02*
X10168634Y-12460484D01*
X10168634Y-12355722D02*
X10178158Y-12336674D01*
X10178158Y-12336674D02*
X10197205Y-12327150D01*
X10197205Y-12327150D02*
X10225777Y-12327150D01*
X10225777Y-12327150D02*
X10244825Y-12336674D01*
X10244825Y-12336674D02*
X10254348Y-12355722D01*
X10254348Y-12355722D02*
X10254348Y-12460484D01*
X10349586Y-12460484D02*
X10349586Y-12327150D01*
X10349586Y-12346198D02*
X10359110Y-12336674D01*
X10359110Y-12336674D02*
X10378158Y-12327150D01*
X10378158Y-12327150D02*
X10406729Y-12327150D01*
X10406729Y-12327150D02*
X10425777Y-12336674D01*
X10425777Y-12336674D02*
X10435301Y-12355722D01*
X10435301Y-12355722D02*
X10435301Y-12460484D01*
X10435301Y-12355722D02*
X10444825Y-12336674D01*
X10444825Y-12336674D02*
X10463872Y-12327150D01*
X10463872Y-12327150D02*
X10492444Y-12327150D01*
X10492444Y-12327150D02*
X10511491Y-12336674D01*
X10511491Y-12336674D02*
X10521015Y-12355722D01*
X10521015Y-12355722D02*
X10521015Y-12460484D01*
X10911491Y-12250960D02*
X10740063Y-12508103D01*
X11168634Y-12260484D02*
X11187682Y-12260484D01*
X11187682Y-12260484D02*
X11206729Y-12270008D01*
X11206729Y-12270008D02*
X11216253Y-12279531D01*
X11216253Y-12279531D02*
X11225777Y-12298579D01*
X11225777Y-12298579D02*
X11235301Y-12336674D01*
X11235301Y-12336674D02*
X11235301Y-12384293D01*
X11235301Y-12384293D02*
X11225777Y-12422388D01*
X11225777Y-12422388D02*
X11216253Y-12441436D01*
X11216253Y-12441436D02*
X11206729Y-12450960D01*
X11206729Y-12450960D02*
X11187682Y-12460484D01*
X11187682Y-12460484D02*
X11168634Y-12460484D01*
X11168634Y-12460484D02*
X11149587Y-12450960D01*
X11149587Y-12450960D02*
X11140063Y-12441436D01*
X11140063Y-12441436D02*
X11130539Y-12422388D01*
X11130539Y-12422388D02*
X11121015Y-12384293D01*
X11121015Y-12384293D02*
X11121015Y-12336674D01*
X11121015Y-12336674D02*
X11130539Y-12298579D01*
X11130539Y-12298579D02*
X11140063Y-12279531D01*
X11140063Y-12279531D02*
X11149587Y-12270008D01*
X11149587Y-12270008D02*
X11168634Y-12260484D01*
X11321015Y-12441436D02*
X11330539Y-12450960D01*
X11330539Y-12450960D02*
X11321015Y-12460484D01*
X11321015Y-12460484D02*
X11311491Y-12450960D01*
X11311491Y-12450960D02*
X11321015Y-12441436D01*
X11321015Y-12441436D02*
X11321015Y-12460484D01*
X11454348Y-12260484D02*
X11473396Y-12260484D01*
X11473396Y-12260484D02*
X11492444Y-12270008D01*
X11492444Y-12270008D02*
X11501967Y-12279531D01*
X11501967Y-12279531D02*
X11511491Y-12298579D01*
X11511491Y-12298579D02*
X11521015Y-12336674D01*
X11521015Y-12336674D02*
X11521015Y-12384293D01*
X11521015Y-12384293D02*
X11511491Y-12422388D01*
X11511491Y-12422388D02*
X11501967Y-12441436D01*
X11501967Y-12441436D02*
X11492444Y-12450960D01*
X11492444Y-12450960D02*
X11473396Y-12460484D01*
X11473396Y-12460484D02*
X11454348Y-12460484D01*
X11454348Y-12460484D02*
X11435301Y-12450960D01*
X11435301Y-12450960D02*
X11425777Y-12441436D01*
X11425777Y-12441436D02*
X11416253Y-12422388D01*
X11416253Y-12422388D02*
X11406729Y-12384293D01*
X11406729Y-12384293D02*
X11406729Y-12336674D01*
X11406729Y-12336674D02*
X11416253Y-12298579D01*
X11416253Y-12298579D02*
X11425777Y-12279531D01*
X11425777Y-12279531D02*
X11435301Y-12270008D01*
X11435301Y-12270008D02*
X11454348Y-12260484D01*
X11587682Y-12260484D02*
X11711491Y-12260484D01*
X11711491Y-12260484D02*
X11644825Y-12336674D01*
X11644825Y-12336674D02*
X11673396Y-12336674D01*
X11673396Y-12336674D02*
X11692444Y-12346198D01*
X11692444Y-12346198D02*
X11701967Y-12355722D01*
X11701967Y-12355722D02*
X11711491Y-12374769D01*
X11711491Y-12374769D02*
X11711491Y-12422388D01*
X11711491Y-12422388D02*
X11701967Y-12441436D01*
X11701967Y-12441436D02*
X11692444Y-12450960D01*
X11692444Y-12450960D02*
X11673396Y-12460484D01*
X11673396Y-12460484D02*
X11616253Y-12460484D01*
X11616253Y-12460484D02*
X11597206Y-12450960D01*
X11597206Y-12450960D02*
X11587682Y-12441436D01*
X11892444Y-12260484D02*
X11797206Y-12260484D01*
X11797206Y-12260484D02*
X11787682Y-12355722D01*
X11787682Y-12355722D02*
X11797206Y-12346198D01*
X11797206Y-12346198D02*
X11816253Y-12336674D01*
X11816253Y-12336674D02*
X11863872Y-12336674D01*
X11863872Y-12336674D02*
X11882920Y-12346198D01*
X11882920Y-12346198D02*
X11892444Y-12355722D01*
X11892444Y-12355722D02*
X11901967Y-12374769D01*
X11901967Y-12374769D02*
X11901967Y-12422388D01*
X11901967Y-12422388D02*
X11892444Y-12441436D01*
X11892444Y-12441436D02*
X11882920Y-12450960D01*
X11882920Y-12450960D02*
X11863872Y-12460484D01*
X11863872Y-12460484D02*
X11816253Y-12460484D01*
X11816253Y-12460484D02*
X11797206Y-12450960D01*
X11797206Y-12450960D02*
X11787682Y-12441436D01*
X12073396Y-12327150D02*
X12073396Y-12460484D01*
X12025777Y-12250960D02*
X11978158Y-12393817D01*
X11978158Y-12393817D02*
X12101967Y-12393817D01*
X12168634Y-12260484D02*
X12168634Y-12298579D01*
X12244825Y-12260484D02*
X12244825Y-12298579D01*
X12540063Y-12536674D02*
X12530539Y-12527150D01*
X12530539Y-12527150D02*
X12511491Y-12498579D01*
X12511491Y-12498579D02*
X12501968Y-12479531D01*
X12501968Y-12479531D02*
X12492444Y-12450960D01*
X12492444Y-12450960D02*
X12482920Y-12403341D01*
X12482920Y-12403341D02*
X12482920Y-12365246D01*
X12482920Y-12365246D02*
X12492444Y-12317627D01*
X12492444Y-12317627D02*
X12501968Y-12289055D01*
X12501968Y-12289055D02*
X12511491Y-12270008D01*
X12511491Y-12270008D02*
X12530539Y-12241436D01*
X12530539Y-12241436D02*
X12540063Y-12231912D01*
X12606729Y-12279531D02*
X12616253Y-12270008D01*
X12616253Y-12270008D02*
X12635301Y-12260484D01*
X12635301Y-12260484D02*
X12682920Y-12260484D01*
X12682920Y-12260484D02*
X12701968Y-12270008D01*
X12701968Y-12270008D02*
X12711491Y-12279531D01*
X12711491Y-12279531D02*
X12721015Y-12298579D01*
X12721015Y-12298579D02*
X12721015Y-12317627D01*
X12721015Y-12317627D02*
X12711491Y-12346198D01*
X12711491Y-12346198D02*
X12597206Y-12460484D01*
X12597206Y-12460484D02*
X12721015Y-12460484D01*
X12959110Y-12460484D02*
X12959110Y-12260484D01*
X13044825Y-12460484D02*
X13044825Y-12355722D01*
X13044825Y-12355722D02*
X13035301Y-12336674D01*
X13035301Y-12336674D02*
X13016253Y-12327150D01*
X13016253Y-12327150D02*
X12987682Y-12327150D01*
X12987682Y-12327150D02*
X12968634Y-12336674D01*
X12968634Y-12336674D02*
X12959110Y-12346198D01*
X13168634Y-12460484D02*
X13149587Y-12450960D01*
X13149587Y-12450960D02*
X13140063Y-12441436D01*
X13140063Y-12441436D02*
X13130539Y-12422388D01*
X13130539Y-12422388D02*
X13130539Y-12365246D01*
X13130539Y-12365246D02*
X13140063Y-12346198D01*
X13140063Y-12346198D02*
X13149587Y-12336674D01*
X13149587Y-12336674D02*
X13168634Y-12327150D01*
X13168634Y-12327150D02*
X13197206Y-12327150D01*
X13197206Y-12327150D02*
X13216253Y-12336674D01*
X13216253Y-12336674D02*
X13225777Y-12346198D01*
X13225777Y-12346198D02*
X13235301Y-12365246D01*
X13235301Y-12365246D02*
X13235301Y-12422388D01*
X13235301Y-12422388D02*
X13225777Y-12441436D01*
X13225777Y-12441436D02*
X13216253Y-12450960D01*
X13216253Y-12450960D02*
X13197206Y-12460484D01*
X13197206Y-12460484D02*
X13168634Y-12460484D01*
X13349587Y-12460484D02*
X13330539Y-12450960D01*
X13330539Y-12450960D02*
X13321015Y-12431912D01*
X13321015Y-12431912D02*
X13321015Y-12260484D01*
X13501968Y-12450960D02*
X13482920Y-12460484D01*
X13482920Y-12460484D02*
X13444825Y-12460484D01*
X13444825Y-12460484D02*
X13425777Y-12450960D01*
X13425777Y-12450960D02*
X13416253Y-12431912D01*
X13416253Y-12431912D02*
X13416253Y-12355722D01*
X13416253Y-12355722D02*
X13425777Y-12336674D01*
X13425777Y-12336674D02*
X13444825Y-12327150D01*
X13444825Y-12327150D02*
X13482920Y-12327150D01*
X13482920Y-12327150D02*
X13501968Y-12336674D01*
X13501968Y-12336674D02*
X13511491Y-12355722D01*
X13511491Y-12355722D02*
X13511491Y-12374769D01*
X13511491Y-12374769D02*
X13416253Y-12393817D01*
X13587682Y-12450960D02*
X13606730Y-12460484D01*
X13606730Y-12460484D02*
X13644825Y-12460484D01*
X13644825Y-12460484D02*
X13663872Y-12450960D01*
X13663872Y-12450960D02*
X13673396Y-12431912D01*
X13673396Y-12431912D02*
X13673396Y-12422388D01*
X13673396Y-12422388D02*
X13663872Y-12403341D01*
X13663872Y-12403341D02*
X13644825Y-12393817D01*
X13644825Y-12393817D02*
X13616253Y-12393817D01*
X13616253Y-12393817D02*
X13597206Y-12384293D01*
X13597206Y-12384293D02*
X13587682Y-12365246D01*
X13587682Y-12365246D02*
X13587682Y-12355722D01*
X13587682Y-12355722D02*
X13597206Y-12336674D01*
X13597206Y-12336674D02*
X13616253Y-12327150D01*
X13616253Y-12327150D02*
X13644825Y-12327150D01*
X13644825Y-12327150D02*
X13663872Y-12336674D01*
X13740063Y-12536674D02*
X13749587Y-12527150D01*
X13749587Y-12527150D02*
X13768634Y-12498579D01*
X13768634Y-12498579D02*
X13778158Y-12479531D01*
X13778158Y-12479531D02*
X13787682Y-12450960D01*
X13787682Y-12450960D02*
X13797206Y-12403341D01*
X13797206Y-12403341D02*
X13797206Y-12365246D01*
X13797206Y-12365246D02*
X13787682Y-12317627D01*
X13787682Y-12317627D02*
X13778158Y-12289055D01*
X13778158Y-12289055D02*
X13768634Y-12270008D01*
X13768634Y-12270008D02*
X13749587Y-12241436D01*
X13749587Y-12241436D02*
X13740063Y-12231912D01*
X14101968Y-12536674D02*
X14092444Y-12527150D01*
X14092444Y-12527150D02*
X14073396Y-12498579D01*
X14073396Y-12498579D02*
X14063872Y-12479531D01*
X14063872Y-12479531D02*
X14054349Y-12450960D01*
X14054349Y-12450960D02*
X14044825Y-12403341D01*
X14044825Y-12403341D02*
X14044825Y-12365246D01*
X14044825Y-12365246D02*
X14054349Y-12317627D01*
X14054349Y-12317627D02*
X14063872Y-12289055D01*
X14063872Y-12289055D02*
X14073396Y-12270008D01*
X14073396Y-12270008D02*
X14092444Y-12241436D01*
X14092444Y-12241436D02*
X14101968Y-12231912D01*
X14178158Y-12327150D02*
X14178158Y-12460484D01*
X14178158Y-12346198D02*
X14187682Y-12336674D01*
X14187682Y-12336674D02*
X14206730Y-12327150D01*
X14206730Y-12327150D02*
X14235301Y-12327150D01*
X14235301Y-12327150D02*
X14254349Y-12336674D01*
X14254349Y-12336674D02*
X14263872Y-12355722D01*
X14263872Y-12355722D02*
X14263872Y-12460484D01*
X14387682Y-12460484D02*
X14368634Y-12450960D01*
X14368634Y-12450960D02*
X14359111Y-12441436D01*
X14359111Y-12441436D02*
X14349587Y-12422388D01*
X14349587Y-12422388D02*
X14349587Y-12365246D01*
X14349587Y-12365246D02*
X14359111Y-12346198D01*
X14359111Y-12346198D02*
X14368634Y-12336674D01*
X14368634Y-12336674D02*
X14387682Y-12327150D01*
X14387682Y-12327150D02*
X14416253Y-12327150D01*
X14416253Y-12327150D02*
X14435301Y-12336674D01*
X14435301Y-12336674D02*
X14444825Y-12346198D01*
X14444825Y-12346198D02*
X14454349Y-12365246D01*
X14454349Y-12365246D02*
X14454349Y-12422388D01*
X14454349Y-12422388D02*
X14444825Y-12441436D01*
X14444825Y-12441436D02*
X14435301Y-12450960D01*
X14435301Y-12450960D02*
X14416253Y-12460484D01*
X14416253Y-12460484D02*
X14387682Y-12460484D01*
X14511492Y-12327150D02*
X14587682Y-12327150D01*
X14540063Y-12260484D02*
X14540063Y-12431912D01*
X14540063Y-12431912D02*
X14549587Y-12450960D01*
X14549587Y-12450960D02*
X14568634Y-12460484D01*
X14568634Y-12460484D02*
X14587682Y-12460484D01*
X14806730Y-12327150D02*
X14806730Y-12527150D01*
X14806730Y-12336674D02*
X14825777Y-12327150D01*
X14825777Y-12327150D02*
X14863873Y-12327150D01*
X14863873Y-12327150D02*
X14882920Y-12336674D01*
X14882920Y-12336674D02*
X14892444Y-12346198D01*
X14892444Y-12346198D02*
X14901968Y-12365246D01*
X14901968Y-12365246D02*
X14901968Y-12422388D01*
X14901968Y-12422388D02*
X14892444Y-12441436D01*
X14892444Y-12441436D02*
X14882920Y-12450960D01*
X14882920Y-12450960D02*
X14863873Y-12460484D01*
X14863873Y-12460484D02*
X14825777Y-12460484D01*
X14825777Y-12460484D02*
X14806730Y-12450960D01*
X15016253Y-12460484D02*
X14997206Y-12450960D01*
X14997206Y-12450960D02*
X14987682Y-12431912D01*
X14987682Y-12431912D02*
X14987682Y-12260484D01*
X15178158Y-12460484D02*
X15178158Y-12355722D01*
X15178158Y-12355722D02*
X15168634Y-12336674D01*
X15168634Y-12336674D02*
X15149587Y-12327150D01*
X15149587Y-12327150D02*
X15111492Y-12327150D01*
X15111492Y-12327150D02*
X15092444Y-12336674D01*
X15178158Y-12450960D02*
X15159111Y-12460484D01*
X15159111Y-12460484D02*
X15111492Y-12460484D01*
X15111492Y-12460484D02*
X15092444Y-12450960D01*
X15092444Y-12450960D02*
X15082920Y-12431912D01*
X15082920Y-12431912D02*
X15082920Y-12412865D01*
X15082920Y-12412865D02*
X15092444Y-12393817D01*
X15092444Y-12393817D02*
X15111492Y-12384293D01*
X15111492Y-12384293D02*
X15159111Y-12384293D01*
X15159111Y-12384293D02*
X15178158Y-12374769D01*
X15244825Y-12327150D02*
X15321015Y-12327150D01*
X15273396Y-12260484D02*
X15273396Y-12431912D01*
X15273396Y-12431912D02*
X15282920Y-12450960D01*
X15282920Y-12450960D02*
X15301968Y-12460484D01*
X15301968Y-12460484D02*
X15321015Y-12460484D01*
X15463873Y-12450960D02*
X15444825Y-12460484D01*
X15444825Y-12460484D02*
X15406730Y-12460484D01*
X15406730Y-12460484D02*
X15387682Y-12450960D01*
X15387682Y-12450960D02*
X15378158Y-12431912D01*
X15378158Y-12431912D02*
X15378158Y-12355722D01*
X15378158Y-12355722D02*
X15387682Y-12336674D01*
X15387682Y-12336674D02*
X15406730Y-12327150D01*
X15406730Y-12327150D02*
X15444825Y-12327150D01*
X15444825Y-12327150D02*
X15463873Y-12336674D01*
X15463873Y-12336674D02*
X15473396Y-12355722D01*
X15473396Y-12355722D02*
X15473396Y-12374769D01*
X15473396Y-12374769D02*
X15378158Y-12393817D01*
X15644825Y-12460484D02*
X15644825Y-12260484D01*
X15644825Y-12450960D02*
X15625777Y-12460484D01*
X15625777Y-12460484D02*
X15587682Y-12460484D01*
X15587682Y-12460484D02*
X15568634Y-12450960D01*
X15568634Y-12450960D02*
X15559111Y-12441436D01*
X15559111Y-12441436D02*
X15549587Y-12422388D01*
X15549587Y-12422388D02*
X15549587Y-12365246D01*
X15549587Y-12365246D02*
X15559111Y-12346198D01*
X15559111Y-12346198D02*
X15568634Y-12336674D01*
X15568634Y-12336674D02*
X15587682Y-12327150D01*
X15587682Y-12327150D02*
X15625777Y-12327150D01*
X15625777Y-12327150D02*
X15644825Y-12336674D01*
X15721015Y-12536674D02*
X15730539Y-12527150D01*
X15730539Y-12527150D02*
X15749587Y-12498579D01*
X15749587Y-12498579D02*
X15759111Y-12479531D01*
X15759111Y-12479531D02*
X15768634Y-12450960D01*
X15768634Y-12450960D02*
X15778158Y-12403341D01*
X15778158Y-12403341D02*
X15778158Y-12365246D01*
X15778158Y-12365246D02*
X15768634Y-12317627D01*
X15768634Y-12317627D02*
X15759111Y-12289055D01*
X15759111Y-12289055D02*
X15749587Y-12270008D01*
X15749587Y-12270008D02*
X15730539Y-12241436D01*
X15730539Y-12241436D02*
X15721015Y-12231912D01*
D10*
X8917500Y-12585500D02*
X8917500Y-12680500D01*
X8870000Y-12633000D02*
X8965000Y-12633000D01*
D11*
X9263872Y-12524484D02*
X9282920Y-12524484D01*
X9282920Y-12524484D02*
X9301967Y-12534008D01*
X9301967Y-12534008D02*
X9311491Y-12543531D01*
X9311491Y-12543531D02*
X9321015Y-12562579D01*
X9321015Y-12562579D02*
X9330539Y-12600674D01*
X9330539Y-12600674D02*
X9330539Y-12648293D01*
X9330539Y-12648293D02*
X9321015Y-12686388D01*
X9321015Y-12686388D02*
X9311491Y-12705436D01*
X9311491Y-12705436D02*
X9301967Y-12714960D01*
X9301967Y-12714960D02*
X9282920Y-12724484D01*
X9282920Y-12724484D02*
X9263872Y-12724484D01*
X9263872Y-12724484D02*
X9244824Y-12714960D01*
X9244824Y-12714960D02*
X9235301Y-12705436D01*
X9235301Y-12705436D02*
X9225777Y-12686388D01*
X9225777Y-12686388D02*
X9216253Y-12648293D01*
X9216253Y-12648293D02*
X9216253Y-12600674D01*
X9216253Y-12600674D02*
X9225777Y-12562579D01*
X9225777Y-12562579D02*
X9235301Y-12543531D01*
X9235301Y-12543531D02*
X9244824Y-12534008D01*
X9244824Y-12534008D02*
X9263872Y-12524484D01*
X9416253Y-12705436D02*
X9425777Y-12714960D01*
X9425777Y-12714960D02*
X9416253Y-12724484D01*
X9416253Y-12724484D02*
X9406729Y-12714960D01*
X9406729Y-12714960D02*
X9416253Y-12705436D01*
X9416253Y-12705436D02*
X9416253Y-12724484D01*
X9521015Y-12724484D02*
X9559110Y-12724484D01*
X9559110Y-12724484D02*
X9578158Y-12714960D01*
X9578158Y-12714960D02*
X9587682Y-12705436D01*
X9587682Y-12705436D02*
X9606729Y-12676865D01*
X9606729Y-12676865D02*
X9616253Y-12638769D01*
X9616253Y-12638769D02*
X9616253Y-12562579D01*
X9616253Y-12562579D02*
X9606729Y-12543531D01*
X9606729Y-12543531D02*
X9597205Y-12534008D01*
X9597205Y-12534008D02*
X9578158Y-12524484D01*
X9578158Y-12524484D02*
X9540063Y-12524484D01*
X9540063Y-12524484D02*
X9521015Y-12534008D01*
X9521015Y-12534008D02*
X9511491Y-12543531D01*
X9511491Y-12543531D02*
X9501967Y-12562579D01*
X9501967Y-12562579D02*
X9501967Y-12610198D01*
X9501967Y-12610198D02*
X9511491Y-12629246D01*
X9511491Y-12629246D02*
X9521015Y-12638769D01*
X9521015Y-12638769D02*
X9540063Y-12648293D01*
X9540063Y-12648293D02*
X9578158Y-12648293D01*
X9578158Y-12648293D02*
X9597205Y-12638769D01*
X9597205Y-12638769D02*
X9606729Y-12629246D01*
X9606729Y-12629246D02*
X9616253Y-12610198D01*
X9797205Y-12524484D02*
X9701967Y-12524484D01*
X9701967Y-12524484D02*
X9692444Y-12619722D01*
X9692444Y-12619722D02*
X9701967Y-12610198D01*
X9701967Y-12610198D02*
X9721015Y-12600674D01*
X9721015Y-12600674D02*
X9768634Y-12600674D01*
X9768634Y-12600674D02*
X9787682Y-12610198D01*
X9787682Y-12610198D02*
X9797205Y-12619722D01*
X9797205Y-12619722D02*
X9806729Y-12638769D01*
X9806729Y-12638769D02*
X9806729Y-12686388D01*
X9806729Y-12686388D02*
X9797205Y-12705436D01*
X9797205Y-12705436D02*
X9787682Y-12714960D01*
X9787682Y-12714960D02*
X9768634Y-12724484D01*
X9768634Y-12724484D02*
X9721015Y-12724484D01*
X9721015Y-12724484D02*
X9701967Y-12714960D01*
X9701967Y-12714960D02*
X9692444Y-12705436D01*
X9930539Y-12524484D02*
X9949586Y-12524484D01*
X9949586Y-12524484D02*
X9968634Y-12534008D01*
X9968634Y-12534008D02*
X9978158Y-12543531D01*
X9978158Y-12543531D02*
X9987682Y-12562579D01*
X9987682Y-12562579D02*
X9997205Y-12600674D01*
X9997205Y-12600674D02*
X9997205Y-12648293D01*
X9997205Y-12648293D02*
X9987682Y-12686388D01*
X9987682Y-12686388D02*
X9978158Y-12705436D01*
X9978158Y-12705436D02*
X9968634Y-12714960D01*
X9968634Y-12714960D02*
X9949586Y-12724484D01*
X9949586Y-12724484D02*
X9930539Y-12724484D01*
X9930539Y-12724484D02*
X9911491Y-12714960D01*
X9911491Y-12714960D02*
X9901967Y-12705436D01*
X9901967Y-12705436D02*
X9892444Y-12686388D01*
X9892444Y-12686388D02*
X9882920Y-12648293D01*
X9882920Y-12648293D02*
X9882920Y-12600674D01*
X9882920Y-12600674D02*
X9892444Y-12562579D01*
X9892444Y-12562579D02*
X9901967Y-12543531D01*
X9901967Y-12543531D02*
X9911491Y-12534008D01*
X9911491Y-12534008D02*
X9930539Y-12524484D01*
X10082920Y-12724484D02*
X10082920Y-12591150D01*
X10082920Y-12610198D02*
X10092444Y-12600674D01*
X10092444Y-12600674D02*
X10111491Y-12591150D01*
X10111491Y-12591150D02*
X10140063Y-12591150D01*
X10140063Y-12591150D02*
X10159110Y-12600674D01*
X10159110Y-12600674D02*
X10168634Y-12619722D01*
X10168634Y-12619722D02*
X10168634Y-12724484D01*
X10168634Y-12619722D02*
X10178158Y-12600674D01*
X10178158Y-12600674D02*
X10197205Y-12591150D01*
X10197205Y-12591150D02*
X10225777Y-12591150D01*
X10225777Y-12591150D02*
X10244825Y-12600674D01*
X10244825Y-12600674D02*
X10254348Y-12619722D01*
X10254348Y-12619722D02*
X10254348Y-12724484D01*
X10349586Y-12724484D02*
X10349586Y-12591150D01*
X10349586Y-12610198D02*
X10359110Y-12600674D01*
X10359110Y-12600674D02*
X10378158Y-12591150D01*
X10378158Y-12591150D02*
X10406729Y-12591150D01*
X10406729Y-12591150D02*
X10425777Y-12600674D01*
X10425777Y-12600674D02*
X10435301Y-12619722D01*
X10435301Y-12619722D02*
X10435301Y-12724484D01*
X10435301Y-12619722D02*
X10444825Y-12600674D01*
X10444825Y-12600674D02*
X10463872Y-12591150D01*
X10463872Y-12591150D02*
X10492444Y-12591150D01*
X10492444Y-12591150D02*
X10511491Y-12600674D01*
X10511491Y-12600674D02*
X10521015Y-12619722D01*
X10521015Y-12619722D02*
X10521015Y-12724484D01*
X10911491Y-12514960D02*
X10740063Y-12772103D01*
X11168634Y-12524484D02*
X11187682Y-12524484D01*
X11187682Y-12524484D02*
X11206729Y-12534008D01*
X11206729Y-12534008D02*
X11216253Y-12543531D01*
X11216253Y-12543531D02*
X11225777Y-12562579D01*
X11225777Y-12562579D02*
X11235301Y-12600674D01*
X11235301Y-12600674D02*
X11235301Y-12648293D01*
X11235301Y-12648293D02*
X11225777Y-12686388D01*
X11225777Y-12686388D02*
X11216253Y-12705436D01*
X11216253Y-12705436D02*
X11206729Y-12714960D01*
X11206729Y-12714960D02*
X11187682Y-12724484D01*
X11187682Y-12724484D02*
X11168634Y-12724484D01*
X11168634Y-12724484D02*
X11149587Y-12714960D01*
X11149587Y-12714960D02*
X11140063Y-12705436D01*
X11140063Y-12705436D02*
X11130539Y-12686388D01*
X11130539Y-12686388D02*
X11121015Y-12648293D01*
X11121015Y-12648293D02*
X11121015Y-12600674D01*
X11121015Y-12600674D02*
X11130539Y-12562579D01*
X11130539Y-12562579D02*
X11140063Y-12543531D01*
X11140063Y-12543531D02*
X11149587Y-12534008D01*
X11149587Y-12534008D02*
X11168634Y-12524484D01*
X11321015Y-12705436D02*
X11330539Y-12714960D01*
X11330539Y-12714960D02*
X11321015Y-12724484D01*
X11321015Y-12724484D02*
X11311491Y-12714960D01*
X11311491Y-12714960D02*
X11321015Y-12705436D01*
X11321015Y-12705436D02*
X11321015Y-12724484D01*
X11454348Y-12524484D02*
X11473396Y-12524484D01*
X11473396Y-12524484D02*
X11492444Y-12534008D01*
X11492444Y-12534008D02*
X11501967Y-12543531D01*
X11501967Y-12543531D02*
X11511491Y-12562579D01*
X11511491Y-12562579D02*
X11521015Y-12600674D01*
X11521015Y-12600674D02*
X11521015Y-12648293D01*
X11521015Y-12648293D02*
X11511491Y-12686388D01*
X11511491Y-12686388D02*
X11501967Y-12705436D01*
X11501967Y-12705436D02*
X11492444Y-12714960D01*
X11492444Y-12714960D02*
X11473396Y-12724484D01*
X11473396Y-12724484D02*
X11454348Y-12724484D01*
X11454348Y-12724484D02*
X11435301Y-12714960D01*
X11435301Y-12714960D02*
X11425777Y-12705436D01*
X11425777Y-12705436D02*
X11416253Y-12686388D01*
X11416253Y-12686388D02*
X11406729Y-12648293D01*
X11406729Y-12648293D02*
X11406729Y-12600674D01*
X11406729Y-12600674D02*
X11416253Y-12562579D01*
X11416253Y-12562579D02*
X11425777Y-12543531D01*
X11425777Y-12543531D02*
X11435301Y-12534008D01*
X11435301Y-12534008D02*
X11454348Y-12524484D01*
X11587682Y-12524484D02*
X11711491Y-12524484D01*
X11711491Y-12524484D02*
X11644825Y-12600674D01*
X11644825Y-12600674D02*
X11673396Y-12600674D01*
X11673396Y-12600674D02*
X11692444Y-12610198D01*
X11692444Y-12610198D02*
X11701967Y-12619722D01*
X11701967Y-12619722D02*
X11711491Y-12638769D01*
X11711491Y-12638769D02*
X11711491Y-12686388D01*
X11711491Y-12686388D02*
X11701967Y-12705436D01*
X11701967Y-12705436D02*
X11692444Y-12714960D01*
X11692444Y-12714960D02*
X11673396Y-12724484D01*
X11673396Y-12724484D02*
X11616253Y-12724484D01*
X11616253Y-12724484D02*
X11597206Y-12714960D01*
X11597206Y-12714960D02*
X11587682Y-12705436D01*
X11778158Y-12524484D02*
X11911491Y-12524484D01*
X11911491Y-12524484D02*
X11825777Y-12724484D01*
X12073396Y-12591150D02*
X12073396Y-12724484D01*
X12025777Y-12514960D02*
X11978158Y-12657817D01*
X11978158Y-12657817D02*
X12101967Y-12657817D01*
X12168634Y-12524484D02*
X12168634Y-12562579D01*
X12244825Y-12524484D02*
X12244825Y-12562579D01*
X12540063Y-12800674D02*
X12530539Y-12791150D01*
X12530539Y-12791150D02*
X12511491Y-12762579D01*
X12511491Y-12762579D02*
X12501968Y-12743531D01*
X12501968Y-12743531D02*
X12492444Y-12714960D01*
X12492444Y-12714960D02*
X12482920Y-12667341D01*
X12482920Y-12667341D02*
X12482920Y-12629246D01*
X12482920Y-12629246D02*
X12492444Y-12581627D01*
X12492444Y-12581627D02*
X12501968Y-12553055D01*
X12501968Y-12553055D02*
X12511491Y-12534008D01*
X12511491Y-12534008D02*
X12530539Y-12505436D01*
X12530539Y-12505436D02*
X12540063Y-12495912D01*
X12606729Y-12543531D02*
X12616253Y-12534008D01*
X12616253Y-12534008D02*
X12635301Y-12524484D01*
X12635301Y-12524484D02*
X12682920Y-12524484D01*
X12682920Y-12524484D02*
X12701968Y-12534008D01*
X12701968Y-12534008D02*
X12711491Y-12543531D01*
X12711491Y-12543531D02*
X12721015Y-12562579D01*
X12721015Y-12562579D02*
X12721015Y-12581627D01*
X12721015Y-12581627D02*
X12711491Y-12610198D01*
X12711491Y-12610198D02*
X12597206Y-12724484D01*
X12597206Y-12724484D02*
X12721015Y-12724484D01*
X12959110Y-12724484D02*
X12959110Y-12524484D01*
X13044825Y-12724484D02*
X13044825Y-12619722D01*
X13044825Y-12619722D02*
X13035301Y-12600674D01*
X13035301Y-12600674D02*
X13016253Y-12591150D01*
X13016253Y-12591150D02*
X12987682Y-12591150D01*
X12987682Y-12591150D02*
X12968634Y-12600674D01*
X12968634Y-12600674D02*
X12959110Y-12610198D01*
X13168634Y-12724484D02*
X13149587Y-12714960D01*
X13149587Y-12714960D02*
X13140063Y-12705436D01*
X13140063Y-12705436D02*
X13130539Y-12686388D01*
X13130539Y-12686388D02*
X13130539Y-12629246D01*
X13130539Y-12629246D02*
X13140063Y-12610198D01*
X13140063Y-12610198D02*
X13149587Y-12600674D01*
X13149587Y-12600674D02*
X13168634Y-12591150D01*
X13168634Y-12591150D02*
X13197206Y-12591150D01*
X13197206Y-12591150D02*
X13216253Y-12600674D01*
X13216253Y-12600674D02*
X13225777Y-12610198D01*
X13225777Y-12610198D02*
X13235301Y-12629246D01*
X13235301Y-12629246D02*
X13235301Y-12686388D01*
X13235301Y-12686388D02*
X13225777Y-12705436D01*
X13225777Y-12705436D02*
X13216253Y-12714960D01*
X13216253Y-12714960D02*
X13197206Y-12724484D01*
X13197206Y-12724484D02*
X13168634Y-12724484D01*
X13349587Y-12724484D02*
X13330539Y-12714960D01*
X13330539Y-12714960D02*
X13321015Y-12695912D01*
X13321015Y-12695912D02*
X13321015Y-12524484D01*
X13501968Y-12714960D02*
X13482920Y-12724484D01*
X13482920Y-12724484D02*
X13444825Y-12724484D01*
X13444825Y-12724484D02*
X13425777Y-12714960D01*
X13425777Y-12714960D02*
X13416253Y-12695912D01*
X13416253Y-12695912D02*
X13416253Y-12619722D01*
X13416253Y-12619722D02*
X13425777Y-12600674D01*
X13425777Y-12600674D02*
X13444825Y-12591150D01*
X13444825Y-12591150D02*
X13482920Y-12591150D01*
X13482920Y-12591150D02*
X13501968Y-12600674D01*
X13501968Y-12600674D02*
X13511491Y-12619722D01*
X13511491Y-12619722D02*
X13511491Y-12638769D01*
X13511491Y-12638769D02*
X13416253Y-12657817D01*
X13587682Y-12714960D02*
X13606730Y-12724484D01*
X13606730Y-12724484D02*
X13644825Y-12724484D01*
X13644825Y-12724484D02*
X13663872Y-12714960D01*
X13663872Y-12714960D02*
X13673396Y-12695912D01*
X13673396Y-12695912D02*
X13673396Y-12686388D01*
X13673396Y-12686388D02*
X13663872Y-12667341D01*
X13663872Y-12667341D02*
X13644825Y-12657817D01*
X13644825Y-12657817D02*
X13616253Y-12657817D01*
X13616253Y-12657817D02*
X13597206Y-12648293D01*
X13597206Y-12648293D02*
X13587682Y-12629246D01*
X13587682Y-12629246D02*
X13587682Y-12619722D01*
X13587682Y-12619722D02*
X13597206Y-12600674D01*
X13597206Y-12600674D02*
X13616253Y-12591150D01*
X13616253Y-12591150D02*
X13644825Y-12591150D01*
X13644825Y-12591150D02*
X13663872Y-12600674D01*
X13740063Y-12800674D02*
X13749587Y-12791150D01*
X13749587Y-12791150D02*
X13768634Y-12762579D01*
X13768634Y-12762579D02*
X13778158Y-12743531D01*
X13778158Y-12743531D02*
X13787682Y-12714960D01*
X13787682Y-12714960D02*
X13797206Y-12667341D01*
X13797206Y-12667341D02*
X13797206Y-12629246D01*
X13797206Y-12629246D02*
X13787682Y-12581627D01*
X13787682Y-12581627D02*
X13778158Y-12553055D01*
X13778158Y-12553055D02*
X13768634Y-12534008D01*
X13768634Y-12534008D02*
X13749587Y-12505436D01*
X13749587Y-12505436D02*
X13740063Y-12495912D01*
X14101968Y-12800674D02*
X14092444Y-12791150D01*
X14092444Y-12791150D02*
X14073396Y-12762579D01*
X14073396Y-12762579D02*
X14063872Y-12743531D01*
X14063872Y-12743531D02*
X14054349Y-12714960D01*
X14054349Y-12714960D02*
X14044825Y-12667341D01*
X14044825Y-12667341D02*
X14044825Y-12629246D01*
X14044825Y-12629246D02*
X14054349Y-12581627D01*
X14054349Y-12581627D02*
X14063872Y-12553055D01*
X14063872Y-12553055D02*
X14073396Y-12534008D01*
X14073396Y-12534008D02*
X14092444Y-12505436D01*
X14092444Y-12505436D02*
X14101968Y-12495912D01*
X14178158Y-12591150D02*
X14178158Y-12724484D01*
X14178158Y-12610198D02*
X14187682Y-12600674D01*
X14187682Y-12600674D02*
X14206730Y-12591150D01*
X14206730Y-12591150D02*
X14235301Y-12591150D01*
X14235301Y-12591150D02*
X14254349Y-12600674D01*
X14254349Y-12600674D02*
X14263872Y-12619722D01*
X14263872Y-12619722D02*
X14263872Y-12724484D01*
X14387682Y-12724484D02*
X14368634Y-12714960D01*
X14368634Y-12714960D02*
X14359111Y-12705436D01*
X14359111Y-12705436D02*
X14349587Y-12686388D01*
X14349587Y-12686388D02*
X14349587Y-12629246D01*
X14349587Y-12629246D02*
X14359111Y-12610198D01*
X14359111Y-12610198D02*
X14368634Y-12600674D01*
X14368634Y-12600674D02*
X14387682Y-12591150D01*
X14387682Y-12591150D02*
X14416253Y-12591150D01*
X14416253Y-12591150D02*
X14435301Y-12600674D01*
X14435301Y-12600674D02*
X14444825Y-12610198D01*
X14444825Y-12610198D02*
X14454349Y-12629246D01*
X14454349Y-12629246D02*
X14454349Y-12686388D01*
X14454349Y-12686388D02*
X14444825Y-12705436D01*
X14444825Y-12705436D02*
X14435301Y-12714960D01*
X14435301Y-12714960D02*
X14416253Y-12724484D01*
X14416253Y-12724484D02*
X14387682Y-12724484D01*
X14511492Y-12591150D02*
X14587682Y-12591150D01*
X14540063Y-12524484D02*
X14540063Y-12695912D01*
X14540063Y-12695912D02*
X14549587Y-12714960D01*
X14549587Y-12714960D02*
X14568634Y-12724484D01*
X14568634Y-12724484D02*
X14587682Y-12724484D01*
X14806730Y-12591150D02*
X14806730Y-12791150D01*
X14806730Y-12600674D02*
X14825777Y-12591150D01*
X14825777Y-12591150D02*
X14863873Y-12591150D01*
X14863873Y-12591150D02*
X14882920Y-12600674D01*
X14882920Y-12600674D02*
X14892444Y-12610198D01*
X14892444Y-12610198D02*
X14901968Y-12629246D01*
X14901968Y-12629246D02*
X14901968Y-12686388D01*
X14901968Y-12686388D02*
X14892444Y-12705436D01*
X14892444Y-12705436D02*
X14882920Y-12714960D01*
X14882920Y-12714960D02*
X14863873Y-12724484D01*
X14863873Y-12724484D02*
X14825777Y-12724484D01*
X14825777Y-12724484D02*
X14806730Y-12714960D01*
X15016253Y-12724484D02*
X14997206Y-12714960D01*
X14997206Y-12714960D02*
X14987682Y-12695912D01*
X14987682Y-12695912D02*
X14987682Y-12524484D01*
X15178158Y-12724484D02*
X15178158Y-12619722D01*
X15178158Y-12619722D02*
X15168634Y-12600674D01*
X15168634Y-12600674D02*
X15149587Y-12591150D01*
X15149587Y-12591150D02*
X15111492Y-12591150D01*
X15111492Y-12591150D02*
X15092444Y-12600674D01*
X15178158Y-12714960D02*
X15159111Y-12724484D01*
X15159111Y-12724484D02*
X15111492Y-12724484D01*
X15111492Y-12724484D02*
X15092444Y-12714960D01*
X15092444Y-12714960D02*
X15082920Y-12695912D01*
X15082920Y-12695912D02*
X15082920Y-12676865D01*
X15082920Y-12676865D02*
X15092444Y-12657817D01*
X15092444Y-12657817D02*
X15111492Y-12648293D01*
X15111492Y-12648293D02*
X15159111Y-12648293D01*
X15159111Y-12648293D02*
X15178158Y-12638769D01*
X15244825Y-12591150D02*
X15321015Y-12591150D01*
X15273396Y-12524484D02*
X15273396Y-12695912D01*
X15273396Y-12695912D02*
X15282920Y-12714960D01*
X15282920Y-12714960D02*
X15301968Y-12724484D01*
X15301968Y-12724484D02*
X15321015Y-12724484D01*
X15463873Y-12714960D02*
X15444825Y-12724484D01*
X15444825Y-12724484D02*
X15406730Y-12724484D01*
X15406730Y-12724484D02*
X15387682Y-12714960D01*
X15387682Y-12714960D02*
X15378158Y-12695912D01*
X15378158Y-12695912D02*
X15378158Y-12619722D01*
X15378158Y-12619722D02*
X15387682Y-12600674D01*
X15387682Y-12600674D02*
X15406730Y-12591150D01*
X15406730Y-12591150D02*
X15444825Y-12591150D01*
X15444825Y-12591150D02*
X15463873Y-12600674D01*
X15463873Y-12600674D02*
X15473396Y-12619722D01*
X15473396Y-12619722D02*
X15473396Y-12638769D01*
X15473396Y-12638769D02*
X15378158Y-12657817D01*
X15644825Y-12724484D02*
X15644825Y-12524484D01*
X15644825Y-12714960D02*
X15625777Y-12724484D01*
X15625777Y-12724484D02*
X15587682Y-12724484D01*
X15587682Y-12724484D02*
X15568634Y-12714960D01*
X15568634Y-12714960D02*
X15559111Y-12705436D01*
X15559111Y-12705436D02*
X15549587Y-12686388D01*
X15549587Y-12686388D02*
X15549587Y-12629246D01*
X15549587Y-12629246D02*
X15559111Y-12610198D01*
X15559111Y-12610198D02*
X15568634Y-12600674D01*
X15568634Y-12600674D02*
X15587682Y-12591150D01*
X15587682Y-12591150D02*
X15625777Y-12591150D01*
X15625777Y-12591150D02*
X15644825Y-12600674D01*
X15721015Y-12800674D02*
X15730539Y-12791150D01*
X15730539Y-12791150D02*
X15749587Y-12762579D01*
X15749587Y-12762579D02*
X15759111Y-12743531D01*
X15759111Y-12743531D02*
X15768634Y-12714960D01*
X15768634Y-12714960D02*
X15778158Y-12667341D01*
X15778158Y-12667341D02*
X15778158Y-12629246D01*
X15778158Y-12629246D02*
X15768634Y-12581627D01*
X15768634Y-12581627D02*
X15759111Y-12553055D01*
X15759111Y-12553055D02*
X15749587Y-12534008D01*
X15749587Y-12534008D02*
X15730539Y-12505436D01*
X15730539Y-12505436D02*
X15721015Y-12495912D01*
M02*
