G04 #@! TF.GenerationSoftware,KiCad,Pcbnew,8.0.0*
G04 #@! TF.CreationDate,2024-04-04T13:49:03-04:00*
G04 #@! TF.ProjectId,ecg_board,6563675f-626f-4617-9264-2e6b69636164,rev?*
G04 #@! TF.SameCoordinates,Original*
G04 #@! TF.FileFunction,Copper,L2,Bot*
G04 #@! TF.FilePolarity,Positive*
%FSLAX46Y46*%
G04 Gerber Fmt 4.6, Leading zero omitted, Abs format (unit mm)*
G04 Created by KiCad (PCBNEW 8.0.0) date 2024-04-04 13:49:03*
%MOMM*%
%LPD*%
G01*
G04 APERTURE LIST*
G04 Aperture macros list*
%AMRoundRect*
0 Rectangle with rounded corners*
0 $1 Rounding radius*
0 $2 $3 $4 $5 $6 $7 $8 $9 X,Y pos of 4 corners*
0 Add a 4 corners polygon primitive as box body*
4,1,4,$2,$3,$4,$5,$6,$7,$8,$9,$2,$3,0*
0 Add four circle primitives for the rounded corners*
1,1,$1+$1,$2,$3*
1,1,$1+$1,$4,$5*
1,1,$1+$1,$6,$7*
1,1,$1+$1,$8,$9*
0 Add four rect primitives between the rounded corners*
20,1,$1+$1,$2,$3,$4,$5,0*
20,1,$1+$1,$4,$5,$6,$7,0*
20,1,$1+$1,$6,$7,$8,$9,0*
20,1,$1+$1,$8,$9,$2,$3,0*%
G04 Aperture macros list end*
G04 #@! TA.AperFunction,SMDPad,CuDef*
%ADD10RoundRect,0.800000X1.200000X1.200000X-1.200000X1.200000X-1.200000X-1.200000X1.200000X-1.200000X0*%
G04 #@! TD*
G04 #@! TA.AperFunction,HeatsinkPad*
%ADD11C,0.600000*%
G04 #@! TD*
G04 #@! TA.AperFunction,ComponentPad*
%ADD12O,1.000000X2.100000*%
G04 #@! TD*
G04 #@! TA.AperFunction,ComponentPad*
%ADD13O,1.000000X1.600000*%
G04 #@! TD*
G04 #@! TA.AperFunction,SMDPad,CuDef*
%ADD14RoundRect,0.218750X-0.218750X-0.256250X0.218750X-0.256250X0.218750X0.256250X-0.218750X0.256250X0*%
G04 #@! TD*
G04 #@! TA.AperFunction,SMDPad,CuDef*
%ADD15RoundRect,5.000000X7.500000X7.500000X-7.500000X7.500000X-7.500000X-7.500000X7.500000X-7.500000X0*%
G04 #@! TD*
G04 #@! TA.AperFunction,ViaPad*
%ADD16C,1.000000*%
G04 #@! TD*
G04 #@! TA.AperFunction,ViaPad*
%ADD17C,1.700000*%
G04 #@! TD*
G04 #@! TA.AperFunction,ViaPad*
%ADD18C,0.600000*%
G04 #@! TD*
G04 #@! TA.AperFunction,ViaPad*
%ADD19C,1.500000*%
G04 #@! TD*
G04 #@! TA.AperFunction,Conductor*
%ADD20C,0.200000*%
G04 #@! TD*
G04 #@! TA.AperFunction,Conductor*
%ADD21C,0.500000*%
G04 #@! TD*
G04 #@! TA.AperFunction,Conductor*
%ADD22C,1.000000*%
G04 #@! TD*
G04 #@! TA.AperFunction,Conductor*
%ADD23C,0.300000*%
G04 #@! TD*
G04 #@! TA.AperFunction,Conductor*
%ADD24C,0.750000*%
G04 #@! TD*
G04 APERTURE END LIST*
D10*
X121100000Y-77150000D03*
X132700000Y-77150000D03*
X126900000Y-77150000D03*
D11*
X141075000Y-99830000D03*
X141075000Y-98430000D03*
X140375000Y-100530000D03*
X140375000Y-99130000D03*
X140375000Y-97730000D03*
X139675000Y-99830000D03*
X139675000Y-98430000D03*
X138975000Y-100530000D03*
X138975000Y-99130000D03*
X138975000Y-97730000D03*
X138275000Y-99830000D03*
X138275000Y-98430000D03*
D12*
X154245000Y-65925000D03*
D13*
X154245000Y-61745000D03*
D12*
X145605000Y-65925000D03*
D13*
X145605000Y-61745000D03*
D14*
X109250000Y-70000000D03*
X110825000Y-70000000D03*
X137250000Y-67250000D03*
X138825000Y-67250000D03*
D15*
X157000000Y-96500000D03*
D14*
X109250000Y-72350000D03*
X110825000Y-72350000D03*
D15*
X183500000Y-96500000D03*
X108000000Y-96500000D03*
D16*
X121100000Y-81900000D03*
X126900000Y-82050000D03*
X132700000Y-82750000D03*
X144605000Y-69000000D03*
X134137500Y-72150000D03*
X124000000Y-68000000D03*
X155675000Y-69000000D03*
D17*
X118625000Y-68625000D03*
X127437500Y-70050000D03*
D18*
X152200000Y-80000000D03*
X140600000Y-105700000D03*
X143000000Y-107000000D03*
X99000000Y-69750000D03*
X159600000Y-64700000D03*
X197000000Y-73200000D03*
X195000000Y-68300000D03*
X192800000Y-66300000D03*
X135800000Y-103700000D03*
X163500000Y-80400000D03*
X98250000Y-75250000D03*
X181250000Y-111500000D03*
X133250000Y-94250000D03*
X105250000Y-77250000D03*
X170750000Y-111500000D03*
X94450000Y-66600000D03*
X195000000Y-76900000D03*
X137500000Y-107000000D03*
X142300000Y-102900000D03*
X109000000Y-80250000D03*
X104000000Y-112500000D03*
X163800000Y-62200000D03*
X157900000Y-70400000D03*
X116500000Y-78250000D03*
X176400000Y-73600000D03*
X196200000Y-82500000D03*
X177600000Y-72200000D03*
X173500000Y-72600000D03*
X198750000Y-111000000D03*
X189250000Y-79500000D03*
X189500000Y-111500000D03*
X98400000Y-64500000D03*
X164300000Y-68500000D03*
X95250000Y-80750000D03*
X92250000Y-96000000D03*
X178200000Y-64700000D03*
X132500000Y-100000000D03*
X189100000Y-64600000D03*
D16*
X175200000Y-64700000D03*
D18*
X170000000Y-79500000D03*
X196300000Y-63400000D03*
X125750000Y-104750000D03*
X101750000Y-81000000D03*
X103750000Y-61750000D03*
D16*
X140100000Y-85400000D03*
X179825000Y-66500000D03*
X181175000Y-67500000D03*
X141350000Y-87000000D03*
X174500000Y-67150000D03*
X164675000Y-74500000D03*
X139100000Y-91700000D03*
X177675000Y-67150000D03*
D19*
X145000000Y-74500000D03*
D16*
X161175000Y-76000000D03*
X138300000Y-86600000D03*
X184950000Y-71375000D03*
X168956250Y-64368750D03*
X169175000Y-66650000D03*
X182000000Y-72750000D03*
D18*
X175675000Y-71650000D03*
D16*
X170675000Y-76650000D03*
X189700000Y-74700000D03*
X140750000Y-67250000D03*
X185500000Y-83000000D03*
X178500000Y-82500000D03*
X171000000Y-85000000D03*
X181675000Y-76150000D03*
X173750000Y-77000000D03*
X114250000Y-70000000D03*
X114000000Y-72350000D03*
D20*
X121100000Y-81900000D02*
X121100000Y-77150000D01*
X132700000Y-82750000D02*
X132700000Y-77150000D01*
X126900000Y-77150000D02*
X126900000Y-82050000D01*
D21*
X129987500Y-68000000D02*
X134137500Y-72150000D01*
X141455000Y-72150000D02*
X144605000Y-69000000D01*
X134137500Y-72150000D02*
X141455000Y-72150000D01*
X124000000Y-68000000D02*
X129987500Y-68000000D01*
X155675000Y-69000000D02*
X144605000Y-69000000D01*
D22*
X118625000Y-68625000D02*
X120050000Y-70050000D01*
X120050000Y-70050000D02*
X127437500Y-70050000D01*
D23*
X140100000Y-84575000D02*
X147175000Y-77500000D01*
X140100000Y-85400000D02*
X140100000Y-84575000D01*
X179825000Y-67350000D02*
X179825000Y-66500000D01*
X178175000Y-69000000D02*
X179825000Y-67350000D01*
X165700000Y-77500000D02*
X174200000Y-69000000D01*
X147175000Y-77500000D02*
X165700000Y-77500000D01*
X174200000Y-69000000D02*
X178175000Y-69000000D01*
X174300000Y-70500000D02*
X178175000Y-70500000D01*
X141350000Y-87000000D02*
X141350000Y-86150000D01*
X148500000Y-79000000D02*
X165800000Y-79000000D01*
X141350000Y-86150000D02*
X148500000Y-79000000D01*
X165800000Y-79000000D02*
X174300000Y-70500000D01*
X178175000Y-70500000D02*
X181175000Y-67500000D01*
D24*
X177675000Y-67150000D02*
X174500000Y-67150000D01*
X166700000Y-74500000D02*
X164675000Y-74500000D01*
X136300000Y-88900000D02*
X139100000Y-91700000D01*
X145000000Y-74500000D02*
X164675000Y-74500000D01*
X136300000Y-83200000D02*
X136300000Y-88900000D01*
X174500000Y-67150000D02*
X174050000Y-67150000D01*
X174050000Y-67150000D02*
X166700000Y-74500000D01*
X145000000Y-74500000D02*
X136300000Y-83200000D01*
D23*
X146675000Y-76000000D02*
X161175000Y-76000000D01*
X138300000Y-84375000D02*
X146675000Y-76000000D01*
X138300000Y-86600000D02*
X138300000Y-84375000D01*
D20*
X184950000Y-67275000D02*
X184950000Y-71375000D01*
X169425000Y-63900000D02*
X181575000Y-63900000D01*
X168956250Y-64368750D02*
X169425000Y-63900000D01*
X181575000Y-63900000D02*
X184950000Y-67275000D01*
X181600000Y-65600000D02*
X183250000Y-67250000D01*
X169175000Y-66650000D02*
X170225000Y-65600000D01*
X183250000Y-67250000D02*
X183250000Y-71500000D01*
X170225000Y-65600000D02*
X181600000Y-65600000D01*
X183250000Y-71500000D02*
X182000000Y-72750000D01*
X189675000Y-74650000D02*
X178675000Y-74650000D01*
X170675000Y-76650000D02*
X175675000Y-71650000D01*
X178675000Y-74650000D02*
X175675000Y-71650000D01*
D23*
X138825000Y-67250000D02*
X140750000Y-67250000D01*
D24*
X185500000Y-83000000D02*
X184200000Y-84300000D01*
X184200000Y-84300000D02*
X184200000Y-97100000D01*
X178500000Y-82500000D02*
X147000000Y-82500000D01*
X136400000Y-97100000D02*
X107200000Y-97100000D01*
X143000000Y-86500000D02*
X143000000Y-90500000D01*
X147000000Y-82500000D02*
X143000000Y-86500000D01*
X143000000Y-90500000D02*
X136400000Y-97100000D01*
X171000000Y-85000000D02*
X158900000Y-97100000D01*
X158900000Y-97100000D02*
X157300000Y-97100000D01*
D20*
X173750000Y-77000000D02*
X174600000Y-76150000D01*
X174600000Y-76150000D02*
X181675000Y-76150000D01*
X110825000Y-70000000D02*
X114250000Y-70000000D01*
X110825000Y-72350000D02*
X114000000Y-72350000D01*
G04 #@! TA.AperFunction,Conductor*
G36*
X196701603Y-59200570D02*
G01*
X197088938Y-59217481D01*
X197095359Y-59218043D01*
X197478125Y-59268436D01*
X197484482Y-59269557D01*
X197672943Y-59311337D01*
X197861408Y-59353119D01*
X197867632Y-59354786D01*
X198235848Y-59470884D01*
X198241891Y-59473083D01*
X198590685Y-59617559D01*
X198598587Y-59620832D01*
X198604437Y-59623560D01*
X198946884Y-59801827D01*
X198952475Y-59805055D01*
X199278084Y-60012490D01*
X199283369Y-60016190D01*
X199589657Y-60251214D01*
X199594597Y-60255359D01*
X199879244Y-60516191D01*
X199883808Y-60520755D01*
X200144640Y-60805402D01*
X200148790Y-60810348D01*
X200383806Y-61116627D01*
X200387509Y-61121915D01*
X200594944Y-61447524D01*
X200598172Y-61453115D01*
X200776439Y-61795562D01*
X200779167Y-61801412D01*
X200926911Y-62158096D01*
X200929119Y-62164163D01*
X201045210Y-62532359D01*
X201046881Y-62538595D01*
X201130442Y-62915517D01*
X201131563Y-62921874D01*
X201181955Y-63304635D01*
X201182518Y-63311066D01*
X201199430Y-63698396D01*
X201199500Y-63701624D01*
X201199500Y-109598375D01*
X201199430Y-109601603D01*
X201182518Y-109988933D01*
X201181955Y-109995364D01*
X201131563Y-110378125D01*
X201130442Y-110384482D01*
X201046881Y-110761404D01*
X201045210Y-110767640D01*
X200929119Y-111135836D01*
X200926911Y-111141903D01*
X200779167Y-111498587D01*
X200776439Y-111504437D01*
X200598172Y-111846884D01*
X200594944Y-111852475D01*
X200387509Y-112178084D01*
X200383806Y-112183372D01*
X200148790Y-112489651D01*
X200144640Y-112494597D01*
X199883808Y-112779244D01*
X199879244Y-112783808D01*
X199594597Y-113044640D01*
X199589651Y-113048790D01*
X199283372Y-113283806D01*
X199278084Y-113287509D01*
X198952475Y-113494944D01*
X198946884Y-113498172D01*
X198604437Y-113676439D01*
X198598587Y-113679167D01*
X198241903Y-113826911D01*
X198235836Y-113829119D01*
X197867640Y-113945210D01*
X197861404Y-113946881D01*
X197484482Y-114030442D01*
X197478125Y-114031563D01*
X197095364Y-114081955D01*
X197088933Y-114082518D01*
X196701603Y-114099430D01*
X196698375Y-114099500D01*
X162249000Y-114099500D01*
X162196674Y-114077826D01*
X162175000Y-114025500D01*
X162175000Y-109374499D01*
X162196674Y-109322173D01*
X162249000Y-109300499D01*
X164615654Y-109300499D01*
X164615664Y-109300499D01*
X164962409Y-109285361D01*
X164962415Y-109285360D01*
X164962418Y-109285360D01*
X165030937Y-109276339D01*
X165421299Y-109224947D01*
X165873177Y-109124768D01*
X166314605Y-108985586D01*
X166742222Y-108808461D01*
X167152775Y-108594741D01*
X167543138Y-108346052D01*
X167910342Y-108064287D01*
X168251590Y-107751590D01*
X168564287Y-107410342D01*
X168846052Y-107043138D01*
X169094741Y-106652775D01*
X169308461Y-106242222D01*
X169485586Y-105814605D01*
X169624768Y-105373177D01*
X169724947Y-104921299D01*
X169785361Y-104462409D01*
X169800500Y-104115665D01*
X169800500Y-104115654D01*
X170699500Y-104115654D01*
X170714639Y-104462418D01*
X170775052Y-104921291D01*
X170775053Y-104921297D01*
X170875233Y-105373182D01*
X170875236Y-105373193D01*
X171014415Y-105814609D01*
X171191537Y-106242217D01*
X171191541Y-106242225D01*
X171405258Y-106652773D01*
X171405263Y-106652782D01*
X171653944Y-107043132D01*
X171653956Y-107043148D01*
X171935704Y-107410331D01*
X171935706Y-107410333D01*
X171935713Y-107410342D01*
X172248410Y-107751590D01*
X172589658Y-108064287D01*
X172956862Y-108346052D01*
X173347225Y-108594741D01*
X173757778Y-108808461D01*
X174185395Y-108985586D01*
X174423958Y-109060805D01*
X174626806Y-109124763D01*
X174626814Y-109124765D01*
X174626823Y-109124768D01*
X175078701Y-109224947D01*
X175420267Y-109269915D01*
X175537581Y-109285360D01*
X175537584Y-109285360D01*
X175537591Y-109285361D01*
X175884335Y-109300500D01*
X191115664Y-109300499D01*
X191462409Y-109285361D01*
X191462415Y-109285360D01*
X191462418Y-109285360D01*
X191530937Y-109276339D01*
X191921299Y-109224947D01*
X192373177Y-109124768D01*
X192814605Y-108985586D01*
X193242222Y-108808461D01*
X193652775Y-108594741D01*
X194043138Y-108346052D01*
X194410342Y-108064287D01*
X194751590Y-107751590D01*
X195064287Y-107410342D01*
X195346052Y-107043138D01*
X195594741Y-106652775D01*
X195808461Y-106242222D01*
X195985586Y-105814605D01*
X196124768Y-105373177D01*
X196224947Y-104921299D01*
X196285361Y-104462409D01*
X196300500Y-104115665D01*
X196300500Y-101207516D01*
X196680101Y-101207516D01*
X196708941Y-101352507D01*
X196708943Y-101352514D01*
X196765516Y-101489093D01*
X196847649Y-101612014D01*
X196952185Y-101716550D01*
X197075106Y-101798683D01*
X197211685Y-101855256D01*
X197211692Y-101855258D01*
X197260890Y-101865044D01*
X197356682Y-101884099D01*
X197356684Y-101884099D01*
X197504516Y-101884099D01*
X197504518Y-101884099D01*
X197649512Y-101855257D01*
X197786094Y-101798683D01*
X197909015Y-101716550D01*
X198013550Y-101612015D01*
X198095683Y-101489094D01*
X198152257Y-101352512D01*
X198181099Y-101207518D01*
X198181099Y-101059682D01*
X198152257Y-100914688D01*
X198128649Y-100857694D01*
X198095683Y-100778106D01*
X198013550Y-100655185D01*
X197909014Y-100550649D01*
X197786093Y-100468516D01*
X197649514Y-100411943D01*
X197649507Y-100411941D01*
X197545622Y-100391277D01*
X197504518Y-100383101D01*
X197356682Y-100383101D01*
X197320680Y-100390262D01*
X197211692Y-100411941D01*
X197211685Y-100411943D01*
X197075106Y-100468516D01*
X196952185Y-100550649D01*
X196952184Y-100550651D01*
X196847651Y-100655184D01*
X196847649Y-100655185D01*
X196765516Y-100778106D01*
X196708943Y-100914685D01*
X196708941Y-100914692D01*
X196680101Y-101059683D01*
X196680101Y-101207516D01*
X196300500Y-101207516D01*
X196300499Y-93231916D01*
X196680101Y-93231916D01*
X196708941Y-93376907D01*
X196708943Y-93376914D01*
X196765516Y-93513493D01*
X196847649Y-93636414D01*
X196952185Y-93740950D01*
X197075106Y-93823083D01*
X197211685Y-93879656D01*
X197211692Y-93879658D01*
X197260890Y-93889444D01*
X197356682Y-93908499D01*
X197356684Y-93908499D01*
X197504516Y-93908499D01*
X197504518Y-93908499D01*
X197649512Y-93879657D01*
X197786094Y-93823083D01*
X197909015Y-93740950D01*
X198013550Y-93636415D01*
X198095683Y-93513494D01*
X198152257Y-93376912D01*
X198181099Y-93231918D01*
X198181099Y-93084082D01*
X198152257Y-92939088D01*
X198095683Y-92802506D01*
X198013550Y-92679585D01*
X197909015Y-92575050D01*
X197805024Y-92505565D01*
X197786093Y-92492916D01*
X197649514Y-92436343D01*
X197649507Y-92436341D01*
X197545622Y-92415677D01*
X197504518Y-92407501D01*
X197356682Y-92407501D01*
X197320680Y-92414662D01*
X197211692Y-92436341D01*
X197211685Y-92436343D01*
X197075106Y-92492916D01*
X196952185Y-92575049D01*
X196952184Y-92575051D01*
X196847651Y-92679584D01*
X196847649Y-92679585D01*
X196765516Y-92802506D01*
X196708943Y-92939085D01*
X196708941Y-92939092D01*
X196680101Y-93084083D01*
X196680101Y-93231916D01*
X196300499Y-93231916D01*
X196300499Y-88884336D01*
X196285361Y-88537591D01*
X196224947Y-88078701D01*
X196124768Y-87626823D01*
X195985586Y-87185395D01*
X195808461Y-86757778D01*
X195594741Y-86347225D01*
X195346052Y-85956862D01*
X195064287Y-85589658D01*
X194751590Y-85248410D01*
X194410342Y-84935713D01*
X194410333Y-84935706D01*
X194410331Y-84935704D01*
X194155299Y-84740012D01*
X194043138Y-84653948D01*
X193652775Y-84405259D01*
X193242222Y-84191539D01*
X193200467Y-84174243D01*
X192814609Y-84014415D01*
X192373193Y-83875236D01*
X192373182Y-83875233D01*
X192284359Y-83855541D01*
X191921299Y-83775053D01*
X191901566Y-83772455D01*
X191462418Y-83714639D01*
X191298161Y-83707467D01*
X191115665Y-83699500D01*
X191115655Y-83699500D01*
X186111229Y-83699500D01*
X186058903Y-83677826D01*
X186037229Y-83625500D01*
X186058902Y-83573175D01*
X186129816Y-83502262D01*
X186225789Y-83349522D01*
X186248238Y-83285368D01*
X186285365Y-83179263D01*
X186285368Y-83179255D01*
X186305565Y-83000000D01*
X186285368Y-82820745D01*
X186267399Y-82769392D01*
X186225790Y-82650479D01*
X186175684Y-82570736D01*
X186129816Y-82497738D01*
X186002262Y-82370184D01*
X185963054Y-82345547D01*
X185849520Y-82274209D01*
X185679263Y-82214634D01*
X185679256Y-82214632D01*
X185679255Y-82214632D01*
X185500000Y-82194435D01*
X185320745Y-82214632D01*
X185320736Y-82214634D01*
X185150479Y-82274209D01*
X184997739Y-82370183D01*
X184870183Y-82497739D01*
X184774209Y-82650479D01*
X184715192Y-82819141D01*
X184697671Y-82847026D01*
X183866871Y-83677826D01*
X183814545Y-83699500D01*
X175884345Y-83699500D01*
X175537581Y-83714639D01*
X175078708Y-83775052D01*
X175078705Y-83775052D01*
X175078701Y-83775053D01*
X174897170Y-83815297D01*
X174626817Y-83875233D01*
X174626806Y-83875236D01*
X174185390Y-84014415D01*
X173757782Y-84191537D01*
X173757774Y-84191541D01*
X173347226Y-84405258D01*
X173347225Y-84405259D01*
X172956867Y-84653944D01*
X172956851Y-84653956D01*
X172589668Y-84935704D01*
X172589664Y-84935708D01*
X172589661Y-84935710D01*
X172589658Y-84935713D01*
X172248410Y-85248410D01*
X171945239Y-85579263D01*
X171935708Y-85589664D01*
X171935704Y-85589668D01*
X171653956Y-85956851D01*
X171653944Y-85956867D01*
X171405263Y-86347217D01*
X171405258Y-86347226D01*
X171191541Y-86757774D01*
X171191537Y-86757782D01*
X171014415Y-87185390D01*
X170875236Y-87626806D01*
X170875233Y-87626817D01*
X170775053Y-88078702D01*
X170775052Y-88078708D01*
X170714639Y-88537581D01*
X170699500Y-88884344D01*
X170699500Y-104115654D01*
X169800500Y-104115654D01*
X169800499Y-88884336D01*
X169785361Y-88537591D01*
X169724947Y-88078701D01*
X169624768Y-87626823D01*
X169585493Y-87502260D01*
X169567245Y-87444383D01*
X169572181Y-87387962D01*
X169585491Y-87369808D01*
X171152973Y-85802326D01*
X171180851Y-85784809D01*
X171349522Y-85725789D01*
X171502262Y-85629816D01*
X171629816Y-85502262D01*
X171725789Y-85349522D01*
X171785368Y-85179255D01*
X171805565Y-85000000D01*
X171785368Y-84820745D01*
X171759528Y-84746898D01*
X171725790Y-84650479D01*
X171656326Y-84539929D01*
X171629816Y-84497738D01*
X171502262Y-84370184D01*
X171415537Y-84315691D01*
X171349520Y-84274209D01*
X171179263Y-84214634D01*
X171179256Y-84214632D01*
X171179255Y-84214632D01*
X171000000Y-84194435D01*
X170820745Y-84214632D01*
X170820736Y-84214634D01*
X170650479Y-84274209D01*
X170497739Y-84370183D01*
X170370183Y-84497739D01*
X170274209Y-84650479D01*
X170215192Y-84819141D01*
X170197671Y-84847026D01*
X169005339Y-86039358D01*
X168953013Y-86061032D01*
X168900687Y-86039358D01*
X168890602Y-86026792D01*
X168858315Y-85976112D01*
X168846052Y-85956862D01*
X168564287Y-85589658D01*
X168251590Y-85248410D01*
X167910342Y-84935713D01*
X167910333Y-84935706D01*
X167910331Y-84935704D01*
X167655299Y-84740012D01*
X167543138Y-84653948D01*
X167152775Y-84405259D01*
X166742222Y-84191539D01*
X166700467Y-84174243D01*
X166314609Y-84014415D01*
X165873193Y-83875236D01*
X165873182Y-83875233D01*
X165784359Y-83855541D01*
X165421299Y-83775053D01*
X165401566Y-83772455D01*
X164962418Y-83714639D01*
X164798161Y-83707467D01*
X164615665Y-83699500D01*
X164615655Y-83699500D01*
X149384345Y-83699500D01*
X149037581Y-83714639D01*
X148578708Y-83775052D01*
X148578705Y-83775052D01*
X148578701Y-83775053D01*
X148397170Y-83815297D01*
X148126817Y-83875233D01*
X148126806Y-83875236D01*
X147685390Y-84014415D01*
X147257782Y-84191537D01*
X147257774Y-84191541D01*
X146847226Y-84405258D01*
X146847225Y-84405259D01*
X146456867Y-84653944D01*
X146456851Y-84653956D01*
X146089668Y-84935704D01*
X146089664Y-84935708D01*
X146089661Y-84935710D01*
X146089658Y-84935713D01*
X145748410Y-85248410D01*
X145445239Y-85579263D01*
X145435708Y-85589664D01*
X145435704Y-85589668D01*
X145153956Y-85956851D01*
X145153944Y-85956867D01*
X144905263Y-86347217D01*
X144905258Y-86347226D01*
X144691541Y-86757774D01*
X144691537Y-86757782D01*
X144514415Y-87185390D01*
X144375236Y-87626806D01*
X144375233Y-87626817D01*
X144275053Y-88078702D01*
X144275052Y-88078708D01*
X144214639Y-88537581D01*
X144199500Y-88884344D01*
X144199500Y-104115654D01*
X144214639Y-104462418D01*
X144275052Y-104921291D01*
X144275053Y-104921297D01*
X144375233Y-105373182D01*
X144375236Y-105373193D01*
X144514415Y-105814609D01*
X144691537Y-106242217D01*
X144691541Y-106242225D01*
X144905258Y-106652773D01*
X144905263Y-106652782D01*
X145153944Y-107043132D01*
X145153956Y-107043148D01*
X145435704Y-107410331D01*
X145435706Y-107410333D01*
X145435713Y-107410342D01*
X145748410Y-107751590D01*
X146089658Y-108064287D01*
X146089666Y-108064293D01*
X146089668Y-108064295D01*
X146276026Y-108207292D01*
X146304345Y-108256341D01*
X146289686Y-108311048D01*
X146240637Y-108339367D01*
X146230978Y-108340000D01*
X118769022Y-108340000D01*
X118716696Y-108318326D01*
X118695022Y-108266000D01*
X118716696Y-108213674D01*
X118723974Y-108207292D01*
X118766776Y-108174448D01*
X118910342Y-108064287D01*
X119251590Y-107751590D01*
X119564287Y-107410342D01*
X119846052Y-107043138D01*
X120094741Y-106652775D01*
X120308461Y-106242222D01*
X120485586Y-105814605D01*
X120624768Y-105373177D01*
X120724947Y-104921299D01*
X120785361Y-104462409D01*
X120800500Y-104115665D01*
X120800500Y-101108921D01*
X138572854Y-101108921D01*
X138574429Y-101110317D01*
X138724950Y-101189316D01*
X138890005Y-101229999D01*
X138890009Y-101230000D01*
X139059991Y-101230000D01*
X139059994Y-101229999D01*
X139225049Y-101189316D01*
X139375563Y-101110322D01*
X139375567Y-101110319D01*
X139377143Y-101108921D01*
X139972855Y-101108921D01*
X139974429Y-101110317D01*
X140124950Y-101189316D01*
X140290005Y-101229999D01*
X140290009Y-101230000D01*
X140459991Y-101230000D01*
X140459994Y-101229999D01*
X140625049Y-101189316D01*
X140775563Y-101110322D01*
X140775567Y-101110319D01*
X140777143Y-101108921D01*
X140777143Y-101108920D01*
X140375000Y-100706777D01*
X139972855Y-101108921D01*
X139377143Y-101108921D01*
X139377143Y-101108920D01*
X138975000Y-100706777D01*
X138572854Y-101108921D01*
X120800500Y-101108921D01*
X120800500Y-100408921D01*
X137872855Y-100408921D01*
X137874429Y-100410317D01*
X138024950Y-100489316D01*
X138190005Y-100529999D01*
X138190009Y-100530000D01*
X138204301Y-100530000D01*
X138256627Y-100551674D01*
X138277761Y-100595081D01*
X138290347Y-100698745D01*
X138290349Y-100698750D01*
X138350628Y-100857694D01*
X138399591Y-100928629D01*
X138778330Y-100549891D01*
X138875000Y-100549891D01*
X138890224Y-100586645D01*
X138918355Y-100614776D01*
X138955109Y-100630000D01*
X138994891Y-100630000D01*
X139031645Y-100614776D01*
X139059776Y-100586645D01*
X139075000Y-100549891D01*
X139075000Y-100530000D01*
X139151777Y-100530000D01*
X139550406Y-100928629D01*
X139599368Y-100857698D01*
X139599370Y-100857695D01*
X139605808Y-100840720D01*
X139644629Y-100799480D01*
X139701240Y-100797768D01*
X139742480Y-100836589D01*
X139744192Y-100840720D01*
X139750630Y-100857697D01*
X139799591Y-100928629D01*
X140178330Y-100549891D01*
X140275000Y-100549891D01*
X140290224Y-100586645D01*
X140318355Y-100614776D01*
X140355109Y-100630000D01*
X140394891Y-100630000D01*
X140431645Y-100614776D01*
X140459776Y-100586645D01*
X140475000Y-100549891D01*
X140475000Y-100530000D01*
X140551777Y-100530000D01*
X140950406Y-100928629D01*
X140999368Y-100857698D01*
X140999372Y-100857690D01*
X141059650Y-100698750D01*
X141059652Y-100698745D01*
X141072239Y-100595081D01*
X141100062Y-100545749D01*
X141145699Y-100530000D01*
X141159991Y-100530000D01*
X141159994Y-100529999D01*
X141325049Y-100489316D01*
X141475563Y-100410322D01*
X141475567Y-100410319D01*
X141477143Y-100408921D01*
X141477143Y-100408920D01*
X141075000Y-100006777D01*
X140551777Y-100530000D01*
X140475000Y-100530000D01*
X140475000Y-100510109D01*
X140459776Y-100473355D01*
X140431645Y-100445224D01*
X140394891Y-100430000D01*
X140355109Y-100430000D01*
X140318355Y-100445224D01*
X140290224Y-100473355D01*
X140275000Y-100510109D01*
X140275000Y-100549891D01*
X140178330Y-100549891D01*
X140198222Y-100529999D01*
X139675000Y-100006777D01*
X139151777Y-100530000D01*
X139075000Y-100530000D01*
X139075000Y-100510109D01*
X139059776Y-100473355D01*
X139031645Y-100445224D01*
X138994891Y-100430000D01*
X138955109Y-100430000D01*
X138918355Y-100445224D01*
X138890224Y-100473355D01*
X138875000Y-100510109D01*
X138875000Y-100549891D01*
X138778330Y-100549891D01*
X138798222Y-100529999D01*
X138275000Y-100006777D01*
X137872855Y-100408921D01*
X120800500Y-100408921D01*
X120800500Y-99830003D01*
X137569859Y-99830003D01*
X137590347Y-99998746D01*
X137590349Y-99998750D01*
X137650628Y-100157694D01*
X137699591Y-100228629D01*
X138078330Y-99849891D01*
X138175000Y-99849891D01*
X138190224Y-99886645D01*
X138218355Y-99914776D01*
X138255109Y-99930000D01*
X138294891Y-99930000D01*
X138331645Y-99914776D01*
X138359776Y-99886645D01*
X138375000Y-99849891D01*
X138375000Y-99830000D01*
X138451777Y-99830000D01*
X138975000Y-100353223D01*
X139478332Y-99849891D01*
X139575000Y-99849891D01*
X139590224Y-99886645D01*
X139618355Y-99914776D01*
X139655109Y-99930000D01*
X139694891Y-99930000D01*
X139731645Y-99914776D01*
X139759776Y-99886645D01*
X139775000Y-99849891D01*
X139775000Y-99830000D01*
X139851777Y-99830000D01*
X140375000Y-100353223D01*
X140878332Y-99849891D01*
X140975000Y-99849891D01*
X140990224Y-99886645D01*
X141018355Y-99914776D01*
X141055109Y-99930000D01*
X141094891Y-99930000D01*
X141131645Y-99914776D01*
X141159776Y-99886645D01*
X141175000Y-99849891D01*
X141175000Y-99830000D01*
X141251777Y-99830000D01*
X141650406Y-100228629D01*
X141699368Y-100157698D01*
X141699372Y-100157690D01*
X141759650Y-99998750D01*
X141759652Y-99998746D01*
X141780141Y-99830003D01*
X141780141Y-99829996D01*
X141759652Y-99661253D01*
X141759650Y-99661249D01*
X141699372Y-99502308D01*
X141650406Y-99431369D01*
X141251777Y-99829999D01*
X141251777Y-99830000D01*
X141175000Y-99830000D01*
X141175000Y-99810109D01*
X141159776Y-99773355D01*
X141131645Y-99745224D01*
X141094891Y-99730000D01*
X141055109Y-99730000D01*
X141018355Y-99745224D01*
X140990224Y-99773355D01*
X140975000Y-99810109D01*
X140975000Y-99849891D01*
X140878332Y-99849891D01*
X140898223Y-99830000D01*
X140375000Y-99306777D01*
X139851777Y-99830000D01*
X139775000Y-99830000D01*
X139775000Y-99810109D01*
X139759776Y-99773355D01*
X139731645Y-99745224D01*
X139694891Y-99730000D01*
X139655109Y-99730000D01*
X139618355Y-99745224D01*
X139590224Y-99773355D01*
X139575000Y-99810109D01*
X139575000Y-99849891D01*
X139478332Y-99849891D01*
X139498223Y-99830000D01*
X138975000Y-99306777D01*
X138451777Y-99830000D01*
X138375000Y-99830000D01*
X138375000Y-99810109D01*
X138359776Y-99773355D01*
X138331645Y-99745224D01*
X138294891Y-99730000D01*
X138255109Y-99730000D01*
X138218355Y-99745224D01*
X138190224Y-99773355D01*
X138175000Y-99810109D01*
X138175000Y-99849891D01*
X138078330Y-99849891D01*
X138098222Y-99829999D01*
X137699592Y-99431369D01*
X137650628Y-99502305D01*
X137590349Y-99661249D01*
X137590347Y-99661253D01*
X137569859Y-99829996D01*
X137569859Y-99830003D01*
X120800500Y-99830003D01*
X120800500Y-99251078D01*
X137872855Y-99251078D01*
X138275000Y-99653223D01*
X138778332Y-99149891D01*
X138875000Y-99149891D01*
X138890224Y-99186645D01*
X138918355Y-99214776D01*
X138955109Y-99230000D01*
X138994891Y-99230000D01*
X139031645Y-99214776D01*
X139059776Y-99186645D01*
X139075000Y-99149891D01*
X139075000Y-99130000D01*
X139151777Y-99130000D01*
X139675000Y-99653223D01*
X140178332Y-99149891D01*
X140275000Y-99149891D01*
X140290224Y-99186645D01*
X140318355Y-99214776D01*
X140355109Y-99230000D01*
X140394891Y-99230000D01*
X140431645Y-99214776D01*
X140459776Y-99186645D01*
X140475000Y-99149891D01*
X140475000Y-99130000D01*
X140551777Y-99130000D01*
X141074999Y-99653222D01*
X141477144Y-99251077D01*
X141475565Y-99249679D01*
X141372379Y-99195524D01*
X141336119Y-99152016D01*
X141341244Y-99095611D01*
X141372379Y-99064476D01*
X141475563Y-99010321D01*
X141475567Y-99010319D01*
X141477143Y-99008921D01*
X141477143Y-99008920D01*
X141075000Y-98606777D01*
X140551777Y-99130000D01*
X140475000Y-99130000D01*
X140475000Y-99110109D01*
X140459776Y-99073355D01*
X140431645Y-99045224D01*
X140394891Y-99030000D01*
X140355109Y-99030000D01*
X140318355Y-99045224D01*
X140290224Y-99073355D01*
X140275000Y-99110109D01*
X140275000Y-99149891D01*
X140178332Y-99149891D01*
X140198223Y-99130000D01*
X139675000Y-98606777D01*
X139151777Y-99130000D01*
X139075000Y-99130000D01*
X139075000Y-99110109D01*
X139059776Y-99073355D01*
X139031645Y-99045224D01*
X138994891Y-99030000D01*
X138955109Y-99030000D01*
X138918355Y-99045224D01*
X138890224Y-99073355D01*
X138875000Y-99110109D01*
X138875000Y-99149891D01*
X138778332Y-99149891D01*
X138798223Y-99130000D01*
X138275000Y-98606777D01*
X137872855Y-99008921D01*
X137874429Y-99010317D01*
X137977621Y-99064475D01*
X138013881Y-99107983D01*
X138008756Y-99164388D01*
X137977622Y-99195523D01*
X137874433Y-99249681D01*
X137872855Y-99251078D01*
X120800500Y-99251078D01*
X120800500Y-98430003D01*
X137569859Y-98430003D01*
X137590347Y-98598746D01*
X137590349Y-98598750D01*
X137650628Y-98757694D01*
X137699591Y-98828629D01*
X138078330Y-98449891D01*
X138175000Y-98449891D01*
X138190224Y-98486645D01*
X138218355Y-98514776D01*
X138255109Y-98530000D01*
X138294891Y-98530000D01*
X138331645Y-98514776D01*
X138359776Y-98486645D01*
X138375000Y-98449891D01*
X138375000Y-98430000D01*
X138451777Y-98430000D01*
X138975000Y-98953223D01*
X139478332Y-98449891D01*
X139575000Y-98449891D01*
X139590224Y-98486645D01*
X139618355Y-98514776D01*
X139655109Y-98530000D01*
X139694891Y-98530000D01*
X139731645Y-98514776D01*
X139759776Y-98486645D01*
X139775000Y-98449891D01*
X139775000Y-98430000D01*
X139851777Y-98430000D01*
X140375000Y-98953223D01*
X140878332Y-98449891D01*
X140975000Y-98449891D01*
X140990224Y-98486645D01*
X141018355Y-98514776D01*
X141055109Y-98530000D01*
X141094891Y-98530000D01*
X141131645Y-98514776D01*
X141159776Y-98486645D01*
X141175000Y-98449891D01*
X141175000Y-98430000D01*
X141251777Y-98430000D01*
X141650406Y-98828629D01*
X141699368Y-98757698D01*
X141699372Y-98757690D01*
X141759650Y-98598750D01*
X141759652Y-98598746D01*
X141780141Y-98430003D01*
X141780141Y-98429996D01*
X141759652Y-98261253D01*
X141759650Y-98261249D01*
X141699372Y-98102308D01*
X141650406Y-98031369D01*
X141251777Y-98429999D01*
X141251777Y-98430000D01*
X141175000Y-98430000D01*
X141175000Y-98410109D01*
X141159776Y-98373355D01*
X141131645Y-98345224D01*
X141094891Y-98330000D01*
X141055109Y-98330000D01*
X141018355Y-98345224D01*
X140990224Y-98373355D01*
X140975000Y-98410109D01*
X140975000Y-98449891D01*
X140878332Y-98449891D01*
X140898223Y-98430000D01*
X140375000Y-97906777D01*
X139851777Y-98430000D01*
X139775000Y-98430000D01*
X139775000Y-98410109D01*
X139759776Y-98373355D01*
X139731645Y-98345224D01*
X139694891Y-98330000D01*
X139655109Y-98330000D01*
X139618355Y-98345224D01*
X139590224Y-98373355D01*
X139575000Y-98410109D01*
X139575000Y-98449891D01*
X139478332Y-98449891D01*
X139498223Y-98430000D01*
X138975000Y-97906777D01*
X138451777Y-98430000D01*
X138375000Y-98430000D01*
X138375000Y-98410109D01*
X138359776Y-98373355D01*
X138331645Y-98345224D01*
X138294891Y-98330000D01*
X138255109Y-98330000D01*
X138218355Y-98345224D01*
X138190224Y-98373355D01*
X138175000Y-98410109D01*
X138175000Y-98449891D01*
X138078330Y-98449891D01*
X138098222Y-98429999D01*
X137699592Y-98031369D01*
X137650628Y-98102305D01*
X137590349Y-98261249D01*
X137590347Y-98261253D01*
X137569859Y-98429996D01*
X137569859Y-98430003D01*
X120800500Y-98430003D01*
X120800500Y-97851078D01*
X137872855Y-97851078D01*
X138275000Y-98253223D01*
X138778332Y-97749891D01*
X138875000Y-97749891D01*
X138890224Y-97786645D01*
X138918355Y-97814776D01*
X138955109Y-97830000D01*
X138994891Y-97830000D01*
X139031645Y-97814776D01*
X139059776Y-97786645D01*
X139075000Y-97749891D01*
X139075000Y-97730000D01*
X139151777Y-97730000D01*
X139675000Y-98253223D01*
X140178332Y-97749891D01*
X140275000Y-97749891D01*
X140290224Y-97786645D01*
X140318355Y-97814776D01*
X140355109Y-97830000D01*
X140394891Y-97830000D01*
X140431645Y-97814776D01*
X140459776Y-97786645D01*
X140475000Y-97749891D01*
X140475000Y-97730000D01*
X140551777Y-97730000D01*
X141074999Y-98253222D01*
X141477144Y-97851077D01*
X141475565Y-97849679D01*
X141325049Y-97770683D01*
X141159994Y-97730000D01*
X141145699Y-97730000D01*
X141093373Y-97708326D01*
X141072239Y-97664919D01*
X141059652Y-97561254D01*
X141059650Y-97561249D01*
X140999372Y-97402308D01*
X140950406Y-97331369D01*
X140551777Y-97729999D01*
X140551777Y-97730000D01*
X140475000Y-97730000D01*
X140475000Y-97710109D01*
X140459776Y-97673355D01*
X140431645Y-97645224D01*
X140394891Y-97630000D01*
X140355109Y-97630000D01*
X140318355Y-97645224D01*
X140290224Y-97673355D01*
X140275000Y-97710109D01*
X140275000Y-97749891D01*
X140178332Y-97749891D01*
X140198223Y-97730000D01*
X139799592Y-97331369D01*
X139750628Y-97402305D01*
X139744191Y-97419280D01*
X139705370Y-97460520D01*
X139648759Y-97462230D01*
X139607519Y-97423409D01*
X139605809Y-97419280D01*
X139599372Y-97402308D01*
X139550406Y-97331369D01*
X139151777Y-97729999D01*
X139151777Y-97730000D01*
X139075000Y-97730000D01*
X139075000Y-97710109D01*
X139059776Y-97673355D01*
X139031645Y-97645224D01*
X138994891Y-97630000D01*
X138955109Y-97630000D01*
X138918355Y-97645224D01*
X138890224Y-97673355D01*
X138875000Y-97710109D01*
X138875000Y-97749891D01*
X138778332Y-97749891D01*
X138798223Y-97730000D01*
X138399592Y-97331369D01*
X138350628Y-97402305D01*
X138290349Y-97561249D01*
X138290347Y-97561254D01*
X138277761Y-97664919D01*
X138249938Y-97714251D01*
X138204301Y-97730000D01*
X138190005Y-97730000D01*
X138024950Y-97770683D01*
X137874435Y-97849679D01*
X137874433Y-97849680D01*
X137872855Y-97851078D01*
X120800500Y-97851078D01*
X120800500Y-97849500D01*
X120822174Y-97797174D01*
X120874500Y-97775500D01*
X136466530Y-97775500D01*
X136466531Y-97775500D01*
X136597036Y-97749541D01*
X136719969Y-97698620D01*
X136830606Y-97624695D01*
X137304223Y-97151078D01*
X138572855Y-97151078D01*
X138974999Y-97553222D01*
X139377143Y-97151078D01*
X139972855Y-97151078D01*
X140374999Y-97553222D01*
X140777144Y-97151077D01*
X140775565Y-97149679D01*
X140625049Y-97070683D01*
X140459994Y-97030000D01*
X140290005Y-97030000D01*
X140124950Y-97070683D01*
X139974435Y-97149679D01*
X139974433Y-97149680D01*
X139972855Y-97151078D01*
X139377143Y-97151078D01*
X139377144Y-97151077D01*
X139375565Y-97149679D01*
X139225049Y-97070683D01*
X139059994Y-97030000D01*
X138890005Y-97030000D01*
X138724950Y-97070683D01*
X138574435Y-97149679D01*
X138574433Y-97149680D01*
X138572855Y-97151078D01*
X137304223Y-97151078D01*
X143524695Y-90930606D01*
X143524697Y-90930602D01*
X143524699Y-90930601D01*
X143535367Y-90914634D01*
X143535368Y-90914632D01*
X143598620Y-90819969D01*
X143613534Y-90783962D01*
X143649541Y-90697036D01*
X143675500Y-90566531D01*
X143675500Y-90433469D01*
X143675500Y-86810453D01*
X143697174Y-86758127D01*
X147258127Y-83197174D01*
X147310453Y-83175500D01*
X178049125Y-83175500D01*
X178088496Y-83186843D01*
X178150478Y-83225789D01*
X178320745Y-83285368D01*
X178500000Y-83305565D01*
X178679255Y-83285368D01*
X178773872Y-83252260D01*
X178849520Y-83225790D01*
X178849522Y-83225789D01*
X179002262Y-83129816D01*
X179129816Y-83002262D01*
X179225789Y-82849522D01*
X179226663Y-82847026D01*
X179283230Y-82685365D01*
X179285368Y-82679255D01*
X179305565Y-82500000D01*
X179285368Y-82320745D01*
X179269085Y-82274211D01*
X179225790Y-82150479D01*
X179181042Y-82079263D01*
X179129816Y-81997738D01*
X179002262Y-81870184D01*
X178963054Y-81845547D01*
X178849520Y-81774209D01*
X178679263Y-81714634D01*
X178679256Y-81714632D01*
X178679255Y-81714632D01*
X178500000Y-81694435D01*
X178320745Y-81714632D01*
X178320736Y-81714634D01*
X178150476Y-81774211D01*
X178088496Y-81813157D01*
X178049125Y-81824500D01*
X146933469Y-81824500D01*
X146914970Y-81828179D01*
X146802968Y-81850458D01*
X146802961Y-81850460D01*
X146680031Y-81901379D01*
X146569394Y-81975304D01*
X146569393Y-81975306D01*
X142475306Y-86069393D01*
X142475304Y-86069394D01*
X142401378Y-86180034D01*
X142350459Y-86302963D01*
X142350457Y-86302969D01*
X142327031Y-86420745D01*
X142324500Y-86433468D01*
X142324500Y-90189547D01*
X142302826Y-90241873D01*
X136141873Y-96402826D01*
X136089547Y-96424500D01*
X120874499Y-96424500D01*
X120822173Y-96402826D01*
X120800499Y-96350500D01*
X120800499Y-88966530D01*
X135624500Y-88966530D01*
X135650457Y-89097029D01*
X135650459Y-89097036D01*
X135701380Y-89219969D01*
X135750884Y-89294057D01*
X135775304Y-89330605D01*
X138297670Y-91852971D01*
X138315191Y-91880856D01*
X138374209Y-92049520D01*
X138445547Y-92163054D01*
X138470184Y-92202262D01*
X138597738Y-92329816D01*
X138693712Y-92390120D01*
X138750479Y-92425790D01*
X138920736Y-92485365D01*
X138920745Y-92485368D01*
X139100000Y-92505565D01*
X139279255Y-92485368D01*
X139347481Y-92461494D01*
X139449520Y-92425790D01*
X139449522Y-92425789D01*
X139602262Y-92329816D01*
X139729816Y-92202262D01*
X139825789Y-92049522D01*
X139885368Y-91879255D01*
X139905565Y-91700000D01*
X139885368Y-91520745D01*
X139885365Y-91520736D01*
X139825790Y-91350479D01*
X139790120Y-91293712D01*
X139729816Y-91197738D01*
X139602262Y-91070184D01*
X139563054Y-91045547D01*
X139449520Y-90974209D01*
X139280856Y-90915191D01*
X139252971Y-90897670D01*
X136997174Y-88641873D01*
X136975500Y-88589547D01*
X136975500Y-83510452D01*
X136997173Y-83458127D01*
X144883961Y-75571338D01*
X144936286Y-75549665D01*
X144943523Y-75550020D01*
X145000000Y-75555583D01*
X145205934Y-75535300D01*
X145403954Y-75475232D01*
X145586450Y-75377685D01*
X145746410Y-75246410D01*
X145782401Y-75202555D01*
X145832351Y-75175856D01*
X145839604Y-75175500D01*
X160725715Y-75175500D01*
X160778041Y-75197174D01*
X160799715Y-75249500D01*
X160778041Y-75301826D01*
X160765086Y-75312157D01*
X160672742Y-75370180D01*
X160672741Y-75370181D01*
X160545182Y-75497739D01*
X160534418Y-75514871D01*
X160488227Y-75547645D01*
X160471761Y-75549500D01*
X146615689Y-75549500D01*
X146501114Y-75580200D01*
X146398386Y-75639509D01*
X137939508Y-84098389D01*
X137880201Y-84201112D01*
X137877680Y-84210523D01*
X137877679Y-84210522D01*
X137877679Y-84210525D01*
X137849500Y-84315688D01*
X137849500Y-85896761D01*
X137827826Y-85949087D01*
X137814871Y-85959418D01*
X137797742Y-85970180D01*
X137670183Y-86097739D01*
X137574209Y-86250479D01*
X137514634Y-86420736D01*
X137514633Y-86420741D01*
X137514632Y-86420745D01*
X137494435Y-86600000D01*
X137512251Y-86758127D01*
X137514632Y-86779254D01*
X137514634Y-86779263D01*
X137574209Y-86949520D01*
X137605928Y-87000000D01*
X137670184Y-87102262D01*
X137797738Y-87229816D01*
X137893712Y-87290120D01*
X137950479Y-87325790D01*
X138120736Y-87385365D01*
X138120745Y-87385368D01*
X138300000Y-87405565D01*
X138479255Y-87385368D01*
X138581703Y-87349520D01*
X138649520Y-87325790D01*
X138649522Y-87325789D01*
X138802262Y-87229816D01*
X138929816Y-87102262D01*
X139025789Y-86949522D01*
X139085368Y-86779255D01*
X139105565Y-86600000D01*
X139085368Y-86420745D01*
X139085365Y-86420736D01*
X139025790Y-86250479D01*
X138947442Y-86125790D01*
X138929816Y-86097738D01*
X138802262Y-85970184D01*
X138802259Y-85970182D01*
X138802257Y-85970180D01*
X138785129Y-85959418D01*
X138752355Y-85913226D01*
X138750500Y-85896761D01*
X138750500Y-85400000D01*
X139294435Y-85400000D01*
X139314632Y-85579254D01*
X139314634Y-85579263D01*
X139374209Y-85749520D01*
X139407391Y-85802328D01*
X139470184Y-85902262D01*
X139597738Y-86029816D01*
X139660726Y-86069394D01*
X139750479Y-86125790D01*
X139905501Y-86180034D01*
X139920745Y-86185368D01*
X140100000Y-86205565D01*
X140279255Y-86185368D01*
X140347481Y-86161494D01*
X140449520Y-86125790D01*
X140449522Y-86125789D01*
X140602262Y-86029816D01*
X140729816Y-85902262D01*
X140825789Y-85749522D01*
X140885368Y-85579255D01*
X140905565Y-85400000D01*
X140885368Y-85220745D01*
X140870850Y-85179254D01*
X140825790Y-85050479D01*
X140753674Y-84935708D01*
X140729816Y-84897738D01*
X140624414Y-84792336D01*
X140602741Y-84740012D01*
X140624414Y-84687687D01*
X147339929Y-77972174D01*
X147392255Y-77950500D01*
X165759309Y-77950500D01*
X165849673Y-77926286D01*
X165849674Y-77926286D01*
X165860350Y-77923425D01*
X165873887Y-77919799D01*
X165976614Y-77860489D01*
X174364929Y-69472174D01*
X174417255Y-69450500D01*
X178234309Y-69450500D01*
X178324673Y-69426286D01*
X178324674Y-69426286D01*
X178335350Y-69423425D01*
X178348887Y-69419799D01*
X178451614Y-69360489D01*
X180185489Y-67626614D01*
X180224347Y-67559309D01*
X180238895Y-67534110D01*
X180283829Y-67499635D01*
X180339981Y-67507029D01*
X180374458Y-67551964D01*
X180376514Y-67562830D01*
X180382503Y-67615990D01*
X180366823Y-67670413D01*
X180361294Y-67676600D01*
X178010071Y-70027826D01*
X177957745Y-70049500D01*
X174240689Y-70049500D01*
X174126114Y-70080200D01*
X174082695Y-70105267D01*
X174082696Y-70105268D01*
X174023389Y-70139508D01*
X165635071Y-78527826D01*
X165582745Y-78549500D01*
X148440689Y-78549500D01*
X148350326Y-78573713D01*
X148336345Y-78577459D01*
X148326111Y-78580201D01*
X148223389Y-78639508D01*
X140989508Y-85873389D01*
X140930201Y-85976112D01*
X140927680Y-85985523D01*
X140927679Y-85985522D01*
X140927679Y-85985525D01*
X140899500Y-86090688D01*
X140899500Y-86296761D01*
X140877826Y-86349087D01*
X140864871Y-86359418D01*
X140847742Y-86370180D01*
X140720183Y-86497739D01*
X140624209Y-86650479D01*
X140564634Y-86820736D01*
X140564632Y-86820745D01*
X140544435Y-87000000D01*
X140564632Y-87179254D01*
X140564634Y-87179263D01*
X140624209Y-87349520D01*
X140659425Y-87405565D01*
X140720184Y-87502262D01*
X140847738Y-87629816D01*
X140943712Y-87690120D01*
X141000479Y-87725790D01*
X141170736Y-87785365D01*
X141170745Y-87785368D01*
X141350000Y-87805565D01*
X141529255Y-87785368D01*
X141597481Y-87761494D01*
X141699520Y-87725790D01*
X141699522Y-87725789D01*
X141852262Y-87629816D01*
X141979816Y-87502262D01*
X142075789Y-87349522D01*
X142135368Y-87179255D01*
X142155565Y-87000000D01*
X142135368Y-86820745D01*
X142113457Y-86758127D01*
X142075790Y-86650479D01*
X142040120Y-86593712D01*
X141979816Y-86497738D01*
X141861915Y-86379837D01*
X141840242Y-86327513D01*
X141861916Y-86275187D01*
X148664929Y-79472174D01*
X148717255Y-79450500D01*
X165859309Y-79450500D01*
X165949673Y-79426286D01*
X165949674Y-79426286D01*
X165960350Y-79423425D01*
X165973887Y-79419799D01*
X166076614Y-79360489D01*
X174464929Y-70972174D01*
X174517255Y-70950500D01*
X175422536Y-70950500D01*
X175474862Y-70972174D01*
X175496536Y-71024500D01*
X175474862Y-71076826D01*
X175450855Y-71092867D01*
X175372158Y-71125464D01*
X175246720Y-71221715D01*
X175246715Y-71221720D01*
X175150464Y-71347158D01*
X175089955Y-71493238D01*
X175089955Y-71493239D01*
X175069318Y-71649999D01*
X175069318Y-71654849D01*
X175067436Y-71654849D01*
X175054459Y-71703252D01*
X175048084Y-71710521D01*
X170915150Y-75843455D01*
X170862824Y-75865129D01*
X170854539Y-75864664D01*
X170675000Y-75844435D01*
X170495745Y-75864632D01*
X170495736Y-75864634D01*
X170325479Y-75924209D01*
X170172739Y-76020183D01*
X170045183Y-76147739D01*
X169949209Y-76300479D01*
X169889634Y-76470736D01*
X169889632Y-76470745D01*
X169869435Y-76650000D01*
X169889632Y-76829254D01*
X169889634Y-76829263D01*
X169949209Y-76999520D01*
X169980614Y-77049500D01*
X170045184Y-77152262D01*
X170172738Y-77279816D01*
X170268712Y-77340120D01*
X170325479Y-77375790D01*
X170495736Y-77435365D01*
X170495745Y-77435368D01*
X170675000Y-77455565D01*
X170854255Y-77435368D01*
X170922481Y-77411494D01*
X171024520Y-77375790D01*
X171024522Y-77375789D01*
X171177262Y-77279816D01*
X171304816Y-77152262D01*
X171400489Y-77000000D01*
X172944435Y-77000000D01*
X172961590Y-77152260D01*
X172964632Y-77179254D01*
X172964634Y-77179263D01*
X173024209Y-77349520D01*
X173090842Y-77455564D01*
X173120184Y-77502262D01*
X173247738Y-77629816D01*
X173343712Y-77690120D01*
X173400479Y-77725790D01*
X173570736Y-77785365D01*
X173570745Y-77785368D01*
X173750000Y-77805565D01*
X173929255Y-77785368D01*
X173997481Y-77761494D01*
X174099520Y-77725790D01*
X174099522Y-77725789D01*
X174252262Y-77629816D01*
X174379816Y-77502262D01*
X174475789Y-77349522D01*
X174535368Y-77179255D01*
X174555565Y-77000000D01*
X174535368Y-76820745D01*
X174535367Y-76820742D01*
X174535335Y-76820458D01*
X174551014Y-76766035D01*
X174556544Y-76759847D01*
X174744218Y-76572174D01*
X174796544Y-76550500D01*
X180940344Y-76550500D01*
X180992670Y-76572174D01*
X181003002Y-76585130D01*
X181044063Y-76650479D01*
X181045184Y-76652262D01*
X181172738Y-76779816D01*
X181268712Y-76840120D01*
X181325479Y-76875790D01*
X181495736Y-76935365D01*
X181495745Y-76935368D01*
X181675000Y-76955565D01*
X181854255Y-76935368D01*
X181922481Y-76911494D01*
X182024520Y-76875790D01*
X182024522Y-76875789D01*
X182177262Y-76779816D01*
X182304816Y-76652262D01*
X182400789Y-76499522D01*
X182401414Y-76497738D01*
X182460365Y-76329263D01*
X182460368Y-76329255D01*
X182480565Y-76150000D01*
X182460368Y-75970745D01*
X182444085Y-75924211D01*
X182400790Y-75800479D01*
X182306538Y-75650479D01*
X182304816Y-75647738D01*
X182177262Y-75520184D01*
X182121848Y-75485365D01*
X182024520Y-75424209D01*
X181854263Y-75364634D01*
X181854256Y-75364632D01*
X181854255Y-75364632D01*
X181675000Y-75344435D01*
X181495745Y-75364632D01*
X181495736Y-75364634D01*
X181325479Y-75424209D01*
X181172739Y-75520183D01*
X181045181Y-75647741D01*
X181003002Y-75714870D01*
X180956811Y-75747645D01*
X180940344Y-75749500D01*
X174657273Y-75749500D01*
X174657257Y-75749499D01*
X174652727Y-75749499D01*
X174547274Y-75749499D01*
X174547272Y-75749499D01*
X174445416Y-75776791D01*
X174445411Y-75776793D01*
X174354086Y-75829520D01*
X174279518Y-75904089D01*
X173990151Y-76193455D01*
X173937825Y-76215129D01*
X173929540Y-76214664D01*
X173750000Y-76194435D01*
X173570745Y-76214632D01*
X173570736Y-76214634D01*
X173400479Y-76274209D01*
X173247739Y-76370183D01*
X173120183Y-76497739D01*
X173024209Y-76650479D01*
X172964634Y-76820736D01*
X172964632Y-76820745D01*
X172944435Y-77000000D01*
X171400489Y-77000000D01*
X171400789Y-76999522D01*
X171423238Y-76935368D01*
X171460365Y-76829263D01*
X171460368Y-76829255D01*
X171480565Y-76650000D01*
X171460368Y-76470745D01*
X171460367Y-76470742D01*
X171460335Y-76470458D01*
X171476014Y-76416035D01*
X171481535Y-76409856D01*
X175614477Y-72276914D01*
X175666802Y-72255241D01*
X175673524Y-72255682D01*
X175679851Y-72255682D01*
X175679851Y-72257570D01*
X175728234Y-72270525D01*
X175735522Y-72276915D01*
X178351931Y-74893323D01*
X178351936Y-74893329D01*
X178354520Y-74895913D01*
X178429087Y-74970480D01*
X178520413Y-75023207D01*
X178520414Y-75023207D01*
X178520416Y-75023208D01*
X178571343Y-75036854D01*
X178622270Y-75050500D01*
X178622271Y-75050501D01*
X178622273Y-75050501D01*
X178732257Y-75050501D01*
X178732273Y-75050500D01*
X188933927Y-75050500D01*
X188986253Y-75072174D01*
X188996585Y-75085130D01*
X189060495Y-75186843D01*
X189070184Y-75202262D01*
X189197738Y-75329816D01*
X189273921Y-75377685D01*
X189350479Y-75425790D01*
X189520736Y-75485365D01*
X189520745Y-75485368D01*
X189700000Y-75505565D01*
X189879255Y-75485368D01*
X189947481Y-75461494D01*
X190049520Y-75425790D01*
X190052033Y-75424211D01*
X190202262Y-75329816D01*
X190329816Y-75202262D01*
X190425789Y-75049522D01*
X190434477Y-75024695D01*
X190485365Y-74879263D01*
X190485368Y-74879255D01*
X190505565Y-74700000D01*
X190485368Y-74520745D01*
X190478109Y-74500000D01*
X190425790Y-74350479D01*
X190362340Y-74249500D01*
X190329816Y-74197738D01*
X190202262Y-74070184D01*
X190163054Y-74045547D01*
X190049520Y-73974209D01*
X189879263Y-73914634D01*
X189879256Y-73914632D01*
X189879255Y-73914632D01*
X189700000Y-73894435D01*
X189520745Y-73914632D01*
X189520736Y-73914634D01*
X189350479Y-73974209D01*
X189197739Y-74070183D01*
X189070182Y-74197739D01*
X189059418Y-74214871D01*
X189013227Y-74247645D01*
X188996761Y-74249500D01*
X178871544Y-74249500D01*
X178819218Y-74227826D01*
X176301915Y-71710522D01*
X176280241Y-71658196D01*
X176280682Y-71651478D01*
X176280682Y-71650000D01*
X176267876Y-71552727D01*
X176260044Y-71493238D01*
X176199536Y-71347159D01*
X176103282Y-71221718D01*
X176103279Y-71221715D01*
X175977841Y-71125464D01*
X175899145Y-71092867D01*
X175859097Y-71052819D01*
X175859097Y-70996181D01*
X175899145Y-70956133D01*
X175927464Y-70950500D01*
X178234309Y-70950500D01*
X178324673Y-70926286D01*
X178324674Y-70926286D01*
X178335350Y-70923425D01*
X178348887Y-70919799D01*
X178451614Y-70860489D01*
X180998399Y-68313703D01*
X181050724Y-68292030D01*
X181058990Y-68292493D01*
X181175000Y-68305565D01*
X181354255Y-68285368D01*
X181422481Y-68261494D01*
X181524520Y-68225790D01*
X181524522Y-68225789D01*
X181677262Y-68129816D01*
X181804816Y-68002262D01*
X181900789Y-67849522D01*
X181927311Y-67773728D01*
X181960365Y-67679263D01*
X181960368Y-67679255D01*
X181980565Y-67500000D01*
X181960368Y-67320745D01*
X181960365Y-67320736D01*
X181900790Y-67150479D01*
X181840953Y-67055250D01*
X181804816Y-66997738D01*
X181677262Y-66870184D01*
X181638054Y-66845547D01*
X181524520Y-66774209D01*
X181354263Y-66714634D01*
X181354256Y-66714632D01*
X181354255Y-66714632D01*
X181175000Y-66694435D01*
X180995745Y-66714632D01*
X180995736Y-66714634D01*
X180825477Y-66774210D01*
X180686217Y-66861714D01*
X180630380Y-66871201D01*
X180584189Y-66838426D01*
X180574702Y-66782589D01*
X180577000Y-66774615D01*
X180589979Y-66737524D01*
X180610368Y-66679255D01*
X180630565Y-66500000D01*
X180610368Y-66320745D01*
X180550789Y-66150478D01*
X180549068Y-66147739D01*
X180527788Y-66113871D01*
X180518300Y-66058034D01*
X180551074Y-66011843D01*
X180590445Y-66000500D01*
X181403455Y-66000500D01*
X181455781Y-66022174D01*
X182827826Y-67394219D01*
X182849500Y-67446545D01*
X182849500Y-71303454D01*
X182827826Y-71355780D01*
X182240150Y-71943455D01*
X182187824Y-71965129D01*
X182179539Y-71964664D01*
X182000000Y-71944435D01*
X181820745Y-71964632D01*
X181820736Y-71964634D01*
X181650479Y-72024209D01*
X181497739Y-72120183D01*
X181370183Y-72247739D01*
X181274209Y-72400479D01*
X181214634Y-72570736D01*
X181214632Y-72570745D01*
X181194435Y-72750000D01*
X181214632Y-72929254D01*
X181214634Y-72929263D01*
X181274209Y-73099520D01*
X181345547Y-73213054D01*
X181370184Y-73252262D01*
X181497738Y-73379816D01*
X181593712Y-73440120D01*
X181650479Y-73475790D01*
X181820736Y-73535365D01*
X181820745Y-73535368D01*
X182000000Y-73555565D01*
X182179255Y-73535368D01*
X182247481Y-73511494D01*
X182349520Y-73475790D01*
X182349522Y-73475789D01*
X182502262Y-73379816D01*
X182629816Y-73252262D01*
X182725789Y-73099522D01*
X182738529Y-73063115D01*
X182785365Y-72929263D01*
X182785368Y-72929255D01*
X182805565Y-72750000D01*
X182785368Y-72570745D01*
X182785367Y-72570742D01*
X182785335Y-72570458D01*
X182801014Y-72516035D01*
X182806535Y-72509856D01*
X183570480Y-71745913D01*
X183623207Y-71654588D01*
X183650500Y-71552727D01*
X183650500Y-71447273D01*
X183650500Y-67197273D01*
X183650500Y-67197271D01*
X183650499Y-67197270D01*
X183649739Y-67194435D01*
X183623207Y-67095413D01*
X183570480Y-67004087D01*
X183495913Y-66929520D01*
X181845913Y-65279520D01*
X181845910Y-65279518D01*
X181845909Y-65279517D01*
X181754592Y-65226795D01*
X181754588Y-65226793D01*
X181652727Y-65199500D01*
X170277727Y-65199500D01*
X170172273Y-65199500D01*
X170121342Y-65213146D01*
X170070411Y-65226793D01*
X170070407Y-65226795D01*
X169979088Y-65279518D01*
X169415150Y-65843455D01*
X169362824Y-65865129D01*
X169354539Y-65864664D01*
X169175000Y-65844435D01*
X168995745Y-65864632D01*
X168995736Y-65864634D01*
X168825479Y-65924209D01*
X168672739Y-66020183D01*
X168545183Y-66147739D01*
X168449209Y-66300479D01*
X168389634Y-66470736D01*
X168389632Y-66470745D01*
X168369435Y-66650000D01*
X168386279Y-66799500D01*
X168389632Y-66829254D01*
X168389634Y-66829263D01*
X168449209Y-66999520D01*
X168493963Y-67070745D01*
X168545184Y-67152262D01*
X168672738Y-67279816D01*
X168768712Y-67340120D01*
X168825479Y-67375790D01*
X168995736Y-67435365D01*
X168995745Y-67435368D01*
X169175000Y-67455565D01*
X169354255Y-67435368D01*
X169428727Y-67409309D01*
X169524520Y-67375790D01*
X169524522Y-67375789D01*
X169677262Y-67279816D01*
X169804816Y-67152262D01*
X169900789Y-66999522D01*
X169901414Y-66997738D01*
X169960365Y-66829263D01*
X169960368Y-66829255D01*
X169980565Y-66650000D01*
X169960368Y-66470745D01*
X169960367Y-66470742D01*
X169960335Y-66470458D01*
X169976014Y-66416035D01*
X169981534Y-66409857D01*
X170369219Y-66022174D01*
X170421545Y-66000500D01*
X179059555Y-66000500D01*
X179111881Y-66022174D01*
X179133555Y-66074500D01*
X179122212Y-66113871D01*
X179099211Y-66150476D01*
X179039634Y-66320736D01*
X179039632Y-66320745D01*
X179019435Y-66500000D01*
X179033553Y-66625306D01*
X179039632Y-66679254D01*
X179039634Y-66679263D01*
X179099209Y-66849520D01*
X179131229Y-66900479D01*
X179195184Y-67002262D01*
X179263658Y-67070736D01*
X179313083Y-67120161D01*
X179334757Y-67172487D01*
X179313083Y-67224813D01*
X178010071Y-68527826D01*
X177957745Y-68549500D01*
X174140689Y-68549500D01*
X174026114Y-68580200D01*
X173982695Y-68605267D01*
X173982696Y-68605268D01*
X173923389Y-68639508D01*
X165535071Y-77027826D01*
X165482745Y-77049500D01*
X147115689Y-77049500D01*
X147025326Y-77073713D01*
X147011345Y-77077459D01*
X147001111Y-77080201D01*
X146898389Y-77139508D01*
X139739508Y-84298389D01*
X139680202Y-84401110D01*
X139680201Y-84401112D01*
X139680201Y-84401113D01*
X139679090Y-84405258D01*
X139679090Y-84405259D01*
X139649500Y-84515688D01*
X139649500Y-84696761D01*
X139627826Y-84749087D01*
X139614871Y-84759418D01*
X139597742Y-84770180D01*
X139470183Y-84897739D01*
X139374209Y-85050479D01*
X139314634Y-85220736D01*
X139314632Y-85220745D01*
X139294435Y-85400000D01*
X138750500Y-85400000D01*
X138750500Y-84592255D01*
X138772174Y-84539929D01*
X146839930Y-76472174D01*
X146892256Y-76450500D01*
X160471761Y-76450500D01*
X160524087Y-76472174D01*
X160534418Y-76485129D01*
X160545182Y-76502260D01*
X160545183Y-76502261D01*
X160545184Y-76502262D01*
X160672738Y-76629816D01*
X160708461Y-76652262D01*
X160825479Y-76725790D01*
X160940494Y-76766035D01*
X160995745Y-76785368D01*
X161175000Y-76805565D01*
X161354255Y-76785368D01*
X161427190Y-76759847D01*
X161524520Y-76725790D01*
X161524522Y-76725789D01*
X161677262Y-76629816D01*
X161804816Y-76502262D01*
X161900789Y-76349522D01*
X161927142Y-76274211D01*
X161960365Y-76179263D01*
X161960368Y-76179255D01*
X161980565Y-76000000D01*
X161960368Y-75820745D01*
X161944988Y-75776791D01*
X161900790Y-75650479D01*
X161856630Y-75580200D01*
X161804816Y-75497738D01*
X161677262Y-75370184D01*
X161677259Y-75370182D01*
X161677257Y-75370180D01*
X161584914Y-75312157D01*
X161552140Y-75265966D01*
X161561628Y-75210129D01*
X161607819Y-75177355D01*
X161624285Y-75175500D01*
X164224125Y-75175500D01*
X164263496Y-75186843D01*
X164288501Y-75202555D01*
X164325478Y-75225789D01*
X164495745Y-75285368D01*
X164675000Y-75305565D01*
X164854255Y-75285368D01*
X165024522Y-75225789D01*
X165086504Y-75186843D01*
X165125875Y-75175500D01*
X166766530Y-75175500D01*
X166766531Y-75175500D01*
X166897036Y-75149541D01*
X167019969Y-75098620D01*
X167130606Y-75024695D01*
X174213186Y-67942113D01*
X174265511Y-67920440D01*
X174289951Y-67924592D01*
X174320745Y-67935368D01*
X174500000Y-67955565D01*
X174679255Y-67935368D01*
X174849522Y-67875789D01*
X174911504Y-67836843D01*
X174950875Y-67825500D01*
X177224125Y-67825500D01*
X177263496Y-67836843D01*
X177283674Y-67849522D01*
X177325478Y-67875789D01*
X177495745Y-67935368D01*
X177675000Y-67955565D01*
X177854255Y-67935368D01*
X177928936Y-67909236D01*
X178024520Y-67875790D01*
X178024522Y-67875789D01*
X178177262Y-67779816D01*
X178304816Y-67652262D01*
X178400789Y-67499522D01*
X178401414Y-67497738D01*
X178460365Y-67329263D01*
X178460368Y-67329255D01*
X178480565Y-67150000D01*
X178460368Y-66970745D01*
X178425536Y-66871201D01*
X178400790Y-66800479D01*
X178358588Y-66733316D01*
X178304816Y-66647738D01*
X178177262Y-66520184D01*
X178120505Y-66484521D01*
X178024520Y-66424209D01*
X177854263Y-66364634D01*
X177854256Y-66364632D01*
X177854255Y-66364632D01*
X177675000Y-66344435D01*
X177495745Y-66364632D01*
X177495736Y-66364634D01*
X177325476Y-66424211D01*
X177263496Y-66463157D01*
X177224125Y-66474500D01*
X174950875Y-66474500D01*
X174911504Y-66463157D01*
X174849523Y-66424211D01*
X174679263Y-66364634D01*
X174679256Y-66364632D01*
X174679255Y-66364632D01*
X174500000Y-66344435D01*
X174320745Y-66364632D01*
X174320736Y-66364634D01*
X174150476Y-66424211D01*
X174088496Y-66463157D01*
X174049125Y-66474500D01*
X173983469Y-66474500D01*
X173957652Y-66479635D01*
X173852970Y-66500457D01*
X173852963Y-66500459D01*
X173795623Y-66524211D01*
X173730030Y-66551380D01*
X173665123Y-66594750D01*
X173619394Y-66625304D01*
X173619393Y-66625306D01*
X166441873Y-73802826D01*
X166389547Y-73824500D01*
X165125875Y-73824500D01*
X165086504Y-73813157D01*
X165024523Y-73774211D01*
X164854263Y-73714634D01*
X164854256Y-73714632D01*
X164854255Y-73714632D01*
X164675000Y-73694435D01*
X164495745Y-73714632D01*
X164495736Y-73714634D01*
X164325476Y-73774211D01*
X164263496Y-73813157D01*
X164224125Y-73824500D01*
X145839604Y-73824500D01*
X145787278Y-73802826D01*
X145782401Y-73797445D01*
X145746410Y-73753590D01*
X145746409Y-73753589D01*
X145586450Y-73622315D01*
X145403956Y-73524769D01*
X145403955Y-73524768D01*
X145403954Y-73524768D01*
X145292158Y-73490855D01*
X145205935Y-73464700D01*
X145000000Y-73444417D01*
X144794064Y-73464700D01*
X144596043Y-73524769D01*
X144413549Y-73622315D01*
X144253590Y-73753589D01*
X144253589Y-73753590D01*
X144122315Y-73913549D01*
X144024769Y-74096043D01*
X143964700Y-74294064D01*
X143944417Y-74500000D01*
X143949977Y-74556460D01*
X143933535Y-74610658D01*
X143928659Y-74616038D01*
X135775306Y-82769392D01*
X135775304Y-82769394D01*
X135701378Y-82880034D01*
X135650459Y-83002963D01*
X135650457Y-83002969D01*
X135631253Y-83099520D01*
X135626541Y-83123207D01*
X135625227Y-83129816D01*
X135624500Y-83133469D01*
X135624500Y-88966530D01*
X120800499Y-88966530D01*
X120800499Y-88884345D01*
X120798278Y-88833469D01*
X120785361Y-88537591D01*
X120724947Y-88078701D01*
X120624768Y-87626823D01*
X120485586Y-87185395D01*
X120308461Y-86757778D01*
X120094741Y-86347225D01*
X119846052Y-85956862D01*
X119564287Y-85589658D01*
X119251590Y-85248410D01*
X118910342Y-84935713D01*
X118910333Y-84935706D01*
X118910331Y-84935704D01*
X118655299Y-84740012D01*
X118543138Y-84653948D01*
X118152775Y-84405259D01*
X117742222Y-84191539D01*
X117700467Y-84174243D01*
X117314609Y-84014415D01*
X116873193Y-83875236D01*
X116873182Y-83875233D01*
X116784359Y-83855541D01*
X116421299Y-83775053D01*
X116401566Y-83772455D01*
X115962418Y-83714639D01*
X115798161Y-83707467D01*
X115615665Y-83699500D01*
X115615655Y-83699500D01*
X100384345Y-83699500D01*
X100037581Y-83714639D01*
X99578708Y-83775052D01*
X99578705Y-83775052D01*
X99578701Y-83775053D01*
X99397170Y-83815297D01*
X99126817Y-83875233D01*
X99126806Y-83875236D01*
X98685390Y-84014415D01*
X98257782Y-84191537D01*
X98257774Y-84191541D01*
X97847226Y-84405258D01*
X97847225Y-84405259D01*
X97456867Y-84653944D01*
X97456851Y-84653956D01*
X97089668Y-84935704D01*
X97089664Y-84935708D01*
X97089661Y-84935710D01*
X97089658Y-84935713D01*
X96748410Y-85248410D01*
X96445239Y-85579263D01*
X96435708Y-85589664D01*
X96435704Y-85589668D01*
X96153956Y-85956851D01*
X96153944Y-85956867D01*
X95905263Y-86347217D01*
X95905258Y-86347226D01*
X95691541Y-86757774D01*
X95691537Y-86757782D01*
X95514415Y-87185390D01*
X95375236Y-87626806D01*
X95375233Y-87626817D01*
X95275053Y-88078702D01*
X95275052Y-88078708D01*
X95214639Y-88537581D01*
X95199500Y-88884344D01*
X95199500Y-104115654D01*
X95214639Y-104462418D01*
X95275052Y-104921291D01*
X95275053Y-104921297D01*
X95375233Y-105373182D01*
X95375236Y-105373193D01*
X95514415Y-105814609D01*
X95691537Y-106242217D01*
X95691541Y-106242225D01*
X95905258Y-106652773D01*
X95905263Y-106652782D01*
X96153944Y-107043132D01*
X96153956Y-107043148D01*
X96435704Y-107410331D01*
X96435706Y-107410333D01*
X96435713Y-107410342D01*
X96748410Y-107751590D01*
X97089658Y-108064287D01*
X97456862Y-108346052D01*
X97847225Y-108594741D01*
X98257778Y-108808461D01*
X98685395Y-108985586D01*
X98923958Y-109060805D01*
X99126806Y-109124763D01*
X99126814Y-109124765D01*
X99126823Y-109124768D01*
X99578701Y-109224947D01*
X99920267Y-109269915D01*
X100037581Y-109285360D01*
X100037584Y-109285360D01*
X100037591Y-109285361D01*
X100384335Y-109300500D01*
X114101000Y-109300499D01*
X114153326Y-109322173D01*
X114175000Y-109374499D01*
X114175000Y-114025500D01*
X114153326Y-114077826D01*
X114101000Y-114099500D01*
X94701625Y-114099500D01*
X94698397Y-114099430D01*
X94311066Y-114082518D01*
X94304635Y-114081955D01*
X93921874Y-114031563D01*
X93915517Y-114030442D01*
X93538595Y-113946881D01*
X93532359Y-113945210D01*
X93164163Y-113829119D01*
X93158096Y-113826911D01*
X92801412Y-113679167D01*
X92795562Y-113676439D01*
X92453115Y-113498172D01*
X92447524Y-113494944D01*
X92121915Y-113287509D01*
X92116627Y-113283806D01*
X91810348Y-113048790D01*
X91805402Y-113044640D01*
X91520755Y-112783808D01*
X91516191Y-112779244D01*
X91255359Y-112494597D01*
X91251209Y-112489651D01*
X91016193Y-112183372D01*
X91012490Y-112178084D01*
X90805055Y-111852475D01*
X90801827Y-111846884D01*
X90623560Y-111504437D01*
X90620832Y-111498587D01*
X90485072Y-111170834D01*
X90473083Y-111141891D01*
X90470884Y-111135848D01*
X90354786Y-110767632D01*
X90353118Y-110761404D01*
X90269557Y-110384482D01*
X90268436Y-110378125D01*
X90218044Y-109995364D01*
X90217481Y-109988933D01*
X90200570Y-109601603D01*
X90200500Y-109598375D01*
X90200500Y-78434054D01*
X118799500Y-78434054D01*
X118802311Y-78481241D01*
X118802312Y-78481249D01*
X118846986Y-78686611D01*
X118846987Y-78686615D01*
X118929718Y-78879808D01*
X118929720Y-78879811D01*
X118929721Y-78879813D01*
X119047523Y-79053865D01*
X119196135Y-79202477D01*
X119370187Y-79320279D01*
X119370189Y-79320280D01*
X119370191Y-79320281D01*
X119563384Y-79403012D01*
X119563388Y-79403013D01*
X119768755Y-79447688D01*
X119815962Y-79450500D01*
X120625500Y-79450500D01*
X120677826Y-79472174D01*
X120699500Y-79524500D01*
X120699500Y-81165344D01*
X120677826Y-81217670D01*
X120664871Y-81228001D01*
X120597739Y-81270183D01*
X120470183Y-81397739D01*
X120374209Y-81550479D01*
X120314634Y-81720736D01*
X120314632Y-81720745D01*
X120294435Y-81900000D01*
X120314632Y-82079254D01*
X120314634Y-82079263D01*
X120374209Y-82249520D01*
X120418963Y-82320745D01*
X120470184Y-82402262D01*
X120597738Y-82529816D01*
X120633461Y-82552262D01*
X120750479Y-82625790D01*
X120904878Y-82679816D01*
X120920745Y-82685368D01*
X121100000Y-82705565D01*
X121279255Y-82685368D01*
X121378965Y-82650478D01*
X121449520Y-82625790D01*
X121449522Y-82625789D01*
X121602262Y-82529816D01*
X121729816Y-82402262D01*
X121825789Y-82249522D01*
X121826414Y-82247738D01*
X121885365Y-82079263D01*
X121885368Y-82079255D01*
X121905565Y-81900000D01*
X121885368Y-81720745D01*
X121876162Y-81694435D01*
X121825790Y-81550479D01*
X121790120Y-81493712D01*
X121729816Y-81397738D01*
X121602262Y-81270184D01*
X121535129Y-81228001D01*
X121502355Y-81181810D01*
X121500500Y-81165344D01*
X121500500Y-79524500D01*
X121522174Y-79472174D01*
X121574500Y-79450500D01*
X122384037Y-79450500D01*
X122384038Y-79450500D01*
X122431245Y-79447688D01*
X122636612Y-79403013D01*
X122636613Y-79403012D01*
X122636615Y-79403012D01*
X122829808Y-79320281D01*
X122829807Y-79320281D01*
X122829813Y-79320279D01*
X123003865Y-79202477D01*
X123152477Y-79053865D01*
X123270279Y-78879813D01*
X123353013Y-78686612D01*
X123397688Y-78481245D01*
X123400499Y-78434054D01*
X124599500Y-78434054D01*
X124602311Y-78481241D01*
X124602312Y-78481249D01*
X124646986Y-78686611D01*
X124646987Y-78686615D01*
X124729718Y-78879808D01*
X124729720Y-78879811D01*
X124729721Y-78879813D01*
X124847523Y-79053865D01*
X124996135Y-79202477D01*
X125170187Y-79320279D01*
X125170189Y-79320280D01*
X125170191Y-79320281D01*
X125363384Y-79403012D01*
X125363388Y-79403013D01*
X125568755Y-79447688D01*
X125615962Y-79450500D01*
X126425500Y-79450500D01*
X126477826Y-79472174D01*
X126499500Y-79524500D01*
X126499500Y-81315344D01*
X126477826Y-81367670D01*
X126464871Y-81378001D01*
X126397739Y-81420183D01*
X126270183Y-81547739D01*
X126174209Y-81700479D01*
X126114634Y-81870736D01*
X126114632Y-81870745D01*
X126094435Y-82050000D01*
X126112984Y-82214632D01*
X126114632Y-82229254D01*
X126114634Y-82229263D01*
X126174209Y-82399520D01*
X126245547Y-82513054D01*
X126270184Y-82552262D01*
X126397738Y-82679816D01*
X126493712Y-82740120D01*
X126550479Y-82775790D01*
X126708976Y-82831250D01*
X126720745Y-82835368D01*
X126900000Y-82855565D01*
X127079255Y-82835368D01*
X127147481Y-82811494D01*
X127249520Y-82775790D01*
X127249522Y-82775789D01*
X127402262Y-82679816D01*
X127529816Y-82552262D01*
X127625789Y-82399522D01*
X127685368Y-82229255D01*
X127705565Y-82050000D01*
X127685368Y-81870745D01*
X127665217Y-81813157D01*
X127625790Y-81700479D01*
X127531538Y-81550479D01*
X127529816Y-81547738D01*
X127402262Y-81420184D01*
X127335129Y-81378001D01*
X127302355Y-81331810D01*
X127300500Y-81315344D01*
X127300500Y-79524500D01*
X127322174Y-79472174D01*
X127374500Y-79450500D01*
X128184037Y-79450500D01*
X128184038Y-79450500D01*
X128231245Y-79447688D01*
X128436612Y-79403013D01*
X128436613Y-79403012D01*
X128436615Y-79403012D01*
X128629808Y-79320281D01*
X128629807Y-79320281D01*
X128629813Y-79320279D01*
X128803865Y-79202477D01*
X128952477Y-79053865D01*
X129070279Y-78879813D01*
X129153013Y-78686612D01*
X129197688Y-78481245D01*
X129200499Y-78434054D01*
X130399500Y-78434054D01*
X130402311Y-78481241D01*
X130402312Y-78481249D01*
X130446986Y-78686611D01*
X130446987Y-78686615D01*
X130529718Y-78879808D01*
X130529720Y-78879811D01*
X130529721Y-78879813D01*
X130647523Y-79053865D01*
X130796135Y-79202477D01*
X130970187Y-79320279D01*
X130970189Y-79320280D01*
X130970191Y-79320281D01*
X131163384Y-79403012D01*
X131163388Y-79403013D01*
X131368755Y-79447688D01*
X131415962Y-79450500D01*
X132225500Y-79450500D01*
X132277826Y-79472174D01*
X132299500Y-79524500D01*
X132299500Y-82015344D01*
X132277826Y-82067670D01*
X132264871Y-82078001D01*
X132197739Y-82120183D01*
X132070183Y-82247739D01*
X131974209Y-82400479D01*
X131914634Y-82570736D01*
X131914632Y-82570745D01*
X131894435Y-82750000D01*
X131904053Y-82835367D01*
X131914632Y-82929254D01*
X131914634Y-82929263D01*
X131974209Y-83099520D01*
X132029078Y-83186843D01*
X132070184Y-83252262D01*
X132197738Y-83379816D01*
X132293712Y-83440120D01*
X132350479Y-83475790D01*
X132520736Y-83535365D01*
X132520745Y-83535368D01*
X132700000Y-83555565D01*
X132879255Y-83535368D01*
X132973872Y-83502260D01*
X133049520Y-83475790D01*
X133077632Y-83458126D01*
X133202262Y-83379816D01*
X133329816Y-83252262D01*
X133425789Y-83099522D01*
X133485368Y-82929255D01*
X133505565Y-82750000D01*
X133485368Y-82570745D01*
X133478900Y-82552260D01*
X133425790Y-82400479D01*
X133346450Y-82274211D01*
X133329816Y-82247738D01*
X133202262Y-82120184D01*
X133135129Y-82078001D01*
X133102355Y-82031810D01*
X133100500Y-82015344D01*
X133100500Y-79524500D01*
X133122174Y-79472174D01*
X133174500Y-79450500D01*
X133984037Y-79450500D01*
X133984038Y-79450500D01*
X134031245Y-79447688D01*
X134236612Y-79403013D01*
X134236613Y-79403012D01*
X134236615Y-79403012D01*
X134429808Y-79320281D01*
X134429807Y-79320281D01*
X134429813Y-79320279D01*
X134603865Y-79202477D01*
X134752477Y-79053865D01*
X134870279Y-78879813D01*
X134953013Y-78686612D01*
X134997688Y-78481245D01*
X135000500Y-78434038D01*
X135000500Y-75865962D01*
X134997688Y-75818755D01*
X134982622Y-75749500D01*
X134953013Y-75613388D01*
X134953012Y-75613384D01*
X134870281Y-75420191D01*
X134870280Y-75420189D01*
X134870279Y-75420187D01*
X134752477Y-75246135D01*
X134603865Y-75097523D01*
X134429813Y-74979721D01*
X134429811Y-74979720D01*
X134429808Y-74979718D01*
X134236615Y-74896987D01*
X134236611Y-74896986D01*
X134031249Y-74852312D01*
X134031241Y-74852311D01*
X133984054Y-74849500D01*
X133984038Y-74849500D01*
X131415962Y-74849500D01*
X131415945Y-74849500D01*
X131368758Y-74852311D01*
X131368750Y-74852312D01*
X131163388Y-74896986D01*
X131163384Y-74896987D01*
X130970191Y-74979718D01*
X130796136Y-75097522D01*
X130647522Y-75246136D01*
X130529718Y-75420191D01*
X130446987Y-75613384D01*
X130446986Y-75613388D01*
X130402312Y-75818750D01*
X130402311Y-75818758D01*
X130399500Y-75865945D01*
X130399500Y-78434054D01*
X129200499Y-78434054D01*
X129200500Y-78434038D01*
X129200500Y-75865962D01*
X129197688Y-75818755D01*
X129182622Y-75749500D01*
X129153013Y-75613388D01*
X129153012Y-75613384D01*
X129070281Y-75420191D01*
X129070280Y-75420189D01*
X129070279Y-75420187D01*
X128952477Y-75246135D01*
X128803865Y-75097523D01*
X128629813Y-74979721D01*
X128629811Y-74979720D01*
X128629808Y-74979718D01*
X128436615Y-74896987D01*
X128436611Y-74896986D01*
X128231249Y-74852312D01*
X128231241Y-74852311D01*
X128184054Y-74849500D01*
X128184038Y-74849500D01*
X125615962Y-74849500D01*
X125615945Y-74849500D01*
X125568758Y-74852311D01*
X125568750Y-74852312D01*
X125363388Y-74896986D01*
X125363384Y-74896987D01*
X125170191Y-74979718D01*
X124996136Y-75097522D01*
X124847522Y-75246136D01*
X124729718Y-75420191D01*
X124646987Y-75613384D01*
X124646986Y-75613388D01*
X124602312Y-75818750D01*
X124602311Y-75818758D01*
X124599500Y-75865945D01*
X124599500Y-78434054D01*
X123400499Y-78434054D01*
X123400500Y-78434038D01*
X123400500Y-75865962D01*
X123397688Y-75818755D01*
X123382622Y-75749500D01*
X123353013Y-75613388D01*
X123353012Y-75613384D01*
X123270281Y-75420191D01*
X123270280Y-75420189D01*
X123270279Y-75420187D01*
X123152477Y-75246135D01*
X123003865Y-75097523D01*
X122829813Y-74979721D01*
X122829811Y-74979720D01*
X122829808Y-74979718D01*
X122636615Y-74896987D01*
X122636611Y-74896986D01*
X122431249Y-74852312D01*
X122431241Y-74852311D01*
X122384054Y-74849500D01*
X122384038Y-74849500D01*
X119815962Y-74849500D01*
X119815945Y-74849500D01*
X119768758Y-74852311D01*
X119768750Y-74852312D01*
X119563388Y-74896986D01*
X119563384Y-74896987D01*
X119370191Y-74979718D01*
X119196136Y-75097522D01*
X119047522Y-75246136D01*
X118929718Y-75420191D01*
X118846987Y-75613384D01*
X118846986Y-75613388D01*
X118802312Y-75818750D01*
X118802311Y-75818758D01*
X118799500Y-75865945D01*
X118799500Y-78434054D01*
X90200500Y-78434054D01*
X90200500Y-72475000D01*
X108412500Y-72475000D01*
X108412500Y-72668741D01*
X108415260Y-72703815D01*
X108458876Y-72853939D01*
X108538456Y-72988501D01*
X108648998Y-73099043D01*
X108783560Y-73178623D01*
X108933684Y-73222239D01*
X108968759Y-73225000D01*
X109125000Y-73225000D01*
X109125000Y-72475000D01*
X108412500Y-72475000D01*
X90200500Y-72475000D01*
X90200500Y-72225000D01*
X108412500Y-72225000D01*
X109125000Y-72225000D01*
X109125000Y-71475000D01*
X109375000Y-71475000D01*
X109375000Y-73225000D01*
X109531241Y-73225000D01*
X109566315Y-73222239D01*
X109716439Y-73178623D01*
X109851001Y-73099043D01*
X109961543Y-72988501D01*
X110029420Y-72873728D01*
X110074712Y-72839722D01*
X110130784Y-72847702D01*
X110152077Y-72866682D01*
X110235633Y-72976867D01*
X110349368Y-73063115D01*
X110482154Y-73115479D01*
X110555576Y-73124296D01*
X110565597Y-73125500D01*
X110565598Y-73125500D01*
X111084403Y-73125500D01*
X111093349Y-73124425D01*
X111167846Y-73115479D01*
X111300632Y-73063115D01*
X111414367Y-72976867D01*
X111500615Y-72863132D01*
X111526555Y-72797353D01*
X111565914Y-72756626D01*
X111595396Y-72750500D01*
X113265344Y-72750500D01*
X113317670Y-72772174D01*
X113328002Y-72785130D01*
X113367318Y-72847702D01*
X113370184Y-72852262D01*
X113497738Y-72979816D01*
X113593712Y-73040120D01*
X113650479Y-73075790D01*
X113820736Y-73135365D01*
X113820745Y-73135368D01*
X114000000Y-73155565D01*
X114179255Y-73135368D01*
X114283066Y-73099043D01*
X114349520Y-73075790D01*
X114349522Y-73075789D01*
X114502262Y-72979816D01*
X114629816Y-72852262D01*
X114725789Y-72699522D01*
X114785368Y-72529255D01*
X114805565Y-72350000D01*
X114785368Y-72170745D01*
X114778109Y-72150000D01*
X114725790Y-72000479D01*
X114671998Y-71914870D01*
X114629816Y-71847738D01*
X114502262Y-71720184D01*
X114403609Y-71658196D01*
X114349520Y-71624209D01*
X114179263Y-71564634D01*
X114179256Y-71564632D01*
X114179255Y-71564632D01*
X114000000Y-71544435D01*
X113820745Y-71564632D01*
X113820736Y-71564634D01*
X113650479Y-71624209D01*
X113497739Y-71720183D01*
X113370181Y-71847741D01*
X113328002Y-71914870D01*
X113281811Y-71947645D01*
X113265344Y-71949500D01*
X111595396Y-71949500D01*
X111543070Y-71927826D01*
X111526555Y-71902647D01*
X111500615Y-71836868D01*
X111414367Y-71723133D01*
X111414366Y-71723132D01*
X111300631Y-71636884D01*
X111167846Y-71584521D01*
X111084403Y-71574500D01*
X111084402Y-71574500D01*
X110565598Y-71574500D01*
X110565597Y-71574500D01*
X110482153Y-71584521D01*
X110349368Y-71636884D01*
X110235634Y-71723131D01*
X110152079Y-71833316D01*
X110103191Y-71861913D01*
X110048401Y-71847566D01*
X110029420Y-71826271D01*
X109961543Y-71711498D01*
X109851001Y-71600956D01*
X109716439Y-71521376D01*
X109566315Y-71477760D01*
X109531241Y-71475000D01*
X109375000Y-71475000D01*
X109125000Y-71475000D01*
X108968759Y-71475000D01*
X108933684Y-71477760D01*
X108783560Y-71521376D01*
X108648998Y-71600956D01*
X108538456Y-71711498D01*
X108458876Y-71846060D01*
X108415260Y-71996184D01*
X108412500Y-72031258D01*
X108412500Y-72225000D01*
X90200500Y-72225000D01*
X90200500Y-70125000D01*
X108412500Y-70125000D01*
X108412500Y-70318741D01*
X108415260Y-70353815D01*
X108458876Y-70503939D01*
X108538456Y-70638501D01*
X108648998Y-70749043D01*
X108783560Y-70828623D01*
X108933684Y-70872239D01*
X108968759Y-70875000D01*
X109125000Y-70875000D01*
X109125000Y-70125000D01*
X108412500Y-70125000D01*
X90200500Y-70125000D01*
X90200500Y-69875000D01*
X108412500Y-69875000D01*
X109125000Y-69875000D01*
X109125000Y-69125000D01*
X109375000Y-69125000D01*
X109375000Y-70875000D01*
X109531241Y-70875000D01*
X109566315Y-70872239D01*
X109716439Y-70828623D01*
X109851001Y-70749043D01*
X109961543Y-70638501D01*
X110029420Y-70523728D01*
X110074712Y-70489722D01*
X110130784Y-70497702D01*
X110152077Y-70516682D01*
X110235633Y-70626867D01*
X110349368Y-70713115D01*
X110482154Y-70765479D01*
X110555576Y-70774296D01*
X110565597Y-70775500D01*
X110565598Y-70775500D01*
X111084403Y-70775500D01*
X111093349Y-70774425D01*
X111167846Y-70765479D01*
X111300632Y-70713115D01*
X111414367Y-70626867D01*
X111500615Y-70513132D01*
X111526555Y-70447353D01*
X111565914Y-70406626D01*
X111595396Y-70400500D01*
X113515344Y-70400500D01*
X113567670Y-70422174D01*
X113578002Y-70435130D01*
X113617318Y-70497702D01*
X113620184Y-70502262D01*
X113747738Y-70629816D01*
X113814538Y-70671789D01*
X113900479Y-70725790D01*
X114070736Y-70785365D01*
X114070745Y-70785368D01*
X114250000Y-70805565D01*
X114429255Y-70785368D01*
X114533066Y-70749043D01*
X114599520Y-70725790D01*
X114599522Y-70725789D01*
X114752262Y-70629816D01*
X114879816Y-70502262D01*
X114975789Y-70349522D01*
X115035368Y-70179255D01*
X115055565Y-70000000D01*
X115035368Y-69820745D01*
X115035365Y-69820736D01*
X114975790Y-69650479D01*
X114921998Y-69564870D01*
X114879816Y-69497738D01*
X114752262Y-69370184D01*
X114713054Y-69345547D01*
X114599520Y-69274209D01*
X114429263Y-69214634D01*
X114429256Y-69214632D01*
X114429255Y-69214632D01*
X114250000Y-69194435D01*
X114070745Y-69214632D01*
X114070736Y-69214634D01*
X113900479Y-69274209D01*
X113747739Y-69370183D01*
X113620181Y-69497741D01*
X113578002Y-69564870D01*
X113531811Y-69597645D01*
X113515344Y-69599500D01*
X111595396Y-69599500D01*
X111543070Y-69577826D01*
X111526555Y-69552647D01*
X111500615Y-69486868D01*
X111414367Y-69373133D01*
X111414366Y-69373132D01*
X111300631Y-69286884D01*
X111167846Y-69234521D01*
X111084403Y-69224500D01*
X111084402Y-69224500D01*
X110565598Y-69224500D01*
X110565597Y-69224500D01*
X110482153Y-69234521D01*
X110349368Y-69286884D01*
X110235634Y-69373131D01*
X110152079Y-69483316D01*
X110103191Y-69511913D01*
X110048401Y-69497566D01*
X110029420Y-69476271D01*
X109961543Y-69361498D01*
X109851001Y-69250956D01*
X109716439Y-69171376D01*
X109566315Y-69127760D01*
X109531241Y-69125000D01*
X109375000Y-69125000D01*
X109125000Y-69125000D01*
X108968759Y-69125000D01*
X108933684Y-69127760D01*
X108783560Y-69171376D01*
X108648998Y-69250956D01*
X108538456Y-69361498D01*
X108458876Y-69496060D01*
X108415260Y-69646184D01*
X108412500Y-69681258D01*
X108412500Y-69875000D01*
X90200500Y-69875000D01*
X90200500Y-68625003D01*
X117469571Y-68625003D01*
X117489242Y-68837303D01*
X117489243Y-68837309D01*
X117547593Y-69042383D01*
X117547596Y-69042393D01*
X117642632Y-69233252D01*
X117642636Y-69233258D01*
X117671586Y-69271593D01*
X117771128Y-69403407D01*
X117928698Y-69547052D01*
X118109981Y-69659298D01*
X118308802Y-69736321D01*
X118518390Y-69775500D01*
X118612770Y-69775500D01*
X118665096Y-69797174D01*
X119425622Y-70557699D01*
X119425627Y-70557705D01*
X119428211Y-70560289D01*
X119539711Y-70671789D01*
X119670821Y-70759394D01*
X119670826Y-70759396D01*
X119670825Y-70759396D01*
X119709705Y-70775500D01*
X119782289Y-70805565D01*
X119816503Y-70819737D01*
X119971157Y-70850500D01*
X119971158Y-70850500D01*
X126579195Y-70850500D01*
X126629047Y-70869812D01*
X126741198Y-70972052D01*
X126922481Y-71084298D01*
X127121302Y-71161321D01*
X127330890Y-71200500D01*
X127544110Y-71200500D01*
X127753698Y-71161321D01*
X127952519Y-71084298D01*
X128133802Y-70972052D01*
X128291372Y-70828407D01*
X128419866Y-70658255D01*
X128514905Y-70467389D01*
X128573256Y-70262310D01*
X128580952Y-70179263D01*
X128592929Y-70050003D01*
X128592929Y-70049996D01*
X128573257Y-69837696D01*
X128573256Y-69837690D01*
X128558369Y-69785368D01*
X128514905Y-69632611D01*
X128513513Y-69629816D01*
X128419867Y-69441747D01*
X128419863Y-69441741D01*
X128368051Y-69373132D01*
X128291372Y-69271593D01*
X128268734Y-69250956D01*
X128190091Y-69179263D01*
X128133802Y-69127948D01*
X128133498Y-69127760D01*
X127995626Y-69042393D01*
X127952519Y-69015702D01*
X127753698Y-68938679D01*
X127661650Y-68921472D01*
X127544113Y-68899500D01*
X127544110Y-68899500D01*
X127330890Y-68899500D01*
X127330886Y-68899500D01*
X127174170Y-68928796D01*
X127121302Y-68938679D01*
X127121300Y-68938679D01*
X127121298Y-68938680D01*
X126922486Y-69015700D01*
X126922481Y-69015702D01*
X126922476Y-69015704D01*
X126922476Y-69015705D01*
X126741203Y-69127944D01*
X126741199Y-69127946D01*
X126741198Y-69127948D01*
X126629047Y-69230187D01*
X126579195Y-69249500D01*
X120412229Y-69249500D01*
X120359903Y-69227826D01*
X119801706Y-68669629D01*
X119780348Y-68624130D01*
X119778600Y-68605268D01*
X119760756Y-68412690D01*
X119702405Y-68207611D01*
X119695844Y-68194435D01*
X119607367Y-68016747D01*
X119607363Y-68016741D01*
X119594721Y-68000000D01*
X123194435Y-68000000D01*
X123214632Y-68179254D01*
X123214634Y-68179263D01*
X123274209Y-68349520D01*
X123337031Y-68449500D01*
X123370184Y-68502262D01*
X123497738Y-68629816D01*
X123561100Y-68669629D01*
X123650479Y-68725790D01*
X123820736Y-68785365D01*
X123820745Y-68785368D01*
X124000000Y-68805565D01*
X124179255Y-68785368D01*
X124247481Y-68761494D01*
X124349520Y-68725790D01*
X124349522Y-68725789D01*
X124502262Y-68629816D01*
X124531084Y-68600994D01*
X124559905Y-68572174D01*
X124612230Y-68550500D01*
X129728823Y-68550500D01*
X129781149Y-68572174D01*
X133310261Y-72101286D01*
X133328850Y-72146166D01*
X133331470Y-72145871D01*
X133331935Y-72149999D01*
X133331935Y-72150000D01*
X133344055Y-72257570D01*
X133352132Y-72329254D01*
X133352134Y-72329263D01*
X133411709Y-72499520D01*
X133483047Y-72613054D01*
X133507684Y-72652262D01*
X133635238Y-72779816D01*
X133730578Y-72839722D01*
X133787979Y-72875790D01*
X133958236Y-72935365D01*
X133958245Y-72935368D01*
X134137500Y-72955565D01*
X134316755Y-72935368D01*
X134384981Y-72911494D01*
X134487020Y-72875790D01*
X134490302Y-72873728D01*
X134639762Y-72779816D01*
X134669578Y-72750000D01*
X134697405Y-72722174D01*
X134749730Y-72700500D01*
X141527477Y-72700500D01*
X141527477Y-72700499D01*
X141667485Y-72662984D01*
X141695340Y-72646902D01*
X141793015Y-72590510D01*
X144556285Y-69827238D01*
X144601165Y-69808649D01*
X144600870Y-69806030D01*
X144604998Y-69805564D01*
X144605000Y-69805565D01*
X144784255Y-69785368D01*
X144852481Y-69761494D01*
X144954520Y-69725790D01*
X144990634Y-69703098D01*
X145107262Y-69629816D01*
X145139433Y-69597645D01*
X145164905Y-69572174D01*
X145217230Y-69550500D01*
X155062770Y-69550500D01*
X155115095Y-69572174D01*
X155162576Y-69619654D01*
X155172738Y-69629816D01*
X155274564Y-69693798D01*
X155325479Y-69725790D01*
X155495736Y-69785365D01*
X155495745Y-69785368D01*
X155675000Y-69805565D01*
X155854255Y-69785368D01*
X155922481Y-69761494D01*
X156024520Y-69725790D01*
X156060634Y-69703098D01*
X156177262Y-69629816D01*
X156304816Y-69502262D01*
X156400789Y-69349522D01*
X156427142Y-69274211D01*
X156441030Y-69234521D01*
X156460368Y-69179255D01*
X156480565Y-69000000D01*
X156460368Y-68820745D01*
X156427142Y-68725790D01*
X156400790Y-68650479D01*
X156351587Y-68572174D01*
X156304816Y-68497738D01*
X156177262Y-68370184D01*
X156074422Y-68305565D01*
X156024520Y-68274209D01*
X155854263Y-68214634D01*
X155854256Y-68214632D01*
X155854255Y-68214632D01*
X155675000Y-68194435D01*
X155495745Y-68214632D01*
X155495736Y-68214634D01*
X155325479Y-68274209D01*
X155172736Y-68370185D01*
X155115095Y-68427826D01*
X155062770Y-68449500D01*
X145217230Y-68449500D01*
X145164905Y-68427826D01*
X145107263Y-68370185D01*
X145107262Y-68370184D01*
X145004422Y-68305565D01*
X144954520Y-68274209D01*
X144784263Y-68214634D01*
X144784256Y-68214632D01*
X144784255Y-68214632D01*
X144605000Y-68194435D01*
X144425745Y-68214632D01*
X144425736Y-68214634D01*
X144255479Y-68274209D01*
X144102739Y-68370183D01*
X143975183Y-68497739D01*
X143879209Y-68650479D01*
X143819634Y-68820736D01*
X143819632Y-68820745D01*
X143798970Y-69004129D01*
X143796350Y-69003833D01*
X143777761Y-69048713D01*
X141248649Y-71577826D01*
X141196323Y-71599500D01*
X134749730Y-71599500D01*
X134697405Y-71577826D01*
X134639763Y-71520185D01*
X134639762Y-71520184D01*
X134567852Y-71475000D01*
X134487020Y-71424209D01*
X134316763Y-71364634D01*
X134316756Y-71364632D01*
X134316755Y-71364632D01*
X134137500Y-71344435D01*
X134137499Y-71344435D01*
X134133371Y-71343970D01*
X134133666Y-71341350D01*
X134088786Y-71322761D01*
X130325515Y-67559490D01*
X130303712Y-67546902D01*
X130199985Y-67487016D01*
X130136365Y-67469969D01*
X130059977Y-67449500D01*
X130059975Y-67449500D01*
X124612230Y-67449500D01*
X124559905Y-67427826D01*
X124507078Y-67375000D01*
X136412500Y-67375000D01*
X136412500Y-67568741D01*
X136415260Y-67603815D01*
X136458876Y-67753939D01*
X136538456Y-67888501D01*
X136648998Y-67999043D01*
X136783560Y-68078623D01*
X136933684Y-68122239D01*
X136968759Y-68125000D01*
X137125000Y-68125000D01*
X137125000Y-67375000D01*
X136412500Y-67375000D01*
X124507078Y-67375000D01*
X124502263Y-67370185D01*
X124502262Y-67370184D01*
X124437124Y-67329255D01*
X124349520Y-67274209D01*
X124179263Y-67214634D01*
X124179256Y-67214632D01*
X124179255Y-67214632D01*
X124000000Y-67194435D01*
X123820745Y-67214632D01*
X123820736Y-67214634D01*
X123650479Y-67274209D01*
X123497739Y-67370183D01*
X123370183Y-67497739D01*
X123274209Y-67650479D01*
X123214634Y-67820736D01*
X123214632Y-67820745D01*
X123194435Y-68000000D01*
X119594721Y-68000000D01*
X119566866Y-67963115D01*
X119478872Y-67846593D01*
X119450508Y-67820736D01*
X119437094Y-67808507D01*
X119321302Y-67702948D01*
X119317348Y-67700500D01*
X119268756Y-67670413D01*
X119140019Y-67590702D01*
X118941198Y-67513679D01*
X118849150Y-67496472D01*
X118731613Y-67474500D01*
X118731610Y-67474500D01*
X118518390Y-67474500D01*
X118518386Y-67474500D01*
X118361670Y-67503796D01*
X118308802Y-67513679D01*
X118308800Y-67513679D01*
X118308798Y-67513680D01*
X118166669Y-67568741D01*
X118109981Y-67590702D01*
X118109976Y-67590704D01*
X118109976Y-67590705D01*
X117928700Y-67702946D01*
X117771130Y-67846590D01*
X117642636Y-68016741D01*
X117642632Y-68016747D01*
X117547596Y-68207606D01*
X117547593Y-68207616D01*
X117489243Y-68412690D01*
X117489242Y-68412696D01*
X117469571Y-68624996D01*
X117469571Y-68625003D01*
X90200500Y-68625003D01*
X90200500Y-67125000D01*
X136412500Y-67125000D01*
X137125000Y-67125000D01*
X137125000Y-66375000D01*
X137375000Y-66375000D01*
X137375000Y-68125000D01*
X137531241Y-68125000D01*
X137566315Y-68122239D01*
X137716439Y-68078623D01*
X137851001Y-67999043D01*
X137961543Y-67888501D01*
X138029420Y-67773728D01*
X138074712Y-67739722D01*
X138130784Y-67747702D01*
X138152077Y-67766682D01*
X138162037Y-67779816D01*
X138234815Y-67875789D01*
X138235633Y-67876867D01*
X138349368Y-67963115D01*
X138482154Y-68015479D01*
X138555576Y-68024296D01*
X138565597Y-68025500D01*
X138565598Y-68025500D01*
X139084403Y-68025500D01*
X139093349Y-68024425D01*
X139167846Y-68015479D01*
X139300632Y-67963115D01*
X139414367Y-67876867D01*
X139500615Y-67763132D01*
X139506837Y-67747353D01*
X139546195Y-67706627D01*
X139575678Y-67700500D01*
X140046761Y-67700500D01*
X140099087Y-67722174D01*
X140109418Y-67735129D01*
X140120182Y-67752260D01*
X140120183Y-67752261D01*
X140120184Y-67752262D01*
X140247738Y-67879816D01*
X140294560Y-67909236D01*
X140400479Y-67975790D01*
X140570736Y-68035365D01*
X140570745Y-68035368D01*
X140750000Y-68055565D01*
X140929255Y-68035368D01*
X141033066Y-67999043D01*
X141099520Y-67975790D01*
X141099522Y-67975789D01*
X141252262Y-67879816D01*
X141379816Y-67752262D01*
X141475789Y-67599522D01*
X141478876Y-67590702D01*
X141521121Y-67469970D01*
X141535368Y-67429255D01*
X141555565Y-67250000D01*
X141535368Y-67070745D01*
X141529946Y-67055249D01*
X141475790Y-66900479D01*
X141431042Y-66829263D01*
X141379816Y-66747738D01*
X141252262Y-66620184D01*
X141205491Y-66590796D01*
X141162275Y-66563641D01*
X144705000Y-66563641D01*
X144739584Y-66737513D01*
X144739587Y-66737524D01*
X144807427Y-66901305D01*
X144905923Y-67048716D01*
X145031283Y-67174076D01*
X145178695Y-67272572D01*
X145178694Y-67272572D01*
X145342475Y-67340412D01*
X145342486Y-67340415D01*
X145479999Y-67367768D01*
X145480000Y-67367767D01*
X145480000Y-66749242D01*
X145489204Y-66754556D01*
X145565504Y-66775000D01*
X145644496Y-66775000D01*
X145720796Y-66754556D01*
X145730000Y-66749242D01*
X145730000Y-67367768D01*
X145867513Y-67340415D01*
X145867524Y-67340412D01*
X146031305Y-67272572D01*
X146178716Y-67174076D01*
X146178718Y-67174075D01*
X146304075Y-67048718D01*
X146304076Y-67048716D01*
X146402572Y-66901305D01*
X146470412Y-66737524D01*
X146470415Y-66737513D01*
X146505000Y-66563641D01*
X146505000Y-66050000D01*
X145905000Y-66050000D01*
X145905000Y-65800000D01*
X146514568Y-65800000D01*
X146550558Y-65785091D01*
X146602882Y-65806762D01*
X146681635Y-65885515D01*
X146812865Y-65961281D01*
X146959231Y-66000499D01*
X146959232Y-66000500D01*
X146959234Y-66000500D01*
X147110768Y-66000500D01*
X147110768Y-66000499D01*
X147257135Y-65961281D01*
X147388365Y-65885515D01*
X147495515Y-65778365D01*
X147571281Y-65647135D01*
X147610499Y-65500768D01*
X147610500Y-65500768D01*
X152239500Y-65500768D01*
X152278717Y-65647130D01*
X152278718Y-65647133D01*
X152278719Y-65647135D01*
X152354485Y-65778365D01*
X152461635Y-65885515D01*
X152592865Y-65961281D01*
X152739231Y-66000499D01*
X152739232Y-66000500D01*
X152739234Y-66000500D01*
X152890768Y-66000500D01*
X152890768Y-66000499D01*
X153037135Y-65961281D01*
X153168365Y-65885515D01*
X153247116Y-65806763D01*
X153299439Y-65785091D01*
X153335433Y-65800000D01*
X153945000Y-65800000D01*
X153945000Y-66050000D01*
X153345000Y-66050000D01*
X153345000Y-66563641D01*
X153379584Y-66737513D01*
X153379587Y-66737524D01*
X153447427Y-66901305D01*
X153545923Y-67048716D01*
X153671283Y-67174076D01*
X153818695Y-67272572D01*
X153818694Y-67272572D01*
X153982475Y-67340412D01*
X153982486Y-67340415D01*
X154119999Y-67367768D01*
X154120000Y-67367767D01*
X154120000Y-66749242D01*
X154129204Y-66754556D01*
X154205504Y-66775000D01*
X154284496Y-66775000D01*
X154360796Y-66754556D01*
X154370000Y-66749242D01*
X154370000Y-67367768D01*
X154507513Y-67340415D01*
X154507524Y-67340412D01*
X154671305Y-67272572D01*
X154818716Y-67174076D01*
X154818718Y-67174075D01*
X154944075Y-67048718D01*
X154944076Y-67048716D01*
X155042572Y-66901305D01*
X155110412Y-66737524D01*
X155110415Y-66737513D01*
X155145000Y-66563641D01*
X155145000Y-66050000D01*
X154545000Y-66050000D01*
X154545000Y-65800000D01*
X155145000Y-65800000D01*
X155145000Y-65286358D01*
X155110415Y-65112486D01*
X155110412Y-65112475D01*
X155042572Y-64948694D01*
X154944076Y-64801283D01*
X154818716Y-64675923D01*
X154671304Y-64577427D01*
X154671305Y-64577427D01*
X154507524Y-64509587D01*
X154507514Y-64509584D01*
X154370000Y-64482231D01*
X154370000Y-65100757D01*
X154360796Y-65095444D01*
X154284496Y-65075000D01*
X154205504Y-65075000D01*
X154129204Y-65095444D01*
X154120000Y-65100757D01*
X154120000Y-64482231D01*
X154119999Y-64482231D01*
X153982485Y-64509584D01*
X153982475Y-64509587D01*
X153818694Y-64577427D01*
X153671283Y-64675923D01*
X153671282Y-64675925D01*
X153545925Y-64801282D01*
X153545923Y-64801283D01*
X153447428Y-64948693D01*
X153403138Y-65055620D01*
X153363089Y-65095668D01*
X153306452Y-65095668D01*
X153279229Y-65074779D01*
X153278944Y-65075065D01*
X153276779Y-65072900D01*
X153276066Y-65072353D01*
X153275518Y-65071639D01*
X153275516Y-65071637D01*
X153275515Y-65071635D01*
X153168365Y-64964485D01*
X153168362Y-64964483D01*
X153037139Y-64888721D01*
X153037130Y-64888717D01*
X152890768Y-64849500D01*
X152890766Y-64849500D01*
X152739234Y-64849500D01*
X152739232Y-64849500D01*
X152592869Y-64888717D01*
X152592860Y-64888721D01*
X152461637Y-64964483D01*
X152354483Y-65071637D01*
X152278721Y-65202860D01*
X152278717Y-65202869D01*
X152239500Y-65349231D01*
X152239500Y-65500768D01*
X147610500Y-65500768D01*
X147610500Y-65349232D01*
X147610499Y-65349231D01*
X147593652Y-65286358D01*
X147571281Y-65202865D01*
X147495515Y-65071635D01*
X147388365Y-64964485D01*
X147388362Y-64964483D01*
X147257139Y-64888721D01*
X147257130Y-64888717D01*
X147110768Y-64849500D01*
X147110766Y-64849500D01*
X146959234Y-64849500D01*
X146959232Y-64849500D01*
X146812869Y-64888717D01*
X146812860Y-64888721D01*
X146681637Y-64964483D01*
X146574478Y-65071642D01*
X146573927Y-65072361D01*
X146573532Y-65072588D01*
X146571056Y-65075065D01*
X146570392Y-65074401D01*
X146524872Y-65100670D01*
X146470168Y-65086000D01*
X146446861Y-65055619D01*
X146402572Y-64948694D01*
X146304076Y-64801283D01*
X146178716Y-64675923D01*
X146031304Y-64577427D01*
X146031305Y-64577427D01*
X145867524Y-64509587D01*
X145867514Y-64509584D01*
X145730000Y-64482231D01*
X145730000Y-65100757D01*
X145720796Y-65095444D01*
X145644496Y-65075000D01*
X145565504Y-65075000D01*
X145489204Y-65095444D01*
X145480000Y-65100757D01*
X145480000Y-64482231D01*
X145479999Y-64482231D01*
X145342485Y-64509584D01*
X145342475Y-64509587D01*
X145178694Y-64577427D01*
X145031283Y-64675923D01*
X145031282Y-64675925D01*
X144905925Y-64801282D01*
X144905923Y-64801283D01*
X144807427Y-64948694D01*
X144739587Y-65112475D01*
X144739584Y-65112486D01*
X144705000Y-65286358D01*
X144705000Y-65800000D01*
X145305000Y-65800000D01*
X145305000Y-66050000D01*
X144705000Y-66050000D01*
X144705000Y-66563641D01*
X141162275Y-66563641D01*
X141099520Y-66524209D01*
X140929263Y-66464634D01*
X140929256Y-66464632D01*
X140929255Y-66464632D01*
X140750000Y-66444435D01*
X140570745Y-66464632D01*
X140570736Y-66464634D01*
X140400479Y-66524209D01*
X140247739Y-66620183D01*
X140120182Y-66747739D01*
X140109418Y-66764871D01*
X140063227Y-66797645D01*
X140046761Y-66799500D01*
X139575678Y-66799500D01*
X139523352Y-66777826D01*
X139506837Y-66752646D01*
X139504902Y-66747739D01*
X139500615Y-66736868D01*
X139414367Y-66623133D01*
X139414365Y-66623131D01*
X139300631Y-66536884D01*
X139167846Y-66484521D01*
X139084403Y-66474500D01*
X139084402Y-66474500D01*
X138565598Y-66474500D01*
X138565597Y-66474500D01*
X138482153Y-66484521D01*
X138349368Y-66536884D01*
X138235634Y-66623131D01*
X138152079Y-66733316D01*
X138103191Y-66761913D01*
X138048401Y-66747566D01*
X138029420Y-66726271D01*
X137961543Y-66611498D01*
X137851001Y-66500956D01*
X137716439Y-66421376D01*
X137566315Y-66377760D01*
X137531241Y-66375000D01*
X137375000Y-66375000D01*
X137125000Y-66375000D01*
X136968759Y-66375000D01*
X136933684Y-66377760D01*
X136783560Y-66421376D01*
X136648998Y-66500956D01*
X136538456Y-66611498D01*
X136458876Y-66746060D01*
X136415260Y-66896184D01*
X136412500Y-66931258D01*
X136412500Y-67125000D01*
X90200500Y-67125000D01*
X90200500Y-64368750D01*
X168150685Y-64368750D01*
X168170882Y-64548004D01*
X168170884Y-64548013D01*
X168230459Y-64718270D01*
X168282620Y-64801283D01*
X168326434Y-64871012D01*
X168453988Y-64998566D01*
X168544787Y-65055619D01*
X168606729Y-65094540D01*
X168722187Y-65134940D01*
X168776995Y-65154118D01*
X168956250Y-65174315D01*
X169135505Y-65154118D01*
X169203731Y-65130244D01*
X169305770Y-65094540D01*
X169305772Y-65094539D01*
X169458512Y-64998566D01*
X169586066Y-64871012D01*
X169682039Y-64718272D01*
X169741618Y-64548005D01*
X169761815Y-64368750D01*
X169761814Y-64368747D01*
X169762100Y-64366215D01*
X169789497Y-64316645D01*
X169835635Y-64300500D01*
X181378455Y-64300500D01*
X181430781Y-64322174D01*
X184527826Y-67419218D01*
X184549500Y-67471544D01*
X184549500Y-70640344D01*
X184527826Y-70692670D01*
X184514871Y-70703001D01*
X184447739Y-70745183D01*
X184320183Y-70872739D01*
X184224209Y-71025479D01*
X184164634Y-71195736D01*
X184164632Y-71195745D01*
X184144435Y-71375000D01*
X184160927Y-71521376D01*
X184164632Y-71554254D01*
X184164634Y-71554263D01*
X184224209Y-71724520D01*
X184288144Y-71826271D01*
X184320184Y-71877262D01*
X184447738Y-72004816D01*
X184524578Y-72053098D01*
X184600479Y-72100790D01*
X184770736Y-72160365D01*
X184770745Y-72160368D01*
X184950000Y-72180565D01*
X185129255Y-72160368D01*
X185228336Y-72125698D01*
X185299520Y-72100790D01*
X185299522Y-72100789D01*
X185452262Y-72004816D01*
X185579816Y-71877262D01*
X185675789Y-71724522D01*
X185676276Y-71723132D01*
X185735365Y-71554263D01*
X185735368Y-71554255D01*
X185755565Y-71375000D01*
X185735368Y-71195745D01*
X185710776Y-71125464D01*
X185675790Y-71025479D01*
X185609386Y-70919799D01*
X185579816Y-70872738D01*
X185452262Y-70745184D01*
X185385129Y-70703001D01*
X185352355Y-70656810D01*
X185350500Y-70640344D01*
X185350500Y-67222274D01*
X185348453Y-67214634D01*
X185326007Y-67130861D01*
X185323207Y-67120412D01*
X185307305Y-67092871D01*
X185285585Y-67055249D01*
X185285584Y-67055248D01*
X185270480Y-67029087D01*
X185193334Y-66951941D01*
X185193323Y-66951931D01*
X183520909Y-65279517D01*
X181820913Y-63579520D01*
X181820910Y-63579518D01*
X181820909Y-63579517D01*
X181729592Y-63526795D01*
X181729588Y-63526793D01*
X181729581Y-63526791D01*
X181627727Y-63499500D01*
X181627726Y-63499500D01*
X169482273Y-63499500D01*
X169482257Y-63499499D01*
X169477727Y-63499499D01*
X169372273Y-63499499D01*
X169372271Y-63499499D01*
X169270416Y-63526791D01*
X169270407Y-63526795D01*
X169187095Y-63574895D01*
X169139838Y-63582027D01*
X169139633Y-63583848D01*
X169135508Y-63583383D01*
X169135505Y-63583382D01*
X168956250Y-63563185D01*
X168956249Y-63563185D01*
X168776995Y-63583382D01*
X168776986Y-63583384D01*
X168606729Y-63642959D01*
X168453989Y-63738933D01*
X168326433Y-63866489D01*
X168230459Y-64019229D01*
X168170884Y-64189486D01*
X168170882Y-64189495D01*
X168150685Y-64368750D01*
X90200500Y-64368750D01*
X90200500Y-63701624D01*
X90200570Y-63698396D01*
X90205571Y-63583848D01*
X90217481Y-63311059D01*
X90218044Y-63304635D01*
X90266344Y-62937768D01*
X90268436Y-62921869D01*
X90269557Y-62915517D01*
X90307565Y-62744075D01*
X90353120Y-62538585D01*
X90354785Y-62532373D01*
X90470887Y-62164143D01*
X90473080Y-62158116D01*
X90483218Y-62133641D01*
X144705000Y-62133641D01*
X144739584Y-62307513D01*
X144739587Y-62307524D01*
X144807427Y-62471305D01*
X144905923Y-62618716D01*
X145031283Y-62744076D01*
X145178695Y-62842572D01*
X145178694Y-62842572D01*
X145342475Y-62910412D01*
X145342486Y-62910415D01*
X145479999Y-62937768D01*
X145480000Y-62937767D01*
X145480000Y-62319242D01*
X145489204Y-62324556D01*
X145565504Y-62345000D01*
X145644496Y-62345000D01*
X145720796Y-62324556D01*
X145730000Y-62319242D01*
X145730000Y-62937768D01*
X145867513Y-62910415D01*
X145867524Y-62910412D01*
X146031305Y-62842572D01*
X146178716Y-62744076D01*
X146178718Y-62744075D01*
X146304075Y-62618718D01*
X146304076Y-62618716D01*
X146402572Y-62471305D01*
X146470412Y-62307524D01*
X146470415Y-62307513D01*
X146505000Y-62133641D01*
X153345000Y-62133641D01*
X153379584Y-62307513D01*
X153379587Y-62307524D01*
X153447427Y-62471305D01*
X153545923Y-62618716D01*
X153671283Y-62744076D01*
X153818695Y-62842572D01*
X153818694Y-62842572D01*
X153982475Y-62910412D01*
X153982486Y-62910415D01*
X154119999Y-62937768D01*
X154120000Y-62937767D01*
X154120000Y-62319242D01*
X154129204Y-62324556D01*
X154205504Y-62345000D01*
X154284496Y-62345000D01*
X154360796Y-62324556D01*
X154370000Y-62319242D01*
X154370000Y-62937768D01*
X154507513Y-62910415D01*
X154507524Y-62910412D01*
X154671305Y-62842572D01*
X154818716Y-62744076D01*
X154818718Y-62744075D01*
X154944075Y-62618718D01*
X154944076Y-62618716D01*
X155042572Y-62471305D01*
X155110412Y-62307524D01*
X155110415Y-62307513D01*
X155145000Y-62133641D01*
X155145000Y-61870000D01*
X154545000Y-61870000D01*
X154545000Y-61620000D01*
X155145000Y-61620000D01*
X155145000Y-61356358D01*
X155110415Y-61182486D01*
X155110412Y-61182475D01*
X155042572Y-61018694D01*
X154944076Y-60871283D01*
X154818716Y-60745923D01*
X154671304Y-60647427D01*
X154671305Y-60647427D01*
X154507524Y-60579587D01*
X154507514Y-60579584D01*
X154370000Y-60552231D01*
X154370000Y-61170757D01*
X154360796Y-61165444D01*
X154284496Y-61145000D01*
X154205504Y-61145000D01*
X154129204Y-61165444D01*
X154120000Y-61170757D01*
X154120000Y-60552231D01*
X154119999Y-60552231D01*
X153982485Y-60579584D01*
X153982475Y-60579587D01*
X153818694Y-60647427D01*
X153671283Y-60745923D01*
X153671282Y-60745925D01*
X153545925Y-60871282D01*
X153545923Y-60871283D01*
X153447427Y-61018694D01*
X153379587Y-61182475D01*
X153379584Y-61182486D01*
X153345000Y-61356358D01*
X153345000Y-61620000D01*
X153945000Y-61620000D01*
X153945000Y-61870000D01*
X153345000Y-61870000D01*
X153345000Y-62133641D01*
X146505000Y-62133641D01*
X146505000Y-61870000D01*
X145905000Y-61870000D01*
X145905000Y-61620000D01*
X146505000Y-61620000D01*
X146505000Y-61356358D01*
X146470415Y-61182486D01*
X146470412Y-61182475D01*
X146402572Y-61018694D01*
X146304076Y-60871283D01*
X146178716Y-60745923D01*
X146031304Y-60647427D01*
X146031305Y-60647427D01*
X145867524Y-60579587D01*
X145867514Y-60579584D01*
X145730000Y-60552231D01*
X145730000Y-61170757D01*
X145720796Y-61165444D01*
X145644496Y-61145000D01*
X145565504Y-61145000D01*
X145489204Y-61165444D01*
X145480000Y-61170757D01*
X145480000Y-60552231D01*
X145479999Y-60552231D01*
X145342485Y-60579584D01*
X145342475Y-60579587D01*
X145178694Y-60647427D01*
X145031283Y-60745923D01*
X145031282Y-60745925D01*
X144905925Y-60871282D01*
X144905923Y-60871283D01*
X144807427Y-61018694D01*
X144739587Y-61182475D01*
X144739584Y-61182486D01*
X144705000Y-61356358D01*
X144705000Y-61620000D01*
X145305000Y-61620000D01*
X145305000Y-61870000D01*
X144705000Y-61870000D01*
X144705000Y-62133641D01*
X90483218Y-62133641D01*
X90620835Y-61801404D01*
X90623560Y-61795562D01*
X90801832Y-61453104D01*
X90805048Y-61447534D01*
X91012499Y-61121900D01*
X91016182Y-61116641D01*
X91251223Y-60810331D01*
X91255359Y-60805402D01*
X91471989Y-60568993D01*
X130299500Y-60568993D01*
X130308391Y-60613694D01*
X130326418Y-60704322D01*
X130326421Y-60704332D01*
X130379223Y-60831808D01*
X130412739Y-60881969D01*
X130455886Y-60946542D01*
X130553458Y-61044114D01*
X130668189Y-61120775D01*
X130668190Y-61120775D01*
X130668191Y-61120776D01*
X130776030Y-61165444D01*
X130795672Y-61173580D01*
X130931007Y-61200500D01*
X130931009Y-61200500D01*
X131068991Y-61200500D01*
X131068993Y-61200500D01*
X131204328Y-61173580D01*
X131331811Y-61120775D01*
X131446542Y-61044114D01*
X131544114Y-60946542D01*
X131620775Y-60831811D01*
X131673580Y-60704328D01*
X131700500Y-60568993D01*
X133299500Y-60568993D01*
X133308391Y-60613694D01*
X133326418Y-60704322D01*
X133326421Y-60704332D01*
X133379223Y-60831808D01*
X133412739Y-60881969D01*
X133455886Y-60946542D01*
X133553458Y-61044114D01*
X133668189Y-61120775D01*
X133668190Y-61120775D01*
X133668191Y-61120776D01*
X133776030Y-61165444D01*
X133795672Y-61173580D01*
X133931007Y-61200500D01*
X133931009Y-61200500D01*
X134068991Y-61200500D01*
X134068993Y-61200500D01*
X134204328Y-61173580D01*
X134331811Y-61120775D01*
X134446542Y-61044114D01*
X134544114Y-60946542D01*
X134620775Y-60831811D01*
X134673580Y-60704328D01*
X134700500Y-60568993D01*
X134700500Y-60431007D01*
X134673580Y-60295672D01*
X134620775Y-60168189D01*
X134544114Y-60053458D01*
X134446542Y-59955886D01*
X134331811Y-59879225D01*
X134331810Y-59879224D01*
X134331808Y-59879223D01*
X134204332Y-59826421D01*
X134204322Y-59826418D01*
X134107874Y-59807234D01*
X134068993Y-59799500D01*
X133931007Y-59799500D01*
X133892642Y-59807131D01*
X133795677Y-59826418D01*
X133795667Y-59826421D01*
X133668191Y-59879223D01*
X133553461Y-59955883D01*
X133455883Y-60053461D01*
X133379223Y-60168191D01*
X133326421Y-60295667D01*
X133326418Y-60295677D01*
X133303945Y-60408656D01*
X133299500Y-60431007D01*
X133299500Y-60568993D01*
X131700500Y-60568993D01*
X131700500Y-60431007D01*
X131673580Y-60295672D01*
X131620775Y-60168189D01*
X131544114Y-60053458D01*
X131446542Y-59955886D01*
X131331811Y-59879225D01*
X131331810Y-59879224D01*
X131331808Y-59879223D01*
X131204332Y-59826421D01*
X131204322Y-59826418D01*
X131107874Y-59807234D01*
X131068993Y-59799500D01*
X130931007Y-59799500D01*
X130892642Y-59807131D01*
X130795677Y-59826418D01*
X130795667Y-59826421D01*
X130668191Y-59879223D01*
X130553461Y-59955883D01*
X130455883Y-60053461D01*
X130379223Y-60168191D01*
X130326421Y-60295667D01*
X130326418Y-60295677D01*
X130303945Y-60408656D01*
X130299500Y-60431007D01*
X130299500Y-60568993D01*
X91471989Y-60568993D01*
X91516191Y-60520755D01*
X91520755Y-60516191D01*
X91805402Y-60255359D01*
X91810331Y-60251223D01*
X92116641Y-60016182D01*
X92121900Y-60012499D01*
X92447534Y-59805048D01*
X92453104Y-59801832D01*
X92795570Y-59623555D01*
X92801404Y-59620835D01*
X93158116Y-59473080D01*
X93164143Y-59470887D01*
X93532373Y-59354785D01*
X93538585Y-59353120D01*
X93915517Y-59269556D01*
X93921869Y-59268436D01*
X94304642Y-59218043D01*
X94311059Y-59217481D01*
X94698397Y-59200570D01*
X94701625Y-59200500D01*
X94765892Y-59200500D01*
X196634108Y-59200500D01*
X196698375Y-59200500D01*
X196701603Y-59200570D01*
G37*
G04 #@! TD.AperFunction*
M02*
