M48
; DRILL file {KiCad 8.0.0} date 2024-03-29T12:16:25-0400
; FORMAT={-:-/ absolute / metric / decimal}
; #@! TF.CreationDate,2024-03-29T12:16:25-04:00
; #@! TF.GenerationSoftware,Kicad,Pcbnew,8.0.0
; #@! TF.FileFunction,Plated,1,2,PTH
FMAT,2
METRIC
; #@! TA.AperFunction,Plated,PTH,ComponentDrill
T1C0.200
; #@! TA.AperFunction,Plated,PTH,ViaDrill
T2C0.300
; #@! TA.AperFunction,Plated,PTH,ViaDrill
T3C0.500
; #@! TA.AperFunction,Plated,PTH,ComponentDrill
T4C0.600
; #@! TA.AperFunction,Plated,PTH,ViaDrill
T5C0.750
%
G90
G05
T1
X138.275Y-98.43
X138.275Y-99.83
X138.975Y-97.73
X138.975Y-99.13
X138.975Y-100.53
X139.675Y-98.43
X139.675Y-99.83
X140.375Y-97.73
X140.375Y-99.13
X140.375Y-100.53
X141.075Y-98.43
X141.075Y-99.83
T2
X95.1Y-77.4
X95.8Y-68.8
X98.4Y-64.5
X101.0Y-75.5
X102.5Y-63.4
X102.8Y-79.9
X108.0Y-81.5
X122.8Y-82.9
X127.9Y-85.9
X128.9Y-82.8
X133.8Y-85.9
X135.8Y-103.7
X137.5Y-107.0
X140.6Y-105.7
X142.3Y-102.9
X143.0Y-107.0
X152.2Y-80.0
X157.9Y-70.4
X159.6Y-64.7
X163.5Y-80.4
X163.8Y-62.2
X164.3Y-68.5
X170.0Y-79.5
X173.5Y-72.6
X175.675Y-71.65
X176.4Y-73.6
X177.6Y-72.2
X178.2Y-64.7
X189.1Y-64.6
X192.8Y-66.3
X195.0Y-68.3
X195.0Y-76.9
X196.2Y-82.5
X196.3Y-63.4
X197.0Y-73.2
T3
X113.0Y-78.0
X115.0Y-78.0
X117.5Y-78.0
X120.5Y-78.0
X124.0Y-68.0
X134.137Y-72.15
X138.3Y-86.6
X139.1Y-91.7
X140.1Y-85.4
X140.75Y-67.25
X141.35Y-87.0
X144.605Y-69.0
X155.675Y-69.0
X161.175Y-76.0
X164.675Y-74.5
X168.675Y-64.65
X169.175Y-66.65
X170.675Y-76.65
X171.0Y-85.0
X173.75Y-77.0
X174.5Y-67.15
X175.2Y-64.7
X177.675Y-67.15
X179.75Y-82.5
X179.825Y-66.5
X181.175Y-67.5
X181.675Y-76.15
X182.175Y-73.0
X184.95Y-71.375
X185.5Y-83.0
X189.7Y-74.7
T5
X115.1Y-62.5
X127.438Y-70.05
X145.0Y-74.5
T4
G00X145.605Y-62.045
M15
G01X145.605Y-61.445
M16
G05
G00X145.605Y-66.475
M15
G01X145.605Y-65.375
M16
G05
G00X154.245Y-62.045
M15
G01X154.245Y-61.445
M16
G05
G00X154.245Y-66.475
M15
G01X154.245Y-65.375
M16
G05
M30
